M48
; DRILL file {KiCad (5.1.9-0-10_14)} date Tuesday, April 06, 2021 at 09:39:36 PM
; FORMAT={-:-/ absolute / metric / decimal}
; #@! TF.CreationDate,2021-04-06T21:39:36+02:00
; #@! TF.GenerationSoftware,Kicad,Pcbnew,(5.1.9-0-10_14)
FMAT,2
METRIC
T1C0.400
T2C0.800
T3C1.000
T4C1.100
%
G90
G05
T1
X162.052Y-82.804
X165.239Y-58.049
X165.354Y-69.85
X165.354Y-71.374
X165.645Y-82.786
X165.676Y-57.15
X166.116Y-78.74
X166.871Y-63.098
X166.878Y-55.626
X167.056Y-76.703
X167.64Y-68.326
X168.038Y-77.685
X168.402Y-57.15
X168.91Y-64.008
X169.164Y-78.994
X169.672Y-55.372
X170.434Y-63.246
X170.434Y-82.55
X171.45Y-52.07
X171.704Y-53.34
X175.006Y-82.296
X176.784Y-74.422
X177.8Y-77.724
X191.77Y-60.706
X199.898Y-65.532
X202.438Y-68.58
X207.555Y-90.424
X208.28Y-91.44
X209.296Y-70.358
X209.55Y-81.28
X212.344Y-94.996
T2
X186.69Y-54.07
X189.142Y-66.31
X189.142Y-68.31
X189.23Y-54.07
X191.142Y-66.31
X191.142Y-68.31
X193.142Y-66.31
X193.142Y-68.31
T3
X154.94Y-53.594
X154.94Y-56.134
X154.94Y-58.674
X154.94Y-61.214
X154.94Y-66.294
X154.94Y-68.834
X154.94Y-71.374
X154.94Y-73.914
X154.94Y-78.74
X154.94Y-81.28
X154.94Y-86.36
X154.94Y-88.9
X154.94Y-93.98
X154.94Y-96.52
X154.94Y-101.6
X154.94Y-104.14
X154.94Y-106.68
X154.94Y-109.22
X163.83Y-109.22
X163.83Y-111.76
X166.37Y-109.22
X166.37Y-111.76
X168.91Y-109.22
X168.91Y-111.76
X171.45Y-109.22
X171.45Y-111.76
X213.36Y-101.6
X213.36Y-104.14
X213.36Y-106.68
X213.36Y-109.22
X213.36Y-111.76
X215.9Y-53.34
X215.9Y-55.88
X215.9Y-60.96
X215.9Y-63.5
X215.9Y-66.04
X215.9Y-68.58
X215.9Y-73.66
X215.9Y-76.2
X215.9Y-78.74
X215.9Y-83.82
X215.9Y-86.36
X215.9Y-88.9
X215.9Y-91.44
X215.9Y-93.98
X215.9Y-101.6
X215.9Y-104.14
X215.9Y-106.68
X215.9Y-109.22
X215.9Y-111.76
T4
X180.34Y-53.34
X180.34Y-55.88
X180.34Y-58.42
X180.34Y-60.96
X180.34Y-63.5
X180.34Y-66.04
X180.34Y-68.58
X180.34Y-71.12
X180.34Y-73.66
X180.34Y-76.2
X180.34Y-78.74
X180.34Y-81.28
X180.34Y-83.82
X180.34Y-86.36
X180.34Y-88.9
X180.34Y-91.44
X180.34Y-93.98
X180.34Y-96.52
X180.34Y-99.06
X180.34Y-101.6
X180.34Y-104.14
X180.34Y-106.68
X180.34Y-109.22
X180.34Y-111.76
X182.88Y-99.06
X183.391Y-59.639
X183.391Y-62.179
X183.391Y-64.719
X183.391Y-67.259
X183.391Y-69.799
X185.42Y-99.06
X187.96Y-99.06
X190.5Y-99.06
X193.04Y-55.88
X193.04Y-99.06
X195.58Y-53.34
X195.58Y-55.88
X195.58Y-58.42
X195.58Y-60.96
X195.58Y-63.5
X195.58Y-66.04
X195.58Y-68.58
X195.58Y-71.12
X195.58Y-73.66
X195.58Y-76.2
X195.58Y-78.74
X195.58Y-81.28
X195.58Y-83.82
X195.58Y-86.36
X195.58Y-88.9
X195.58Y-91.44
X195.58Y-93.98
X195.58Y-96.52
X195.58Y-99.06
X195.58Y-101.6
X195.58Y-104.14
X195.58Y-106.68
X195.58Y-109.22
X195.58Y-111.76
T0
M30
