%TF.GenerationSoftware,KiCad,Pcbnew,(5.1.9-0-10_14)*%
%TF.CreationDate,2021-04-06T21:39:04+02:00*%
%TF.ProjectId,Silviaduino,53696c76-6961-4647-9569-6e6f2e6b6963,rev?*%
%TF.SameCoordinates,Original*%
%TF.FileFunction,Paste,Top*%
%TF.FilePolarity,Positive*%
%FSLAX46Y46*%
G04 Gerber Fmt 4.6, Leading zero omitted, Abs format (unit mm)*
G04 Created by KiCad (PCBNEW (5.1.9-0-10_14)) date 2021-04-06 21:39:04*
%MOMM*%
%LPD*%
G01*
G04 APERTURE LIST*
%ADD10C,0.100000*%
%ADD11R,0.900000X1.300000*%
%ADD12R,1.300000X0.900000*%
%ADD13R,0.800000X0.900000*%
G04 APERTURE END LIST*
%TO.C,R11*%
G36*
G01*
X202172000Y-67241000D02*
X202172000Y-66871000D01*
G75*
G02*
X202307000Y-66736000I135000J0D01*
G01*
X202577000Y-66736000D01*
G75*
G02*
X202712000Y-66871000I0J-135000D01*
G01*
X202712000Y-67241000D01*
G75*
G02*
X202577000Y-67376000I-135000J0D01*
G01*
X202307000Y-67376000D01*
G75*
G02*
X202172000Y-67241000I0J135000D01*
G01*
G37*
G36*
G01*
X201152000Y-67241000D02*
X201152000Y-66871000D01*
G75*
G02*
X201287000Y-66736000I135000J0D01*
G01*
X201557000Y-66736000D01*
G75*
G02*
X201692000Y-66871000I0J-135000D01*
G01*
X201692000Y-67241000D01*
G75*
G02*
X201557000Y-67376000I-135000J0D01*
G01*
X201287000Y-67376000D01*
G75*
G02*
X201152000Y-67241000I0J135000D01*
G01*
G37*
%TD*%
%TO.C,R10*%
G36*
G01*
X208776000Y-67241000D02*
X208776000Y-66871000D01*
G75*
G02*
X208911000Y-66736000I135000J0D01*
G01*
X209181000Y-66736000D01*
G75*
G02*
X209316000Y-66871000I0J-135000D01*
G01*
X209316000Y-67241000D01*
G75*
G02*
X209181000Y-67376000I-135000J0D01*
G01*
X208911000Y-67376000D01*
G75*
G02*
X208776000Y-67241000I0J135000D01*
G01*
G37*
G36*
G01*
X207756000Y-67241000D02*
X207756000Y-66871000D01*
G75*
G02*
X207891000Y-66736000I135000J0D01*
G01*
X208161000Y-66736000D01*
G75*
G02*
X208296000Y-66871000I0J-135000D01*
G01*
X208296000Y-67241000D01*
G75*
G02*
X208161000Y-67376000I-135000J0D01*
G01*
X207891000Y-67376000D01*
G75*
G02*
X207756000Y-67241000I0J135000D01*
G01*
G37*
%TD*%
%TO.C,R9*%
G36*
G01*
X202198000Y-60775000D02*
X202198000Y-61145000D01*
G75*
G02*
X202063000Y-61280000I-135000J0D01*
G01*
X201793000Y-61280000D01*
G75*
G02*
X201658000Y-61145000I0J135000D01*
G01*
X201658000Y-60775000D01*
G75*
G02*
X201793000Y-60640000I135000J0D01*
G01*
X202063000Y-60640000D01*
G75*
G02*
X202198000Y-60775000I0J-135000D01*
G01*
G37*
G36*
G01*
X203218000Y-60775000D02*
X203218000Y-61145000D01*
G75*
G02*
X203083000Y-61280000I-135000J0D01*
G01*
X202813000Y-61280000D01*
G75*
G02*
X202678000Y-61145000I0J135000D01*
G01*
X202678000Y-60775000D01*
G75*
G02*
X202813000Y-60640000I135000J0D01*
G01*
X203083000Y-60640000D01*
G75*
G02*
X203218000Y-60775000I0J-135000D01*
G01*
G37*
%TD*%
%TO.C,R8*%
G36*
G01*
X209054000Y-60775000D02*
X209054000Y-61145000D01*
G75*
G02*
X208919000Y-61280000I-135000J0D01*
G01*
X208649000Y-61280000D01*
G75*
G02*
X208514000Y-61145000I0J135000D01*
G01*
X208514000Y-60775000D01*
G75*
G02*
X208649000Y-60640000I135000J0D01*
G01*
X208919000Y-60640000D01*
G75*
G02*
X209054000Y-60775000I0J-135000D01*
G01*
G37*
G36*
G01*
X210074000Y-60775000D02*
X210074000Y-61145000D01*
G75*
G02*
X209939000Y-61280000I-135000J0D01*
G01*
X209669000Y-61280000D01*
G75*
G02*
X209534000Y-61145000I0J135000D01*
G01*
X209534000Y-60775000D01*
G75*
G02*
X209669000Y-60640000I135000J0D01*
G01*
X209939000Y-60640000D01*
G75*
G02*
X210074000Y-60775000I0J-135000D01*
G01*
G37*
%TD*%
%TO.C,R7*%
G36*
G01*
X159581000Y-68820000D02*
X159951000Y-68820000D01*
G75*
G02*
X160086000Y-68955000I0J-135000D01*
G01*
X160086000Y-69225000D01*
G75*
G02*
X159951000Y-69360000I-135000J0D01*
G01*
X159581000Y-69360000D01*
G75*
G02*
X159446000Y-69225000I0J135000D01*
G01*
X159446000Y-68955000D01*
G75*
G02*
X159581000Y-68820000I135000J0D01*
G01*
G37*
G36*
G01*
X159581000Y-67800000D02*
X159951000Y-67800000D01*
G75*
G02*
X160086000Y-67935000I0J-135000D01*
G01*
X160086000Y-68205000D01*
G75*
G02*
X159951000Y-68340000I-135000J0D01*
G01*
X159581000Y-68340000D01*
G75*
G02*
X159446000Y-68205000I0J135000D01*
G01*
X159446000Y-67935000D01*
G75*
G02*
X159581000Y-67800000I135000J0D01*
G01*
G37*
%TD*%
%TO.C,R6*%
G36*
G01*
X160343000Y-55614000D02*
X160713000Y-55614000D01*
G75*
G02*
X160848000Y-55749000I0J-135000D01*
G01*
X160848000Y-56019000D01*
G75*
G02*
X160713000Y-56154000I-135000J0D01*
G01*
X160343000Y-56154000D01*
G75*
G02*
X160208000Y-56019000I0J135000D01*
G01*
X160208000Y-55749000D01*
G75*
G02*
X160343000Y-55614000I135000J0D01*
G01*
G37*
G36*
G01*
X160343000Y-54594000D02*
X160713000Y-54594000D01*
G75*
G02*
X160848000Y-54729000I0J-135000D01*
G01*
X160848000Y-54999000D01*
G75*
G02*
X160713000Y-55134000I-135000J0D01*
G01*
X160343000Y-55134000D01*
G75*
G02*
X160208000Y-54999000I0J135000D01*
G01*
X160208000Y-54729000D01*
G75*
G02*
X160343000Y-54594000I135000J0D01*
G01*
G37*
%TD*%
%TO.C,R5*%
G36*
G01*
X159951000Y-70880000D02*
X159581000Y-70880000D01*
G75*
G02*
X159446000Y-70745000I0J135000D01*
G01*
X159446000Y-70475000D01*
G75*
G02*
X159581000Y-70340000I135000J0D01*
G01*
X159951000Y-70340000D01*
G75*
G02*
X160086000Y-70475000I0J-135000D01*
G01*
X160086000Y-70745000D01*
G75*
G02*
X159951000Y-70880000I-135000J0D01*
G01*
G37*
G36*
G01*
X159951000Y-71900000D02*
X159581000Y-71900000D01*
G75*
G02*
X159446000Y-71765000I0J135000D01*
G01*
X159446000Y-71495000D01*
G75*
G02*
X159581000Y-71360000I135000J0D01*
G01*
X159951000Y-71360000D01*
G75*
G02*
X160086000Y-71495000I0J-135000D01*
G01*
X160086000Y-71765000D01*
G75*
G02*
X159951000Y-71900000I-135000J0D01*
G01*
G37*
%TD*%
%TO.C,R4*%
G36*
G01*
X160713000Y-57164000D02*
X160343000Y-57164000D01*
G75*
G02*
X160208000Y-57029000I0J135000D01*
G01*
X160208000Y-56759000D01*
G75*
G02*
X160343000Y-56624000I135000J0D01*
G01*
X160713000Y-56624000D01*
G75*
G02*
X160848000Y-56759000I0J-135000D01*
G01*
X160848000Y-57029000D01*
G75*
G02*
X160713000Y-57164000I-135000J0D01*
G01*
G37*
G36*
G01*
X160713000Y-58184000D02*
X160343000Y-58184000D01*
G75*
G02*
X160208000Y-58049000I0J135000D01*
G01*
X160208000Y-57779000D01*
G75*
G02*
X160343000Y-57644000I135000J0D01*
G01*
X160713000Y-57644000D01*
G75*
G02*
X160848000Y-57779000I0J-135000D01*
G01*
X160848000Y-58049000D01*
G75*
G02*
X160713000Y-58184000I-135000J0D01*
G01*
G37*
%TD*%
%TO.C,R3*%
G36*
G01*
X173971800Y-80635600D02*
X173601800Y-80635600D01*
G75*
G02*
X173466800Y-80500600I0J135000D01*
G01*
X173466800Y-80230600D01*
G75*
G02*
X173601800Y-80095600I135000J0D01*
G01*
X173971800Y-80095600D01*
G75*
G02*
X174106800Y-80230600I0J-135000D01*
G01*
X174106800Y-80500600D01*
G75*
G02*
X173971800Y-80635600I-135000J0D01*
G01*
G37*
G36*
G01*
X173971800Y-81655600D02*
X173601800Y-81655600D01*
G75*
G02*
X173466800Y-81520600I0J135000D01*
G01*
X173466800Y-81250600D01*
G75*
G02*
X173601800Y-81115600I135000J0D01*
G01*
X173971800Y-81115600D01*
G75*
G02*
X174106800Y-81250600I0J-135000D01*
G01*
X174106800Y-81520600D01*
G75*
G02*
X173971800Y-81655600I-135000J0D01*
G01*
G37*
%TD*%
%TO.C,R2*%
G36*
G01*
X169857000Y-80608200D02*
X169487000Y-80608200D01*
G75*
G02*
X169352000Y-80473200I0J135000D01*
G01*
X169352000Y-80203200D01*
G75*
G02*
X169487000Y-80068200I135000J0D01*
G01*
X169857000Y-80068200D01*
G75*
G02*
X169992000Y-80203200I0J-135000D01*
G01*
X169992000Y-80473200D01*
G75*
G02*
X169857000Y-80608200I-135000J0D01*
G01*
G37*
G36*
G01*
X169857000Y-81628200D02*
X169487000Y-81628200D01*
G75*
G02*
X169352000Y-81493200I0J135000D01*
G01*
X169352000Y-81223200D01*
G75*
G02*
X169487000Y-81088200I135000J0D01*
G01*
X169857000Y-81088200D01*
G75*
G02*
X169992000Y-81223200I0J-135000D01*
G01*
X169992000Y-81493200D01*
G75*
G02*
X169857000Y-81628200I-135000J0D01*
G01*
G37*
%TD*%
%TO.C,R1*%
G36*
G01*
X165666000Y-80481200D02*
X165296000Y-80481200D01*
G75*
G02*
X165161000Y-80346200I0J135000D01*
G01*
X165161000Y-80076200D01*
G75*
G02*
X165296000Y-79941200I135000J0D01*
G01*
X165666000Y-79941200D01*
G75*
G02*
X165801000Y-80076200I0J-135000D01*
G01*
X165801000Y-80346200D01*
G75*
G02*
X165666000Y-80481200I-135000J0D01*
G01*
G37*
G36*
G01*
X165666000Y-81501200D02*
X165296000Y-81501200D01*
G75*
G02*
X165161000Y-81366200I0J135000D01*
G01*
X165161000Y-81096200D01*
G75*
G02*
X165296000Y-80961200I135000J0D01*
G01*
X165666000Y-80961200D01*
G75*
G02*
X165801000Y-81096200I0J-135000D01*
G01*
X165801000Y-81366200D01*
G75*
G02*
X165666000Y-81501200I-135000J0D01*
G01*
G37*
%TD*%
%TO.C,C9*%
G36*
G01*
X170010000Y-53060000D02*
X170350000Y-53060000D01*
G75*
G02*
X170490000Y-53200000I0J-140000D01*
G01*
X170490000Y-53480000D01*
G75*
G02*
X170350000Y-53620000I-140000J0D01*
G01*
X170010000Y-53620000D01*
G75*
G02*
X169870000Y-53480000I0J140000D01*
G01*
X169870000Y-53200000D01*
G75*
G02*
X170010000Y-53060000I140000J0D01*
G01*
G37*
G36*
G01*
X170010000Y-52100000D02*
X170350000Y-52100000D01*
G75*
G02*
X170490000Y-52240000I0J-140000D01*
G01*
X170490000Y-52520000D01*
G75*
G02*
X170350000Y-52660000I-140000J0D01*
G01*
X170010000Y-52660000D01*
G75*
G02*
X169870000Y-52520000I0J140000D01*
G01*
X169870000Y-52240000D01*
G75*
G02*
X170010000Y-52100000I140000J0D01*
G01*
G37*
%TD*%
%TO.C,C8*%
G36*
G01*
X157818000Y-70276000D02*
X158158000Y-70276000D01*
G75*
G02*
X158298000Y-70416000I0J-140000D01*
G01*
X158298000Y-70696000D01*
G75*
G02*
X158158000Y-70836000I-140000J0D01*
G01*
X157818000Y-70836000D01*
G75*
G02*
X157678000Y-70696000I0J140000D01*
G01*
X157678000Y-70416000D01*
G75*
G02*
X157818000Y-70276000I140000J0D01*
G01*
G37*
G36*
G01*
X157818000Y-69316000D02*
X158158000Y-69316000D01*
G75*
G02*
X158298000Y-69456000I0J-140000D01*
G01*
X158298000Y-69736000D01*
G75*
G02*
X158158000Y-69876000I-140000J0D01*
G01*
X157818000Y-69876000D01*
G75*
G02*
X157678000Y-69736000I0J140000D01*
G01*
X157678000Y-69456000D01*
G75*
G02*
X157818000Y-69316000I140000J0D01*
G01*
G37*
%TD*%
%TO.C,C7*%
G36*
G01*
X157564000Y-56588000D02*
X157904000Y-56588000D01*
G75*
G02*
X158044000Y-56728000I0J-140000D01*
G01*
X158044000Y-57008000D01*
G75*
G02*
X157904000Y-57148000I-140000J0D01*
G01*
X157564000Y-57148000D01*
G75*
G02*
X157424000Y-57008000I0J140000D01*
G01*
X157424000Y-56728000D01*
G75*
G02*
X157564000Y-56588000I140000J0D01*
G01*
G37*
G36*
G01*
X157564000Y-55628000D02*
X157904000Y-55628000D01*
G75*
G02*
X158044000Y-55768000I0J-140000D01*
G01*
X158044000Y-56048000D01*
G75*
G02*
X157904000Y-56188000I-140000J0D01*
G01*
X157564000Y-56188000D01*
G75*
G02*
X157424000Y-56048000I0J140000D01*
G01*
X157424000Y-55768000D01*
G75*
G02*
X157564000Y-55628000I140000J0D01*
G01*
G37*
%TD*%
%TO.C,C6*%
G36*
G01*
X212682000Y-86786000D02*
X213022000Y-86786000D01*
G75*
G02*
X213162000Y-86926000I0J-140000D01*
G01*
X213162000Y-87206000D01*
G75*
G02*
X213022000Y-87346000I-140000J0D01*
G01*
X212682000Y-87346000D01*
G75*
G02*
X212542000Y-87206000I0J140000D01*
G01*
X212542000Y-86926000D01*
G75*
G02*
X212682000Y-86786000I140000J0D01*
G01*
G37*
G36*
G01*
X212682000Y-85826000D02*
X213022000Y-85826000D01*
G75*
G02*
X213162000Y-85966000I0J-140000D01*
G01*
X213162000Y-86246000D01*
G75*
G02*
X213022000Y-86386000I-140000J0D01*
G01*
X212682000Y-86386000D01*
G75*
G02*
X212542000Y-86246000I0J140000D01*
G01*
X212542000Y-85966000D01*
G75*
G02*
X212682000Y-85826000I140000J0D01*
G01*
G37*
%TD*%
%TO.C,C5*%
G36*
G01*
X205940000Y-80180000D02*
X205940000Y-79840000D01*
G75*
G02*
X206080000Y-79700000I140000J0D01*
G01*
X206360000Y-79700000D01*
G75*
G02*
X206500000Y-79840000I0J-140000D01*
G01*
X206500000Y-80180000D01*
G75*
G02*
X206360000Y-80320000I-140000J0D01*
G01*
X206080000Y-80320000D01*
G75*
G02*
X205940000Y-80180000I0J140000D01*
G01*
G37*
G36*
G01*
X204980000Y-80180000D02*
X204980000Y-79840000D01*
G75*
G02*
X205120000Y-79700000I140000J0D01*
G01*
X205400000Y-79700000D01*
G75*
G02*
X205540000Y-79840000I0J-140000D01*
G01*
X205540000Y-80180000D01*
G75*
G02*
X205400000Y-80320000I-140000J0D01*
G01*
X205120000Y-80320000D01*
G75*
G02*
X204980000Y-80180000I0J140000D01*
G01*
G37*
%TD*%
%TO.C,C4*%
G36*
G01*
X172804000Y-53032000D02*
X173144000Y-53032000D01*
G75*
G02*
X173284000Y-53172000I0J-140000D01*
G01*
X173284000Y-53452000D01*
G75*
G02*
X173144000Y-53592000I-140000J0D01*
G01*
X172804000Y-53592000D01*
G75*
G02*
X172664000Y-53452000I0J140000D01*
G01*
X172664000Y-53172000D01*
G75*
G02*
X172804000Y-53032000I140000J0D01*
G01*
G37*
G36*
G01*
X172804000Y-52072000D02*
X173144000Y-52072000D01*
G75*
G02*
X173284000Y-52212000I0J-140000D01*
G01*
X173284000Y-52492000D01*
G75*
G02*
X173144000Y-52632000I-140000J0D01*
G01*
X172804000Y-52632000D01*
G75*
G02*
X172664000Y-52492000I0J140000D01*
G01*
X172664000Y-52212000D01*
G75*
G02*
X172804000Y-52072000I140000J0D01*
G01*
G37*
%TD*%
%TO.C,C3*%
G36*
G01*
X200830000Y-53915000D02*
X200490000Y-53915000D01*
G75*
G02*
X200350000Y-53775000I0J140000D01*
G01*
X200350000Y-53495000D01*
G75*
G02*
X200490000Y-53355000I140000J0D01*
G01*
X200830000Y-53355000D01*
G75*
G02*
X200970000Y-53495000I0J-140000D01*
G01*
X200970000Y-53775000D01*
G75*
G02*
X200830000Y-53915000I-140000J0D01*
G01*
G37*
G36*
G01*
X200830000Y-54875000D02*
X200490000Y-54875000D01*
G75*
G02*
X200350000Y-54735000I0J140000D01*
G01*
X200350000Y-54455000D01*
G75*
G02*
X200490000Y-54315000I140000J0D01*
G01*
X200830000Y-54315000D01*
G75*
G02*
X200970000Y-54455000I0J-140000D01*
G01*
X200970000Y-54735000D01*
G75*
G02*
X200830000Y-54875000I-140000J0D01*
G01*
G37*
%TD*%
%TO.C,C2*%
G36*
G01*
X211920000Y-54810000D02*
X212260000Y-54810000D01*
G75*
G02*
X212400000Y-54950000I0J-140000D01*
G01*
X212400000Y-55230000D01*
G75*
G02*
X212260000Y-55370000I-140000J0D01*
G01*
X211920000Y-55370000D01*
G75*
G02*
X211780000Y-55230000I0J140000D01*
G01*
X211780000Y-54950000D01*
G75*
G02*
X211920000Y-54810000I140000J0D01*
G01*
G37*
G36*
G01*
X211920000Y-53850000D02*
X212260000Y-53850000D01*
G75*
G02*
X212400000Y-53990000I0J-140000D01*
G01*
X212400000Y-54270000D01*
G75*
G02*
X212260000Y-54410000I-140000J0D01*
G01*
X211920000Y-54410000D01*
G75*
G02*
X211780000Y-54270000I0J140000D01*
G01*
X211780000Y-53990000D01*
G75*
G02*
X211920000Y-53850000I140000J0D01*
G01*
G37*
%TD*%
%TO.C,U6*%
G36*
G01*
X168154000Y-72400000D02*
X168404000Y-72400000D01*
G75*
G02*
X168529000Y-72525000I0J-125000D01*
G01*
X168529000Y-74175000D01*
G75*
G02*
X168404000Y-74300000I-125000J0D01*
G01*
X168154000Y-74300000D01*
G75*
G02*
X168029000Y-74175000I0J125000D01*
G01*
X168029000Y-72525000D01*
G75*
G02*
X168154000Y-72400000I125000J0D01*
G01*
G37*
G36*
G01*
X167504000Y-72400000D02*
X167754000Y-72400000D01*
G75*
G02*
X167879000Y-72525000I0J-125000D01*
G01*
X167879000Y-74175000D01*
G75*
G02*
X167754000Y-74300000I-125000J0D01*
G01*
X167504000Y-74300000D01*
G75*
G02*
X167379000Y-74175000I0J125000D01*
G01*
X167379000Y-72525000D01*
G75*
G02*
X167504000Y-72400000I125000J0D01*
G01*
G37*
G36*
G01*
X166854000Y-72400000D02*
X167104000Y-72400000D01*
G75*
G02*
X167229000Y-72525000I0J-125000D01*
G01*
X167229000Y-74175000D01*
G75*
G02*
X167104000Y-74300000I-125000J0D01*
G01*
X166854000Y-74300000D01*
G75*
G02*
X166729000Y-74175000I0J125000D01*
G01*
X166729000Y-72525000D01*
G75*
G02*
X166854000Y-72400000I125000J0D01*
G01*
G37*
G36*
G01*
X166204000Y-72400000D02*
X166454000Y-72400000D01*
G75*
G02*
X166579000Y-72525000I0J-125000D01*
G01*
X166579000Y-74175000D01*
G75*
G02*
X166454000Y-74300000I-125000J0D01*
G01*
X166204000Y-74300000D01*
G75*
G02*
X166079000Y-74175000I0J125000D01*
G01*
X166079000Y-72525000D01*
G75*
G02*
X166204000Y-72400000I125000J0D01*
G01*
G37*
G36*
G01*
X165554000Y-72400000D02*
X165804000Y-72400000D01*
G75*
G02*
X165929000Y-72525000I0J-125000D01*
G01*
X165929000Y-74175000D01*
G75*
G02*
X165804000Y-74300000I-125000J0D01*
G01*
X165554000Y-74300000D01*
G75*
G02*
X165429000Y-74175000I0J125000D01*
G01*
X165429000Y-72525000D01*
G75*
G02*
X165554000Y-72400000I125000J0D01*
G01*
G37*
G36*
G01*
X164904000Y-72400000D02*
X165154000Y-72400000D01*
G75*
G02*
X165279000Y-72525000I0J-125000D01*
G01*
X165279000Y-74175000D01*
G75*
G02*
X165154000Y-74300000I-125000J0D01*
G01*
X164904000Y-74300000D01*
G75*
G02*
X164779000Y-74175000I0J125000D01*
G01*
X164779000Y-72525000D01*
G75*
G02*
X164904000Y-72400000I125000J0D01*
G01*
G37*
G36*
G01*
X164254000Y-72400000D02*
X164504000Y-72400000D01*
G75*
G02*
X164629000Y-72525000I0J-125000D01*
G01*
X164629000Y-74175000D01*
G75*
G02*
X164504000Y-74300000I-125000J0D01*
G01*
X164254000Y-74300000D01*
G75*
G02*
X164129000Y-74175000I0J125000D01*
G01*
X164129000Y-72525000D01*
G75*
G02*
X164254000Y-72400000I125000J0D01*
G01*
G37*
G36*
G01*
X163604000Y-72400000D02*
X163854000Y-72400000D01*
G75*
G02*
X163979000Y-72525000I0J-125000D01*
G01*
X163979000Y-74175000D01*
G75*
G02*
X163854000Y-74300000I-125000J0D01*
G01*
X163604000Y-74300000D01*
G75*
G02*
X163479000Y-74175000I0J125000D01*
G01*
X163479000Y-72525000D01*
G75*
G02*
X163604000Y-72400000I125000J0D01*
G01*
G37*
G36*
G01*
X162954000Y-72400000D02*
X163204000Y-72400000D01*
G75*
G02*
X163329000Y-72525000I0J-125000D01*
G01*
X163329000Y-74175000D01*
G75*
G02*
X163204000Y-74300000I-125000J0D01*
G01*
X162954000Y-74300000D01*
G75*
G02*
X162829000Y-74175000I0J125000D01*
G01*
X162829000Y-72525000D01*
G75*
G02*
X162954000Y-72400000I125000J0D01*
G01*
G37*
G36*
G01*
X162304000Y-72400000D02*
X162554000Y-72400000D01*
G75*
G02*
X162679000Y-72525000I0J-125000D01*
G01*
X162679000Y-74175000D01*
G75*
G02*
X162554000Y-74300000I-125000J0D01*
G01*
X162304000Y-74300000D01*
G75*
G02*
X162179000Y-74175000I0J125000D01*
G01*
X162179000Y-72525000D01*
G75*
G02*
X162304000Y-72400000I125000J0D01*
G01*
G37*
G36*
G01*
X162304000Y-65400000D02*
X162554000Y-65400000D01*
G75*
G02*
X162679000Y-65525000I0J-125000D01*
G01*
X162679000Y-67175000D01*
G75*
G02*
X162554000Y-67300000I-125000J0D01*
G01*
X162304000Y-67300000D01*
G75*
G02*
X162179000Y-67175000I0J125000D01*
G01*
X162179000Y-65525000D01*
G75*
G02*
X162304000Y-65400000I125000J0D01*
G01*
G37*
G36*
G01*
X162954000Y-65400000D02*
X163204000Y-65400000D01*
G75*
G02*
X163329000Y-65525000I0J-125000D01*
G01*
X163329000Y-67175000D01*
G75*
G02*
X163204000Y-67300000I-125000J0D01*
G01*
X162954000Y-67300000D01*
G75*
G02*
X162829000Y-67175000I0J125000D01*
G01*
X162829000Y-65525000D01*
G75*
G02*
X162954000Y-65400000I125000J0D01*
G01*
G37*
G36*
G01*
X163604000Y-65400000D02*
X163854000Y-65400000D01*
G75*
G02*
X163979000Y-65525000I0J-125000D01*
G01*
X163979000Y-67175000D01*
G75*
G02*
X163854000Y-67300000I-125000J0D01*
G01*
X163604000Y-67300000D01*
G75*
G02*
X163479000Y-67175000I0J125000D01*
G01*
X163479000Y-65525000D01*
G75*
G02*
X163604000Y-65400000I125000J0D01*
G01*
G37*
G36*
G01*
X164254000Y-65400000D02*
X164504000Y-65400000D01*
G75*
G02*
X164629000Y-65525000I0J-125000D01*
G01*
X164629000Y-67175000D01*
G75*
G02*
X164504000Y-67300000I-125000J0D01*
G01*
X164254000Y-67300000D01*
G75*
G02*
X164129000Y-67175000I0J125000D01*
G01*
X164129000Y-65525000D01*
G75*
G02*
X164254000Y-65400000I125000J0D01*
G01*
G37*
G36*
G01*
X164904000Y-65400000D02*
X165154000Y-65400000D01*
G75*
G02*
X165279000Y-65525000I0J-125000D01*
G01*
X165279000Y-67175000D01*
G75*
G02*
X165154000Y-67300000I-125000J0D01*
G01*
X164904000Y-67300000D01*
G75*
G02*
X164779000Y-67175000I0J125000D01*
G01*
X164779000Y-65525000D01*
G75*
G02*
X164904000Y-65400000I125000J0D01*
G01*
G37*
G36*
G01*
X165554000Y-65400000D02*
X165804000Y-65400000D01*
G75*
G02*
X165929000Y-65525000I0J-125000D01*
G01*
X165929000Y-67175000D01*
G75*
G02*
X165804000Y-67300000I-125000J0D01*
G01*
X165554000Y-67300000D01*
G75*
G02*
X165429000Y-67175000I0J125000D01*
G01*
X165429000Y-65525000D01*
G75*
G02*
X165554000Y-65400000I125000J0D01*
G01*
G37*
G36*
G01*
X166204000Y-65400000D02*
X166454000Y-65400000D01*
G75*
G02*
X166579000Y-65525000I0J-125000D01*
G01*
X166579000Y-67175000D01*
G75*
G02*
X166454000Y-67300000I-125000J0D01*
G01*
X166204000Y-67300000D01*
G75*
G02*
X166079000Y-67175000I0J125000D01*
G01*
X166079000Y-65525000D01*
G75*
G02*
X166204000Y-65400000I125000J0D01*
G01*
G37*
G36*
G01*
X166854000Y-65400000D02*
X167104000Y-65400000D01*
G75*
G02*
X167229000Y-65525000I0J-125000D01*
G01*
X167229000Y-67175000D01*
G75*
G02*
X167104000Y-67300000I-125000J0D01*
G01*
X166854000Y-67300000D01*
G75*
G02*
X166729000Y-67175000I0J125000D01*
G01*
X166729000Y-65525000D01*
G75*
G02*
X166854000Y-65400000I125000J0D01*
G01*
G37*
G36*
G01*
X167504000Y-65400000D02*
X167754000Y-65400000D01*
G75*
G02*
X167879000Y-65525000I0J-125000D01*
G01*
X167879000Y-67175000D01*
G75*
G02*
X167754000Y-67300000I-125000J0D01*
G01*
X167504000Y-67300000D01*
G75*
G02*
X167379000Y-67175000I0J125000D01*
G01*
X167379000Y-65525000D01*
G75*
G02*
X167504000Y-65400000I125000J0D01*
G01*
G37*
G36*
G01*
X168154000Y-65400000D02*
X168404000Y-65400000D01*
G75*
G02*
X168529000Y-65525000I0J-125000D01*
G01*
X168529000Y-67175000D01*
G75*
G02*
X168404000Y-67300000I-125000J0D01*
G01*
X168154000Y-67300000D01*
G75*
G02*
X168029000Y-67175000I0J125000D01*
G01*
X168029000Y-65525000D01*
G75*
G02*
X168154000Y-65400000I125000J0D01*
G01*
G37*
%TD*%
%TO.C,U5*%
G36*
G01*
X168143000Y-58994000D02*
X168393000Y-58994000D01*
G75*
G02*
X168518000Y-59119000I0J-125000D01*
G01*
X168518000Y-60769000D01*
G75*
G02*
X168393000Y-60894000I-125000J0D01*
G01*
X168143000Y-60894000D01*
G75*
G02*
X168018000Y-60769000I0J125000D01*
G01*
X168018000Y-59119000D01*
G75*
G02*
X168143000Y-58994000I125000J0D01*
G01*
G37*
G36*
G01*
X167493000Y-58994000D02*
X167743000Y-58994000D01*
G75*
G02*
X167868000Y-59119000I0J-125000D01*
G01*
X167868000Y-60769000D01*
G75*
G02*
X167743000Y-60894000I-125000J0D01*
G01*
X167493000Y-60894000D01*
G75*
G02*
X167368000Y-60769000I0J125000D01*
G01*
X167368000Y-59119000D01*
G75*
G02*
X167493000Y-58994000I125000J0D01*
G01*
G37*
G36*
G01*
X166843000Y-58994000D02*
X167093000Y-58994000D01*
G75*
G02*
X167218000Y-59119000I0J-125000D01*
G01*
X167218000Y-60769000D01*
G75*
G02*
X167093000Y-60894000I-125000J0D01*
G01*
X166843000Y-60894000D01*
G75*
G02*
X166718000Y-60769000I0J125000D01*
G01*
X166718000Y-59119000D01*
G75*
G02*
X166843000Y-58994000I125000J0D01*
G01*
G37*
G36*
G01*
X166193000Y-58994000D02*
X166443000Y-58994000D01*
G75*
G02*
X166568000Y-59119000I0J-125000D01*
G01*
X166568000Y-60769000D01*
G75*
G02*
X166443000Y-60894000I-125000J0D01*
G01*
X166193000Y-60894000D01*
G75*
G02*
X166068000Y-60769000I0J125000D01*
G01*
X166068000Y-59119000D01*
G75*
G02*
X166193000Y-58994000I125000J0D01*
G01*
G37*
G36*
G01*
X165543000Y-58994000D02*
X165793000Y-58994000D01*
G75*
G02*
X165918000Y-59119000I0J-125000D01*
G01*
X165918000Y-60769000D01*
G75*
G02*
X165793000Y-60894000I-125000J0D01*
G01*
X165543000Y-60894000D01*
G75*
G02*
X165418000Y-60769000I0J125000D01*
G01*
X165418000Y-59119000D01*
G75*
G02*
X165543000Y-58994000I125000J0D01*
G01*
G37*
G36*
G01*
X164893000Y-58994000D02*
X165143000Y-58994000D01*
G75*
G02*
X165268000Y-59119000I0J-125000D01*
G01*
X165268000Y-60769000D01*
G75*
G02*
X165143000Y-60894000I-125000J0D01*
G01*
X164893000Y-60894000D01*
G75*
G02*
X164768000Y-60769000I0J125000D01*
G01*
X164768000Y-59119000D01*
G75*
G02*
X164893000Y-58994000I125000J0D01*
G01*
G37*
G36*
G01*
X164243000Y-58994000D02*
X164493000Y-58994000D01*
G75*
G02*
X164618000Y-59119000I0J-125000D01*
G01*
X164618000Y-60769000D01*
G75*
G02*
X164493000Y-60894000I-125000J0D01*
G01*
X164243000Y-60894000D01*
G75*
G02*
X164118000Y-60769000I0J125000D01*
G01*
X164118000Y-59119000D01*
G75*
G02*
X164243000Y-58994000I125000J0D01*
G01*
G37*
G36*
G01*
X163593000Y-58994000D02*
X163843000Y-58994000D01*
G75*
G02*
X163968000Y-59119000I0J-125000D01*
G01*
X163968000Y-60769000D01*
G75*
G02*
X163843000Y-60894000I-125000J0D01*
G01*
X163593000Y-60894000D01*
G75*
G02*
X163468000Y-60769000I0J125000D01*
G01*
X163468000Y-59119000D01*
G75*
G02*
X163593000Y-58994000I125000J0D01*
G01*
G37*
G36*
G01*
X162943000Y-58994000D02*
X163193000Y-58994000D01*
G75*
G02*
X163318000Y-59119000I0J-125000D01*
G01*
X163318000Y-60769000D01*
G75*
G02*
X163193000Y-60894000I-125000J0D01*
G01*
X162943000Y-60894000D01*
G75*
G02*
X162818000Y-60769000I0J125000D01*
G01*
X162818000Y-59119000D01*
G75*
G02*
X162943000Y-58994000I125000J0D01*
G01*
G37*
G36*
G01*
X162293000Y-58994000D02*
X162543000Y-58994000D01*
G75*
G02*
X162668000Y-59119000I0J-125000D01*
G01*
X162668000Y-60769000D01*
G75*
G02*
X162543000Y-60894000I-125000J0D01*
G01*
X162293000Y-60894000D01*
G75*
G02*
X162168000Y-60769000I0J125000D01*
G01*
X162168000Y-59119000D01*
G75*
G02*
X162293000Y-58994000I125000J0D01*
G01*
G37*
G36*
G01*
X162293000Y-51994000D02*
X162543000Y-51994000D01*
G75*
G02*
X162668000Y-52119000I0J-125000D01*
G01*
X162668000Y-53769000D01*
G75*
G02*
X162543000Y-53894000I-125000J0D01*
G01*
X162293000Y-53894000D01*
G75*
G02*
X162168000Y-53769000I0J125000D01*
G01*
X162168000Y-52119000D01*
G75*
G02*
X162293000Y-51994000I125000J0D01*
G01*
G37*
G36*
G01*
X162943000Y-51994000D02*
X163193000Y-51994000D01*
G75*
G02*
X163318000Y-52119000I0J-125000D01*
G01*
X163318000Y-53769000D01*
G75*
G02*
X163193000Y-53894000I-125000J0D01*
G01*
X162943000Y-53894000D01*
G75*
G02*
X162818000Y-53769000I0J125000D01*
G01*
X162818000Y-52119000D01*
G75*
G02*
X162943000Y-51994000I125000J0D01*
G01*
G37*
G36*
G01*
X163593000Y-51994000D02*
X163843000Y-51994000D01*
G75*
G02*
X163968000Y-52119000I0J-125000D01*
G01*
X163968000Y-53769000D01*
G75*
G02*
X163843000Y-53894000I-125000J0D01*
G01*
X163593000Y-53894000D01*
G75*
G02*
X163468000Y-53769000I0J125000D01*
G01*
X163468000Y-52119000D01*
G75*
G02*
X163593000Y-51994000I125000J0D01*
G01*
G37*
G36*
G01*
X164243000Y-51994000D02*
X164493000Y-51994000D01*
G75*
G02*
X164618000Y-52119000I0J-125000D01*
G01*
X164618000Y-53769000D01*
G75*
G02*
X164493000Y-53894000I-125000J0D01*
G01*
X164243000Y-53894000D01*
G75*
G02*
X164118000Y-53769000I0J125000D01*
G01*
X164118000Y-52119000D01*
G75*
G02*
X164243000Y-51994000I125000J0D01*
G01*
G37*
G36*
G01*
X164893000Y-51994000D02*
X165143000Y-51994000D01*
G75*
G02*
X165268000Y-52119000I0J-125000D01*
G01*
X165268000Y-53769000D01*
G75*
G02*
X165143000Y-53894000I-125000J0D01*
G01*
X164893000Y-53894000D01*
G75*
G02*
X164768000Y-53769000I0J125000D01*
G01*
X164768000Y-52119000D01*
G75*
G02*
X164893000Y-51994000I125000J0D01*
G01*
G37*
G36*
G01*
X165543000Y-51994000D02*
X165793000Y-51994000D01*
G75*
G02*
X165918000Y-52119000I0J-125000D01*
G01*
X165918000Y-53769000D01*
G75*
G02*
X165793000Y-53894000I-125000J0D01*
G01*
X165543000Y-53894000D01*
G75*
G02*
X165418000Y-53769000I0J125000D01*
G01*
X165418000Y-52119000D01*
G75*
G02*
X165543000Y-51994000I125000J0D01*
G01*
G37*
G36*
G01*
X166193000Y-51994000D02*
X166443000Y-51994000D01*
G75*
G02*
X166568000Y-52119000I0J-125000D01*
G01*
X166568000Y-53769000D01*
G75*
G02*
X166443000Y-53894000I-125000J0D01*
G01*
X166193000Y-53894000D01*
G75*
G02*
X166068000Y-53769000I0J125000D01*
G01*
X166068000Y-52119000D01*
G75*
G02*
X166193000Y-51994000I125000J0D01*
G01*
G37*
G36*
G01*
X166843000Y-51994000D02*
X167093000Y-51994000D01*
G75*
G02*
X167218000Y-52119000I0J-125000D01*
G01*
X167218000Y-53769000D01*
G75*
G02*
X167093000Y-53894000I-125000J0D01*
G01*
X166843000Y-53894000D01*
G75*
G02*
X166718000Y-53769000I0J125000D01*
G01*
X166718000Y-52119000D01*
G75*
G02*
X166843000Y-51994000I125000J0D01*
G01*
G37*
G36*
G01*
X167493000Y-51994000D02*
X167743000Y-51994000D01*
G75*
G02*
X167868000Y-52119000I0J-125000D01*
G01*
X167868000Y-53769000D01*
G75*
G02*
X167743000Y-53894000I-125000J0D01*
G01*
X167493000Y-53894000D01*
G75*
G02*
X167368000Y-53769000I0J125000D01*
G01*
X167368000Y-52119000D01*
G75*
G02*
X167493000Y-51994000I125000J0D01*
G01*
G37*
G36*
G01*
X168143000Y-51994000D02*
X168393000Y-51994000D01*
G75*
G02*
X168518000Y-52119000I0J-125000D01*
G01*
X168518000Y-53769000D01*
G75*
G02*
X168393000Y-53894000I-125000J0D01*
G01*
X168143000Y-53894000D01*
G75*
G02*
X168018000Y-53769000I0J125000D01*
G01*
X168018000Y-52119000D01*
G75*
G02*
X168143000Y-51994000I125000J0D01*
G01*
G37*
%TD*%
%TO.C,U4*%
G36*
G01*
X209365000Y-83335000D02*
X209365000Y-83035000D01*
G75*
G02*
X209515000Y-82885000I150000J0D01*
G01*
X211265000Y-82885000D01*
G75*
G02*
X211415000Y-83035000I0J-150000D01*
G01*
X211415000Y-83335000D01*
G75*
G02*
X211265000Y-83485000I-150000J0D01*
G01*
X209515000Y-83485000D01*
G75*
G02*
X209365000Y-83335000I0J150000D01*
G01*
G37*
G36*
G01*
X209365000Y-84605000D02*
X209365000Y-84305000D01*
G75*
G02*
X209515000Y-84155000I150000J0D01*
G01*
X211265000Y-84155000D01*
G75*
G02*
X211415000Y-84305000I0J-150000D01*
G01*
X211415000Y-84605000D01*
G75*
G02*
X211265000Y-84755000I-150000J0D01*
G01*
X209515000Y-84755000D01*
G75*
G02*
X209365000Y-84605000I0J150000D01*
G01*
G37*
G36*
G01*
X209365000Y-85875000D02*
X209365000Y-85575000D01*
G75*
G02*
X209515000Y-85425000I150000J0D01*
G01*
X211265000Y-85425000D01*
G75*
G02*
X211415000Y-85575000I0J-150000D01*
G01*
X211415000Y-85875000D01*
G75*
G02*
X211265000Y-86025000I-150000J0D01*
G01*
X209515000Y-86025000D01*
G75*
G02*
X209365000Y-85875000I0J150000D01*
G01*
G37*
G36*
G01*
X209365000Y-87145000D02*
X209365000Y-86845000D01*
G75*
G02*
X209515000Y-86695000I150000J0D01*
G01*
X211265000Y-86695000D01*
G75*
G02*
X211415000Y-86845000I0J-150000D01*
G01*
X211415000Y-87145000D01*
G75*
G02*
X211265000Y-87295000I-150000J0D01*
G01*
X209515000Y-87295000D01*
G75*
G02*
X209365000Y-87145000I0J150000D01*
G01*
G37*
G36*
G01*
X209365000Y-88415000D02*
X209365000Y-88115000D01*
G75*
G02*
X209515000Y-87965000I150000J0D01*
G01*
X211265000Y-87965000D01*
G75*
G02*
X211415000Y-88115000I0J-150000D01*
G01*
X211415000Y-88415000D01*
G75*
G02*
X211265000Y-88565000I-150000J0D01*
G01*
X209515000Y-88565000D01*
G75*
G02*
X209365000Y-88415000I0J150000D01*
G01*
G37*
G36*
G01*
X209365000Y-89685000D02*
X209365000Y-89385000D01*
G75*
G02*
X209515000Y-89235000I150000J0D01*
G01*
X211265000Y-89235000D01*
G75*
G02*
X211415000Y-89385000I0J-150000D01*
G01*
X211415000Y-89685000D01*
G75*
G02*
X211265000Y-89835000I-150000J0D01*
G01*
X209515000Y-89835000D01*
G75*
G02*
X209365000Y-89685000I0J150000D01*
G01*
G37*
G36*
G01*
X209365000Y-90955000D02*
X209365000Y-90655000D01*
G75*
G02*
X209515000Y-90505000I150000J0D01*
G01*
X211265000Y-90505000D01*
G75*
G02*
X211415000Y-90655000I0J-150000D01*
G01*
X211415000Y-90955000D01*
G75*
G02*
X211265000Y-91105000I-150000J0D01*
G01*
X209515000Y-91105000D01*
G75*
G02*
X209365000Y-90955000I0J150000D01*
G01*
G37*
G36*
G01*
X209365000Y-92225000D02*
X209365000Y-91925000D01*
G75*
G02*
X209515000Y-91775000I150000J0D01*
G01*
X211265000Y-91775000D01*
G75*
G02*
X211415000Y-91925000I0J-150000D01*
G01*
X211415000Y-92225000D01*
G75*
G02*
X211265000Y-92375000I-150000J0D01*
G01*
X209515000Y-92375000D01*
G75*
G02*
X209365000Y-92225000I0J150000D01*
G01*
G37*
G36*
G01*
X200065000Y-92225000D02*
X200065000Y-91925000D01*
G75*
G02*
X200215000Y-91775000I150000J0D01*
G01*
X201965000Y-91775000D01*
G75*
G02*
X202115000Y-91925000I0J-150000D01*
G01*
X202115000Y-92225000D01*
G75*
G02*
X201965000Y-92375000I-150000J0D01*
G01*
X200215000Y-92375000D01*
G75*
G02*
X200065000Y-92225000I0J150000D01*
G01*
G37*
G36*
G01*
X200065000Y-90955000D02*
X200065000Y-90655000D01*
G75*
G02*
X200215000Y-90505000I150000J0D01*
G01*
X201965000Y-90505000D01*
G75*
G02*
X202115000Y-90655000I0J-150000D01*
G01*
X202115000Y-90955000D01*
G75*
G02*
X201965000Y-91105000I-150000J0D01*
G01*
X200215000Y-91105000D01*
G75*
G02*
X200065000Y-90955000I0J150000D01*
G01*
G37*
G36*
G01*
X200065000Y-89685000D02*
X200065000Y-89385000D01*
G75*
G02*
X200215000Y-89235000I150000J0D01*
G01*
X201965000Y-89235000D01*
G75*
G02*
X202115000Y-89385000I0J-150000D01*
G01*
X202115000Y-89685000D01*
G75*
G02*
X201965000Y-89835000I-150000J0D01*
G01*
X200215000Y-89835000D01*
G75*
G02*
X200065000Y-89685000I0J150000D01*
G01*
G37*
G36*
G01*
X200065000Y-88415000D02*
X200065000Y-88115000D01*
G75*
G02*
X200215000Y-87965000I150000J0D01*
G01*
X201965000Y-87965000D01*
G75*
G02*
X202115000Y-88115000I0J-150000D01*
G01*
X202115000Y-88415000D01*
G75*
G02*
X201965000Y-88565000I-150000J0D01*
G01*
X200215000Y-88565000D01*
G75*
G02*
X200065000Y-88415000I0J150000D01*
G01*
G37*
G36*
G01*
X200065000Y-87145000D02*
X200065000Y-86845000D01*
G75*
G02*
X200215000Y-86695000I150000J0D01*
G01*
X201965000Y-86695000D01*
G75*
G02*
X202115000Y-86845000I0J-150000D01*
G01*
X202115000Y-87145000D01*
G75*
G02*
X201965000Y-87295000I-150000J0D01*
G01*
X200215000Y-87295000D01*
G75*
G02*
X200065000Y-87145000I0J150000D01*
G01*
G37*
G36*
G01*
X200065000Y-85875000D02*
X200065000Y-85575000D01*
G75*
G02*
X200215000Y-85425000I150000J0D01*
G01*
X201965000Y-85425000D01*
G75*
G02*
X202115000Y-85575000I0J-150000D01*
G01*
X202115000Y-85875000D01*
G75*
G02*
X201965000Y-86025000I-150000J0D01*
G01*
X200215000Y-86025000D01*
G75*
G02*
X200065000Y-85875000I0J150000D01*
G01*
G37*
G36*
G01*
X200065000Y-84605000D02*
X200065000Y-84305000D01*
G75*
G02*
X200215000Y-84155000I150000J0D01*
G01*
X201965000Y-84155000D01*
G75*
G02*
X202115000Y-84305000I0J-150000D01*
G01*
X202115000Y-84605000D01*
G75*
G02*
X201965000Y-84755000I-150000J0D01*
G01*
X200215000Y-84755000D01*
G75*
G02*
X200065000Y-84605000I0J150000D01*
G01*
G37*
G36*
G01*
X200065000Y-83335000D02*
X200065000Y-83035000D01*
G75*
G02*
X200215000Y-82885000I150000J0D01*
G01*
X201965000Y-82885000D01*
G75*
G02*
X202115000Y-83035000I0J-150000D01*
G01*
X202115000Y-83335000D01*
G75*
G02*
X201965000Y-83485000I-150000J0D01*
G01*
X200215000Y-83485000D01*
G75*
G02*
X200065000Y-83335000I0J150000D01*
G01*
G37*
%TD*%
D10*
%TO.C,U2*%
G36*
X172869500Y-59704000D02*
G01*
X172869500Y-56579000D01*
X173286000Y-56579000D01*
X173286000Y-55104000D01*
X174186000Y-55104000D01*
X174186000Y-56579000D01*
X174602500Y-56579000D01*
X174602500Y-59704000D01*
X172869500Y-59704000D01*
G37*
D11*
X172236000Y-55754000D03*
X175236000Y-55754000D03*
%TD*%
D10*
%TO.C,U1*%
G36*
X208040000Y-55476500D02*
G01*
X204915000Y-55476500D01*
X204915000Y-55060000D01*
X203440000Y-55060000D01*
X203440000Y-54160000D01*
X204915000Y-54160000D01*
X204915000Y-53743500D01*
X208040000Y-53743500D01*
X208040000Y-55476500D01*
G37*
D12*
X204090000Y-56110000D03*
X204090000Y-53110000D03*
%TD*%
D13*
%TO.C,Q5*%
X202370000Y-64842000D03*
X201420000Y-62842000D03*
X203320000Y-62842000D03*
%TD*%
%TO.C,Q4*%
X209132000Y-64842000D03*
X208182000Y-62842000D03*
X210082000Y-62842000D03*
%TD*%
%TO.C,Q3*%
X172847000Y-85836000D03*
X171897000Y-83836000D03*
X173797000Y-83836000D03*
%TD*%
%TO.C,Q2*%
X168722000Y-85820000D03*
X167772000Y-83820000D03*
X169672000Y-83820000D03*
%TD*%
%TO.C,Q1*%
X164592000Y-85836000D03*
X163642000Y-83836000D03*
X165542000Y-83836000D03*
%TD*%
%TO.C,D3*%
G36*
G01*
X172163450Y-80803100D02*
X171650950Y-80803100D01*
G75*
G02*
X171432200Y-80584350I0J218750D01*
G01*
X171432200Y-80146850D01*
G75*
G02*
X171650950Y-79928100I218750J0D01*
G01*
X172163450Y-79928100D01*
G75*
G02*
X172382200Y-80146850I0J-218750D01*
G01*
X172382200Y-80584350D01*
G75*
G02*
X172163450Y-80803100I-218750J0D01*
G01*
G37*
G36*
G01*
X172163450Y-82378100D02*
X171650950Y-82378100D01*
G75*
G02*
X171432200Y-82159350I0J218750D01*
G01*
X171432200Y-81721850D01*
G75*
G02*
X171650950Y-81503100I218750J0D01*
G01*
X172163450Y-81503100D01*
G75*
G02*
X172382200Y-81721850I0J-218750D01*
G01*
X172382200Y-82159350D01*
G75*
G02*
X172163450Y-82378100I-218750J0D01*
G01*
G37*
%TD*%
%TO.C,D2*%
G36*
G01*
X168023250Y-80777500D02*
X167510750Y-80777500D01*
G75*
G02*
X167292000Y-80558750I0J218750D01*
G01*
X167292000Y-80121250D01*
G75*
G02*
X167510750Y-79902500I218750J0D01*
G01*
X168023250Y-79902500D01*
G75*
G02*
X168242000Y-80121250I0J-218750D01*
G01*
X168242000Y-80558750D01*
G75*
G02*
X168023250Y-80777500I-218750J0D01*
G01*
G37*
G36*
G01*
X168023250Y-82352500D02*
X167510750Y-82352500D01*
G75*
G02*
X167292000Y-82133750I0J218750D01*
G01*
X167292000Y-81696250D01*
G75*
G02*
X167510750Y-81477500I218750J0D01*
G01*
X168023250Y-81477500D01*
G75*
G02*
X168242000Y-81696250I0J-218750D01*
G01*
X168242000Y-82133750D01*
G75*
G02*
X168023250Y-82352500I-218750J0D01*
G01*
G37*
%TD*%
%TO.C,D1*%
G36*
G01*
X163832250Y-80676000D02*
X163319750Y-80676000D01*
G75*
G02*
X163101000Y-80457250I0J218750D01*
G01*
X163101000Y-80019750D01*
G75*
G02*
X163319750Y-79801000I218750J0D01*
G01*
X163832250Y-79801000D01*
G75*
G02*
X164051000Y-80019750I0J-218750D01*
G01*
X164051000Y-80457250D01*
G75*
G02*
X163832250Y-80676000I-218750J0D01*
G01*
G37*
G36*
G01*
X163832250Y-82251000D02*
X163319750Y-82251000D01*
G75*
G02*
X163101000Y-82032250I0J218750D01*
G01*
X163101000Y-81594750D01*
G75*
G02*
X163319750Y-81376000I218750J0D01*
G01*
X163832250Y-81376000D01*
G75*
G02*
X164051000Y-81594750I0J-218750D01*
G01*
X164051000Y-82032250D01*
G75*
G02*
X163832250Y-82251000I-218750J0D01*
G01*
G37*
%TD*%
M02*
