%TF.GenerationSoftware,KiCad,Pcbnew,(5.1.9-0-10_14)*%
%TF.CreationDate,2021-11-19T16:31:04+01:00*%
%TF.ProjectId,Silviaduino,53696c76-6961-4647-9569-6e6f2e6b6963,rev?*%
%TF.SameCoordinates,Original*%
%TF.FileFunction,Soldermask,Bot*%
%TF.FilePolarity,Negative*%
%FSLAX46Y46*%
G04 Gerber Fmt 4.6, Leading zero omitted, Abs format (unit mm)*
G04 Created by KiCad (PCBNEW (5.1.9-0-10_14)) date 2021-11-19 16:31:04*
%MOMM*%
%LPD*%
G01*
G04 APERTURE LIST*
%ADD10C,3.800000*%
%ADD11O,1.905000X2.000000*%
%ADD12R,1.905000X2.000000*%
%ADD13O,3.500000X3.500000*%
%ADD14O,1.400000X1.400000*%
%ADD15C,1.400000*%
%ADD16O,1.700000X1.700000*%
%ADD17R,1.700000X1.700000*%
G04 APERTURE END LIST*
D10*
%TO.C,U4*%
X132715000Y-105156000D03*
X154305000Y-105156000D03*
X132715000Y-43180000D03*
X154305000Y-43180000D03*
%TD*%
D11*
%TO.C,U1*%
X138938000Y-111252000D03*
X141478000Y-111252000D03*
D12*
X144018000Y-111252000D03*
D13*
X141478000Y-127912000D03*
%TD*%
D14*
%TO.C,R15*%
X163068000Y-48260000D03*
D15*
X163068000Y-43180000D03*
%TD*%
D16*
%TO.C,J12*%
X133096000Y-129032000D03*
D17*
X133096000Y-126492000D03*
%TD*%
D16*
%TO.C,J11*%
X177038000Y-102870000D03*
X177038000Y-100330000D03*
X177038000Y-97790000D03*
D17*
X177038000Y-95250000D03*
%TD*%
D16*
%TO.C,J10*%
X170180000Y-119888000D03*
X167640000Y-119888000D03*
X170180000Y-117348000D03*
X167640000Y-117348000D03*
X170180000Y-114808000D03*
X167640000Y-114808000D03*
X170180000Y-112268000D03*
X167640000Y-112268000D03*
X170180000Y-109728000D03*
D17*
X167640000Y-109728000D03*
%TD*%
D16*
%TO.C,J9*%
X176784000Y-117348000D03*
X176784000Y-114808000D03*
X176784000Y-112268000D03*
X176784000Y-109728000D03*
D17*
X176784000Y-107188000D03*
%TD*%
D16*
%TO.C,J8*%
X176784000Y-129032000D03*
X176784000Y-126492000D03*
X176784000Y-123952000D03*
D17*
X176784000Y-121412000D03*
%TD*%
D16*
%TO.C,J7*%
X177546000Y-64262000D03*
X177546000Y-61722000D03*
D17*
X177546000Y-59182000D03*
%TD*%
D16*
%TO.C,J6*%
X161290000Y-86360000D03*
X161290000Y-83820000D03*
X161290000Y-81280000D03*
X161290000Y-78740000D03*
X161290000Y-76200000D03*
X161290000Y-73660000D03*
D17*
X161290000Y-71120000D03*
%TD*%
D16*
%TO.C,J5*%
X177292000Y-90678000D03*
D17*
X177292000Y-88138000D03*
%TD*%
D16*
%TO.C,J4*%
X177292000Y-83058000D03*
D17*
X177292000Y-80518000D03*
%TD*%
D16*
%TO.C,J3*%
X177546000Y-75946000D03*
D17*
X177546000Y-73406000D03*
%TD*%
D16*
%TO.C,J2*%
X177546000Y-54356000D03*
D17*
X177546000Y-51816000D03*
%TD*%
D16*
%TO.C,J1*%
X177546000Y-46990000D03*
D17*
X177546000Y-44450000D03*
%TD*%
M02*
