%TF.GenerationSoftware,KiCad,Pcbnew,(5.1.9-0-10_14)*%
%TF.CreationDate,2021-04-06T21:39:04+02:00*%
%TF.ProjectId,Silviaduino,53696c76-6961-4647-9569-6e6f2e6b6963,rev?*%
%TF.SameCoordinates,Original*%
%TF.FileFunction,Copper,L2,Inr*%
%TF.FilePolarity,Positive*%
%FSLAX46Y46*%
G04 Gerber Fmt 4.6, Leading zero omitted, Abs format (unit mm)*
G04 Created by KiCad (PCBNEW (5.1.9-0-10_14)) date 2021-04-06 21:39:04*
%MOMM*%
%LPD*%
G01*
G04 APERTURE LIST*
%TA.AperFunction,ComponentPad*%
%ADD10O,1.700000X1.700000*%
%TD*%
%TA.AperFunction,ComponentPad*%
%ADD11R,1.700000X1.700000*%
%TD*%
%TA.AperFunction,ComponentPad*%
%ADD12C,1.300000*%
%TD*%
%TA.AperFunction,ComponentPad*%
%ADD13C,1.600000*%
%TD*%
%TA.AperFunction,ComponentPad*%
%ADD14R,1.300000X1.300000*%
%TD*%
%TA.AperFunction,ComponentPad*%
%ADD15R,1.600000X1.600000*%
%TD*%
%TA.AperFunction,ViaPad*%
%ADD16C,0.800000*%
%TD*%
%TA.AperFunction,Conductor*%
%ADD17C,0.250000*%
%TD*%
%TA.AperFunction,Conductor*%
%ADD18C,0.254000*%
%TD*%
%TA.AperFunction,Conductor*%
%ADD19C,0.100000*%
%TD*%
G04 APERTURE END LIST*
D10*
%TO.N,RTD1F+*%
%TO.C,J1*%
X154940000Y-53594000D03*
%TO.N,RTD1IN+*%
X154940000Y-56134000D03*
%TO.N,RTD1IN-*%
X154940000Y-58674000D03*
D11*
%TO.N,RTD1F-*%
X154940000Y-61214000D03*
%TD*%
D10*
%TO.N,GND*%
%TO.C,J12*%
X215900000Y-55880000D03*
D11*
%TO.N,+9V*%
X215900000Y-53340000D03*
%TD*%
D12*
%TO.N,Net-(U3-Pad66)*%
%TO.C,U3*%
X189230000Y-54070000D03*
%TO.N,Net-(U3-Pad67)*%
X186690000Y-54070000D03*
D13*
%TO.N,Net-(U3-Pad54)*%
X193040000Y-99060000D03*
%TO.N,Net-(U3-Pad53)*%
X190500000Y-99060000D03*
%TO.N,Net-(U3-Pad52)*%
X187960000Y-99060000D03*
%TO.N,Net-(U3-Pad51)*%
X185420000Y-99060000D03*
%TO.N,Net-(U3-Pad50)*%
X182880000Y-99060000D03*
D12*
%TO.N,Net-(U3-Pad62)*%
X189141600Y-66310000D03*
%TO.N,Net-(U3-Pad63)*%
X189141600Y-68310000D03*
%TO.N,Net-(U3-Pad64)*%
X191141600Y-68310000D03*
%TO.N,Net-(U3-Pad61)*%
X191141600Y-66310000D03*
%TO.N,Net-(U3-Pad65)*%
X193141600Y-68310000D03*
D14*
%TO.N,Net-(U3-Pad60)*%
X193141600Y-66310000D03*
D13*
%TO.N,Net-(U3-Pad17)*%
X180340000Y-93980000D03*
%TO.N,TEMP_SPI_MOSI*%
X180340000Y-96520000D03*
%TO.N,TEMP_SPI_SCK*%
X180340000Y-99060000D03*
%TO.N,TEMP_DRDY0*%
X180340000Y-101600000D03*
%TO.N,Net-(U3-Pad16)*%
X180340000Y-91440000D03*
%TO.N,TEMP_DVDD*%
X180340000Y-88900000D03*
%TO.N,UEXT_MISO*%
X180340000Y-86360000D03*
%TO.N,TEMP_DRDY1*%
X180340000Y-104140000D03*
%TO.N,BTN_BREW*%
X180340000Y-106680000D03*
%TO.N,BTN_WATER*%
X180340000Y-109220000D03*
%TO.N,BTN_STEAM*%
X180340000Y-111760000D03*
%TO.N,ESP8266_RST*%
X195580000Y-111760000D03*
%TO.N,RX_FROM_ESP8266*%
X195580000Y-109220000D03*
%TO.N,TX_TO_ESP8266*%
X195580000Y-106680000D03*
%TO.N,ESP8266_CHPD*%
X195580000Y-104140000D03*
%TO.N,ESP8266_GPIO0*%
X195580000Y-101600000D03*
%TO.N,TEMP_SPI_CS1*%
X195580000Y-99060000D03*
%TO.N,ESP8266_GPIO2*%
X195580000Y-96520000D03*
%TO.N,PROP_SSR_EN*%
X195580000Y-93980000D03*
%TO.N,Net-(U3-Pad33)*%
X195580000Y-91440000D03*
%TO.N,GND*%
X195580000Y-88900000D03*
%TO.N,UEXT_MOSI*%
X180340000Y-83820000D03*
%TO.N,UEXT_SSEL*%
X180340000Y-81280000D03*
%TO.N,Net-(U3-Pad11)*%
X180340000Y-78740000D03*
%TO.N,UEXT_TXD*%
X180340000Y-76200000D03*
%TO.N,UEXT_RXD*%
X180340000Y-73660000D03*
%TO.N,Net-(U3-Pad8)*%
X180340000Y-71120000D03*
%TO.N,Net-(U3-Pad7)*%
X180340000Y-68580000D03*
%TO.N,SSR3_GATE*%
X180340000Y-66040000D03*
%TO.N,SSR2_GATE*%
X180340000Y-63500000D03*
%TO.N,SSR1_GATE*%
X180340000Y-60960000D03*
%TO.N,TEMP_SPI_MISO*%
X180340000Y-58420000D03*
%TO.N,TEMP_SPI_CS0*%
X180340000Y-55880000D03*
D15*
%TO.N,GND*%
X180340000Y-53340000D03*
D13*
%TO.N,UEXT_SCK*%
X195580000Y-86360000D03*
%TO.N,Net-(U3-Pad36)*%
X195580000Y-83820000D03*
%TO.N,Net-(U3-Pad37)*%
X195580000Y-81280000D03*
%TO.N,I2C_SCL*%
X195580000Y-78740000D03*
%TO.N,I2C_SDA*%
X195580000Y-76200000D03*
%TO.N,UEXT_SDA*%
X195580000Y-73660000D03*
%TO.N,UEXT_SCL*%
X195580000Y-71120000D03*
%TO.N,Net-(U3-Pad42)*%
X195580000Y-68580000D03*
%TO.N,ENC_CLK*%
X195580000Y-66040000D03*
%TO.N,ENC_DT*%
X195580000Y-63500000D03*
%TO.N,ENC_SW*%
X195580000Y-60960000D03*
%TO.N,TEMP_DVDD*%
X195580000Y-58420000D03*
%TO.N,GND*%
X195580000Y-55880000D03*
%TO.N,+5V*%
X195580000Y-53340000D03*
D15*
%TO.N,Net-(U3-Pad55)*%
X183390800Y-59639200D03*
D13*
%TO.N,Net-(U3-Pad56)*%
X183390800Y-62179200D03*
%TO.N,Net-(U3-Pad57)*%
X183390800Y-64719200D03*
%TO.N,Net-(U3-Pad58)*%
X183390800Y-67259200D03*
%TO.N,Net-(U3-Pad59)*%
X183390800Y-69799200D03*
%TO.N,Net-(U3-Pad49)*%
X193040000Y-55880000D03*
%TD*%
D10*
%TO.N,GND*%
%TO.C,J11*%
X163830000Y-109220000D03*
%TO.N,RX_FROM_ESP8266*%
X163830000Y-111760000D03*
%TO.N,ESP8266_GPIO2*%
X166370000Y-109220000D03*
%TO.N,ESP8266_CHPD*%
X166370000Y-111760000D03*
%TO.N,ESP8266_GPIO0*%
X168910000Y-109220000D03*
%TO.N,ESP8266_RST*%
X168910000Y-111760000D03*
%TO.N,TX_TO_ESP8266*%
X171450000Y-109220000D03*
D11*
%TO.N,TEMP_DVDD*%
X171450000Y-111760000D03*
%TD*%
D10*
%TO.N,UEXT_SSEL*%
%TO.C,J10*%
X215900000Y-111760000D03*
%TO.N,UEXT_SCK*%
X213360000Y-111760000D03*
%TO.N,UEXT_MOSI*%
X215900000Y-109220000D03*
%TO.N,UEXT_MISO*%
X213360000Y-109220000D03*
%TO.N,UEXT_SDA*%
X215900000Y-106680000D03*
%TO.N,UEXT_SCL*%
X213360000Y-106680000D03*
%TO.N,UEXT_RXD*%
X215900000Y-104140000D03*
%TO.N,UEXT_TXD*%
X213360000Y-104140000D03*
%TO.N,GND*%
X215900000Y-101600000D03*
D11*
%TO.N,TEMP_DVDD*%
X213360000Y-101600000D03*
%TD*%
D10*
%TO.N,GND*%
%TO.C,J9*%
X215900000Y-93980000D03*
%TO.N,TEMP_DVDD*%
X215900000Y-91440000D03*
%TO.N,ENC_SW*%
X215900000Y-88900000D03*
%TO.N,ENC_DT*%
X215900000Y-86360000D03*
D11*
%TO.N,ENC_CLK*%
X215900000Y-83820000D03*
%TD*%
D10*
%TO.N,BTN_BREW*%
%TO.C,J8*%
X154940000Y-109220000D03*
%TO.N,BTN_WATER*%
X154940000Y-106680000D03*
%TO.N,BTN_STEAM*%
X154940000Y-104140000D03*
D11*
%TO.N,GND*%
X154940000Y-101600000D03*
%TD*%
D10*
%TO.N,+5V*%
%TO.C,J7*%
X215900000Y-78740000D03*
%TO.N,PRES_AIN*%
X215900000Y-76200000D03*
D11*
%TO.N,GND*%
X215900000Y-73660000D03*
%TD*%
D10*
%TO.N,PROP_SSR_CTRL*%
%TO.C,J6*%
X215900000Y-68580000D03*
%TO.N,PROP_SSR_EN*%
X215900000Y-66040000D03*
%TO.N,GND*%
X215900000Y-63500000D03*
D11*
%TO.N,+9V*%
X215900000Y-60960000D03*
%TD*%
D10*
%TO.N,+5V*%
%TO.C,J5*%
X154940000Y-96520000D03*
D11*
%TO.N,SSR3_VNEG*%
X154940000Y-93980000D03*
%TD*%
D10*
%TO.N,+5V*%
%TO.C,J4*%
X154940000Y-88900000D03*
D11*
%TO.N,SSR2_VNEG*%
X154940000Y-86360000D03*
%TD*%
D10*
%TO.N,+5V*%
%TO.C,J3*%
X154940000Y-81280000D03*
D11*
%TO.N,SSR1_VNEG*%
X154940000Y-78740000D03*
%TD*%
D10*
%TO.N,RTD2F+*%
%TO.C,J2*%
X154940000Y-66294000D03*
%TO.N,RTD2IN+*%
X154940000Y-68834000D03*
%TO.N,RTD2IN-*%
X154940000Y-71374000D03*
D11*
%TO.N,RTD2F-*%
X154940000Y-73914000D03*
%TD*%
D16*
%TO.N,GND*%
X162052000Y-82804000D03*
X170434000Y-82550000D03*
X165354000Y-69850000D03*
X171704000Y-53340000D03*
X165644990Y-82785988D03*
X165675972Y-57149736D03*
%TO.N,SSR1_GATE*%
X166116000Y-78740000D03*
%TO.N,SSR2_GATE*%
X169164000Y-78994000D03*
%TO.N,SSR3_GATE*%
X175006000Y-82296000D03*
%TO.N,I2C_SDA_5V*%
X209296000Y-70358000D03*
X208280000Y-91440000D03*
%TO.N,TEMP_DVDD*%
X168402000Y-57150000D03*
X170434000Y-63246000D03*
X171450000Y-52070000D03*
X177800000Y-77724000D03*
%TO.N,I2C_SCL_5V*%
X202438000Y-68580000D03*
X207554990Y-90424000D03*
%TO.N,+5V*%
X199898000Y-65532000D03*
%TO.N,TEMP_SPI_MISO*%
X165354000Y-71374000D03*
X165238679Y-58049068D03*
%TO.N,TEMP_SPI_SCK*%
X167056333Y-76702653D03*
X166870714Y-63098140D03*
%TO.N,TEMP_SPI_MOSI*%
X168038468Y-77684788D03*
X168910000Y-64008000D03*
%TO.N,TEMP_DRDY0*%
X169672000Y-55372000D03*
%TO.N,TEMP_DRDY1*%
X176784000Y-74422000D03*
%TO.N,PRES_AIN*%
X209550000Y-81280000D03*
%TO.N,UEXT_SDA*%
X212344000Y-94996000D03*
%TO.N,PROP_SSR_EN*%
X191770000Y-60706000D03*
%TO.N,TEMP_VDD*%
X167640000Y-68326000D03*
X166878000Y-55626000D03*
%TD*%
D17*
%TO.N,TEMP_DVDD*%
X172625001Y-96614999D02*
X180340000Y-88900000D01*
X172625001Y-110584999D02*
X172625001Y-96614999D01*
X171450000Y-111760000D02*
X172625001Y-110584999D01*
X195580000Y-59294998D02*
X196705001Y-60419999D01*
X196705001Y-60419999D02*
X196705001Y-72245001D01*
X196705001Y-72245001D02*
X215900000Y-91440000D01*
X195580000Y-58420000D02*
X195580000Y-59294998D01*
%TD*%
D18*
%TO.N,GND*%
X170454774Y-52371898D02*
X170532795Y-52560256D01*
X170646063Y-52729774D01*
X170790226Y-52873937D01*
X170959744Y-52987205D01*
X171148102Y-53065226D01*
X171348061Y-53105000D01*
X171551939Y-53105000D01*
X171751898Y-53065226D01*
X171940256Y-52987205D01*
X172109774Y-52873937D01*
X172253937Y-52729774D01*
X172367205Y-52560256D01*
X172445226Y-52371898D01*
X172480015Y-52197000D01*
X179003319Y-52197000D01*
X178950498Y-52295820D01*
X178914188Y-52415518D01*
X178901928Y-52540000D01*
X178905000Y-53054250D01*
X179063750Y-53213000D01*
X180213000Y-53213000D01*
X180213000Y-53193000D01*
X180467000Y-53193000D01*
X180467000Y-53213000D01*
X181616250Y-53213000D01*
X181775000Y-53054250D01*
X181778072Y-52540000D01*
X181765812Y-52415518D01*
X181729502Y-52295820D01*
X181676681Y-52197000D01*
X194707689Y-52197000D01*
X194665241Y-52225363D01*
X194465363Y-52425241D01*
X194308320Y-52660273D01*
X194200147Y-52921426D01*
X194145000Y-53198665D01*
X194145000Y-53481335D01*
X194200147Y-53758574D01*
X194308320Y-54019727D01*
X194465363Y-54254759D01*
X194665241Y-54454637D01*
X194899128Y-54610915D01*
X194838486Y-54643329D01*
X194766903Y-54887298D01*
X195580000Y-55700395D01*
X196393097Y-54887298D01*
X196321514Y-54643329D01*
X196257008Y-54612806D01*
X196259727Y-54611680D01*
X196494759Y-54454637D01*
X196694637Y-54254759D01*
X196851680Y-54019727D01*
X196959853Y-53758574D01*
X197015000Y-53481335D01*
X197015000Y-53198665D01*
X196959853Y-52921426D01*
X196851680Y-52660273D01*
X196694637Y-52425241D01*
X196494759Y-52225363D01*
X196452311Y-52197000D01*
X214486593Y-52197000D01*
X214460498Y-52245820D01*
X214424188Y-52365518D01*
X214411928Y-52490000D01*
X214411928Y-54190000D01*
X214424188Y-54314482D01*
X214460498Y-54434180D01*
X214519463Y-54544494D01*
X214598815Y-54641185D01*
X214695506Y-54720537D01*
X214805820Y-54779502D01*
X214886466Y-54803966D01*
X214802412Y-54879731D01*
X214628359Y-55113080D01*
X214503175Y-55375901D01*
X214458524Y-55523110D01*
X214579845Y-55753000D01*
X215773000Y-55753000D01*
X215773000Y-55733000D01*
X216027000Y-55733000D01*
X216027000Y-55753000D01*
X216047000Y-55753000D01*
X216047000Y-56007000D01*
X216027000Y-56007000D01*
X216027000Y-57200814D01*
X216256891Y-57321481D01*
X216531252Y-57224157D01*
X216781355Y-57075178D01*
X216997588Y-56880269D01*
X217043000Y-56819386D01*
X217043000Y-59546593D01*
X216994180Y-59520498D01*
X216874482Y-59484188D01*
X216750000Y-59471928D01*
X215050000Y-59471928D01*
X214925518Y-59484188D01*
X214805820Y-59520498D01*
X214695506Y-59579463D01*
X214598815Y-59658815D01*
X214519463Y-59755506D01*
X214460498Y-59865820D01*
X214424188Y-59985518D01*
X214411928Y-60110000D01*
X214411928Y-61810000D01*
X214424188Y-61934482D01*
X214460498Y-62054180D01*
X214519463Y-62164494D01*
X214598815Y-62261185D01*
X214695506Y-62340537D01*
X214805820Y-62399502D01*
X214886466Y-62423966D01*
X214802412Y-62499731D01*
X214628359Y-62733080D01*
X214503175Y-62995901D01*
X214458524Y-63143110D01*
X214579845Y-63373000D01*
X215773000Y-63373000D01*
X215773000Y-63353000D01*
X216027000Y-63353000D01*
X216027000Y-63373000D01*
X216047000Y-63373000D01*
X216047000Y-63627000D01*
X216027000Y-63627000D01*
X216027000Y-63647000D01*
X215773000Y-63647000D01*
X215773000Y-63627000D01*
X214579845Y-63627000D01*
X214458524Y-63856890D01*
X214503175Y-64004099D01*
X214628359Y-64266920D01*
X214802412Y-64500269D01*
X215018645Y-64695178D01*
X215135534Y-64764805D01*
X214953368Y-64886525D01*
X214746525Y-65093368D01*
X214584010Y-65336589D01*
X214472068Y-65606842D01*
X214415000Y-65893740D01*
X214415000Y-66186260D01*
X214472068Y-66473158D01*
X214584010Y-66743411D01*
X214746525Y-66986632D01*
X214953368Y-67193475D01*
X215127760Y-67310000D01*
X214953368Y-67426525D01*
X214746525Y-67633368D01*
X214584010Y-67876589D01*
X214472068Y-68146842D01*
X214415000Y-68433740D01*
X214415000Y-68726260D01*
X214472068Y-69013158D01*
X214584010Y-69283411D01*
X214746525Y-69526632D01*
X214953368Y-69733475D01*
X215196589Y-69895990D01*
X215466842Y-70007932D01*
X215753740Y-70065000D01*
X216046260Y-70065000D01*
X216333158Y-70007932D01*
X216603411Y-69895990D01*
X216846632Y-69733475D01*
X217043000Y-69537107D01*
X217043000Y-72246593D01*
X216994180Y-72220498D01*
X216874482Y-72184188D01*
X216750000Y-72171928D01*
X216185750Y-72175000D01*
X216027000Y-72333750D01*
X216027000Y-73533000D01*
X216047000Y-73533000D01*
X216047000Y-73787000D01*
X216027000Y-73787000D01*
X216027000Y-73807000D01*
X215773000Y-73807000D01*
X215773000Y-73787000D01*
X214573750Y-73787000D01*
X214415000Y-73945750D01*
X214411928Y-74510000D01*
X214424188Y-74634482D01*
X214460498Y-74754180D01*
X214519463Y-74864494D01*
X214598815Y-74961185D01*
X214695506Y-75040537D01*
X214805820Y-75099502D01*
X214878380Y-75121513D01*
X214746525Y-75253368D01*
X214584010Y-75496589D01*
X214472068Y-75766842D01*
X214415000Y-76053740D01*
X214415000Y-76346260D01*
X214472068Y-76633158D01*
X214584010Y-76903411D01*
X214746525Y-77146632D01*
X214953368Y-77353475D01*
X215127760Y-77470000D01*
X214953368Y-77586525D01*
X214746525Y-77793368D01*
X214584010Y-78036589D01*
X214472068Y-78306842D01*
X214415000Y-78593740D01*
X214415000Y-78886260D01*
X214472068Y-79173158D01*
X214584010Y-79443411D01*
X214746525Y-79686632D01*
X214953368Y-79893475D01*
X215196589Y-80055990D01*
X215466842Y-80167932D01*
X215753740Y-80225000D01*
X216046260Y-80225000D01*
X216333158Y-80167932D01*
X216603411Y-80055990D01*
X216846632Y-79893475D01*
X217043000Y-79697107D01*
X217043000Y-82406593D01*
X216994180Y-82380498D01*
X216874482Y-82344188D01*
X216750000Y-82331928D01*
X215050000Y-82331928D01*
X214925518Y-82344188D01*
X214805820Y-82380498D01*
X214695506Y-82439463D01*
X214598815Y-82518815D01*
X214519463Y-82615506D01*
X214460498Y-82725820D01*
X214424188Y-82845518D01*
X214411928Y-82970000D01*
X214411928Y-84670000D01*
X214424188Y-84794482D01*
X214460498Y-84914180D01*
X214519463Y-85024494D01*
X214598815Y-85121185D01*
X214695506Y-85200537D01*
X214805820Y-85259502D01*
X214878380Y-85281513D01*
X214746525Y-85413368D01*
X214584010Y-85656589D01*
X214472068Y-85926842D01*
X214415000Y-86213740D01*
X214415000Y-86506260D01*
X214472068Y-86793158D01*
X214584010Y-87063411D01*
X214746525Y-87306632D01*
X214953368Y-87513475D01*
X215127760Y-87630000D01*
X214953368Y-87746525D01*
X214746525Y-87953368D01*
X214584010Y-88196589D01*
X214472068Y-88466842D01*
X214415000Y-88753740D01*
X214415000Y-88880198D01*
X206712863Y-81178061D01*
X208515000Y-81178061D01*
X208515000Y-81381939D01*
X208554774Y-81581898D01*
X208632795Y-81770256D01*
X208746063Y-81939774D01*
X208890226Y-82083937D01*
X209059744Y-82197205D01*
X209248102Y-82275226D01*
X209448061Y-82315000D01*
X209651939Y-82315000D01*
X209851898Y-82275226D01*
X210040256Y-82197205D01*
X210209774Y-82083937D01*
X210353937Y-81939774D01*
X210467205Y-81770256D01*
X210545226Y-81581898D01*
X210585000Y-81381939D01*
X210585000Y-81178061D01*
X210545226Y-80978102D01*
X210467205Y-80789744D01*
X210353937Y-80620226D01*
X210209774Y-80476063D01*
X210040256Y-80362795D01*
X209851898Y-80284774D01*
X209651939Y-80245000D01*
X209448061Y-80245000D01*
X209248102Y-80284774D01*
X209059744Y-80362795D01*
X208890226Y-80476063D01*
X208746063Y-80620226D01*
X208632795Y-80789744D01*
X208554774Y-80978102D01*
X208515000Y-81178061D01*
X206712863Y-81178061D01*
X198344802Y-72810000D01*
X214411928Y-72810000D01*
X214415000Y-73374250D01*
X214573750Y-73533000D01*
X215773000Y-73533000D01*
X215773000Y-72333750D01*
X215614250Y-72175000D01*
X215050000Y-72171928D01*
X214925518Y-72184188D01*
X214805820Y-72220498D01*
X214695506Y-72279463D01*
X214598815Y-72358815D01*
X214519463Y-72455506D01*
X214460498Y-72565820D01*
X214424188Y-72685518D01*
X214411928Y-72810000D01*
X198344802Y-72810000D01*
X197465001Y-71930200D01*
X197465001Y-70256061D01*
X208261000Y-70256061D01*
X208261000Y-70459939D01*
X208300774Y-70659898D01*
X208378795Y-70848256D01*
X208492063Y-71017774D01*
X208636226Y-71161937D01*
X208805744Y-71275205D01*
X208994102Y-71353226D01*
X209194061Y-71393000D01*
X209397939Y-71393000D01*
X209597898Y-71353226D01*
X209786256Y-71275205D01*
X209955774Y-71161937D01*
X210099937Y-71017774D01*
X210213205Y-70848256D01*
X210291226Y-70659898D01*
X210331000Y-70459939D01*
X210331000Y-70256061D01*
X210291226Y-70056102D01*
X210213205Y-69867744D01*
X210099937Y-69698226D01*
X209955774Y-69554063D01*
X209786256Y-69440795D01*
X209597898Y-69362774D01*
X209397939Y-69323000D01*
X209194061Y-69323000D01*
X208994102Y-69362774D01*
X208805744Y-69440795D01*
X208636226Y-69554063D01*
X208492063Y-69698226D01*
X208378795Y-69867744D01*
X208300774Y-70056102D01*
X208261000Y-70256061D01*
X197465001Y-70256061D01*
X197465001Y-68478061D01*
X201403000Y-68478061D01*
X201403000Y-68681939D01*
X201442774Y-68881898D01*
X201520795Y-69070256D01*
X201634063Y-69239774D01*
X201778226Y-69383937D01*
X201947744Y-69497205D01*
X202136102Y-69575226D01*
X202336061Y-69615000D01*
X202539939Y-69615000D01*
X202739898Y-69575226D01*
X202928256Y-69497205D01*
X203097774Y-69383937D01*
X203241937Y-69239774D01*
X203355205Y-69070256D01*
X203433226Y-68881898D01*
X203473000Y-68681939D01*
X203473000Y-68478061D01*
X203433226Y-68278102D01*
X203355205Y-68089744D01*
X203241937Y-67920226D01*
X203097774Y-67776063D01*
X202928256Y-67662795D01*
X202739898Y-67584774D01*
X202539939Y-67545000D01*
X202336061Y-67545000D01*
X202136102Y-67584774D01*
X201947744Y-67662795D01*
X201778226Y-67776063D01*
X201634063Y-67920226D01*
X201520795Y-68089744D01*
X201442774Y-68278102D01*
X201403000Y-68478061D01*
X197465001Y-68478061D01*
X197465001Y-65430061D01*
X198863000Y-65430061D01*
X198863000Y-65633939D01*
X198902774Y-65833898D01*
X198980795Y-66022256D01*
X199094063Y-66191774D01*
X199238226Y-66335937D01*
X199407744Y-66449205D01*
X199596102Y-66527226D01*
X199796061Y-66567000D01*
X199999939Y-66567000D01*
X200199898Y-66527226D01*
X200388256Y-66449205D01*
X200557774Y-66335937D01*
X200701937Y-66191774D01*
X200815205Y-66022256D01*
X200893226Y-65833898D01*
X200933000Y-65633939D01*
X200933000Y-65430061D01*
X200893226Y-65230102D01*
X200815205Y-65041744D01*
X200701937Y-64872226D01*
X200557774Y-64728063D01*
X200388256Y-64614795D01*
X200199898Y-64536774D01*
X199999939Y-64497000D01*
X199796061Y-64497000D01*
X199596102Y-64536774D01*
X199407744Y-64614795D01*
X199238226Y-64728063D01*
X199094063Y-64872226D01*
X198980795Y-65041744D01*
X198902774Y-65230102D01*
X198863000Y-65430061D01*
X197465001Y-65430061D01*
X197465001Y-60457324D01*
X197468677Y-60419999D01*
X197465001Y-60382674D01*
X197465001Y-60382666D01*
X197454004Y-60271013D01*
X197410547Y-60127752D01*
X197339975Y-59995723D01*
X197245002Y-59879998D01*
X197216005Y-59856201D01*
X196694600Y-59334796D01*
X196694637Y-59334759D01*
X196851680Y-59099727D01*
X196959853Y-58838574D01*
X197015000Y-58561335D01*
X197015000Y-58278665D01*
X196959853Y-58001426D01*
X196851680Y-57740273D01*
X196694637Y-57505241D01*
X196494759Y-57305363D01*
X196260872Y-57149085D01*
X196321514Y-57116671D01*
X196393097Y-56872702D01*
X195580000Y-56059605D01*
X194766903Y-56872702D01*
X194838486Y-57116671D01*
X194902992Y-57147194D01*
X194900273Y-57148320D01*
X194665241Y-57305363D01*
X194465363Y-57505241D01*
X194308320Y-57740273D01*
X194200147Y-58001426D01*
X194145000Y-58278665D01*
X194145000Y-58561335D01*
X194200147Y-58838574D01*
X194308320Y-59099727D01*
X194465363Y-59334759D01*
X194665241Y-59534637D01*
X194897759Y-59690000D01*
X194665241Y-59845363D01*
X194465363Y-60045241D01*
X194308320Y-60280273D01*
X194200147Y-60541426D01*
X194145000Y-60818665D01*
X194145000Y-61101335D01*
X194200147Y-61378574D01*
X194308320Y-61639727D01*
X194465363Y-61874759D01*
X194665241Y-62074637D01*
X194897759Y-62230000D01*
X194665241Y-62385363D01*
X194465363Y-62585241D01*
X194308320Y-62820273D01*
X194200147Y-63081426D01*
X194145000Y-63358665D01*
X194145000Y-63641335D01*
X194200147Y-63918574D01*
X194308320Y-64179727D01*
X194465363Y-64414759D01*
X194665241Y-64614637D01*
X194897759Y-64770000D01*
X194665241Y-64925363D01*
X194465363Y-65125241D01*
X194332260Y-65324444D01*
X194322137Y-65305506D01*
X194242785Y-65208815D01*
X194146094Y-65129463D01*
X194035780Y-65070498D01*
X193916082Y-65034188D01*
X193791600Y-65021928D01*
X192491600Y-65021928D01*
X192367118Y-65034188D01*
X192247420Y-65070498D01*
X192137106Y-65129463D01*
X192040415Y-65208815D01*
X191961063Y-65305506D01*
X191958470Y-65310358D01*
X191750276Y-65171247D01*
X191516421Y-65074381D01*
X191268161Y-65025000D01*
X191015039Y-65025000D01*
X190766779Y-65074381D01*
X190532924Y-65171247D01*
X190322460Y-65311875D01*
X190143475Y-65490860D01*
X190141600Y-65493666D01*
X190139725Y-65490860D01*
X189960740Y-65311875D01*
X189750276Y-65171247D01*
X189516421Y-65074381D01*
X189268161Y-65025000D01*
X189015039Y-65025000D01*
X188766779Y-65074381D01*
X188532924Y-65171247D01*
X188322460Y-65311875D01*
X188143475Y-65490860D01*
X188002847Y-65701324D01*
X187905981Y-65935179D01*
X187856600Y-66183439D01*
X187856600Y-66436561D01*
X187905981Y-66684821D01*
X188002847Y-66918676D01*
X188143475Y-67129140D01*
X188322460Y-67308125D01*
X188325266Y-67310000D01*
X188322460Y-67311875D01*
X188143475Y-67490860D01*
X188002847Y-67701324D01*
X187905981Y-67935179D01*
X187856600Y-68183439D01*
X187856600Y-68436561D01*
X187905981Y-68684821D01*
X188002847Y-68918676D01*
X188143475Y-69129140D01*
X188322460Y-69308125D01*
X188532924Y-69448753D01*
X188766779Y-69545619D01*
X189015039Y-69595000D01*
X189268161Y-69595000D01*
X189516421Y-69545619D01*
X189750276Y-69448753D01*
X189960740Y-69308125D01*
X190139725Y-69129140D01*
X190141600Y-69126334D01*
X190143475Y-69129140D01*
X190322460Y-69308125D01*
X190532924Y-69448753D01*
X190766779Y-69545619D01*
X191015039Y-69595000D01*
X191268161Y-69595000D01*
X191516421Y-69545619D01*
X191750276Y-69448753D01*
X191960740Y-69308125D01*
X192139725Y-69129140D01*
X192141600Y-69126334D01*
X192143475Y-69129140D01*
X192322460Y-69308125D01*
X192532924Y-69448753D01*
X192766779Y-69545619D01*
X193015039Y-69595000D01*
X193268161Y-69595000D01*
X193516421Y-69545619D01*
X193750276Y-69448753D01*
X193960740Y-69308125D01*
X194139725Y-69129140D01*
X194210410Y-69023352D01*
X194308320Y-69259727D01*
X194465363Y-69494759D01*
X194665241Y-69694637D01*
X194897759Y-69850000D01*
X194665241Y-70005363D01*
X194465363Y-70205241D01*
X194308320Y-70440273D01*
X194200147Y-70701426D01*
X194145000Y-70978665D01*
X194145000Y-71261335D01*
X194200147Y-71538574D01*
X194308320Y-71799727D01*
X194465363Y-72034759D01*
X194665241Y-72234637D01*
X194897759Y-72390000D01*
X194665241Y-72545363D01*
X194465363Y-72745241D01*
X194308320Y-72980273D01*
X194200147Y-73241426D01*
X194145000Y-73518665D01*
X194145000Y-73801335D01*
X194200147Y-74078574D01*
X194308320Y-74339727D01*
X194465363Y-74574759D01*
X194665241Y-74774637D01*
X194897759Y-74930000D01*
X194665241Y-75085363D01*
X194465363Y-75285241D01*
X194308320Y-75520273D01*
X194200147Y-75781426D01*
X194145000Y-76058665D01*
X194145000Y-76341335D01*
X194200147Y-76618574D01*
X194308320Y-76879727D01*
X194465363Y-77114759D01*
X194665241Y-77314637D01*
X194897759Y-77470000D01*
X194665241Y-77625363D01*
X194465363Y-77825241D01*
X194308320Y-78060273D01*
X194200147Y-78321426D01*
X194145000Y-78598665D01*
X194145000Y-78881335D01*
X194200147Y-79158574D01*
X194308320Y-79419727D01*
X194465363Y-79654759D01*
X194665241Y-79854637D01*
X194897759Y-80010000D01*
X194665241Y-80165363D01*
X194465363Y-80365241D01*
X194308320Y-80600273D01*
X194200147Y-80861426D01*
X194145000Y-81138665D01*
X194145000Y-81421335D01*
X194200147Y-81698574D01*
X194308320Y-81959727D01*
X194465363Y-82194759D01*
X194665241Y-82394637D01*
X194897759Y-82550000D01*
X194665241Y-82705363D01*
X194465363Y-82905241D01*
X194308320Y-83140273D01*
X194200147Y-83401426D01*
X194145000Y-83678665D01*
X194145000Y-83961335D01*
X194200147Y-84238574D01*
X194308320Y-84499727D01*
X194465363Y-84734759D01*
X194665241Y-84934637D01*
X194897759Y-85090000D01*
X194665241Y-85245363D01*
X194465363Y-85445241D01*
X194308320Y-85680273D01*
X194200147Y-85941426D01*
X194145000Y-86218665D01*
X194145000Y-86501335D01*
X194200147Y-86778574D01*
X194308320Y-87039727D01*
X194465363Y-87274759D01*
X194665241Y-87474637D01*
X194899128Y-87630915D01*
X194838486Y-87663329D01*
X194766903Y-87907298D01*
X195580000Y-88720395D01*
X196393097Y-87907298D01*
X196321514Y-87663329D01*
X196257008Y-87632806D01*
X196259727Y-87631680D01*
X196494759Y-87474637D01*
X196694637Y-87274759D01*
X196851680Y-87039727D01*
X196959853Y-86778574D01*
X197015000Y-86501335D01*
X197015000Y-86218665D01*
X196959853Y-85941426D01*
X196851680Y-85680273D01*
X196694637Y-85445241D01*
X196494759Y-85245363D01*
X196262241Y-85090000D01*
X196494759Y-84934637D01*
X196694637Y-84734759D01*
X196851680Y-84499727D01*
X196959853Y-84238574D01*
X197015000Y-83961335D01*
X197015000Y-83678665D01*
X196959853Y-83401426D01*
X196851680Y-83140273D01*
X196694637Y-82905241D01*
X196494759Y-82705363D01*
X196262241Y-82550000D01*
X196494759Y-82394637D01*
X196694637Y-82194759D01*
X196851680Y-81959727D01*
X196959853Y-81698574D01*
X197015000Y-81421335D01*
X197015000Y-81138665D01*
X196959853Y-80861426D01*
X196851680Y-80600273D01*
X196694637Y-80365241D01*
X196494759Y-80165363D01*
X196262241Y-80010000D01*
X196494759Y-79854637D01*
X196694637Y-79654759D01*
X196851680Y-79419727D01*
X196959853Y-79158574D01*
X197015000Y-78881335D01*
X197015000Y-78598665D01*
X196959853Y-78321426D01*
X196851680Y-78060273D01*
X196694637Y-77825241D01*
X196494759Y-77625363D01*
X196262241Y-77470000D01*
X196494759Y-77314637D01*
X196694637Y-77114759D01*
X196851680Y-76879727D01*
X196959853Y-76618574D01*
X197015000Y-76341335D01*
X197015000Y-76058665D01*
X196959853Y-75781426D01*
X196851680Y-75520273D01*
X196694637Y-75285241D01*
X196494759Y-75085363D01*
X196262241Y-74930000D01*
X196494759Y-74774637D01*
X196694637Y-74574759D01*
X196851680Y-74339727D01*
X196959853Y-74078574D01*
X197015000Y-73801335D01*
X197015000Y-73629801D01*
X214458790Y-91073592D01*
X214415000Y-91293740D01*
X214415000Y-91586260D01*
X214472068Y-91873158D01*
X214584010Y-92143411D01*
X214746525Y-92386632D01*
X214953368Y-92593475D01*
X215135534Y-92715195D01*
X215018645Y-92784822D01*
X214802412Y-92979731D01*
X214628359Y-93213080D01*
X214503175Y-93475901D01*
X214458524Y-93623110D01*
X214579845Y-93853000D01*
X215773000Y-93853000D01*
X215773000Y-93833000D01*
X216027000Y-93833000D01*
X216027000Y-93853000D01*
X216047000Y-93853000D01*
X216047000Y-94107000D01*
X216027000Y-94107000D01*
X216027000Y-95300814D01*
X216256891Y-95421481D01*
X216531252Y-95324157D01*
X216781355Y-95175178D01*
X216997588Y-94980269D01*
X217043000Y-94919386D01*
X217043000Y-100660614D01*
X216997588Y-100599731D01*
X216781355Y-100404822D01*
X216531252Y-100255843D01*
X216256891Y-100158519D01*
X216027000Y-100279186D01*
X216027000Y-101473000D01*
X216047000Y-101473000D01*
X216047000Y-101727000D01*
X216027000Y-101727000D01*
X216027000Y-101747000D01*
X215773000Y-101747000D01*
X215773000Y-101727000D01*
X215753000Y-101727000D01*
X215753000Y-101473000D01*
X215773000Y-101473000D01*
X215773000Y-100279186D01*
X215543109Y-100158519D01*
X215268748Y-100255843D01*
X215018645Y-100404822D01*
X214822498Y-100581626D01*
X214799502Y-100505820D01*
X214740537Y-100395506D01*
X214661185Y-100298815D01*
X214564494Y-100219463D01*
X214454180Y-100160498D01*
X214334482Y-100124188D01*
X214210000Y-100111928D01*
X212510000Y-100111928D01*
X212385518Y-100124188D01*
X212265820Y-100160498D01*
X212155506Y-100219463D01*
X212058815Y-100298815D01*
X211979463Y-100395506D01*
X211920498Y-100505820D01*
X211884188Y-100625518D01*
X211871928Y-100750000D01*
X211871928Y-102450000D01*
X211884188Y-102574482D01*
X211920498Y-102694180D01*
X211979463Y-102804494D01*
X212058815Y-102901185D01*
X212155506Y-102980537D01*
X212265820Y-103039502D01*
X212338380Y-103061513D01*
X212206525Y-103193368D01*
X212044010Y-103436589D01*
X211932068Y-103706842D01*
X211875000Y-103993740D01*
X211875000Y-104286260D01*
X211932068Y-104573158D01*
X212044010Y-104843411D01*
X212206525Y-105086632D01*
X212413368Y-105293475D01*
X212587760Y-105410000D01*
X212413368Y-105526525D01*
X212206525Y-105733368D01*
X212044010Y-105976589D01*
X211932068Y-106246842D01*
X211875000Y-106533740D01*
X211875000Y-106826260D01*
X211932068Y-107113158D01*
X212044010Y-107383411D01*
X212206525Y-107626632D01*
X212413368Y-107833475D01*
X212587760Y-107950000D01*
X212413368Y-108066525D01*
X212206525Y-108273368D01*
X212044010Y-108516589D01*
X211932068Y-108786842D01*
X211875000Y-109073740D01*
X211875000Y-109366260D01*
X211932068Y-109653158D01*
X212044010Y-109923411D01*
X212206525Y-110166632D01*
X212413368Y-110373475D01*
X212587760Y-110490000D01*
X212413368Y-110606525D01*
X212206525Y-110813368D01*
X212044010Y-111056589D01*
X211932068Y-111326842D01*
X211875000Y-111613740D01*
X211875000Y-111906260D01*
X211932068Y-112193158D01*
X212044010Y-112463411D01*
X212206525Y-112706632D01*
X212402893Y-112903000D01*
X196452311Y-112903000D01*
X196494759Y-112874637D01*
X196694637Y-112674759D01*
X196851680Y-112439727D01*
X196959853Y-112178574D01*
X197015000Y-111901335D01*
X197015000Y-111618665D01*
X196959853Y-111341426D01*
X196851680Y-111080273D01*
X196694637Y-110845241D01*
X196494759Y-110645363D01*
X196262241Y-110490000D01*
X196494759Y-110334637D01*
X196694637Y-110134759D01*
X196851680Y-109899727D01*
X196959853Y-109638574D01*
X197015000Y-109361335D01*
X197015000Y-109078665D01*
X196959853Y-108801426D01*
X196851680Y-108540273D01*
X196694637Y-108305241D01*
X196494759Y-108105363D01*
X196262241Y-107950000D01*
X196494759Y-107794637D01*
X196694637Y-107594759D01*
X196851680Y-107359727D01*
X196959853Y-107098574D01*
X197015000Y-106821335D01*
X197015000Y-106538665D01*
X196959853Y-106261426D01*
X196851680Y-106000273D01*
X196694637Y-105765241D01*
X196494759Y-105565363D01*
X196262241Y-105410000D01*
X196494759Y-105254637D01*
X196694637Y-105054759D01*
X196851680Y-104819727D01*
X196959853Y-104558574D01*
X197015000Y-104281335D01*
X197015000Y-103998665D01*
X196959853Y-103721426D01*
X196851680Y-103460273D01*
X196694637Y-103225241D01*
X196494759Y-103025363D01*
X196262241Y-102870000D01*
X196494759Y-102714637D01*
X196694637Y-102514759D01*
X196851680Y-102279727D01*
X196959853Y-102018574D01*
X197015000Y-101741335D01*
X197015000Y-101458665D01*
X196959853Y-101181426D01*
X196851680Y-100920273D01*
X196694637Y-100685241D01*
X196494759Y-100485363D01*
X196262241Y-100330000D01*
X196494759Y-100174637D01*
X196694637Y-99974759D01*
X196851680Y-99739727D01*
X196959853Y-99478574D01*
X197015000Y-99201335D01*
X197015000Y-98918665D01*
X196959853Y-98641426D01*
X196851680Y-98380273D01*
X196694637Y-98145241D01*
X196494759Y-97945363D01*
X196262241Y-97790000D01*
X196494759Y-97634637D01*
X196694637Y-97434759D01*
X196851680Y-97199727D01*
X196959853Y-96938574D01*
X197015000Y-96661335D01*
X197015000Y-96378665D01*
X196959853Y-96101426D01*
X196851680Y-95840273D01*
X196694637Y-95605241D01*
X196494759Y-95405363D01*
X196262241Y-95250000D01*
X196494759Y-95094637D01*
X196694637Y-94894759D01*
X196695103Y-94894061D01*
X211309000Y-94894061D01*
X211309000Y-95097939D01*
X211348774Y-95297898D01*
X211426795Y-95486256D01*
X211540063Y-95655774D01*
X211684226Y-95799937D01*
X211853744Y-95913205D01*
X212042102Y-95991226D01*
X212242061Y-96031000D01*
X212445939Y-96031000D01*
X212645898Y-95991226D01*
X212834256Y-95913205D01*
X213003774Y-95799937D01*
X213147937Y-95655774D01*
X213261205Y-95486256D01*
X213339226Y-95297898D01*
X213379000Y-95097939D01*
X213379000Y-94894061D01*
X213339226Y-94694102D01*
X213261205Y-94505744D01*
X213148381Y-94336890D01*
X214458524Y-94336890D01*
X214503175Y-94484099D01*
X214628359Y-94746920D01*
X214802412Y-94980269D01*
X215018645Y-95175178D01*
X215268748Y-95324157D01*
X215543109Y-95421481D01*
X215773000Y-95300814D01*
X215773000Y-94107000D01*
X214579845Y-94107000D01*
X214458524Y-94336890D01*
X213148381Y-94336890D01*
X213147937Y-94336226D01*
X213003774Y-94192063D01*
X212834256Y-94078795D01*
X212645898Y-94000774D01*
X212445939Y-93961000D01*
X212242061Y-93961000D01*
X212042102Y-94000774D01*
X211853744Y-94078795D01*
X211684226Y-94192063D01*
X211540063Y-94336226D01*
X211426795Y-94505744D01*
X211348774Y-94694102D01*
X211309000Y-94894061D01*
X196695103Y-94894061D01*
X196851680Y-94659727D01*
X196959853Y-94398574D01*
X197015000Y-94121335D01*
X197015000Y-93838665D01*
X196959853Y-93561426D01*
X196851680Y-93300273D01*
X196694637Y-93065241D01*
X196494759Y-92865363D01*
X196262241Y-92710000D01*
X196494759Y-92554637D01*
X196694637Y-92354759D01*
X196851680Y-92119727D01*
X196959853Y-91858574D01*
X197015000Y-91581335D01*
X197015000Y-91298665D01*
X196959853Y-91021426D01*
X196851680Y-90760273D01*
X196694637Y-90525241D01*
X196494759Y-90325363D01*
X196489818Y-90322061D01*
X206519990Y-90322061D01*
X206519990Y-90525939D01*
X206559764Y-90725898D01*
X206637785Y-90914256D01*
X206751053Y-91083774D01*
X206895216Y-91227937D01*
X207064734Y-91341205D01*
X207245000Y-91415874D01*
X207245000Y-91541939D01*
X207284774Y-91741898D01*
X207362795Y-91930256D01*
X207476063Y-92099774D01*
X207620226Y-92243937D01*
X207789744Y-92357205D01*
X207978102Y-92435226D01*
X208178061Y-92475000D01*
X208381939Y-92475000D01*
X208581898Y-92435226D01*
X208770256Y-92357205D01*
X208939774Y-92243937D01*
X209083937Y-92099774D01*
X209197205Y-91930256D01*
X209275226Y-91741898D01*
X209315000Y-91541939D01*
X209315000Y-91338061D01*
X209275226Y-91138102D01*
X209197205Y-90949744D01*
X209083937Y-90780226D01*
X208939774Y-90636063D01*
X208770256Y-90522795D01*
X208589990Y-90448126D01*
X208589990Y-90322061D01*
X208550216Y-90122102D01*
X208472195Y-89933744D01*
X208358927Y-89764226D01*
X208214764Y-89620063D01*
X208045246Y-89506795D01*
X207856888Y-89428774D01*
X207656929Y-89389000D01*
X207453051Y-89389000D01*
X207253092Y-89428774D01*
X207064734Y-89506795D01*
X206895216Y-89620063D01*
X206751053Y-89764226D01*
X206637785Y-89933744D01*
X206559764Y-90122102D01*
X206519990Y-90322061D01*
X196489818Y-90322061D01*
X196260872Y-90169085D01*
X196321514Y-90136671D01*
X196393097Y-89892702D01*
X195580000Y-89079605D01*
X194766903Y-89892702D01*
X194838486Y-90136671D01*
X194902992Y-90167194D01*
X194900273Y-90168320D01*
X194665241Y-90325363D01*
X194465363Y-90525241D01*
X194308320Y-90760273D01*
X194200147Y-91021426D01*
X194145000Y-91298665D01*
X194145000Y-91581335D01*
X194200147Y-91858574D01*
X194308320Y-92119727D01*
X194465363Y-92354759D01*
X194665241Y-92554637D01*
X194897759Y-92710000D01*
X194665241Y-92865363D01*
X194465363Y-93065241D01*
X194308320Y-93300273D01*
X194200147Y-93561426D01*
X194145000Y-93838665D01*
X194145000Y-94121335D01*
X194200147Y-94398574D01*
X194308320Y-94659727D01*
X194465363Y-94894759D01*
X194665241Y-95094637D01*
X194897759Y-95250000D01*
X194665241Y-95405363D01*
X194465363Y-95605241D01*
X194308320Y-95840273D01*
X194200147Y-96101426D01*
X194145000Y-96378665D01*
X194145000Y-96661335D01*
X194200147Y-96938574D01*
X194308320Y-97199727D01*
X194465363Y-97434759D01*
X194665241Y-97634637D01*
X194897759Y-97790000D01*
X194665241Y-97945363D01*
X194465363Y-98145241D01*
X194310000Y-98377759D01*
X194154637Y-98145241D01*
X193954759Y-97945363D01*
X193719727Y-97788320D01*
X193458574Y-97680147D01*
X193181335Y-97625000D01*
X192898665Y-97625000D01*
X192621426Y-97680147D01*
X192360273Y-97788320D01*
X192125241Y-97945363D01*
X191925363Y-98145241D01*
X191770000Y-98377759D01*
X191614637Y-98145241D01*
X191414759Y-97945363D01*
X191179727Y-97788320D01*
X190918574Y-97680147D01*
X190641335Y-97625000D01*
X190358665Y-97625000D01*
X190081426Y-97680147D01*
X189820273Y-97788320D01*
X189585241Y-97945363D01*
X189385363Y-98145241D01*
X189230000Y-98377759D01*
X189074637Y-98145241D01*
X188874759Y-97945363D01*
X188639727Y-97788320D01*
X188378574Y-97680147D01*
X188101335Y-97625000D01*
X187818665Y-97625000D01*
X187541426Y-97680147D01*
X187280273Y-97788320D01*
X187045241Y-97945363D01*
X186845363Y-98145241D01*
X186690000Y-98377759D01*
X186534637Y-98145241D01*
X186334759Y-97945363D01*
X186099727Y-97788320D01*
X185838574Y-97680147D01*
X185561335Y-97625000D01*
X185278665Y-97625000D01*
X185001426Y-97680147D01*
X184740273Y-97788320D01*
X184505241Y-97945363D01*
X184305363Y-98145241D01*
X184150000Y-98377759D01*
X183994637Y-98145241D01*
X183794759Y-97945363D01*
X183559727Y-97788320D01*
X183298574Y-97680147D01*
X183021335Y-97625000D01*
X182738665Y-97625000D01*
X182461426Y-97680147D01*
X182200273Y-97788320D01*
X181965241Y-97945363D01*
X181765363Y-98145241D01*
X181610000Y-98377759D01*
X181454637Y-98145241D01*
X181254759Y-97945363D01*
X181022241Y-97790000D01*
X181254759Y-97634637D01*
X181454637Y-97434759D01*
X181611680Y-97199727D01*
X181719853Y-96938574D01*
X181775000Y-96661335D01*
X181775000Y-96378665D01*
X181719853Y-96101426D01*
X181611680Y-95840273D01*
X181454637Y-95605241D01*
X181254759Y-95405363D01*
X181022241Y-95250000D01*
X181254759Y-95094637D01*
X181454637Y-94894759D01*
X181611680Y-94659727D01*
X181719853Y-94398574D01*
X181775000Y-94121335D01*
X181775000Y-93838665D01*
X181719853Y-93561426D01*
X181611680Y-93300273D01*
X181454637Y-93065241D01*
X181254759Y-92865363D01*
X181022241Y-92710000D01*
X181254759Y-92554637D01*
X181454637Y-92354759D01*
X181611680Y-92119727D01*
X181719853Y-91858574D01*
X181775000Y-91581335D01*
X181775000Y-91298665D01*
X181719853Y-91021426D01*
X181611680Y-90760273D01*
X181454637Y-90525241D01*
X181254759Y-90325363D01*
X181022241Y-90170000D01*
X181254759Y-90014637D01*
X181454637Y-89814759D01*
X181611680Y-89579727D01*
X181719853Y-89318574D01*
X181775000Y-89041335D01*
X181775000Y-88970512D01*
X194139783Y-88970512D01*
X194181213Y-89250130D01*
X194276397Y-89516292D01*
X194343329Y-89641514D01*
X194587298Y-89713097D01*
X195400395Y-88900000D01*
X195759605Y-88900000D01*
X196572702Y-89713097D01*
X196816671Y-89641514D01*
X196937571Y-89386004D01*
X197006300Y-89111816D01*
X197020217Y-88829488D01*
X196978787Y-88549870D01*
X196883603Y-88283708D01*
X196816671Y-88158486D01*
X196572702Y-88086903D01*
X195759605Y-88900000D01*
X195400395Y-88900000D01*
X194587298Y-88086903D01*
X194343329Y-88158486D01*
X194222429Y-88413996D01*
X194153700Y-88688184D01*
X194139783Y-88970512D01*
X181775000Y-88970512D01*
X181775000Y-88758665D01*
X181719853Y-88481426D01*
X181611680Y-88220273D01*
X181454637Y-87985241D01*
X181254759Y-87785363D01*
X181022241Y-87630000D01*
X181254759Y-87474637D01*
X181454637Y-87274759D01*
X181611680Y-87039727D01*
X181719853Y-86778574D01*
X181775000Y-86501335D01*
X181775000Y-86218665D01*
X181719853Y-85941426D01*
X181611680Y-85680273D01*
X181454637Y-85445241D01*
X181254759Y-85245363D01*
X181022241Y-85090000D01*
X181254759Y-84934637D01*
X181454637Y-84734759D01*
X181611680Y-84499727D01*
X181719853Y-84238574D01*
X181775000Y-83961335D01*
X181775000Y-83678665D01*
X181719853Y-83401426D01*
X181611680Y-83140273D01*
X181454637Y-82905241D01*
X181254759Y-82705363D01*
X181022241Y-82550000D01*
X181254759Y-82394637D01*
X181454637Y-82194759D01*
X181611680Y-81959727D01*
X181719853Y-81698574D01*
X181775000Y-81421335D01*
X181775000Y-81138665D01*
X181719853Y-80861426D01*
X181611680Y-80600273D01*
X181454637Y-80365241D01*
X181254759Y-80165363D01*
X181022241Y-80010000D01*
X181254759Y-79854637D01*
X181454637Y-79654759D01*
X181611680Y-79419727D01*
X181719853Y-79158574D01*
X181775000Y-78881335D01*
X181775000Y-78598665D01*
X181719853Y-78321426D01*
X181611680Y-78060273D01*
X181454637Y-77825241D01*
X181254759Y-77625363D01*
X181022241Y-77470000D01*
X181254759Y-77314637D01*
X181454637Y-77114759D01*
X181611680Y-76879727D01*
X181719853Y-76618574D01*
X181775000Y-76341335D01*
X181775000Y-76058665D01*
X181719853Y-75781426D01*
X181611680Y-75520273D01*
X181454637Y-75285241D01*
X181254759Y-75085363D01*
X181022241Y-74930000D01*
X181254759Y-74774637D01*
X181454637Y-74574759D01*
X181611680Y-74339727D01*
X181719853Y-74078574D01*
X181775000Y-73801335D01*
X181775000Y-73518665D01*
X181719853Y-73241426D01*
X181611680Y-72980273D01*
X181454637Y-72745241D01*
X181254759Y-72545363D01*
X181022241Y-72390000D01*
X181254759Y-72234637D01*
X181454637Y-72034759D01*
X181611680Y-71799727D01*
X181719853Y-71538574D01*
X181775000Y-71261335D01*
X181775000Y-70978665D01*
X181719853Y-70701426D01*
X181611680Y-70440273D01*
X181454637Y-70205241D01*
X181254759Y-70005363D01*
X181022241Y-69850000D01*
X181254759Y-69694637D01*
X181454637Y-69494759D01*
X181611680Y-69259727D01*
X181719853Y-68998574D01*
X181775000Y-68721335D01*
X181775000Y-68438665D01*
X181719853Y-68161426D01*
X181611680Y-67900273D01*
X181454637Y-67665241D01*
X181254759Y-67465363D01*
X181022241Y-67310000D01*
X181254759Y-67154637D01*
X181454637Y-66954759D01*
X181611680Y-66719727D01*
X181719853Y-66458574D01*
X181775000Y-66181335D01*
X181775000Y-65898665D01*
X181719853Y-65621426D01*
X181611680Y-65360273D01*
X181454637Y-65125241D01*
X181254759Y-64925363D01*
X181022241Y-64770000D01*
X181254759Y-64614637D01*
X181454637Y-64414759D01*
X181611680Y-64179727D01*
X181719853Y-63918574D01*
X181775000Y-63641335D01*
X181775000Y-63358665D01*
X181719853Y-63081426D01*
X181611680Y-62820273D01*
X181454637Y-62585241D01*
X181254759Y-62385363D01*
X181022241Y-62230000D01*
X181254759Y-62074637D01*
X181454637Y-61874759D01*
X181611680Y-61639727D01*
X181719853Y-61378574D01*
X181775000Y-61101335D01*
X181775000Y-60818665D01*
X181719853Y-60541426D01*
X181611680Y-60280273D01*
X181454637Y-60045241D01*
X181254759Y-59845363D01*
X181022241Y-59690000D01*
X181254759Y-59534637D01*
X181454637Y-59334759D01*
X181611680Y-59099727D01*
X181719593Y-58839200D01*
X181952728Y-58839200D01*
X181952728Y-60439200D01*
X181964988Y-60563682D01*
X182001298Y-60683380D01*
X182060263Y-60793694D01*
X182139615Y-60890385D01*
X182236306Y-60969737D01*
X182346620Y-61028702D01*
X182466318Y-61065012D01*
X182474761Y-61065843D01*
X182276163Y-61264441D01*
X182119120Y-61499473D01*
X182010947Y-61760626D01*
X181955800Y-62037865D01*
X181955800Y-62320535D01*
X182010947Y-62597774D01*
X182119120Y-62858927D01*
X182276163Y-63093959D01*
X182476041Y-63293837D01*
X182708559Y-63449200D01*
X182476041Y-63604563D01*
X182276163Y-63804441D01*
X182119120Y-64039473D01*
X182010947Y-64300626D01*
X181955800Y-64577865D01*
X181955800Y-64860535D01*
X182010947Y-65137774D01*
X182119120Y-65398927D01*
X182276163Y-65633959D01*
X182476041Y-65833837D01*
X182708559Y-65989200D01*
X182476041Y-66144563D01*
X182276163Y-66344441D01*
X182119120Y-66579473D01*
X182010947Y-66840626D01*
X181955800Y-67117865D01*
X181955800Y-67400535D01*
X182010947Y-67677774D01*
X182119120Y-67938927D01*
X182276163Y-68173959D01*
X182476041Y-68373837D01*
X182708559Y-68529200D01*
X182476041Y-68684563D01*
X182276163Y-68884441D01*
X182119120Y-69119473D01*
X182010947Y-69380626D01*
X181955800Y-69657865D01*
X181955800Y-69940535D01*
X182010947Y-70217774D01*
X182119120Y-70478927D01*
X182276163Y-70713959D01*
X182476041Y-70913837D01*
X182711073Y-71070880D01*
X182972226Y-71179053D01*
X183249465Y-71234200D01*
X183532135Y-71234200D01*
X183809374Y-71179053D01*
X184070527Y-71070880D01*
X184305559Y-70913837D01*
X184505437Y-70713959D01*
X184662480Y-70478927D01*
X184770653Y-70217774D01*
X184825800Y-69940535D01*
X184825800Y-69657865D01*
X184770653Y-69380626D01*
X184662480Y-69119473D01*
X184505437Y-68884441D01*
X184305559Y-68684563D01*
X184073041Y-68529200D01*
X184305559Y-68373837D01*
X184505437Y-68173959D01*
X184662480Y-67938927D01*
X184770653Y-67677774D01*
X184825800Y-67400535D01*
X184825800Y-67117865D01*
X184770653Y-66840626D01*
X184662480Y-66579473D01*
X184505437Y-66344441D01*
X184305559Y-66144563D01*
X184073041Y-65989200D01*
X184305559Y-65833837D01*
X184505437Y-65633959D01*
X184662480Y-65398927D01*
X184770653Y-65137774D01*
X184825800Y-64860535D01*
X184825800Y-64577865D01*
X184770653Y-64300626D01*
X184662480Y-64039473D01*
X184505437Y-63804441D01*
X184305559Y-63604563D01*
X184073041Y-63449200D01*
X184305559Y-63293837D01*
X184505437Y-63093959D01*
X184662480Y-62858927D01*
X184770653Y-62597774D01*
X184825800Y-62320535D01*
X184825800Y-62037865D01*
X184770653Y-61760626D01*
X184662480Y-61499473D01*
X184505437Y-61264441D01*
X184306839Y-61065843D01*
X184315282Y-61065012D01*
X184434980Y-61028702D01*
X184545294Y-60969737D01*
X184641985Y-60890385D01*
X184721337Y-60793694D01*
X184780302Y-60683380D01*
X184804363Y-60604061D01*
X190735000Y-60604061D01*
X190735000Y-60807939D01*
X190774774Y-61007898D01*
X190852795Y-61196256D01*
X190966063Y-61365774D01*
X191110226Y-61509937D01*
X191279744Y-61623205D01*
X191468102Y-61701226D01*
X191668061Y-61741000D01*
X191871939Y-61741000D01*
X192071898Y-61701226D01*
X192260256Y-61623205D01*
X192429774Y-61509937D01*
X192573937Y-61365774D01*
X192687205Y-61196256D01*
X192765226Y-61007898D01*
X192805000Y-60807939D01*
X192805000Y-60604061D01*
X192765226Y-60404102D01*
X192687205Y-60215744D01*
X192573937Y-60046226D01*
X192429774Y-59902063D01*
X192260256Y-59788795D01*
X192071898Y-59710774D01*
X191871939Y-59671000D01*
X191668061Y-59671000D01*
X191468102Y-59710774D01*
X191279744Y-59788795D01*
X191110226Y-59902063D01*
X190966063Y-60046226D01*
X190852795Y-60215744D01*
X190774774Y-60404102D01*
X190735000Y-60604061D01*
X184804363Y-60604061D01*
X184816612Y-60563682D01*
X184828872Y-60439200D01*
X184828872Y-58839200D01*
X184816612Y-58714718D01*
X184780302Y-58595020D01*
X184721337Y-58484706D01*
X184641985Y-58388015D01*
X184545294Y-58308663D01*
X184434980Y-58249698D01*
X184315282Y-58213388D01*
X184190800Y-58201128D01*
X182590800Y-58201128D01*
X182466318Y-58213388D01*
X182346620Y-58249698D01*
X182236306Y-58308663D01*
X182139615Y-58388015D01*
X182060263Y-58484706D01*
X182001298Y-58595020D01*
X181964988Y-58714718D01*
X181952728Y-58839200D01*
X181719593Y-58839200D01*
X181719853Y-58838574D01*
X181775000Y-58561335D01*
X181775000Y-58278665D01*
X181719853Y-58001426D01*
X181611680Y-57740273D01*
X181454637Y-57505241D01*
X181254759Y-57305363D01*
X181022241Y-57150000D01*
X181254759Y-56994637D01*
X181454637Y-56794759D01*
X181611680Y-56559727D01*
X181719853Y-56298574D01*
X181775000Y-56021335D01*
X181775000Y-55738665D01*
X191605000Y-55738665D01*
X191605000Y-56021335D01*
X191660147Y-56298574D01*
X191768320Y-56559727D01*
X191925363Y-56794759D01*
X192125241Y-56994637D01*
X192360273Y-57151680D01*
X192621426Y-57259853D01*
X192898665Y-57315000D01*
X193181335Y-57315000D01*
X193458574Y-57259853D01*
X193719727Y-57151680D01*
X193954759Y-56994637D01*
X194154637Y-56794759D01*
X194310915Y-56560872D01*
X194343329Y-56621514D01*
X194587298Y-56693097D01*
X195400395Y-55880000D01*
X195759605Y-55880000D01*
X196572702Y-56693097D01*
X196816671Y-56621514D01*
X196937571Y-56366004D01*
X196969935Y-56236890D01*
X214458524Y-56236890D01*
X214503175Y-56384099D01*
X214628359Y-56646920D01*
X214802412Y-56880269D01*
X215018645Y-57075178D01*
X215268748Y-57224157D01*
X215543109Y-57321481D01*
X215773000Y-57200814D01*
X215773000Y-56007000D01*
X214579845Y-56007000D01*
X214458524Y-56236890D01*
X196969935Y-56236890D01*
X197006300Y-56091816D01*
X197020217Y-55809488D01*
X196978787Y-55529870D01*
X196883603Y-55263708D01*
X196816671Y-55138486D01*
X196572702Y-55066903D01*
X195759605Y-55880000D01*
X195400395Y-55880000D01*
X194587298Y-55066903D01*
X194343329Y-55138486D01*
X194312806Y-55202992D01*
X194311680Y-55200273D01*
X194154637Y-54965241D01*
X193954759Y-54765363D01*
X193719727Y-54608320D01*
X193458574Y-54500147D01*
X193181335Y-54445000D01*
X192898665Y-54445000D01*
X192621426Y-54500147D01*
X192360273Y-54608320D01*
X192125241Y-54765363D01*
X191925363Y-54965241D01*
X191768320Y-55200273D01*
X191660147Y-55461426D01*
X191605000Y-55738665D01*
X181775000Y-55738665D01*
X181719853Y-55461426D01*
X181611680Y-55200273D01*
X181454637Y-54965241D01*
X181256039Y-54766643D01*
X181264482Y-54765812D01*
X181384180Y-54729502D01*
X181494494Y-54670537D01*
X181591185Y-54591185D01*
X181670537Y-54494494D01*
X181729502Y-54384180D01*
X181765812Y-54264482D01*
X181778072Y-54140000D01*
X181776898Y-53943439D01*
X185405000Y-53943439D01*
X185405000Y-54196561D01*
X185454381Y-54444821D01*
X185551247Y-54678676D01*
X185691875Y-54889140D01*
X185870860Y-55068125D01*
X186081324Y-55208753D01*
X186315179Y-55305619D01*
X186563439Y-55355000D01*
X186816561Y-55355000D01*
X187064821Y-55305619D01*
X187298676Y-55208753D01*
X187509140Y-55068125D01*
X187688125Y-54889140D01*
X187828753Y-54678676D01*
X187925619Y-54444821D01*
X187960000Y-54271973D01*
X187994381Y-54444821D01*
X188091247Y-54678676D01*
X188231875Y-54889140D01*
X188410860Y-55068125D01*
X188621324Y-55208753D01*
X188855179Y-55305619D01*
X189103439Y-55355000D01*
X189356561Y-55355000D01*
X189604821Y-55305619D01*
X189838676Y-55208753D01*
X190049140Y-55068125D01*
X190228125Y-54889140D01*
X190368753Y-54678676D01*
X190465619Y-54444821D01*
X190515000Y-54196561D01*
X190515000Y-53943439D01*
X190465619Y-53695179D01*
X190368753Y-53461324D01*
X190228125Y-53250860D01*
X190049140Y-53071875D01*
X189838676Y-52931247D01*
X189604821Y-52834381D01*
X189356561Y-52785000D01*
X189103439Y-52785000D01*
X188855179Y-52834381D01*
X188621324Y-52931247D01*
X188410860Y-53071875D01*
X188231875Y-53250860D01*
X188091247Y-53461324D01*
X187994381Y-53695179D01*
X187960000Y-53868027D01*
X187925619Y-53695179D01*
X187828753Y-53461324D01*
X187688125Y-53250860D01*
X187509140Y-53071875D01*
X187298676Y-52931247D01*
X187064821Y-52834381D01*
X186816561Y-52785000D01*
X186563439Y-52785000D01*
X186315179Y-52834381D01*
X186081324Y-52931247D01*
X185870860Y-53071875D01*
X185691875Y-53250860D01*
X185551247Y-53461324D01*
X185454381Y-53695179D01*
X185405000Y-53943439D01*
X181776898Y-53943439D01*
X181775000Y-53625750D01*
X181616250Y-53467000D01*
X180467000Y-53467000D01*
X180467000Y-53487000D01*
X180213000Y-53487000D01*
X180213000Y-53467000D01*
X179063750Y-53467000D01*
X178905000Y-53625750D01*
X178901928Y-54140000D01*
X178914188Y-54264482D01*
X178950498Y-54384180D01*
X179009463Y-54494494D01*
X179088815Y-54591185D01*
X179185506Y-54670537D01*
X179295820Y-54729502D01*
X179415518Y-54765812D01*
X179423961Y-54766643D01*
X179225363Y-54965241D01*
X179068320Y-55200273D01*
X178960147Y-55461426D01*
X178905000Y-55738665D01*
X178905000Y-56021335D01*
X178960147Y-56298574D01*
X179068320Y-56559727D01*
X179225363Y-56794759D01*
X179425241Y-56994637D01*
X179657759Y-57150000D01*
X179425241Y-57305363D01*
X179225363Y-57505241D01*
X179068320Y-57740273D01*
X178960147Y-58001426D01*
X178905000Y-58278665D01*
X178905000Y-58561335D01*
X178960147Y-58838574D01*
X179068320Y-59099727D01*
X179225363Y-59334759D01*
X179425241Y-59534637D01*
X179657759Y-59690000D01*
X179425241Y-59845363D01*
X179225363Y-60045241D01*
X179068320Y-60280273D01*
X178960147Y-60541426D01*
X178905000Y-60818665D01*
X178905000Y-61101335D01*
X178960147Y-61378574D01*
X179068320Y-61639727D01*
X179225363Y-61874759D01*
X179425241Y-62074637D01*
X179657759Y-62230000D01*
X179425241Y-62385363D01*
X179225363Y-62585241D01*
X179068320Y-62820273D01*
X178960147Y-63081426D01*
X178905000Y-63358665D01*
X178905000Y-63641335D01*
X178960147Y-63918574D01*
X179068320Y-64179727D01*
X179225363Y-64414759D01*
X179425241Y-64614637D01*
X179657759Y-64770000D01*
X179425241Y-64925363D01*
X179225363Y-65125241D01*
X179068320Y-65360273D01*
X178960147Y-65621426D01*
X178905000Y-65898665D01*
X178905000Y-66181335D01*
X178960147Y-66458574D01*
X179068320Y-66719727D01*
X179225363Y-66954759D01*
X179425241Y-67154637D01*
X179657759Y-67310000D01*
X179425241Y-67465363D01*
X179225363Y-67665241D01*
X179068320Y-67900273D01*
X178960147Y-68161426D01*
X178905000Y-68438665D01*
X178905000Y-68721335D01*
X178960147Y-68998574D01*
X179068320Y-69259727D01*
X179225363Y-69494759D01*
X179425241Y-69694637D01*
X179657759Y-69850000D01*
X179425241Y-70005363D01*
X179225363Y-70205241D01*
X179068320Y-70440273D01*
X178960147Y-70701426D01*
X178905000Y-70978665D01*
X178905000Y-71261335D01*
X178960147Y-71538574D01*
X179068320Y-71799727D01*
X179225363Y-72034759D01*
X179425241Y-72234637D01*
X179657759Y-72390000D01*
X179425241Y-72545363D01*
X179225363Y-72745241D01*
X179068320Y-72980273D01*
X178960147Y-73241426D01*
X178905000Y-73518665D01*
X178905000Y-73801335D01*
X178960147Y-74078574D01*
X179068320Y-74339727D01*
X179225363Y-74574759D01*
X179425241Y-74774637D01*
X179657759Y-74930000D01*
X179425241Y-75085363D01*
X179225363Y-75285241D01*
X179068320Y-75520273D01*
X178960147Y-75781426D01*
X178905000Y-76058665D01*
X178905000Y-76341335D01*
X178960147Y-76618574D01*
X179068320Y-76879727D01*
X179225363Y-77114759D01*
X179425241Y-77314637D01*
X179657759Y-77470000D01*
X179425241Y-77625363D01*
X179225363Y-77825241D01*
X179068320Y-78060273D01*
X178960147Y-78321426D01*
X178905000Y-78598665D01*
X178905000Y-78881335D01*
X178960147Y-79158574D01*
X179068320Y-79419727D01*
X179225363Y-79654759D01*
X179425241Y-79854637D01*
X179657759Y-80010000D01*
X179425241Y-80165363D01*
X179225363Y-80365241D01*
X179068320Y-80600273D01*
X178960147Y-80861426D01*
X178905000Y-81138665D01*
X178905000Y-81421335D01*
X178960147Y-81698574D01*
X179068320Y-81959727D01*
X179225363Y-82194759D01*
X179425241Y-82394637D01*
X179657759Y-82550000D01*
X179425241Y-82705363D01*
X179225363Y-82905241D01*
X179068320Y-83140273D01*
X178960147Y-83401426D01*
X178905000Y-83678665D01*
X178905000Y-83961335D01*
X178960147Y-84238574D01*
X179068320Y-84499727D01*
X179225363Y-84734759D01*
X179425241Y-84934637D01*
X179657759Y-85090000D01*
X179425241Y-85245363D01*
X179225363Y-85445241D01*
X179068320Y-85680273D01*
X178960147Y-85941426D01*
X178905000Y-86218665D01*
X178905000Y-86501335D01*
X178960147Y-86778574D01*
X179068320Y-87039727D01*
X179225363Y-87274759D01*
X179425241Y-87474637D01*
X179657759Y-87630000D01*
X179425241Y-87785363D01*
X179225363Y-87985241D01*
X179068320Y-88220273D01*
X178960147Y-88481426D01*
X178905000Y-88758665D01*
X178905000Y-89041335D01*
X178941312Y-89223886D01*
X172113999Y-96051200D01*
X172085001Y-96074998D01*
X172061203Y-96103996D01*
X172061202Y-96103997D01*
X171990027Y-96190723D01*
X171919455Y-96322753D01*
X171875999Y-96466014D01*
X171861325Y-96614999D01*
X171865002Y-96652331D01*
X171865001Y-107788456D01*
X171596260Y-107735000D01*
X171303740Y-107735000D01*
X171016842Y-107792068D01*
X170746589Y-107904010D01*
X170503368Y-108066525D01*
X170296525Y-108273368D01*
X170180000Y-108447760D01*
X170063475Y-108273368D01*
X169856632Y-108066525D01*
X169613411Y-107904010D01*
X169343158Y-107792068D01*
X169056260Y-107735000D01*
X168763740Y-107735000D01*
X168476842Y-107792068D01*
X168206589Y-107904010D01*
X167963368Y-108066525D01*
X167756525Y-108273368D01*
X167640000Y-108447760D01*
X167523475Y-108273368D01*
X167316632Y-108066525D01*
X167073411Y-107904010D01*
X166803158Y-107792068D01*
X166516260Y-107735000D01*
X166223740Y-107735000D01*
X165936842Y-107792068D01*
X165666589Y-107904010D01*
X165423368Y-108066525D01*
X165216525Y-108273368D01*
X165094805Y-108455534D01*
X165025178Y-108338645D01*
X164830269Y-108122412D01*
X164596920Y-107948359D01*
X164334099Y-107823175D01*
X164186890Y-107778524D01*
X163957000Y-107899845D01*
X163957000Y-109093000D01*
X163977000Y-109093000D01*
X163977000Y-109347000D01*
X163957000Y-109347000D01*
X163957000Y-109367000D01*
X163703000Y-109367000D01*
X163703000Y-109347000D01*
X162509186Y-109347000D01*
X162388519Y-109576891D01*
X162485843Y-109851252D01*
X162634822Y-110101355D01*
X162829731Y-110317588D01*
X163059406Y-110488900D01*
X162883368Y-110606525D01*
X162676525Y-110813368D01*
X162514010Y-111056589D01*
X162402068Y-111326842D01*
X162345000Y-111613740D01*
X162345000Y-111906260D01*
X162402068Y-112193158D01*
X162514010Y-112463411D01*
X162676525Y-112706632D01*
X162872893Y-112903000D01*
X153797000Y-112903000D01*
X153797000Y-110177107D01*
X153993368Y-110373475D01*
X154236589Y-110535990D01*
X154506842Y-110647932D01*
X154793740Y-110705000D01*
X155086260Y-110705000D01*
X155373158Y-110647932D01*
X155643411Y-110535990D01*
X155886632Y-110373475D01*
X156093475Y-110166632D01*
X156255990Y-109923411D01*
X156367932Y-109653158D01*
X156425000Y-109366260D01*
X156425000Y-109073740D01*
X156383103Y-108863109D01*
X162388519Y-108863109D01*
X162509186Y-109093000D01*
X163703000Y-109093000D01*
X163703000Y-107899845D01*
X163473110Y-107778524D01*
X163325901Y-107823175D01*
X163063080Y-107948359D01*
X162829731Y-108122412D01*
X162634822Y-108338645D01*
X162485843Y-108588748D01*
X162388519Y-108863109D01*
X156383103Y-108863109D01*
X156367932Y-108786842D01*
X156255990Y-108516589D01*
X156093475Y-108273368D01*
X155886632Y-108066525D01*
X155712240Y-107950000D01*
X155886632Y-107833475D01*
X156093475Y-107626632D01*
X156255990Y-107383411D01*
X156367932Y-107113158D01*
X156425000Y-106826260D01*
X156425000Y-106533740D01*
X156367932Y-106246842D01*
X156255990Y-105976589D01*
X156093475Y-105733368D01*
X155886632Y-105526525D01*
X155712240Y-105410000D01*
X155886632Y-105293475D01*
X156093475Y-105086632D01*
X156255990Y-104843411D01*
X156367932Y-104573158D01*
X156425000Y-104286260D01*
X156425000Y-103993740D01*
X156367932Y-103706842D01*
X156255990Y-103436589D01*
X156093475Y-103193368D01*
X155961620Y-103061513D01*
X156034180Y-103039502D01*
X156144494Y-102980537D01*
X156241185Y-102901185D01*
X156320537Y-102804494D01*
X156379502Y-102694180D01*
X156415812Y-102574482D01*
X156428072Y-102450000D01*
X156425000Y-101885750D01*
X156266250Y-101727000D01*
X155067000Y-101727000D01*
X155067000Y-101747000D01*
X154813000Y-101747000D01*
X154813000Y-101727000D01*
X154793000Y-101727000D01*
X154793000Y-101473000D01*
X154813000Y-101473000D01*
X154813000Y-100273750D01*
X155067000Y-100273750D01*
X155067000Y-101473000D01*
X156266250Y-101473000D01*
X156425000Y-101314250D01*
X156428072Y-100750000D01*
X156415812Y-100625518D01*
X156379502Y-100505820D01*
X156320537Y-100395506D01*
X156241185Y-100298815D01*
X156144494Y-100219463D01*
X156034180Y-100160498D01*
X155914482Y-100124188D01*
X155790000Y-100111928D01*
X155225750Y-100115000D01*
X155067000Y-100273750D01*
X154813000Y-100273750D01*
X154654250Y-100115000D01*
X154090000Y-100111928D01*
X153965518Y-100124188D01*
X153845820Y-100160498D01*
X153797000Y-100186593D01*
X153797000Y-97477107D01*
X153993368Y-97673475D01*
X154236589Y-97835990D01*
X154506842Y-97947932D01*
X154793740Y-98005000D01*
X155086260Y-98005000D01*
X155373158Y-97947932D01*
X155643411Y-97835990D01*
X155886632Y-97673475D01*
X156093475Y-97466632D01*
X156255990Y-97223411D01*
X156367932Y-96953158D01*
X156425000Y-96666260D01*
X156425000Y-96373740D01*
X156367932Y-96086842D01*
X156255990Y-95816589D01*
X156093475Y-95573368D01*
X155961620Y-95441513D01*
X156034180Y-95419502D01*
X156144494Y-95360537D01*
X156241185Y-95281185D01*
X156320537Y-95184494D01*
X156379502Y-95074180D01*
X156415812Y-94954482D01*
X156428072Y-94830000D01*
X156428072Y-93130000D01*
X156415812Y-93005518D01*
X156379502Y-92885820D01*
X156320537Y-92775506D01*
X156241185Y-92678815D01*
X156144494Y-92599463D01*
X156034180Y-92540498D01*
X155914482Y-92504188D01*
X155790000Y-92491928D01*
X154090000Y-92491928D01*
X153965518Y-92504188D01*
X153845820Y-92540498D01*
X153797000Y-92566593D01*
X153797000Y-89857107D01*
X153993368Y-90053475D01*
X154236589Y-90215990D01*
X154506842Y-90327932D01*
X154793740Y-90385000D01*
X155086260Y-90385000D01*
X155373158Y-90327932D01*
X155643411Y-90215990D01*
X155886632Y-90053475D01*
X156093475Y-89846632D01*
X156255990Y-89603411D01*
X156367932Y-89333158D01*
X156425000Y-89046260D01*
X156425000Y-88753740D01*
X156367932Y-88466842D01*
X156255990Y-88196589D01*
X156093475Y-87953368D01*
X155961620Y-87821513D01*
X156034180Y-87799502D01*
X156144494Y-87740537D01*
X156241185Y-87661185D01*
X156320537Y-87564494D01*
X156379502Y-87454180D01*
X156415812Y-87334482D01*
X156428072Y-87210000D01*
X156428072Y-85510000D01*
X156415812Y-85385518D01*
X156379502Y-85265820D01*
X156320537Y-85155506D01*
X156241185Y-85058815D01*
X156144494Y-84979463D01*
X156034180Y-84920498D01*
X155914482Y-84884188D01*
X155790000Y-84871928D01*
X154090000Y-84871928D01*
X153965518Y-84884188D01*
X153845820Y-84920498D01*
X153797000Y-84946593D01*
X153797000Y-82237107D01*
X153993368Y-82433475D01*
X154236589Y-82595990D01*
X154506842Y-82707932D01*
X154793740Y-82765000D01*
X155086260Y-82765000D01*
X155373158Y-82707932D01*
X155643411Y-82595990D01*
X155886632Y-82433475D01*
X156093475Y-82226632D01*
X156115238Y-82194061D01*
X173971000Y-82194061D01*
X173971000Y-82397939D01*
X174010774Y-82597898D01*
X174088795Y-82786256D01*
X174202063Y-82955774D01*
X174346226Y-83099937D01*
X174515744Y-83213205D01*
X174704102Y-83291226D01*
X174904061Y-83331000D01*
X175107939Y-83331000D01*
X175307898Y-83291226D01*
X175496256Y-83213205D01*
X175665774Y-83099937D01*
X175809937Y-82955774D01*
X175923205Y-82786256D01*
X176001226Y-82597898D01*
X176041000Y-82397939D01*
X176041000Y-82194061D01*
X176001226Y-81994102D01*
X175923205Y-81805744D01*
X175809937Y-81636226D01*
X175665774Y-81492063D01*
X175496256Y-81378795D01*
X175307898Y-81300774D01*
X175107939Y-81261000D01*
X174904061Y-81261000D01*
X174704102Y-81300774D01*
X174515744Y-81378795D01*
X174346226Y-81492063D01*
X174202063Y-81636226D01*
X174088795Y-81805744D01*
X174010774Y-81994102D01*
X173971000Y-82194061D01*
X156115238Y-82194061D01*
X156255990Y-81983411D01*
X156367932Y-81713158D01*
X156425000Y-81426260D01*
X156425000Y-81133740D01*
X156367932Y-80846842D01*
X156255990Y-80576589D01*
X156093475Y-80333368D01*
X155961620Y-80201513D01*
X156034180Y-80179502D01*
X156144494Y-80120537D01*
X156241185Y-80041185D01*
X156320537Y-79944494D01*
X156379502Y-79834180D01*
X156415812Y-79714482D01*
X156428072Y-79590000D01*
X156428072Y-78638061D01*
X165081000Y-78638061D01*
X165081000Y-78841939D01*
X165120774Y-79041898D01*
X165198795Y-79230256D01*
X165312063Y-79399774D01*
X165456226Y-79543937D01*
X165625744Y-79657205D01*
X165814102Y-79735226D01*
X166014061Y-79775000D01*
X166217939Y-79775000D01*
X166417898Y-79735226D01*
X166606256Y-79657205D01*
X166775774Y-79543937D01*
X166919937Y-79399774D01*
X167033205Y-79230256D01*
X167111226Y-79041898D01*
X167151000Y-78841939D01*
X167151000Y-78638061D01*
X167111226Y-78438102D01*
X167033205Y-78249744D01*
X166919937Y-78080226D01*
X166775774Y-77936063D01*
X166606256Y-77822795D01*
X166417898Y-77744774D01*
X166217939Y-77705000D01*
X166014061Y-77705000D01*
X165814102Y-77744774D01*
X165625744Y-77822795D01*
X165456226Y-77936063D01*
X165312063Y-78080226D01*
X165198795Y-78249744D01*
X165120774Y-78438102D01*
X165081000Y-78638061D01*
X156428072Y-78638061D01*
X156428072Y-77890000D01*
X156415812Y-77765518D01*
X156379502Y-77645820D01*
X156320537Y-77535506D01*
X156241185Y-77438815D01*
X156144494Y-77359463D01*
X156034180Y-77300498D01*
X155914482Y-77264188D01*
X155790000Y-77251928D01*
X154090000Y-77251928D01*
X153965518Y-77264188D01*
X153845820Y-77300498D01*
X153797000Y-77326593D01*
X153797000Y-76600714D01*
X166021333Y-76600714D01*
X166021333Y-76804592D01*
X166061107Y-77004551D01*
X166139128Y-77192909D01*
X166252396Y-77362427D01*
X166396559Y-77506590D01*
X166566077Y-77619858D01*
X166754435Y-77697879D01*
X166954394Y-77737653D01*
X167003468Y-77737653D01*
X167003468Y-77786727D01*
X167043242Y-77986686D01*
X167121263Y-78175044D01*
X167234531Y-78344562D01*
X167378694Y-78488725D01*
X167548212Y-78601993D01*
X167736570Y-78680014D01*
X167936529Y-78719788D01*
X168140407Y-78719788D01*
X168164209Y-78715054D01*
X168129000Y-78892061D01*
X168129000Y-79095939D01*
X168168774Y-79295898D01*
X168246795Y-79484256D01*
X168360063Y-79653774D01*
X168504226Y-79797937D01*
X168673744Y-79911205D01*
X168862102Y-79989226D01*
X169062061Y-80029000D01*
X169265939Y-80029000D01*
X169465898Y-79989226D01*
X169654256Y-79911205D01*
X169823774Y-79797937D01*
X169967937Y-79653774D01*
X170081205Y-79484256D01*
X170159226Y-79295898D01*
X170199000Y-79095939D01*
X170199000Y-78892061D01*
X170159226Y-78692102D01*
X170081205Y-78503744D01*
X169967937Y-78334226D01*
X169823774Y-78190063D01*
X169654256Y-78076795D01*
X169465898Y-77998774D01*
X169265939Y-77959000D01*
X169062061Y-77959000D01*
X169038259Y-77963734D01*
X169073468Y-77786727D01*
X169073468Y-77622061D01*
X176765000Y-77622061D01*
X176765000Y-77825939D01*
X176804774Y-78025898D01*
X176882795Y-78214256D01*
X176996063Y-78383774D01*
X177140226Y-78527937D01*
X177309744Y-78641205D01*
X177498102Y-78719226D01*
X177698061Y-78759000D01*
X177901939Y-78759000D01*
X178101898Y-78719226D01*
X178290256Y-78641205D01*
X178459774Y-78527937D01*
X178603937Y-78383774D01*
X178717205Y-78214256D01*
X178795226Y-78025898D01*
X178835000Y-77825939D01*
X178835000Y-77622061D01*
X178795226Y-77422102D01*
X178717205Y-77233744D01*
X178603937Y-77064226D01*
X178459774Y-76920063D01*
X178290256Y-76806795D01*
X178101898Y-76728774D01*
X177901939Y-76689000D01*
X177698061Y-76689000D01*
X177498102Y-76728774D01*
X177309744Y-76806795D01*
X177140226Y-76920063D01*
X176996063Y-77064226D01*
X176882795Y-77233744D01*
X176804774Y-77422102D01*
X176765000Y-77622061D01*
X169073468Y-77622061D01*
X169073468Y-77582849D01*
X169033694Y-77382890D01*
X168955673Y-77194532D01*
X168842405Y-77025014D01*
X168698242Y-76880851D01*
X168528724Y-76767583D01*
X168340366Y-76689562D01*
X168140407Y-76649788D01*
X168091333Y-76649788D01*
X168091333Y-76600714D01*
X168051559Y-76400755D01*
X167973538Y-76212397D01*
X167860270Y-76042879D01*
X167716107Y-75898716D01*
X167546589Y-75785448D01*
X167358231Y-75707427D01*
X167158272Y-75667653D01*
X166954394Y-75667653D01*
X166754435Y-75707427D01*
X166566077Y-75785448D01*
X166396559Y-75898716D01*
X166252396Y-76042879D01*
X166139128Y-76212397D01*
X166061107Y-76400755D01*
X166021333Y-76600714D01*
X153797000Y-76600714D01*
X153797000Y-75327407D01*
X153845820Y-75353502D01*
X153965518Y-75389812D01*
X154090000Y-75402072D01*
X155790000Y-75402072D01*
X155914482Y-75389812D01*
X156034180Y-75353502D01*
X156144494Y-75294537D01*
X156241185Y-75215185D01*
X156320537Y-75118494D01*
X156379502Y-75008180D01*
X156415812Y-74888482D01*
X156428072Y-74764000D01*
X156428072Y-74320061D01*
X175749000Y-74320061D01*
X175749000Y-74523939D01*
X175788774Y-74723898D01*
X175866795Y-74912256D01*
X175980063Y-75081774D01*
X176124226Y-75225937D01*
X176293744Y-75339205D01*
X176482102Y-75417226D01*
X176682061Y-75457000D01*
X176885939Y-75457000D01*
X177085898Y-75417226D01*
X177274256Y-75339205D01*
X177443774Y-75225937D01*
X177587937Y-75081774D01*
X177701205Y-74912256D01*
X177779226Y-74723898D01*
X177819000Y-74523939D01*
X177819000Y-74320061D01*
X177779226Y-74120102D01*
X177701205Y-73931744D01*
X177587937Y-73762226D01*
X177443774Y-73618063D01*
X177274256Y-73504795D01*
X177085898Y-73426774D01*
X176885939Y-73387000D01*
X176682061Y-73387000D01*
X176482102Y-73426774D01*
X176293744Y-73504795D01*
X176124226Y-73618063D01*
X175980063Y-73762226D01*
X175866795Y-73931744D01*
X175788774Y-74120102D01*
X175749000Y-74320061D01*
X156428072Y-74320061D01*
X156428072Y-73064000D01*
X156415812Y-72939518D01*
X156379502Y-72819820D01*
X156320537Y-72709506D01*
X156241185Y-72612815D01*
X156144494Y-72533463D01*
X156034180Y-72474498D01*
X155961620Y-72452487D01*
X156093475Y-72320632D01*
X156255990Y-72077411D01*
X156367932Y-71807158D01*
X156425000Y-71520260D01*
X156425000Y-71272061D01*
X164319000Y-71272061D01*
X164319000Y-71475939D01*
X164358774Y-71675898D01*
X164436795Y-71864256D01*
X164550063Y-72033774D01*
X164694226Y-72177937D01*
X164863744Y-72291205D01*
X165052102Y-72369226D01*
X165252061Y-72409000D01*
X165455939Y-72409000D01*
X165655898Y-72369226D01*
X165844256Y-72291205D01*
X166013774Y-72177937D01*
X166157937Y-72033774D01*
X166271205Y-71864256D01*
X166349226Y-71675898D01*
X166389000Y-71475939D01*
X166389000Y-71272061D01*
X166349226Y-71072102D01*
X166271205Y-70883744D01*
X166157937Y-70714226D01*
X166013774Y-70570063D01*
X165844256Y-70456795D01*
X165655898Y-70378774D01*
X165455939Y-70339000D01*
X165252061Y-70339000D01*
X165052102Y-70378774D01*
X164863744Y-70456795D01*
X164694226Y-70570063D01*
X164550063Y-70714226D01*
X164436795Y-70883744D01*
X164358774Y-71072102D01*
X164319000Y-71272061D01*
X156425000Y-71272061D01*
X156425000Y-71227740D01*
X156367932Y-70940842D01*
X156255990Y-70670589D01*
X156093475Y-70427368D01*
X155886632Y-70220525D01*
X155712240Y-70104000D01*
X155886632Y-69987475D01*
X156093475Y-69780632D01*
X156255990Y-69537411D01*
X156367932Y-69267158D01*
X156425000Y-68980260D01*
X156425000Y-68687740D01*
X156367932Y-68400842D01*
X156294708Y-68224061D01*
X166605000Y-68224061D01*
X166605000Y-68427939D01*
X166644774Y-68627898D01*
X166722795Y-68816256D01*
X166836063Y-68985774D01*
X166980226Y-69129937D01*
X167149744Y-69243205D01*
X167338102Y-69321226D01*
X167538061Y-69361000D01*
X167741939Y-69361000D01*
X167941898Y-69321226D01*
X168130256Y-69243205D01*
X168299774Y-69129937D01*
X168443937Y-68985774D01*
X168557205Y-68816256D01*
X168635226Y-68627898D01*
X168675000Y-68427939D01*
X168675000Y-68224061D01*
X168635226Y-68024102D01*
X168557205Y-67835744D01*
X168443937Y-67666226D01*
X168299774Y-67522063D01*
X168130256Y-67408795D01*
X167941898Y-67330774D01*
X167741939Y-67291000D01*
X167538061Y-67291000D01*
X167338102Y-67330774D01*
X167149744Y-67408795D01*
X166980226Y-67522063D01*
X166836063Y-67666226D01*
X166722795Y-67835744D01*
X166644774Y-68024102D01*
X166605000Y-68224061D01*
X156294708Y-68224061D01*
X156255990Y-68130589D01*
X156093475Y-67887368D01*
X155886632Y-67680525D01*
X155712240Y-67564000D01*
X155886632Y-67447475D01*
X156093475Y-67240632D01*
X156255990Y-66997411D01*
X156367932Y-66727158D01*
X156425000Y-66440260D01*
X156425000Y-66147740D01*
X156367932Y-65860842D01*
X156255990Y-65590589D01*
X156093475Y-65347368D01*
X155886632Y-65140525D01*
X155643411Y-64978010D01*
X155373158Y-64866068D01*
X155086260Y-64809000D01*
X154793740Y-64809000D01*
X154506842Y-64866068D01*
X154236589Y-64978010D01*
X153993368Y-65140525D01*
X153797000Y-65336893D01*
X153797000Y-62996201D01*
X165835714Y-62996201D01*
X165835714Y-63200079D01*
X165875488Y-63400038D01*
X165953509Y-63588396D01*
X166066777Y-63757914D01*
X166210940Y-63902077D01*
X166380458Y-64015345D01*
X166568816Y-64093366D01*
X166768775Y-64133140D01*
X166972653Y-64133140D01*
X167172612Y-64093366D01*
X167360970Y-64015345D01*
X167524525Y-63906061D01*
X167875000Y-63906061D01*
X167875000Y-64109939D01*
X167914774Y-64309898D01*
X167992795Y-64498256D01*
X168106063Y-64667774D01*
X168250226Y-64811937D01*
X168419744Y-64925205D01*
X168608102Y-65003226D01*
X168808061Y-65043000D01*
X169011939Y-65043000D01*
X169211898Y-65003226D01*
X169400256Y-64925205D01*
X169569774Y-64811937D01*
X169713937Y-64667774D01*
X169827205Y-64498256D01*
X169905226Y-64309898D01*
X169935500Y-64157697D01*
X169943744Y-64163205D01*
X170132102Y-64241226D01*
X170332061Y-64281000D01*
X170535939Y-64281000D01*
X170735898Y-64241226D01*
X170924256Y-64163205D01*
X171093774Y-64049937D01*
X171237937Y-63905774D01*
X171351205Y-63736256D01*
X171429226Y-63547898D01*
X171469000Y-63347939D01*
X171469000Y-63144061D01*
X171429226Y-62944102D01*
X171351205Y-62755744D01*
X171237937Y-62586226D01*
X171093774Y-62442063D01*
X170924256Y-62328795D01*
X170735898Y-62250774D01*
X170535939Y-62211000D01*
X170332061Y-62211000D01*
X170132102Y-62250774D01*
X169943744Y-62328795D01*
X169774226Y-62442063D01*
X169630063Y-62586226D01*
X169516795Y-62755744D01*
X169438774Y-62944102D01*
X169408500Y-63096303D01*
X169400256Y-63090795D01*
X169211898Y-63012774D01*
X169011939Y-62973000D01*
X168808061Y-62973000D01*
X168608102Y-63012774D01*
X168419744Y-63090795D01*
X168250226Y-63204063D01*
X168106063Y-63348226D01*
X167992795Y-63517744D01*
X167914774Y-63706102D01*
X167875000Y-63906061D01*
X167524525Y-63906061D01*
X167530488Y-63902077D01*
X167674651Y-63757914D01*
X167787919Y-63588396D01*
X167865940Y-63400038D01*
X167905714Y-63200079D01*
X167905714Y-62996201D01*
X167865940Y-62796242D01*
X167787919Y-62607884D01*
X167674651Y-62438366D01*
X167530488Y-62294203D01*
X167360970Y-62180935D01*
X167172612Y-62102914D01*
X166972653Y-62063140D01*
X166768775Y-62063140D01*
X166568816Y-62102914D01*
X166380458Y-62180935D01*
X166210940Y-62294203D01*
X166066777Y-62438366D01*
X165953509Y-62607884D01*
X165875488Y-62796242D01*
X165835714Y-62996201D01*
X153797000Y-62996201D01*
X153797000Y-62627407D01*
X153845820Y-62653502D01*
X153965518Y-62689812D01*
X154090000Y-62702072D01*
X155790000Y-62702072D01*
X155914482Y-62689812D01*
X156034180Y-62653502D01*
X156144494Y-62594537D01*
X156241185Y-62515185D01*
X156320537Y-62418494D01*
X156379502Y-62308180D01*
X156415812Y-62188482D01*
X156428072Y-62064000D01*
X156428072Y-60364000D01*
X156415812Y-60239518D01*
X156379502Y-60119820D01*
X156320537Y-60009506D01*
X156241185Y-59912815D01*
X156144494Y-59833463D01*
X156034180Y-59774498D01*
X155961620Y-59752487D01*
X156093475Y-59620632D01*
X156255990Y-59377411D01*
X156367932Y-59107158D01*
X156425000Y-58820260D01*
X156425000Y-58527740D01*
X156367932Y-58240842D01*
X156255990Y-57970589D01*
X156240315Y-57947129D01*
X164203679Y-57947129D01*
X164203679Y-58151007D01*
X164243453Y-58350966D01*
X164321474Y-58539324D01*
X164434742Y-58708842D01*
X164578905Y-58853005D01*
X164748423Y-58966273D01*
X164936781Y-59044294D01*
X165136740Y-59084068D01*
X165340618Y-59084068D01*
X165540577Y-59044294D01*
X165728935Y-58966273D01*
X165898453Y-58853005D01*
X166042616Y-58708842D01*
X166155884Y-58539324D01*
X166233905Y-58350966D01*
X166273679Y-58151007D01*
X166273679Y-57947129D01*
X166233905Y-57747170D01*
X166155884Y-57558812D01*
X166042616Y-57389294D01*
X165898453Y-57245131D01*
X165728935Y-57131863D01*
X165540577Y-57053842D01*
X165511514Y-57048061D01*
X167367000Y-57048061D01*
X167367000Y-57251939D01*
X167406774Y-57451898D01*
X167484795Y-57640256D01*
X167598063Y-57809774D01*
X167742226Y-57953937D01*
X167911744Y-58067205D01*
X168100102Y-58145226D01*
X168300061Y-58185000D01*
X168503939Y-58185000D01*
X168703898Y-58145226D01*
X168892256Y-58067205D01*
X169061774Y-57953937D01*
X169205937Y-57809774D01*
X169319205Y-57640256D01*
X169397226Y-57451898D01*
X169437000Y-57251939D01*
X169437000Y-57048061D01*
X169397226Y-56848102D01*
X169319205Y-56659744D01*
X169205937Y-56490226D01*
X169061774Y-56346063D01*
X168892256Y-56232795D01*
X168703898Y-56154774D01*
X168503939Y-56115000D01*
X168300061Y-56115000D01*
X168100102Y-56154774D01*
X167911744Y-56232795D01*
X167742226Y-56346063D01*
X167598063Y-56490226D01*
X167484795Y-56659744D01*
X167406774Y-56848102D01*
X167367000Y-57048061D01*
X165511514Y-57048061D01*
X165340618Y-57014068D01*
X165136740Y-57014068D01*
X164936781Y-57053842D01*
X164748423Y-57131863D01*
X164578905Y-57245131D01*
X164434742Y-57389294D01*
X164321474Y-57558812D01*
X164243453Y-57747170D01*
X164203679Y-57947129D01*
X156240315Y-57947129D01*
X156093475Y-57727368D01*
X155886632Y-57520525D01*
X155712240Y-57404000D01*
X155886632Y-57287475D01*
X156093475Y-57080632D01*
X156255990Y-56837411D01*
X156367932Y-56567158D01*
X156425000Y-56280260D01*
X156425000Y-55987740D01*
X156367932Y-55700842D01*
X156294708Y-55524061D01*
X165843000Y-55524061D01*
X165843000Y-55727939D01*
X165882774Y-55927898D01*
X165960795Y-56116256D01*
X166074063Y-56285774D01*
X166218226Y-56429937D01*
X166387744Y-56543205D01*
X166576102Y-56621226D01*
X166776061Y-56661000D01*
X166979939Y-56661000D01*
X167179898Y-56621226D01*
X167368256Y-56543205D01*
X167537774Y-56429937D01*
X167681937Y-56285774D01*
X167795205Y-56116256D01*
X167873226Y-55927898D01*
X167913000Y-55727939D01*
X167913000Y-55524061D01*
X167873226Y-55324102D01*
X167850842Y-55270061D01*
X168637000Y-55270061D01*
X168637000Y-55473939D01*
X168676774Y-55673898D01*
X168754795Y-55862256D01*
X168868063Y-56031774D01*
X169012226Y-56175937D01*
X169181744Y-56289205D01*
X169370102Y-56367226D01*
X169570061Y-56407000D01*
X169773939Y-56407000D01*
X169973898Y-56367226D01*
X170162256Y-56289205D01*
X170331774Y-56175937D01*
X170475937Y-56031774D01*
X170589205Y-55862256D01*
X170667226Y-55673898D01*
X170707000Y-55473939D01*
X170707000Y-55270061D01*
X170667226Y-55070102D01*
X170589205Y-54881744D01*
X170475937Y-54712226D01*
X170331774Y-54568063D01*
X170162256Y-54454795D01*
X169973898Y-54376774D01*
X169773939Y-54337000D01*
X169570061Y-54337000D01*
X169370102Y-54376774D01*
X169181744Y-54454795D01*
X169012226Y-54568063D01*
X168868063Y-54712226D01*
X168754795Y-54881744D01*
X168676774Y-55070102D01*
X168637000Y-55270061D01*
X167850842Y-55270061D01*
X167795205Y-55135744D01*
X167681937Y-54966226D01*
X167537774Y-54822063D01*
X167368256Y-54708795D01*
X167179898Y-54630774D01*
X166979939Y-54591000D01*
X166776061Y-54591000D01*
X166576102Y-54630774D01*
X166387744Y-54708795D01*
X166218226Y-54822063D01*
X166074063Y-54966226D01*
X165960795Y-55135744D01*
X165882774Y-55324102D01*
X165843000Y-55524061D01*
X156294708Y-55524061D01*
X156255990Y-55430589D01*
X156093475Y-55187368D01*
X155886632Y-54980525D01*
X155712240Y-54864000D01*
X155886632Y-54747475D01*
X156093475Y-54540632D01*
X156255990Y-54297411D01*
X156367932Y-54027158D01*
X156425000Y-53740260D01*
X156425000Y-53447740D01*
X156367932Y-53160842D01*
X156255990Y-52890589D01*
X156093475Y-52647368D01*
X155886632Y-52440525D01*
X155643411Y-52278010D01*
X155447835Y-52197000D01*
X170419985Y-52197000D01*
X170454774Y-52371898D01*
%TA.AperFunction,Conductor*%
D19*
G36*
X170454774Y-52371898D02*
G01*
X170532795Y-52560256D01*
X170646063Y-52729774D01*
X170790226Y-52873937D01*
X170959744Y-52987205D01*
X171148102Y-53065226D01*
X171348061Y-53105000D01*
X171551939Y-53105000D01*
X171751898Y-53065226D01*
X171940256Y-52987205D01*
X172109774Y-52873937D01*
X172253937Y-52729774D01*
X172367205Y-52560256D01*
X172445226Y-52371898D01*
X172480015Y-52197000D01*
X179003319Y-52197000D01*
X178950498Y-52295820D01*
X178914188Y-52415518D01*
X178901928Y-52540000D01*
X178905000Y-53054250D01*
X179063750Y-53213000D01*
X180213000Y-53213000D01*
X180213000Y-53193000D01*
X180467000Y-53193000D01*
X180467000Y-53213000D01*
X181616250Y-53213000D01*
X181775000Y-53054250D01*
X181778072Y-52540000D01*
X181765812Y-52415518D01*
X181729502Y-52295820D01*
X181676681Y-52197000D01*
X194707689Y-52197000D01*
X194665241Y-52225363D01*
X194465363Y-52425241D01*
X194308320Y-52660273D01*
X194200147Y-52921426D01*
X194145000Y-53198665D01*
X194145000Y-53481335D01*
X194200147Y-53758574D01*
X194308320Y-54019727D01*
X194465363Y-54254759D01*
X194665241Y-54454637D01*
X194899128Y-54610915D01*
X194838486Y-54643329D01*
X194766903Y-54887298D01*
X195580000Y-55700395D01*
X196393097Y-54887298D01*
X196321514Y-54643329D01*
X196257008Y-54612806D01*
X196259727Y-54611680D01*
X196494759Y-54454637D01*
X196694637Y-54254759D01*
X196851680Y-54019727D01*
X196959853Y-53758574D01*
X197015000Y-53481335D01*
X197015000Y-53198665D01*
X196959853Y-52921426D01*
X196851680Y-52660273D01*
X196694637Y-52425241D01*
X196494759Y-52225363D01*
X196452311Y-52197000D01*
X214486593Y-52197000D01*
X214460498Y-52245820D01*
X214424188Y-52365518D01*
X214411928Y-52490000D01*
X214411928Y-54190000D01*
X214424188Y-54314482D01*
X214460498Y-54434180D01*
X214519463Y-54544494D01*
X214598815Y-54641185D01*
X214695506Y-54720537D01*
X214805820Y-54779502D01*
X214886466Y-54803966D01*
X214802412Y-54879731D01*
X214628359Y-55113080D01*
X214503175Y-55375901D01*
X214458524Y-55523110D01*
X214579845Y-55753000D01*
X215773000Y-55753000D01*
X215773000Y-55733000D01*
X216027000Y-55733000D01*
X216027000Y-55753000D01*
X216047000Y-55753000D01*
X216047000Y-56007000D01*
X216027000Y-56007000D01*
X216027000Y-57200814D01*
X216256891Y-57321481D01*
X216531252Y-57224157D01*
X216781355Y-57075178D01*
X216997588Y-56880269D01*
X217043000Y-56819386D01*
X217043000Y-59546593D01*
X216994180Y-59520498D01*
X216874482Y-59484188D01*
X216750000Y-59471928D01*
X215050000Y-59471928D01*
X214925518Y-59484188D01*
X214805820Y-59520498D01*
X214695506Y-59579463D01*
X214598815Y-59658815D01*
X214519463Y-59755506D01*
X214460498Y-59865820D01*
X214424188Y-59985518D01*
X214411928Y-60110000D01*
X214411928Y-61810000D01*
X214424188Y-61934482D01*
X214460498Y-62054180D01*
X214519463Y-62164494D01*
X214598815Y-62261185D01*
X214695506Y-62340537D01*
X214805820Y-62399502D01*
X214886466Y-62423966D01*
X214802412Y-62499731D01*
X214628359Y-62733080D01*
X214503175Y-62995901D01*
X214458524Y-63143110D01*
X214579845Y-63373000D01*
X215773000Y-63373000D01*
X215773000Y-63353000D01*
X216027000Y-63353000D01*
X216027000Y-63373000D01*
X216047000Y-63373000D01*
X216047000Y-63627000D01*
X216027000Y-63627000D01*
X216027000Y-63647000D01*
X215773000Y-63647000D01*
X215773000Y-63627000D01*
X214579845Y-63627000D01*
X214458524Y-63856890D01*
X214503175Y-64004099D01*
X214628359Y-64266920D01*
X214802412Y-64500269D01*
X215018645Y-64695178D01*
X215135534Y-64764805D01*
X214953368Y-64886525D01*
X214746525Y-65093368D01*
X214584010Y-65336589D01*
X214472068Y-65606842D01*
X214415000Y-65893740D01*
X214415000Y-66186260D01*
X214472068Y-66473158D01*
X214584010Y-66743411D01*
X214746525Y-66986632D01*
X214953368Y-67193475D01*
X215127760Y-67310000D01*
X214953368Y-67426525D01*
X214746525Y-67633368D01*
X214584010Y-67876589D01*
X214472068Y-68146842D01*
X214415000Y-68433740D01*
X214415000Y-68726260D01*
X214472068Y-69013158D01*
X214584010Y-69283411D01*
X214746525Y-69526632D01*
X214953368Y-69733475D01*
X215196589Y-69895990D01*
X215466842Y-70007932D01*
X215753740Y-70065000D01*
X216046260Y-70065000D01*
X216333158Y-70007932D01*
X216603411Y-69895990D01*
X216846632Y-69733475D01*
X217043000Y-69537107D01*
X217043000Y-72246593D01*
X216994180Y-72220498D01*
X216874482Y-72184188D01*
X216750000Y-72171928D01*
X216185750Y-72175000D01*
X216027000Y-72333750D01*
X216027000Y-73533000D01*
X216047000Y-73533000D01*
X216047000Y-73787000D01*
X216027000Y-73787000D01*
X216027000Y-73807000D01*
X215773000Y-73807000D01*
X215773000Y-73787000D01*
X214573750Y-73787000D01*
X214415000Y-73945750D01*
X214411928Y-74510000D01*
X214424188Y-74634482D01*
X214460498Y-74754180D01*
X214519463Y-74864494D01*
X214598815Y-74961185D01*
X214695506Y-75040537D01*
X214805820Y-75099502D01*
X214878380Y-75121513D01*
X214746525Y-75253368D01*
X214584010Y-75496589D01*
X214472068Y-75766842D01*
X214415000Y-76053740D01*
X214415000Y-76346260D01*
X214472068Y-76633158D01*
X214584010Y-76903411D01*
X214746525Y-77146632D01*
X214953368Y-77353475D01*
X215127760Y-77470000D01*
X214953368Y-77586525D01*
X214746525Y-77793368D01*
X214584010Y-78036589D01*
X214472068Y-78306842D01*
X214415000Y-78593740D01*
X214415000Y-78886260D01*
X214472068Y-79173158D01*
X214584010Y-79443411D01*
X214746525Y-79686632D01*
X214953368Y-79893475D01*
X215196589Y-80055990D01*
X215466842Y-80167932D01*
X215753740Y-80225000D01*
X216046260Y-80225000D01*
X216333158Y-80167932D01*
X216603411Y-80055990D01*
X216846632Y-79893475D01*
X217043000Y-79697107D01*
X217043000Y-82406593D01*
X216994180Y-82380498D01*
X216874482Y-82344188D01*
X216750000Y-82331928D01*
X215050000Y-82331928D01*
X214925518Y-82344188D01*
X214805820Y-82380498D01*
X214695506Y-82439463D01*
X214598815Y-82518815D01*
X214519463Y-82615506D01*
X214460498Y-82725820D01*
X214424188Y-82845518D01*
X214411928Y-82970000D01*
X214411928Y-84670000D01*
X214424188Y-84794482D01*
X214460498Y-84914180D01*
X214519463Y-85024494D01*
X214598815Y-85121185D01*
X214695506Y-85200537D01*
X214805820Y-85259502D01*
X214878380Y-85281513D01*
X214746525Y-85413368D01*
X214584010Y-85656589D01*
X214472068Y-85926842D01*
X214415000Y-86213740D01*
X214415000Y-86506260D01*
X214472068Y-86793158D01*
X214584010Y-87063411D01*
X214746525Y-87306632D01*
X214953368Y-87513475D01*
X215127760Y-87630000D01*
X214953368Y-87746525D01*
X214746525Y-87953368D01*
X214584010Y-88196589D01*
X214472068Y-88466842D01*
X214415000Y-88753740D01*
X214415000Y-88880198D01*
X206712863Y-81178061D01*
X208515000Y-81178061D01*
X208515000Y-81381939D01*
X208554774Y-81581898D01*
X208632795Y-81770256D01*
X208746063Y-81939774D01*
X208890226Y-82083937D01*
X209059744Y-82197205D01*
X209248102Y-82275226D01*
X209448061Y-82315000D01*
X209651939Y-82315000D01*
X209851898Y-82275226D01*
X210040256Y-82197205D01*
X210209774Y-82083937D01*
X210353937Y-81939774D01*
X210467205Y-81770256D01*
X210545226Y-81581898D01*
X210585000Y-81381939D01*
X210585000Y-81178061D01*
X210545226Y-80978102D01*
X210467205Y-80789744D01*
X210353937Y-80620226D01*
X210209774Y-80476063D01*
X210040256Y-80362795D01*
X209851898Y-80284774D01*
X209651939Y-80245000D01*
X209448061Y-80245000D01*
X209248102Y-80284774D01*
X209059744Y-80362795D01*
X208890226Y-80476063D01*
X208746063Y-80620226D01*
X208632795Y-80789744D01*
X208554774Y-80978102D01*
X208515000Y-81178061D01*
X206712863Y-81178061D01*
X198344802Y-72810000D01*
X214411928Y-72810000D01*
X214415000Y-73374250D01*
X214573750Y-73533000D01*
X215773000Y-73533000D01*
X215773000Y-72333750D01*
X215614250Y-72175000D01*
X215050000Y-72171928D01*
X214925518Y-72184188D01*
X214805820Y-72220498D01*
X214695506Y-72279463D01*
X214598815Y-72358815D01*
X214519463Y-72455506D01*
X214460498Y-72565820D01*
X214424188Y-72685518D01*
X214411928Y-72810000D01*
X198344802Y-72810000D01*
X197465001Y-71930200D01*
X197465001Y-70256061D01*
X208261000Y-70256061D01*
X208261000Y-70459939D01*
X208300774Y-70659898D01*
X208378795Y-70848256D01*
X208492063Y-71017774D01*
X208636226Y-71161937D01*
X208805744Y-71275205D01*
X208994102Y-71353226D01*
X209194061Y-71393000D01*
X209397939Y-71393000D01*
X209597898Y-71353226D01*
X209786256Y-71275205D01*
X209955774Y-71161937D01*
X210099937Y-71017774D01*
X210213205Y-70848256D01*
X210291226Y-70659898D01*
X210331000Y-70459939D01*
X210331000Y-70256061D01*
X210291226Y-70056102D01*
X210213205Y-69867744D01*
X210099937Y-69698226D01*
X209955774Y-69554063D01*
X209786256Y-69440795D01*
X209597898Y-69362774D01*
X209397939Y-69323000D01*
X209194061Y-69323000D01*
X208994102Y-69362774D01*
X208805744Y-69440795D01*
X208636226Y-69554063D01*
X208492063Y-69698226D01*
X208378795Y-69867744D01*
X208300774Y-70056102D01*
X208261000Y-70256061D01*
X197465001Y-70256061D01*
X197465001Y-68478061D01*
X201403000Y-68478061D01*
X201403000Y-68681939D01*
X201442774Y-68881898D01*
X201520795Y-69070256D01*
X201634063Y-69239774D01*
X201778226Y-69383937D01*
X201947744Y-69497205D01*
X202136102Y-69575226D01*
X202336061Y-69615000D01*
X202539939Y-69615000D01*
X202739898Y-69575226D01*
X202928256Y-69497205D01*
X203097774Y-69383937D01*
X203241937Y-69239774D01*
X203355205Y-69070256D01*
X203433226Y-68881898D01*
X203473000Y-68681939D01*
X203473000Y-68478061D01*
X203433226Y-68278102D01*
X203355205Y-68089744D01*
X203241937Y-67920226D01*
X203097774Y-67776063D01*
X202928256Y-67662795D01*
X202739898Y-67584774D01*
X202539939Y-67545000D01*
X202336061Y-67545000D01*
X202136102Y-67584774D01*
X201947744Y-67662795D01*
X201778226Y-67776063D01*
X201634063Y-67920226D01*
X201520795Y-68089744D01*
X201442774Y-68278102D01*
X201403000Y-68478061D01*
X197465001Y-68478061D01*
X197465001Y-65430061D01*
X198863000Y-65430061D01*
X198863000Y-65633939D01*
X198902774Y-65833898D01*
X198980795Y-66022256D01*
X199094063Y-66191774D01*
X199238226Y-66335937D01*
X199407744Y-66449205D01*
X199596102Y-66527226D01*
X199796061Y-66567000D01*
X199999939Y-66567000D01*
X200199898Y-66527226D01*
X200388256Y-66449205D01*
X200557774Y-66335937D01*
X200701937Y-66191774D01*
X200815205Y-66022256D01*
X200893226Y-65833898D01*
X200933000Y-65633939D01*
X200933000Y-65430061D01*
X200893226Y-65230102D01*
X200815205Y-65041744D01*
X200701937Y-64872226D01*
X200557774Y-64728063D01*
X200388256Y-64614795D01*
X200199898Y-64536774D01*
X199999939Y-64497000D01*
X199796061Y-64497000D01*
X199596102Y-64536774D01*
X199407744Y-64614795D01*
X199238226Y-64728063D01*
X199094063Y-64872226D01*
X198980795Y-65041744D01*
X198902774Y-65230102D01*
X198863000Y-65430061D01*
X197465001Y-65430061D01*
X197465001Y-60457324D01*
X197468677Y-60419999D01*
X197465001Y-60382674D01*
X197465001Y-60382666D01*
X197454004Y-60271013D01*
X197410547Y-60127752D01*
X197339975Y-59995723D01*
X197245002Y-59879998D01*
X197216005Y-59856201D01*
X196694600Y-59334796D01*
X196694637Y-59334759D01*
X196851680Y-59099727D01*
X196959853Y-58838574D01*
X197015000Y-58561335D01*
X197015000Y-58278665D01*
X196959853Y-58001426D01*
X196851680Y-57740273D01*
X196694637Y-57505241D01*
X196494759Y-57305363D01*
X196260872Y-57149085D01*
X196321514Y-57116671D01*
X196393097Y-56872702D01*
X195580000Y-56059605D01*
X194766903Y-56872702D01*
X194838486Y-57116671D01*
X194902992Y-57147194D01*
X194900273Y-57148320D01*
X194665241Y-57305363D01*
X194465363Y-57505241D01*
X194308320Y-57740273D01*
X194200147Y-58001426D01*
X194145000Y-58278665D01*
X194145000Y-58561335D01*
X194200147Y-58838574D01*
X194308320Y-59099727D01*
X194465363Y-59334759D01*
X194665241Y-59534637D01*
X194897759Y-59690000D01*
X194665241Y-59845363D01*
X194465363Y-60045241D01*
X194308320Y-60280273D01*
X194200147Y-60541426D01*
X194145000Y-60818665D01*
X194145000Y-61101335D01*
X194200147Y-61378574D01*
X194308320Y-61639727D01*
X194465363Y-61874759D01*
X194665241Y-62074637D01*
X194897759Y-62230000D01*
X194665241Y-62385363D01*
X194465363Y-62585241D01*
X194308320Y-62820273D01*
X194200147Y-63081426D01*
X194145000Y-63358665D01*
X194145000Y-63641335D01*
X194200147Y-63918574D01*
X194308320Y-64179727D01*
X194465363Y-64414759D01*
X194665241Y-64614637D01*
X194897759Y-64770000D01*
X194665241Y-64925363D01*
X194465363Y-65125241D01*
X194332260Y-65324444D01*
X194322137Y-65305506D01*
X194242785Y-65208815D01*
X194146094Y-65129463D01*
X194035780Y-65070498D01*
X193916082Y-65034188D01*
X193791600Y-65021928D01*
X192491600Y-65021928D01*
X192367118Y-65034188D01*
X192247420Y-65070498D01*
X192137106Y-65129463D01*
X192040415Y-65208815D01*
X191961063Y-65305506D01*
X191958470Y-65310358D01*
X191750276Y-65171247D01*
X191516421Y-65074381D01*
X191268161Y-65025000D01*
X191015039Y-65025000D01*
X190766779Y-65074381D01*
X190532924Y-65171247D01*
X190322460Y-65311875D01*
X190143475Y-65490860D01*
X190141600Y-65493666D01*
X190139725Y-65490860D01*
X189960740Y-65311875D01*
X189750276Y-65171247D01*
X189516421Y-65074381D01*
X189268161Y-65025000D01*
X189015039Y-65025000D01*
X188766779Y-65074381D01*
X188532924Y-65171247D01*
X188322460Y-65311875D01*
X188143475Y-65490860D01*
X188002847Y-65701324D01*
X187905981Y-65935179D01*
X187856600Y-66183439D01*
X187856600Y-66436561D01*
X187905981Y-66684821D01*
X188002847Y-66918676D01*
X188143475Y-67129140D01*
X188322460Y-67308125D01*
X188325266Y-67310000D01*
X188322460Y-67311875D01*
X188143475Y-67490860D01*
X188002847Y-67701324D01*
X187905981Y-67935179D01*
X187856600Y-68183439D01*
X187856600Y-68436561D01*
X187905981Y-68684821D01*
X188002847Y-68918676D01*
X188143475Y-69129140D01*
X188322460Y-69308125D01*
X188532924Y-69448753D01*
X188766779Y-69545619D01*
X189015039Y-69595000D01*
X189268161Y-69595000D01*
X189516421Y-69545619D01*
X189750276Y-69448753D01*
X189960740Y-69308125D01*
X190139725Y-69129140D01*
X190141600Y-69126334D01*
X190143475Y-69129140D01*
X190322460Y-69308125D01*
X190532924Y-69448753D01*
X190766779Y-69545619D01*
X191015039Y-69595000D01*
X191268161Y-69595000D01*
X191516421Y-69545619D01*
X191750276Y-69448753D01*
X191960740Y-69308125D01*
X192139725Y-69129140D01*
X192141600Y-69126334D01*
X192143475Y-69129140D01*
X192322460Y-69308125D01*
X192532924Y-69448753D01*
X192766779Y-69545619D01*
X193015039Y-69595000D01*
X193268161Y-69595000D01*
X193516421Y-69545619D01*
X193750276Y-69448753D01*
X193960740Y-69308125D01*
X194139725Y-69129140D01*
X194210410Y-69023352D01*
X194308320Y-69259727D01*
X194465363Y-69494759D01*
X194665241Y-69694637D01*
X194897759Y-69850000D01*
X194665241Y-70005363D01*
X194465363Y-70205241D01*
X194308320Y-70440273D01*
X194200147Y-70701426D01*
X194145000Y-70978665D01*
X194145000Y-71261335D01*
X194200147Y-71538574D01*
X194308320Y-71799727D01*
X194465363Y-72034759D01*
X194665241Y-72234637D01*
X194897759Y-72390000D01*
X194665241Y-72545363D01*
X194465363Y-72745241D01*
X194308320Y-72980273D01*
X194200147Y-73241426D01*
X194145000Y-73518665D01*
X194145000Y-73801335D01*
X194200147Y-74078574D01*
X194308320Y-74339727D01*
X194465363Y-74574759D01*
X194665241Y-74774637D01*
X194897759Y-74930000D01*
X194665241Y-75085363D01*
X194465363Y-75285241D01*
X194308320Y-75520273D01*
X194200147Y-75781426D01*
X194145000Y-76058665D01*
X194145000Y-76341335D01*
X194200147Y-76618574D01*
X194308320Y-76879727D01*
X194465363Y-77114759D01*
X194665241Y-77314637D01*
X194897759Y-77470000D01*
X194665241Y-77625363D01*
X194465363Y-77825241D01*
X194308320Y-78060273D01*
X194200147Y-78321426D01*
X194145000Y-78598665D01*
X194145000Y-78881335D01*
X194200147Y-79158574D01*
X194308320Y-79419727D01*
X194465363Y-79654759D01*
X194665241Y-79854637D01*
X194897759Y-80010000D01*
X194665241Y-80165363D01*
X194465363Y-80365241D01*
X194308320Y-80600273D01*
X194200147Y-80861426D01*
X194145000Y-81138665D01*
X194145000Y-81421335D01*
X194200147Y-81698574D01*
X194308320Y-81959727D01*
X194465363Y-82194759D01*
X194665241Y-82394637D01*
X194897759Y-82550000D01*
X194665241Y-82705363D01*
X194465363Y-82905241D01*
X194308320Y-83140273D01*
X194200147Y-83401426D01*
X194145000Y-83678665D01*
X194145000Y-83961335D01*
X194200147Y-84238574D01*
X194308320Y-84499727D01*
X194465363Y-84734759D01*
X194665241Y-84934637D01*
X194897759Y-85090000D01*
X194665241Y-85245363D01*
X194465363Y-85445241D01*
X194308320Y-85680273D01*
X194200147Y-85941426D01*
X194145000Y-86218665D01*
X194145000Y-86501335D01*
X194200147Y-86778574D01*
X194308320Y-87039727D01*
X194465363Y-87274759D01*
X194665241Y-87474637D01*
X194899128Y-87630915D01*
X194838486Y-87663329D01*
X194766903Y-87907298D01*
X195580000Y-88720395D01*
X196393097Y-87907298D01*
X196321514Y-87663329D01*
X196257008Y-87632806D01*
X196259727Y-87631680D01*
X196494759Y-87474637D01*
X196694637Y-87274759D01*
X196851680Y-87039727D01*
X196959853Y-86778574D01*
X197015000Y-86501335D01*
X197015000Y-86218665D01*
X196959853Y-85941426D01*
X196851680Y-85680273D01*
X196694637Y-85445241D01*
X196494759Y-85245363D01*
X196262241Y-85090000D01*
X196494759Y-84934637D01*
X196694637Y-84734759D01*
X196851680Y-84499727D01*
X196959853Y-84238574D01*
X197015000Y-83961335D01*
X197015000Y-83678665D01*
X196959853Y-83401426D01*
X196851680Y-83140273D01*
X196694637Y-82905241D01*
X196494759Y-82705363D01*
X196262241Y-82550000D01*
X196494759Y-82394637D01*
X196694637Y-82194759D01*
X196851680Y-81959727D01*
X196959853Y-81698574D01*
X197015000Y-81421335D01*
X197015000Y-81138665D01*
X196959853Y-80861426D01*
X196851680Y-80600273D01*
X196694637Y-80365241D01*
X196494759Y-80165363D01*
X196262241Y-80010000D01*
X196494759Y-79854637D01*
X196694637Y-79654759D01*
X196851680Y-79419727D01*
X196959853Y-79158574D01*
X197015000Y-78881335D01*
X197015000Y-78598665D01*
X196959853Y-78321426D01*
X196851680Y-78060273D01*
X196694637Y-77825241D01*
X196494759Y-77625363D01*
X196262241Y-77470000D01*
X196494759Y-77314637D01*
X196694637Y-77114759D01*
X196851680Y-76879727D01*
X196959853Y-76618574D01*
X197015000Y-76341335D01*
X197015000Y-76058665D01*
X196959853Y-75781426D01*
X196851680Y-75520273D01*
X196694637Y-75285241D01*
X196494759Y-75085363D01*
X196262241Y-74930000D01*
X196494759Y-74774637D01*
X196694637Y-74574759D01*
X196851680Y-74339727D01*
X196959853Y-74078574D01*
X197015000Y-73801335D01*
X197015000Y-73629801D01*
X214458790Y-91073592D01*
X214415000Y-91293740D01*
X214415000Y-91586260D01*
X214472068Y-91873158D01*
X214584010Y-92143411D01*
X214746525Y-92386632D01*
X214953368Y-92593475D01*
X215135534Y-92715195D01*
X215018645Y-92784822D01*
X214802412Y-92979731D01*
X214628359Y-93213080D01*
X214503175Y-93475901D01*
X214458524Y-93623110D01*
X214579845Y-93853000D01*
X215773000Y-93853000D01*
X215773000Y-93833000D01*
X216027000Y-93833000D01*
X216027000Y-93853000D01*
X216047000Y-93853000D01*
X216047000Y-94107000D01*
X216027000Y-94107000D01*
X216027000Y-95300814D01*
X216256891Y-95421481D01*
X216531252Y-95324157D01*
X216781355Y-95175178D01*
X216997588Y-94980269D01*
X217043000Y-94919386D01*
X217043000Y-100660614D01*
X216997588Y-100599731D01*
X216781355Y-100404822D01*
X216531252Y-100255843D01*
X216256891Y-100158519D01*
X216027000Y-100279186D01*
X216027000Y-101473000D01*
X216047000Y-101473000D01*
X216047000Y-101727000D01*
X216027000Y-101727000D01*
X216027000Y-101747000D01*
X215773000Y-101747000D01*
X215773000Y-101727000D01*
X215753000Y-101727000D01*
X215753000Y-101473000D01*
X215773000Y-101473000D01*
X215773000Y-100279186D01*
X215543109Y-100158519D01*
X215268748Y-100255843D01*
X215018645Y-100404822D01*
X214822498Y-100581626D01*
X214799502Y-100505820D01*
X214740537Y-100395506D01*
X214661185Y-100298815D01*
X214564494Y-100219463D01*
X214454180Y-100160498D01*
X214334482Y-100124188D01*
X214210000Y-100111928D01*
X212510000Y-100111928D01*
X212385518Y-100124188D01*
X212265820Y-100160498D01*
X212155506Y-100219463D01*
X212058815Y-100298815D01*
X211979463Y-100395506D01*
X211920498Y-100505820D01*
X211884188Y-100625518D01*
X211871928Y-100750000D01*
X211871928Y-102450000D01*
X211884188Y-102574482D01*
X211920498Y-102694180D01*
X211979463Y-102804494D01*
X212058815Y-102901185D01*
X212155506Y-102980537D01*
X212265820Y-103039502D01*
X212338380Y-103061513D01*
X212206525Y-103193368D01*
X212044010Y-103436589D01*
X211932068Y-103706842D01*
X211875000Y-103993740D01*
X211875000Y-104286260D01*
X211932068Y-104573158D01*
X212044010Y-104843411D01*
X212206525Y-105086632D01*
X212413368Y-105293475D01*
X212587760Y-105410000D01*
X212413368Y-105526525D01*
X212206525Y-105733368D01*
X212044010Y-105976589D01*
X211932068Y-106246842D01*
X211875000Y-106533740D01*
X211875000Y-106826260D01*
X211932068Y-107113158D01*
X212044010Y-107383411D01*
X212206525Y-107626632D01*
X212413368Y-107833475D01*
X212587760Y-107950000D01*
X212413368Y-108066525D01*
X212206525Y-108273368D01*
X212044010Y-108516589D01*
X211932068Y-108786842D01*
X211875000Y-109073740D01*
X211875000Y-109366260D01*
X211932068Y-109653158D01*
X212044010Y-109923411D01*
X212206525Y-110166632D01*
X212413368Y-110373475D01*
X212587760Y-110490000D01*
X212413368Y-110606525D01*
X212206525Y-110813368D01*
X212044010Y-111056589D01*
X211932068Y-111326842D01*
X211875000Y-111613740D01*
X211875000Y-111906260D01*
X211932068Y-112193158D01*
X212044010Y-112463411D01*
X212206525Y-112706632D01*
X212402893Y-112903000D01*
X196452311Y-112903000D01*
X196494759Y-112874637D01*
X196694637Y-112674759D01*
X196851680Y-112439727D01*
X196959853Y-112178574D01*
X197015000Y-111901335D01*
X197015000Y-111618665D01*
X196959853Y-111341426D01*
X196851680Y-111080273D01*
X196694637Y-110845241D01*
X196494759Y-110645363D01*
X196262241Y-110490000D01*
X196494759Y-110334637D01*
X196694637Y-110134759D01*
X196851680Y-109899727D01*
X196959853Y-109638574D01*
X197015000Y-109361335D01*
X197015000Y-109078665D01*
X196959853Y-108801426D01*
X196851680Y-108540273D01*
X196694637Y-108305241D01*
X196494759Y-108105363D01*
X196262241Y-107950000D01*
X196494759Y-107794637D01*
X196694637Y-107594759D01*
X196851680Y-107359727D01*
X196959853Y-107098574D01*
X197015000Y-106821335D01*
X197015000Y-106538665D01*
X196959853Y-106261426D01*
X196851680Y-106000273D01*
X196694637Y-105765241D01*
X196494759Y-105565363D01*
X196262241Y-105410000D01*
X196494759Y-105254637D01*
X196694637Y-105054759D01*
X196851680Y-104819727D01*
X196959853Y-104558574D01*
X197015000Y-104281335D01*
X197015000Y-103998665D01*
X196959853Y-103721426D01*
X196851680Y-103460273D01*
X196694637Y-103225241D01*
X196494759Y-103025363D01*
X196262241Y-102870000D01*
X196494759Y-102714637D01*
X196694637Y-102514759D01*
X196851680Y-102279727D01*
X196959853Y-102018574D01*
X197015000Y-101741335D01*
X197015000Y-101458665D01*
X196959853Y-101181426D01*
X196851680Y-100920273D01*
X196694637Y-100685241D01*
X196494759Y-100485363D01*
X196262241Y-100330000D01*
X196494759Y-100174637D01*
X196694637Y-99974759D01*
X196851680Y-99739727D01*
X196959853Y-99478574D01*
X197015000Y-99201335D01*
X197015000Y-98918665D01*
X196959853Y-98641426D01*
X196851680Y-98380273D01*
X196694637Y-98145241D01*
X196494759Y-97945363D01*
X196262241Y-97790000D01*
X196494759Y-97634637D01*
X196694637Y-97434759D01*
X196851680Y-97199727D01*
X196959853Y-96938574D01*
X197015000Y-96661335D01*
X197015000Y-96378665D01*
X196959853Y-96101426D01*
X196851680Y-95840273D01*
X196694637Y-95605241D01*
X196494759Y-95405363D01*
X196262241Y-95250000D01*
X196494759Y-95094637D01*
X196694637Y-94894759D01*
X196695103Y-94894061D01*
X211309000Y-94894061D01*
X211309000Y-95097939D01*
X211348774Y-95297898D01*
X211426795Y-95486256D01*
X211540063Y-95655774D01*
X211684226Y-95799937D01*
X211853744Y-95913205D01*
X212042102Y-95991226D01*
X212242061Y-96031000D01*
X212445939Y-96031000D01*
X212645898Y-95991226D01*
X212834256Y-95913205D01*
X213003774Y-95799937D01*
X213147937Y-95655774D01*
X213261205Y-95486256D01*
X213339226Y-95297898D01*
X213379000Y-95097939D01*
X213379000Y-94894061D01*
X213339226Y-94694102D01*
X213261205Y-94505744D01*
X213148381Y-94336890D01*
X214458524Y-94336890D01*
X214503175Y-94484099D01*
X214628359Y-94746920D01*
X214802412Y-94980269D01*
X215018645Y-95175178D01*
X215268748Y-95324157D01*
X215543109Y-95421481D01*
X215773000Y-95300814D01*
X215773000Y-94107000D01*
X214579845Y-94107000D01*
X214458524Y-94336890D01*
X213148381Y-94336890D01*
X213147937Y-94336226D01*
X213003774Y-94192063D01*
X212834256Y-94078795D01*
X212645898Y-94000774D01*
X212445939Y-93961000D01*
X212242061Y-93961000D01*
X212042102Y-94000774D01*
X211853744Y-94078795D01*
X211684226Y-94192063D01*
X211540063Y-94336226D01*
X211426795Y-94505744D01*
X211348774Y-94694102D01*
X211309000Y-94894061D01*
X196695103Y-94894061D01*
X196851680Y-94659727D01*
X196959853Y-94398574D01*
X197015000Y-94121335D01*
X197015000Y-93838665D01*
X196959853Y-93561426D01*
X196851680Y-93300273D01*
X196694637Y-93065241D01*
X196494759Y-92865363D01*
X196262241Y-92710000D01*
X196494759Y-92554637D01*
X196694637Y-92354759D01*
X196851680Y-92119727D01*
X196959853Y-91858574D01*
X197015000Y-91581335D01*
X197015000Y-91298665D01*
X196959853Y-91021426D01*
X196851680Y-90760273D01*
X196694637Y-90525241D01*
X196494759Y-90325363D01*
X196489818Y-90322061D01*
X206519990Y-90322061D01*
X206519990Y-90525939D01*
X206559764Y-90725898D01*
X206637785Y-90914256D01*
X206751053Y-91083774D01*
X206895216Y-91227937D01*
X207064734Y-91341205D01*
X207245000Y-91415874D01*
X207245000Y-91541939D01*
X207284774Y-91741898D01*
X207362795Y-91930256D01*
X207476063Y-92099774D01*
X207620226Y-92243937D01*
X207789744Y-92357205D01*
X207978102Y-92435226D01*
X208178061Y-92475000D01*
X208381939Y-92475000D01*
X208581898Y-92435226D01*
X208770256Y-92357205D01*
X208939774Y-92243937D01*
X209083937Y-92099774D01*
X209197205Y-91930256D01*
X209275226Y-91741898D01*
X209315000Y-91541939D01*
X209315000Y-91338061D01*
X209275226Y-91138102D01*
X209197205Y-90949744D01*
X209083937Y-90780226D01*
X208939774Y-90636063D01*
X208770256Y-90522795D01*
X208589990Y-90448126D01*
X208589990Y-90322061D01*
X208550216Y-90122102D01*
X208472195Y-89933744D01*
X208358927Y-89764226D01*
X208214764Y-89620063D01*
X208045246Y-89506795D01*
X207856888Y-89428774D01*
X207656929Y-89389000D01*
X207453051Y-89389000D01*
X207253092Y-89428774D01*
X207064734Y-89506795D01*
X206895216Y-89620063D01*
X206751053Y-89764226D01*
X206637785Y-89933744D01*
X206559764Y-90122102D01*
X206519990Y-90322061D01*
X196489818Y-90322061D01*
X196260872Y-90169085D01*
X196321514Y-90136671D01*
X196393097Y-89892702D01*
X195580000Y-89079605D01*
X194766903Y-89892702D01*
X194838486Y-90136671D01*
X194902992Y-90167194D01*
X194900273Y-90168320D01*
X194665241Y-90325363D01*
X194465363Y-90525241D01*
X194308320Y-90760273D01*
X194200147Y-91021426D01*
X194145000Y-91298665D01*
X194145000Y-91581335D01*
X194200147Y-91858574D01*
X194308320Y-92119727D01*
X194465363Y-92354759D01*
X194665241Y-92554637D01*
X194897759Y-92710000D01*
X194665241Y-92865363D01*
X194465363Y-93065241D01*
X194308320Y-93300273D01*
X194200147Y-93561426D01*
X194145000Y-93838665D01*
X194145000Y-94121335D01*
X194200147Y-94398574D01*
X194308320Y-94659727D01*
X194465363Y-94894759D01*
X194665241Y-95094637D01*
X194897759Y-95250000D01*
X194665241Y-95405363D01*
X194465363Y-95605241D01*
X194308320Y-95840273D01*
X194200147Y-96101426D01*
X194145000Y-96378665D01*
X194145000Y-96661335D01*
X194200147Y-96938574D01*
X194308320Y-97199727D01*
X194465363Y-97434759D01*
X194665241Y-97634637D01*
X194897759Y-97790000D01*
X194665241Y-97945363D01*
X194465363Y-98145241D01*
X194310000Y-98377759D01*
X194154637Y-98145241D01*
X193954759Y-97945363D01*
X193719727Y-97788320D01*
X193458574Y-97680147D01*
X193181335Y-97625000D01*
X192898665Y-97625000D01*
X192621426Y-97680147D01*
X192360273Y-97788320D01*
X192125241Y-97945363D01*
X191925363Y-98145241D01*
X191770000Y-98377759D01*
X191614637Y-98145241D01*
X191414759Y-97945363D01*
X191179727Y-97788320D01*
X190918574Y-97680147D01*
X190641335Y-97625000D01*
X190358665Y-97625000D01*
X190081426Y-97680147D01*
X189820273Y-97788320D01*
X189585241Y-97945363D01*
X189385363Y-98145241D01*
X189230000Y-98377759D01*
X189074637Y-98145241D01*
X188874759Y-97945363D01*
X188639727Y-97788320D01*
X188378574Y-97680147D01*
X188101335Y-97625000D01*
X187818665Y-97625000D01*
X187541426Y-97680147D01*
X187280273Y-97788320D01*
X187045241Y-97945363D01*
X186845363Y-98145241D01*
X186690000Y-98377759D01*
X186534637Y-98145241D01*
X186334759Y-97945363D01*
X186099727Y-97788320D01*
X185838574Y-97680147D01*
X185561335Y-97625000D01*
X185278665Y-97625000D01*
X185001426Y-97680147D01*
X184740273Y-97788320D01*
X184505241Y-97945363D01*
X184305363Y-98145241D01*
X184150000Y-98377759D01*
X183994637Y-98145241D01*
X183794759Y-97945363D01*
X183559727Y-97788320D01*
X183298574Y-97680147D01*
X183021335Y-97625000D01*
X182738665Y-97625000D01*
X182461426Y-97680147D01*
X182200273Y-97788320D01*
X181965241Y-97945363D01*
X181765363Y-98145241D01*
X181610000Y-98377759D01*
X181454637Y-98145241D01*
X181254759Y-97945363D01*
X181022241Y-97790000D01*
X181254759Y-97634637D01*
X181454637Y-97434759D01*
X181611680Y-97199727D01*
X181719853Y-96938574D01*
X181775000Y-96661335D01*
X181775000Y-96378665D01*
X181719853Y-96101426D01*
X181611680Y-95840273D01*
X181454637Y-95605241D01*
X181254759Y-95405363D01*
X181022241Y-95250000D01*
X181254759Y-95094637D01*
X181454637Y-94894759D01*
X181611680Y-94659727D01*
X181719853Y-94398574D01*
X181775000Y-94121335D01*
X181775000Y-93838665D01*
X181719853Y-93561426D01*
X181611680Y-93300273D01*
X181454637Y-93065241D01*
X181254759Y-92865363D01*
X181022241Y-92710000D01*
X181254759Y-92554637D01*
X181454637Y-92354759D01*
X181611680Y-92119727D01*
X181719853Y-91858574D01*
X181775000Y-91581335D01*
X181775000Y-91298665D01*
X181719853Y-91021426D01*
X181611680Y-90760273D01*
X181454637Y-90525241D01*
X181254759Y-90325363D01*
X181022241Y-90170000D01*
X181254759Y-90014637D01*
X181454637Y-89814759D01*
X181611680Y-89579727D01*
X181719853Y-89318574D01*
X181775000Y-89041335D01*
X181775000Y-88970512D01*
X194139783Y-88970512D01*
X194181213Y-89250130D01*
X194276397Y-89516292D01*
X194343329Y-89641514D01*
X194587298Y-89713097D01*
X195400395Y-88900000D01*
X195759605Y-88900000D01*
X196572702Y-89713097D01*
X196816671Y-89641514D01*
X196937571Y-89386004D01*
X197006300Y-89111816D01*
X197020217Y-88829488D01*
X196978787Y-88549870D01*
X196883603Y-88283708D01*
X196816671Y-88158486D01*
X196572702Y-88086903D01*
X195759605Y-88900000D01*
X195400395Y-88900000D01*
X194587298Y-88086903D01*
X194343329Y-88158486D01*
X194222429Y-88413996D01*
X194153700Y-88688184D01*
X194139783Y-88970512D01*
X181775000Y-88970512D01*
X181775000Y-88758665D01*
X181719853Y-88481426D01*
X181611680Y-88220273D01*
X181454637Y-87985241D01*
X181254759Y-87785363D01*
X181022241Y-87630000D01*
X181254759Y-87474637D01*
X181454637Y-87274759D01*
X181611680Y-87039727D01*
X181719853Y-86778574D01*
X181775000Y-86501335D01*
X181775000Y-86218665D01*
X181719853Y-85941426D01*
X181611680Y-85680273D01*
X181454637Y-85445241D01*
X181254759Y-85245363D01*
X181022241Y-85090000D01*
X181254759Y-84934637D01*
X181454637Y-84734759D01*
X181611680Y-84499727D01*
X181719853Y-84238574D01*
X181775000Y-83961335D01*
X181775000Y-83678665D01*
X181719853Y-83401426D01*
X181611680Y-83140273D01*
X181454637Y-82905241D01*
X181254759Y-82705363D01*
X181022241Y-82550000D01*
X181254759Y-82394637D01*
X181454637Y-82194759D01*
X181611680Y-81959727D01*
X181719853Y-81698574D01*
X181775000Y-81421335D01*
X181775000Y-81138665D01*
X181719853Y-80861426D01*
X181611680Y-80600273D01*
X181454637Y-80365241D01*
X181254759Y-80165363D01*
X181022241Y-80010000D01*
X181254759Y-79854637D01*
X181454637Y-79654759D01*
X181611680Y-79419727D01*
X181719853Y-79158574D01*
X181775000Y-78881335D01*
X181775000Y-78598665D01*
X181719853Y-78321426D01*
X181611680Y-78060273D01*
X181454637Y-77825241D01*
X181254759Y-77625363D01*
X181022241Y-77470000D01*
X181254759Y-77314637D01*
X181454637Y-77114759D01*
X181611680Y-76879727D01*
X181719853Y-76618574D01*
X181775000Y-76341335D01*
X181775000Y-76058665D01*
X181719853Y-75781426D01*
X181611680Y-75520273D01*
X181454637Y-75285241D01*
X181254759Y-75085363D01*
X181022241Y-74930000D01*
X181254759Y-74774637D01*
X181454637Y-74574759D01*
X181611680Y-74339727D01*
X181719853Y-74078574D01*
X181775000Y-73801335D01*
X181775000Y-73518665D01*
X181719853Y-73241426D01*
X181611680Y-72980273D01*
X181454637Y-72745241D01*
X181254759Y-72545363D01*
X181022241Y-72390000D01*
X181254759Y-72234637D01*
X181454637Y-72034759D01*
X181611680Y-71799727D01*
X181719853Y-71538574D01*
X181775000Y-71261335D01*
X181775000Y-70978665D01*
X181719853Y-70701426D01*
X181611680Y-70440273D01*
X181454637Y-70205241D01*
X181254759Y-70005363D01*
X181022241Y-69850000D01*
X181254759Y-69694637D01*
X181454637Y-69494759D01*
X181611680Y-69259727D01*
X181719853Y-68998574D01*
X181775000Y-68721335D01*
X181775000Y-68438665D01*
X181719853Y-68161426D01*
X181611680Y-67900273D01*
X181454637Y-67665241D01*
X181254759Y-67465363D01*
X181022241Y-67310000D01*
X181254759Y-67154637D01*
X181454637Y-66954759D01*
X181611680Y-66719727D01*
X181719853Y-66458574D01*
X181775000Y-66181335D01*
X181775000Y-65898665D01*
X181719853Y-65621426D01*
X181611680Y-65360273D01*
X181454637Y-65125241D01*
X181254759Y-64925363D01*
X181022241Y-64770000D01*
X181254759Y-64614637D01*
X181454637Y-64414759D01*
X181611680Y-64179727D01*
X181719853Y-63918574D01*
X181775000Y-63641335D01*
X181775000Y-63358665D01*
X181719853Y-63081426D01*
X181611680Y-62820273D01*
X181454637Y-62585241D01*
X181254759Y-62385363D01*
X181022241Y-62230000D01*
X181254759Y-62074637D01*
X181454637Y-61874759D01*
X181611680Y-61639727D01*
X181719853Y-61378574D01*
X181775000Y-61101335D01*
X181775000Y-60818665D01*
X181719853Y-60541426D01*
X181611680Y-60280273D01*
X181454637Y-60045241D01*
X181254759Y-59845363D01*
X181022241Y-59690000D01*
X181254759Y-59534637D01*
X181454637Y-59334759D01*
X181611680Y-59099727D01*
X181719593Y-58839200D01*
X181952728Y-58839200D01*
X181952728Y-60439200D01*
X181964988Y-60563682D01*
X182001298Y-60683380D01*
X182060263Y-60793694D01*
X182139615Y-60890385D01*
X182236306Y-60969737D01*
X182346620Y-61028702D01*
X182466318Y-61065012D01*
X182474761Y-61065843D01*
X182276163Y-61264441D01*
X182119120Y-61499473D01*
X182010947Y-61760626D01*
X181955800Y-62037865D01*
X181955800Y-62320535D01*
X182010947Y-62597774D01*
X182119120Y-62858927D01*
X182276163Y-63093959D01*
X182476041Y-63293837D01*
X182708559Y-63449200D01*
X182476041Y-63604563D01*
X182276163Y-63804441D01*
X182119120Y-64039473D01*
X182010947Y-64300626D01*
X181955800Y-64577865D01*
X181955800Y-64860535D01*
X182010947Y-65137774D01*
X182119120Y-65398927D01*
X182276163Y-65633959D01*
X182476041Y-65833837D01*
X182708559Y-65989200D01*
X182476041Y-66144563D01*
X182276163Y-66344441D01*
X182119120Y-66579473D01*
X182010947Y-66840626D01*
X181955800Y-67117865D01*
X181955800Y-67400535D01*
X182010947Y-67677774D01*
X182119120Y-67938927D01*
X182276163Y-68173959D01*
X182476041Y-68373837D01*
X182708559Y-68529200D01*
X182476041Y-68684563D01*
X182276163Y-68884441D01*
X182119120Y-69119473D01*
X182010947Y-69380626D01*
X181955800Y-69657865D01*
X181955800Y-69940535D01*
X182010947Y-70217774D01*
X182119120Y-70478927D01*
X182276163Y-70713959D01*
X182476041Y-70913837D01*
X182711073Y-71070880D01*
X182972226Y-71179053D01*
X183249465Y-71234200D01*
X183532135Y-71234200D01*
X183809374Y-71179053D01*
X184070527Y-71070880D01*
X184305559Y-70913837D01*
X184505437Y-70713959D01*
X184662480Y-70478927D01*
X184770653Y-70217774D01*
X184825800Y-69940535D01*
X184825800Y-69657865D01*
X184770653Y-69380626D01*
X184662480Y-69119473D01*
X184505437Y-68884441D01*
X184305559Y-68684563D01*
X184073041Y-68529200D01*
X184305559Y-68373837D01*
X184505437Y-68173959D01*
X184662480Y-67938927D01*
X184770653Y-67677774D01*
X184825800Y-67400535D01*
X184825800Y-67117865D01*
X184770653Y-66840626D01*
X184662480Y-66579473D01*
X184505437Y-66344441D01*
X184305559Y-66144563D01*
X184073041Y-65989200D01*
X184305559Y-65833837D01*
X184505437Y-65633959D01*
X184662480Y-65398927D01*
X184770653Y-65137774D01*
X184825800Y-64860535D01*
X184825800Y-64577865D01*
X184770653Y-64300626D01*
X184662480Y-64039473D01*
X184505437Y-63804441D01*
X184305559Y-63604563D01*
X184073041Y-63449200D01*
X184305559Y-63293837D01*
X184505437Y-63093959D01*
X184662480Y-62858927D01*
X184770653Y-62597774D01*
X184825800Y-62320535D01*
X184825800Y-62037865D01*
X184770653Y-61760626D01*
X184662480Y-61499473D01*
X184505437Y-61264441D01*
X184306839Y-61065843D01*
X184315282Y-61065012D01*
X184434980Y-61028702D01*
X184545294Y-60969737D01*
X184641985Y-60890385D01*
X184721337Y-60793694D01*
X184780302Y-60683380D01*
X184804363Y-60604061D01*
X190735000Y-60604061D01*
X190735000Y-60807939D01*
X190774774Y-61007898D01*
X190852795Y-61196256D01*
X190966063Y-61365774D01*
X191110226Y-61509937D01*
X191279744Y-61623205D01*
X191468102Y-61701226D01*
X191668061Y-61741000D01*
X191871939Y-61741000D01*
X192071898Y-61701226D01*
X192260256Y-61623205D01*
X192429774Y-61509937D01*
X192573937Y-61365774D01*
X192687205Y-61196256D01*
X192765226Y-61007898D01*
X192805000Y-60807939D01*
X192805000Y-60604061D01*
X192765226Y-60404102D01*
X192687205Y-60215744D01*
X192573937Y-60046226D01*
X192429774Y-59902063D01*
X192260256Y-59788795D01*
X192071898Y-59710774D01*
X191871939Y-59671000D01*
X191668061Y-59671000D01*
X191468102Y-59710774D01*
X191279744Y-59788795D01*
X191110226Y-59902063D01*
X190966063Y-60046226D01*
X190852795Y-60215744D01*
X190774774Y-60404102D01*
X190735000Y-60604061D01*
X184804363Y-60604061D01*
X184816612Y-60563682D01*
X184828872Y-60439200D01*
X184828872Y-58839200D01*
X184816612Y-58714718D01*
X184780302Y-58595020D01*
X184721337Y-58484706D01*
X184641985Y-58388015D01*
X184545294Y-58308663D01*
X184434980Y-58249698D01*
X184315282Y-58213388D01*
X184190800Y-58201128D01*
X182590800Y-58201128D01*
X182466318Y-58213388D01*
X182346620Y-58249698D01*
X182236306Y-58308663D01*
X182139615Y-58388015D01*
X182060263Y-58484706D01*
X182001298Y-58595020D01*
X181964988Y-58714718D01*
X181952728Y-58839200D01*
X181719593Y-58839200D01*
X181719853Y-58838574D01*
X181775000Y-58561335D01*
X181775000Y-58278665D01*
X181719853Y-58001426D01*
X181611680Y-57740273D01*
X181454637Y-57505241D01*
X181254759Y-57305363D01*
X181022241Y-57150000D01*
X181254759Y-56994637D01*
X181454637Y-56794759D01*
X181611680Y-56559727D01*
X181719853Y-56298574D01*
X181775000Y-56021335D01*
X181775000Y-55738665D01*
X191605000Y-55738665D01*
X191605000Y-56021335D01*
X191660147Y-56298574D01*
X191768320Y-56559727D01*
X191925363Y-56794759D01*
X192125241Y-56994637D01*
X192360273Y-57151680D01*
X192621426Y-57259853D01*
X192898665Y-57315000D01*
X193181335Y-57315000D01*
X193458574Y-57259853D01*
X193719727Y-57151680D01*
X193954759Y-56994637D01*
X194154637Y-56794759D01*
X194310915Y-56560872D01*
X194343329Y-56621514D01*
X194587298Y-56693097D01*
X195400395Y-55880000D01*
X195759605Y-55880000D01*
X196572702Y-56693097D01*
X196816671Y-56621514D01*
X196937571Y-56366004D01*
X196969935Y-56236890D01*
X214458524Y-56236890D01*
X214503175Y-56384099D01*
X214628359Y-56646920D01*
X214802412Y-56880269D01*
X215018645Y-57075178D01*
X215268748Y-57224157D01*
X215543109Y-57321481D01*
X215773000Y-57200814D01*
X215773000Y-56007000D01*
X214579845Y-56007000D01*
X214458524Y-56236890D01*
X196969935Y-56236890D01*
X197006300Y-56091816D01*
X197020217Y-55809488D01*
X196978787Y-55529870D01*
X196883603Y-55263708D01*
X196816671Y-55138486D01*
X196572702Y-55066903D01*
X195759605Y-55880000D01*
X195400395Y-55880000D01*
X194587298Y-55066903D01*
X194343329Y-55138486D01*
X194312806Y-55202992D01*
X194311680Y-55200273D01*
X194154637Y-54965241D01*
X193954759Y-54765363D01*
X193719727Y-54608320D01*
X193458574Y-54500147D01*
X193181335Y-54445000D01*
X192898665Y-54445000D01*
X192621426Y-54500147D01*
X192360273Y-54608320D01*
X192125241Y-54765363D01*
X191925363Y-54965241D01*
X191768320Y-55200273D01*
X191660147Y-55461426D01*
X191605000Y-55738665D01*
X181775000Y-55738665D01*
X181719853Y-55461426D01*
X181611680Y-55200273D01*
X181454637Y-54965241D01*
X181256039Y-54766643D01*
X181264482Y-54765812D01*
X181384180Y-54729502D01*
X181494494Y-54670537D01*
X181591185Y-54591185D01*
X181670537Y-54494494D01*
X181729502Y-54384180D01*
X181765812Y-54264482D01*
X181778072Y-54140000D01*
X181776898Y-53943439D01*
X185405000Y-53943439D01*
X185405000Y-54196561D01*
X185454381Y-54444821D01*
X185551247Y-54678676D01*
X185691875Y-54889140D01*
X185870860Y-55068125D01*
X186081324Y-55208753D01*
X186315179Y-55305619D01*
X186563439Y-55355000D01*
X186816561Y-55355000D01*
X187064821Y-55305619D01*
X187298676Y-55208753D01*
X187509140Y-55068125D01*
X187688125Y-54889140D01*
X187828753Y-54678676D01*
X187925619Y-54444821D01*
X187960000Y-54271973D01*
X187994381Y-54444821D01*
X188091247Y-54678676D01*
X188231875Y-54889140D01*
X188410860Y-55068125D01*
X188621324Y-55208753D01*
X188855179Y-55305619D01*
X189103439Y-55355000D01*
X189356561Y-55355000D01*
X189604821Y-55305619D01*
X189838676Y-55208753D01*
X190049140Y-55068125D01*
X190228125Y-54889140D01*
X190368753Y-54678676D01*
X190465619Y-54444821D01*
X190515000Y-54196561D01*
X190515000Y-53943439D01*
X190465619Y-53695179D01*
X190368753Y-53461324D01*
X190228125Y-53250860D01*
X190049140Y-53071875D01*
X189838676Y-52931247D01*
X189604821Y-52834381D01*
X189356561Y-52785000D01*
X189103439Y-52785000D01*
X188855179Y-52834381D01*
X188621324Y-52931247D01*
X188410860Y-53071875D01*
X188231875Y-53250860D01*
X188091247Y-53461324D01*
X187994381Y-53695179D01*
X187960000Y-53868027D01*
X187925619Y-53695179D01*
X187828753Y-53461324D01*
X187688125Y-53250860D01*
X187509140Y-53071875D01*
X187298676Y-52931247D01*
X187064821Y-52834381D01*
X186816561Y-52785000D01*
X186563439Y-52785000D01*
X186315179Y-52834381D01*
X186081324Y-52931247D01*
X185870860Y-53071875D01*
X185691875Y-53250860D01*
X185551247Y-53461324D01*
X185454381Y-53695179D01*
X185405000Y-53943439D01*
X181776898Y-53943439D01*
X181775000Y-53625750D01*
X181616250Y-53467000D01*
X180467000Y-53467000D01*
X180467000Y-53487000D01*
X180213000Y-53487000D01*
X180213000Y-53467000D01*
X179063750Y-53467000D01*
X178905000Y-53625750D01*
X178901928Y-54140000D01*
X178914188Y-54264482D01*
X178950498Y-54384180D01*
X179009463Y-54494494D01*
X179088815Y-54591185D01*
X179185506Y-54670537D01*
X179295820Y-54729502D01*
X179415518Y-54765812D01*
X179423961Y-54766643D01*
X179225363Y-54965241D01*
X179068320Y-55200273D01*
X178960147Y-55461426D01*
X178905000Y-55738665D01*
X178905000Y-56021335D01*
X178960147Y-56298574D01*
X179068320Y-56559727D01*
X179225363Y-56794759D01*
X179425241Y-56994637D01*
X179657759Y-57150000D01*
X179425241Y-57305363D01*
X179225363Y-57505241D01*
X179068320Y-57740273D01*
X178960147Y-58001426D01*
X178905000Y-58278665D01*
X178905000Y-58561335D01*
X178960147Y-58838574D01*
X179068320Y-59099727D01*
X179225363Y-59334759D01*
X179425241Y-59534637D01*
X179657759Y-59690000D01*
X179425241Y-59845363D01*
X179225363Y-60045241D01*
X179068320Y-60280273D01*
X178960147Y-60541426D01*
X178905000Y-60818665D01*
X178905000Y-61101335D01*
X178960147Y-61378574D01*
X179068320Y-61639727D01*
X179225363Y-61874759D01*
X179425241Y-62074637D01*
X179657759Y-62230000D01*
X179425241Y-62385363D01*
X179225363Y-62585241D01*
X179068320Y-62820273D01*
X178960147Y-63081426D01*
X178905000Y-63358665D01*
X178905000Y-63641335D01*
X178960147Y-63918574D01*
X179068320Y-64179727D01*
X179225363Y-64414759D01*
X179425241Y-64614637D01*
X179657759Y-64770000D01*
X179425241Y-64925363D01*
X179225363Y-65125241D01*
X179068320Y-65360273D01*
X178960147Y-65621426D01*
X178905000Y-65898665D01*
X178905000Y-66181335D01*
X178960147Y-66458574D01*
X179068320Y-66719727D01*
X179225363Y-66954759D01*
X179425241Y-67154637D01*
X179657759Y-67310000D01*
X179425241Y-67465363D01*
X179225363Y-67665241D01*
X179068320Y-67900273D01*
X178960147Y-68161426D01*
X178905000Y-68438665D01*
X178905000Y-68721335D01*
X178960147Y-68998574D01*
X179068320Y-69259727D01*
X179225363Y-69494759D01*
X179425241Y-69694637D01*
X179657759Y-69850000D01*
X179425241Y-70005363D01*
X179225363Y-70205241D01*
X179068320Y-70440273D01*
X178960147Y-70701426D01*
X178905000Y-70978665D01*
X178905000Y-71261335D01*
X178960147Y-71538574D01*
X179068320Y-71799727D01*
X179225363Y-72034759D01*
X179425241Y-72234637D01*
X179657759Y-72390000D01*
X179425241Y-72545363D01*
X179225363Y-72745241D01*
X179068320Y-72980273D01*
X178960147Y-73241426D01*
X178905000Y-73518665D01*
X178905000Y-73801335D01*
X178960147Y-74078574D01*
X179068320Y-74339727D01*
X179225363Y-74574759D01*
X179425241Y-74774637D01*
X179657759Y-74930000D01*
X179425241Y-75085363D01*
X179225363Y-75285241D01*
X179068320Y-75520273D01*
X178960147Y-75781426D01*
X178905000Y-76058665D01*
X178905000Y-76341335D01*
X178960147Y-76618574D01*
X179068320Y-76879727D01*
X179225363Y-77114759D01*
X179425241Y-77314637D01*
X179657759Y-77470000D01*
X179425241Y-77625363D01*
X179225363Y-77825241D01*
X179068320Y-78060273D01*
X178960147Y-78321426D01*
X178905000Y-78598665D01*
X178905000Y-78881335D01*
X178960147Y-79158574D01*
X179068320Y-79419727D01*
X179225363Y-79654759D01*
X179425241Y-79854637D01*
X179657759Y-80010000D01*
X179425241Y-80165363D01*
X179225363Y-80365241D01*
X179068320Y-80600273D01*
X178960147Y-80861426D01*
X178905000Y-81138665D01*
X178905000Y-81421335D01*
X178960147Y-81698574D01*
X179068320Y-81959727D01*
X179225363Y-82194759D01*
X179425241Y-82394637D01*
X179657759Y-82550000D01*
X179425241Y-82705363D01*
X179225363Y-82905241D01*
X179068320Y-83140273D01*
X178960147Y-83401426D01*
X178905000Y-83678665D01*
X178905000Y-83961335D01*
X178960147Y-84238574D01*
X179068320Y-84499727D01*
X179225363Y-84734759D01*
X179425241Y-84934637D01*
X179657759Y-85090000D01*
X179425241Y-85245363D01*
X179225363Y-85445241D01*
X179068320Y-85680273D01*
X178960147Y-85941426D01*
X178905000Y-86218665D01*
X178905000Y-86501335D01*
X178960147Y-86778574D01*
X179068320Y-87039727D01*
X179225363Y-87274759D01*
X179425241Y-87474637D01*
X179657759Y-87630000D01*
X179425241Y-87785363D01*
X179225363Y-87985241D01*
X179068320Y-88220273D01*
X178960147Y-88481426D01*
X178905000Y-88758665D01*
X178905000Y-89041335D01*
X178941312Y-89223886D01*
X172113999Y-96051200D01*
X172085001Y-96074998D01*
X172061203Y-96103996D01*
X172061202Y-96103997D01*
X171990027Y-96190723D01*
X171919455Y-96322753D01*
X171875999Y-96466014D01*
X171861325Y-96614999D01*
X171865002Y-96652331D01*
X171865001Y-107788456D01*
X171596260Y-107735000D01*
X171303740Y-107735000D01*
X171016842Y-107792068D01*
X170746589Y-107904010D01*
X170503368Y-108066525D01*
X170296525Y-108273368D01*
X170180000Y-108447760D01*
X170063475Y-108273368D01*
X169856632Y-108066525D01*
X169613411Y-107904010D01*
X169343158Y-107792068D01*
X169056260Y-107735000D01*
X168763740Y-107735000D01*
X168476842Y-107792068D01*
X168206589Y-107904010D01*
X167963368Y-108066525D01*
X167756525Y-108273368D01*
X167640000Y-108447760D01*
X167523475Y-108273368D01*
X167316632Y-108066525D01*
X167073411Y-107904010D01*
X166803158Y-107792068D01*
X166516260Y-107735000D01*
X166223740Y-107735000D01*
X165936842Y-107792068D01*
X165666589Y-107904010D01*
X165423368Y-108066525D01*
X165216525Y-108273368D01*
X165094805Y-108455534D01*
X165025178Y-108338645D01*
X164830269Y-108122412D01*
X164596920Y-107948359D01*
X164334099Y-107823175D01*
X164186890Y-107778524D01*
X163957000Y-107899845D01*
X163957000Y-109093000D01*
X163977000Y-109093000D01*
X163977000Y-109347000D01*
X163957000Y-109347000D01*
X163957000Y-109367000D01*
X163703000Y-109367000D01*
X163703000Y-109347000D01*
X162509186Y-109347000D01*
X162388519Y-109576891D01*
X162485843Y-109851252D01*
X162634822Y-110101355D01*
X162829731Y-110317588D01*
X163059406Y-110488900D01*
X162883368Y-110606525D01*
X162676525Y-110813368D01*
X162514010Y-111056589D01*
X162402068Y-111326842D01*
X162345000Y-111613740D01*
X162345000Y-111906260D01*
X162402068Y-112193158D01*
X162514010Y-112463411D01*
X162676525Y-112706632D01*
X162872893Y-112903000D01*
X153797000Y-112903000D01*
X153797000Y-110177107D01*
X153993368Y-110373475D01*
X154236589Y-110535990D01*
X154506842Y-110647932D01*
X154793740Y-110705000D01*
X155086260Y-110705000D01*
X155373158Y-110647932D01*
X155643411Y-110535990D01*
X155886632Y-110373475D01*
X156093475Y-110166632D01*
X156255990Y-109923411D01*
X156367932Y-109653158D01*
X156425000Y-109366260D01*
X156425000Y-109073740D01*
X156383103Y-108863109D01*
X162388519Y-108863109D01*
X162509186Y-109093000D01*
X163703000Y-109093000D01*
X163703000Y-107899845D01*
X163473110Y-107778524D01*
X163325901Y-107823175D01*
X163063080Y-107948359D01*
X162829731Y-108122412D01*
X162634822Y-108338645D01*
X162485843Y-108588748D01*
X162388519Y-108863109D01*
X156383103Y-108863109D01*
X156367932Y-108786842D01*
X156255990Y-108516589D01*
X156093475Y-108273368D01*
X155886632Y-108066525D01*
X155712240Y-107950000D01*
X155886632Y-107833475D01*
X156093475Y-107626632D01*
X156255990Y-107383411D01*
X156367932Y-107113158D01*
X156425000Y-106826260D01*
X156425000Y-106533740D01*
X156367932Y-106246842D01*
X156255990Y-105976589D01*
X156093475Y-105733368D01*
X155886632Y-105526525D01*
X155712240Y-105410000D01*
X155886632Y-105293475D01*
X156093475Y-105086632D01*
X156255990Y-104843411D01*
X156367932Y-104573158D01*
X156425000Y-104286260D01*
X156425000Y-103993740D01*
X156367932Y-103706842D01*
X156255990Y-103436589D01*
X156093475Y-103193368D01*
X155961620Y-103061513D01*
X156034180Y-103039502D01*
X156144494Y-102980537D01*
X156241185Y-102901185D01*
X156320537Y-102804494D01*
X156379502Y-102694180D01*
X156415812Y-102574482D01*
X156428072Y-102450000D01*
X156425000Y-101885750D01*
X156266250Y-101727000D01*
X155067000Y-101727000D01*
X155067000Y-101747000D01*
X154813000Y-101747000D01*
X154813000Y-101727000D01*
X154793000Y-101727000D01*
X154793000Y-101473000D01*
X154813000Y-101473000D01*
X154813000Y-100273750D01*
X155067000Y-100273750D01*
X155067000Y-101473000D01*
X156266250Y-101473000D01*
X156425000Y-101314250D01*
X156428072Y-100750000D01*
X156415812Y-100625518D01*
X156379502Y-100505820D01*
X156320537Y-100395506D01*
X156241185Y-100298815D01*
X156144494Y-100219463D01*
X156034180Y-100160498D01*
X155914482Y-100124188D01*
X155790000Y-100111928D01*
X155225750Y-100115000D01*
X155067000Y-100273750D01*
X154813000Y-100273750D01*
X154654250Y-100115000D01*
X154090000Y-100111928D01*
X153965518Y-100124188D01*
X153845820Y-100160498D01*
X153797000Y-100186593D01*
X153797000Y-97477107D01*
X153993368Y-97673475D01*
X154236589Y-97835990D01*
X154506842Y-97947932D01*
X154793740Y-98005000D01*
X155086260Y-98005000D01*
X155373158Y-97947932D01*
X155643411Y-97835990D01*
X155886632Y-97673475D01*
X156093475Y-97466632D01*
X156255990Y-97223411D01*
X156367932Y-96953158D01*
X156425000Y-96666260D01*
X156425000Y-96373740D01*
X156367932Y-96086842D01*
X156255990Y-95816589D01*
X156093475Y-95573368D01*
X155961620Y-95441513D01*
X156034180Y-95419502D01*
X156144494Y-95360537D01*
X156241185Y-95281185D01*
X156320537Y-95184494D01*
X156379502Y-95074180D01*
X156415812Y-94954482D01*
X156428072Y-94830000D01*
X156428072Y-93130000D01*
X156415812Y-93005518D01*
X156379502Y-92885820D01*
X156320537Y-92775506D01*
X156241185Y-92678815D01*
X156144494Y-92599463D01*
X156034180Y-92540498D01*
X155914482Y-92504188D01*
X155790000Y-92491928D01*
X154090000Y-92491928D01*
X153965518Y-92504188D01*
X153845820Y-92540498D01*
X153797000Y-92566593D01*
X153797000Y-89857107D01*
X153993368Y-90053475D01*
X154236589Y-90215990D01*
X154506842Y-90327932D01*
X154793740Y-90385000D01*
X155086260Y-90385000D01*
X155373158Y-90327932D01*
X155643411Y-90215990D01*
X155886632Y-90053475D01*
X156093475Y-89846632D01*
X156255990Y-89603411D01*
X156367932Y-89333158D01*
X156425000Y-89046260D01*
X156425000Y-88753740D01*
X156367932Y-88466842D01*
X156255990Y-88196589D01*
X156093475Y-87953368D01*
X155961620Y-87821513D01*
X156034180Y-87799502D01*
X156144494Y-87740537D01*
X156241185Y-87661185D01*
X156320537Y-87564494D01*
X156379502Y-87454180D01*
X156415812Y-87334482D01*
X156428072Y-87210000D01*
X156428072Y-85510000D01*
X156415812Y-85385518D01*
X156379502Y-85265820D01*
X156320537Y-85155506D01*
X156241185Y-85058815D01*
X156144494Y-84979463D01*
X156034180Y-84920498D01*
X155914482Y-84884188D01*
X155790000Y-84871928D01*
X154090000Y-84871928D01*
X153965518Y-84884188D01*
X153845820Y-84920498D01*
X153797000Y-84946593D01*
X153797000Y-82237107D01*
X153993368Y-82433475D01*
X154236589Y-82595990D01*
X154506842Y-82707932D01*
X154793740Y-82765000D01*
X155086260Y-82765000D01*
X155373158Y-82707932D01*
X155643411Y-82595990D01*
X155886632Y-82433475D01*
X156093475Y-82226632D01*
X156115238Y-82194061D01*
X173971000Y-82194061D01*
X173971000Y-82397939D01*
X174010774Y-82597898D01*
X174088795Y-82786256D01*
X174202063Y-82955774D01*
X174346226Y-83099937D01*
X174515744Y-83213205D01*
X174704102Y-83291226D01*
X174904061Y-83331000D01*
X175107939Y-83331000D01*
X175307898Y-83291226D01*
X175496256Y-83213205D01*
X175665774Y-83099937D01*
X175809937Y-82955774D01*
X175923205Y-82786256D01*
X176001226Y-82597898D01*
X176041000Y-82397939D01*
X176041000Y-82194061D01*
X176001226Y-81994102D01*
X175923205Y-81805744D01*
X175809937Y-81636226D01*
X175665774Y-81492063D01*
X175496256Y-81378795D01*
X175307898Y-81300774D01*
X175107939Y-81261000D01*
X174904061Y-81261000D01*
X174704102Y-81300774D01*
X174515744Y-81378795D01*
X174346226Y-81492063D01*
X174202063Y-81636226D01*
X174088795Y-81805744D01*
X174010774Y-81994102D01*
X173971000Y-82194061D01*
X156115238Y-82194061D01*
X156255990Y-81983411D01*
X156367932Y-81713158D01*
X156425000Y-81426260D01*
X156425000Y-81133740D01*
X156367932Y-80846842D01*
X156255990Y-80576589D01*
X156093475Y-80333368D01*
X155961620Y-80201513D01*
X156034180Y-80179502D01*
X156144494Y-80120537D01*
X156241185Y-80041185D01*
X156320537Y-79944494D01*
X156379502Y-79834180D01*
X156415812Y-79714482D01*
X156428072Y-79590000D01*
X156428072Y-78638061D01*
X165081000Y-78638061D01*
X165081000Y-78841939D01*
X165120774Y-79041898D01*
X165198795Y-79230256D01*
X165312063Y-79399774D01*
X165456226Y-79543937D01*
X165625744Y-79657205D01*
X165814102Y-79735226D01*
X166014061Y-79775000D01*
X166217939Y-79775000D01*
X166417898Y-79735226D01*
X166606256Y-79657205D01*
X166775774Y-79543937D01*
X166919937Y-79399774D01*
X167033205Y-79230256D01*
X167111226Y-79041898D01*
X167151000Y-78841939D01*
X167151000Y-78638061D01*
X167111226Y-78438102D01*
X167033205Y-78249744D01*
X166919937Y-78080226D01*
X166775774Y-77936063D01*
X166606256Y-77822795D01*
X166417898Y-77744774D01*
X166217939Y-77705000D01*
X166014061Y-77705000D01*
X165814102Y-77744774D01*
X165625744Y-77822795D01*
X165456226Y-77936063D01*
X165312063Y-78080226D01*
X165198795Y-78249744D01*
X165120774Y-78438102D01*
X165081000Y-78638061D01*
X156428072Y-78638061D01*
X156428072Y-77890000D01*
X156415812Y-77765518D01*
X156379502Y-77645820D01*
X156320537Y-77535506D01*
X156241185Y-77438815D01*
X156144494Y-77359463D01*
X156034180Y-77300498D01*
X155914482Y-77264188D01*
X155790000Y-77251928D01*
X154090000Y-77251928D01*
X153965518Y-77264188D01*
X153845820Y-77300498D01*
X153797000Y-77326593D01*
X153797000Y-76600714D01*
X166021333Y-76600714D01*
X166021333Y-76804592D01*
X166061107Y-77004551D01*
X166139128Y-77192909D01*
X166252396Y-77362427D01*
X166396559Y-77506590D01*
X166566077Y-77619858D01*
X166754435Y-77697879D01*
X166954394Y-77737653D01*
X167003468Y-77737653D01*
X167003468Y-77786727D01*
X167043242Y-77986686D01*
X167121263Y-78175044D01*
X167234531Y-78344562D01*
X167378694Y-78488725D01*
X167548212Y-78601993D01*
X167736570Y-78680014D01*
X167936529Y-78719788D01*
X168140407Y-78719788D01*
X168164209Y-78715054D01*
X168129000Y-78892061D01*
X168129000Y-79095939D01*
X168168774Y-79295898D01*
X168246795Y-79484256D01*
X168360063Y-79653774D01*
X168504226Y-79797937D01*
X168673744Y-79911205D01*
X168862102Y-79989226D01*
X169062061Y-80029000D01*
X169265939Y-80029000D01*
X169465898Y-79989226D01*
X169654256Y-79911205D01*
X169823774Y-79797937D01*
X169967937Y-79653774D01*
X170081205Y-79484256D01*
X170159226Y-79295898D01*
X170199000Y-79095939D01*
X170199000Y-78892061D01*
X170159226Y-78692102D01*
X170081205Y-78503744D01*
X169967937Y-78334226D01*
X169823774Y-78190063D01*
X169654256Y-78076795D01*
X169465898Y-77998774D01*
X169265939Y-77959000D01*
X169062061Y-77959000D01*
X169038259Y-77963734D01*
X169073468Y-77786727D01*
X169073468Y-77622061D01*
X176765000Y-77622061D01*
X176765000Y-77825939D01*
X176804774Y-78025898D01*
X176882795Y-78214256D01*
X176996063Y-78383774D01*
X177140226Y-78527937D01*
X177309744Y-78641205D01*
X177498102Y-78719226D01*
X177698061Y-78759000D01*
X177901939Y-78759000D01*
X178101898Y-78719226D01*
X178290256Y-78641205D01*
X178459774Y-78527937D01*
X178603937Y-78383774D01*
X178717205Y-78214256D01*
X178795226Y-78025898D01*
X178835000Y-77825939D01*
X178835000Y-77622061D01*
X178795226Y-77422102D01*
X178717205Y-77233744D01*
X178603937Y-77064226D01*
X178459774Y-76920063D01*
X178290256Y-76806795D01*
X178101898Y-76728774D01*
X177901939Y-76689000D01*
X177698061Y-76689000D01*
X177498102Y-76728774D01*
X177309744Y-76806795D01*
X177140226Y-76920063D01*
X176996063Y-77064226D01*
X176882795Y-77233744D01*
X176804774Y-77422102D01*
X176765000Y-77622061D01*
X169073468Y-77622061D01*
X169073468Y-77582849D01*
X169033694Y-77382890D01*
X168955673Y-77194532D01*
X168842405Y-77025014D01*
X168698242Y-76880851D01*
X168528724Y-76767583D01*
X168340366Y-76689562D01*
X168140407Y-76649788D01*
X168091333Y-76649788D01*
X168091333Y-76600714D01*
X168051559Y-76400755D01*
X167973538Y-76212397D01*
X167860270Y-76042879D01*
X167716107Y-75898716D01*
X167546589Y-75785448D01*
X167358231Y-75707427D01*
X167158272Y-75667653D01*
X166954394Y-75667653D01*
X166754435Y-75707427D01*
X166566077Y-75785448D01*
X166396559Y-75898716D01*
X166252396Y-76042879D01*
X166139128Y-76212397D01*
X166061107Y-76400755D01*
X166021333Y-76600714D01*
X153797000Y-76600714D01*
X153797000Y-75327407D01*
X153845820Y-75353502D01*
X153965518Y-75389812D01*
X154090000Y-75402072D01*
X155790000Y-75402072D01*
X155914482Y-75389812D01*
X156034180Y-75353502D01*
X156144494Y-75294537D01*
X156241185Y-75215185D01*
X156320537Y-75118494D01*
X156379502Y-75008180D01*
X156415812Y-74888482D01*
X156428072Y-74764000D01*
X156428072Y-74320061D01*
X175749000Y-74320061D01*
X175749000Y-74523939D01*
X175788774Y-74723898D01*
X175866795Y-74912256D01*
X175980063Y-75081774D01*
X176124226Y-75225937D01*
X176293744Y-75339205D01*
X176482102Y-75417226D01*
X176682061Y-75457000D01*
X176885939Y-75457000D01*
X177085898Y-75417226D01*
X177274256Y-75339205D01*
X177443774Y-75225937D01*
X177587937Y-75081774D01*
X177701205Y-74912256D01*
X177779226Y-74723898D01*
X177819000Y-74523939D01*
X177819000Y-74320061D01*
X177779226Y-74120102D01*
X177701205Y-73931744D01*
X177587937Y-73762226D01*
X177443774Y-73618063D01*
X177274256Y-73504795D01*
X177085898Y-73426774D01*
X176885939Y-73387000D01*
X176682061Y-73387000D01*
X176482102Y-73426774D01*
X176293744Y-73504795D01*
X176124226Y-73618063D01*
X175980063Y-73762226D01*
X175866795Y-73931744D01*
X175788774Y-74120102D01*
X175749000Y-74320061D01*
X156428072Y-74320061D01*
X156428072Y-73064000D01*
X156415812Y-72939518D01*
X156379502Y-72819820D01*
X156320537Y-72709506D01*
X156241185Y-72612815D01*
X156144494Y-72533463D01*
X156034180Y-72474498D01*
X155961620Y-72452487D01*
X156093475Y-72320632D01*
X156255990Y-72077411D01*
X156367932Y-71807158D01*
X156425000Y-71520260D01*
X156425000Y-71272061D01*
X164319000Y-71272061D01*
X164319000Y-71475939D01*
X164358774Y-71675898D01*
X164436795Y-71864256D01*
X164550063Y-72033774D01*
X164694226Y-72177937D01*
X164863744Y-72291205D01*
X165052102Y-72369226D01*
X165252061Y-72409000D01*
X165455939Y-72409000D01*
X165655898Y-72369226D01*
X165844256Y-72291205D01*
X166013774Y-72177937D01*
X166157937Y-72033774D01*
X166271205Y-71864256D01*
X166349226Y-71675898D01*
X166389000Y-71475939D01*
X166389000Y-71272061D01*
X166349226Y-71072102D01*
X166271205Y-70883744D01*
X166157937Y-70714226D01*
X166013774Y-70570063D01*
X165844256Y-70456795D01*
X165655898Y-70378774D01*
X165455939Y-70339000D01*
X165252061Y-70339000D01*
X165052102Y-70378774D01*
X164863744Y-70456795D01*
X164694226Y-70570063D01*
X164550063Y-70714226D01*
X164436795Y-70883744D01*
X164358774Y-71072102D01*
X164319000Y-71272061D01*
X156425000Y-71272061D01*
X156425000Y-71227740D01*
X156367932Y-70940842D01*
X156255990Y-70670589D01*
X156093475Y-70427368D01*
X155886632Y-70220525D01*
X155712240Y-70104000D01*
X155886632Y-69987475D01*
X156093475Y-69780632D01*
X156255990Y-69537411D01*
X156367932Y-69267158D01*
X156425000Y-68980260D01*
X156425000Y-68687740D01*
X156367932Y-68400842D01*
X156294708Y-68224061D01*
X166605000Y-68224061D01*
X166605000Y-68427939D01*
X166644774Y-68627898D01*
X166722795Y-68816256D01*
X166836063Y-68985774D01*
X166980226Y-69129937D01*
X167149744Y-69243205D01*
X167338102Y-69321226D01*
X167538061Y-69361000D01*
X167741939Y-69361000D01*
X167941898Y-69321226D01*
X168130256Y-69243205D01*
X168299774Y-69129937D01*
X168443937Y-68985774D01*
X168557205Y-68816256D01*
X168635226Y-68627898D01*
X168675000Y-68427939D01*
X168675000Y-68224061D01*
X168635226Y-68024102D01*
X168557205Y-67835744D01*
X168443937Y-67666226D01*
X168299774Y-67522063D01*
X168130256Y-67408795D01*
X167941898Y-67330774D01*
X167741939Y-67291000D01*
X167538061Y-67291000D01*
X167338102Y-67330774D01*
X167149744Y-67408795D01*
X166980226Y-67522063D01*
X166836063Y-67666226D01*
X166722795Y-67835744D01*
X166644774Y-68024102D01*
X166605000Y-68224061D01*
X156294708Y-68224061D01*
X156255990Y-68130589D01*
X156093475Y-67887368D01*
X155886632Y-67680525D01*
X155712240Y-67564000D01*
X155886632Y-67447475D01*
X156093475Y-67240632D01*
X156255990Y-66997411D01*
X156367932Y-66727158D01*
X156425000Y-66440260D01*
X156425000Y-66147740D01*
X156367932Y-65860842D01*
X156255990Y-65590589D01*
X156093475Y-65347368D01*
X155886632Y-65140525D01*
X155643411Y-64978010D01*
X155373158Y-64866068D01*
X155086260Y-64809000D01*
X154793740Y-64809000D01*
X154506842Y-64866068D01*
X154236589Y-64978010D01*
X153993368Y-65140525D01*
X153797000Y-65336893D01*
X153797000Y-62996201D01*
X165835714Y-62996201D01*
X165835714Y-63200079D01*
X165875488Y-63400038D01*
X165953509Y-63588396D01*
X166066777Y-63757914D01*
X166210940Y-63902077D01*
X166380458Y-64015345D01*
X166568816Y-64093366D01*
X166768775Y-64133140D01*
X166972653Y-64133140D01*
X167172612Y-64093366D01*
X167360970Y-64015345D01*
X167524525Y-63906061D01*
X167875000Y-63906061D01*
X167875000Y-64109939D01*
X167914774Y-64309898D01*
X167992795Y-64498256D01*
X168106063Y-64667774D01*
X168250226Y-64811937D01*
X168419744Y-64925205D01*
X168608102Y-65003226D01*
X168808061Y-65043000D01*
X169011939Y-65043000D01*
X169211898Y-65003226D01*
X169400256Y-64925205D01*
X169569774Y-64811937D01*
X169713937Y-64667774D01*
X169827205Y-64498256D01*
X169905226Y-64309898D01*
X169935500Y-64157697D01*
X169943744Y-64163205D01*
X170132102Y-64241226D01*
X170332061Y-64281000D01*
X170535939Y-64281000D01*
X170735898Y-64241226D01*
X170924256Y-64163205D01*
X171093774Y-64049937D01*
X171237937Y-63905774D01*
X171351205Y-63736256D01*
X171429226Y-63547898D01*
X171469000Y-63347939D01*
X171469000Y-63144061D01*
X171429226Y-62944102D01*
X171351205Y-62755744D01*
X171237937Y-62586226D01*
X171093774Y-62442063D01*
X170924256Y-62328795D01*
X170735898Y-62250774D01*
X170535939Y-62211000D01*
X170332061Y-62211000D01*
X170132102Y-62250774D01*
X169943744Y-62328795D01*
X169774226Y-62442063D01*
X169630063Y-62586226D01*
X169516795Y-62755744D01*
X169438774Y-62944102D01*
X169408500Y-63096303D01*
X169400256Y-63090795D01*
X169211898Y-63012774D01*
X169011939Y-62973000D01*
X168808061Y-62973000D01*
X168608102Y-63012774D01*
X168419744Y-63090795D01*
X168250226Y-63204063D01*
X168106063Y-63348226D01*
X167992795Y-63517744D01*
X167914774Y-63706102D01*
X167875000Y-63906061D01*
X167524525Y-63906061D01*
X167530488Y-63902077D01*
X167674651Y-63757914D01*
X167787919Y-63588396D01*
X167865940Y-63400038D01*
X167905714Y-63200079D01*
X167905714Y-62996201D01*
X167865940Y-62796242D01*
X167787919Y-62607884D01*
X167674651Y-62438366D01*
X167530488Y-62294203D01*
X167360970Y-62180935D01*
X167172612Y-62102914D01*
X166972653Y-62063140D01*
X166768775Y-62063140D01*
X166568816Y-62102914D01*
X166380458Y-62180935D01*
X166210940Y-62294203D01*
X166066777Y-62438366D01*
X165953509Y-62607884D01*
X165875488Y-62796242D01*
X165835714Y-62996201D01*
X153797000Y-62996201D01*
X153797000Y-62627407D01*
X153845820Y-62653502D01*
X153965518Y-62689812D01*
X154090000Y-62702072D01*
X155790000Y-62702072D01*
X155914482Y-62689812D01*
X156034180Y-62653502D01*
X156144494Y-62594537D01*
X156241185Y-62515185D01*
X156320537Y-62418494D01*
X156379502Y-62308180D01*
X156415812Y-62188482D01*
X156428072Y-62064000D01*
X156428072Y-60364000D01*
X156415812Y-60239518D01*
X156379502Y-60119820D01*
X156320537Y-60009506D01*
X156241185Y-59912815D01*
X156144494Y-59833463D01*
X156034180Y-59774498D01*
X155961620Y-59752487D01*
X156093475Y-59620632D01*
X156255990Y-59377411D01*
X156367932Y-59107158D01*
X156425000Y-58820260D01*
X156425000Y-58527740D01*
X156367932Y-58240842D01*
X156255990Y-57970589D01*
X156240315Y-57947129D01*
X164203679Y-57947129D01*
X164203679Y-58151007D01*
X164243453Y-58350966D01*
X164321474Y-58539324D01*
X164434742Y-58708842D01*
X164578905Y-58853005D01*
X164748423Y-58966273D01*
X164936781Y-59044294D01*
X165136740Y-59084068D01*
X165340618Y-59084068D01*
X165540577Y-59044294D01*
X165728935Y-58966273D01*
X165898453Y-58853005D01*
X166042616Y-58708842D01*
X166155884Y-58539324D01*
X166233905Y-58350966D01*
X166273679Y-58151007D01*
X166273679Y-57947129D01*
X166233905Y-57747170D01*
X166155884Y-57558812D01*
X166042616Y-57389294D01*
X165898453Y-57245131D01*
X165728935Y-57131863D01*
X165540577Y-57053842D01*
X165511514Y-57048061D01*
X167367000Y-57048061D01*
X167367000Y-57251939D01*
X167406774Y-57451898D01*
X167484795Y-57640256D01*
X167598063Y-57809774D01*
X167742226Y-57953937D01*
X167911744Y-58067205D01*
X168100102Y-58145226D01*
X168300061Y-58185000D01*
X168503939Y-58185000D01*
X168703898Y-58145226D01*
X168892256Y-58067205D01*
X169061774Y-57953937D01*
X169205937Y-57809774D01*
X169319205Y-57640256D01*
X169397226Y-57451898D01*
X169437000Y-57251939D01*
X169437000Y-57048061D01*
X169397226Y-56848102D01*
X169319205Y-56659744D01*
X169205937Y-56490226D01*
X169061774Y-56346063D01*
X168892256Y-56232795D01*
X168703898Y-56154774D01*
X168503939Y-56115000D01*
X168300061Y-56115000D01*
X168100102Y-56154774D01*
X167911744Y-56232795D01*
X167742226Y-56346063D01*
X167598063Y-56490226D01*
X167484795Y-56659744D01*
X167406774Y-56848102D01*
X167367000Y-57048061D01*
X165511514Y-57048061D01*
X165340618Y-57014068D01*
X165136740Y-57014068D01*
X164936781Y-57053842D01*
X164748423Y-57131863D01*
X164578905Y-57245131D01*
X164434742Y-57389294D01*
X164321474Y-57558812D01*
X164243453Y-57747170D01*
X164203679Y-57947129D01*
X156240315Y-57947129D01*
X156093475Y-57727368D01*
X155886632Y-57520525D01*
X155712240Y-57404000D01*
X155886632Y-57287475D01*
X156093475Y-57080632D01*
X156255990Y-56837411D01*
X156367932Y-56567158D01*
X156425000Y-56280260D01*
X156425000Y-55987740D01*
X156367932Y-55700842D01*
X156294708Y-55524061D01*
X165843000Y-55524061D01*
X165843000Y-55727939D01*
X165882774Y-55927898D01*
X165960795Y-56116256D01*
X166074063Y-56285774D01*
X166218226Y-56429937D01*
X166387744Y-56543205D01*
X166576102Y-56621226D01*
X166776061Y-56661000D01*
X166979939Y-56661000D01*
X167179898Y-56621226D01*
X167368256Y-56543205D01*
X167537774Y-56429937D01*
X167681937Y-56285774D01*
X167795205Y-56116256D01*
X167873226Y-55927898D01*
X167913000Y-55727939D01*
X167913000Y-55524061D01*
X167873226Y-55324102D01*
X167850842Y-55270061D01*
X168637000Y-55270061D01*
X168637000Y-55473939D01*
X168676774Y-55673898D01*
X168754795Y-55862256D01*
X168868063Y-56031774D01*
X169012226Y-56175937D01*
X169181744Y-56289205D01*
X169370102Y-56367226D01*
X169570061Y-56407000D01*
X169773939Y-56407000D01*
X169973898Y-56367226D01*
X170162256Y-56289205D01*
X170331774Y-56175937D01*
X170475937Y-56031774D01*
X170589205Y-55862256D01*
X170667226Y-55673898D01*
X170707000Y-55473939D01*
X170707000Y-55270061D01*
X170667226Y-55070102D01*
X170589205Y-54881744D01*
X170475937Y-54712226D01*
X170331774Y-54568063D01*
X170162256Y-54454795D01*
X169973898Y-54376774D01*
X169773939Y-54337000D01*
X169570061Y-54337000D01*
X169370102Y-54376774D01*
X169181744Y-54454795D01*
X169012226Y-54568063D01*
X168868063Y-54712226D01*
X168754795Y-54881744D01*
X168676774Y-55070102D01*
X168637000Y-55270061D01*
X167850842Y-55270061D01*
X167795205Y-55135744D01*
X167681937Y-54966226D01*
X167537774Y-54822063D01*
X167368256Y-54708795D01*
X167179898Y-54630774D01*
X166979939Y-54591000D01*
X166776061Y-54591000D01*
X166576102Y-54630774D01*
X166387744Y-54708795D01*
X166218226Y-54822063D01*
X166074063Y-54966226D01*
X165960795Y-55135744D01*
X165882774Y-55324102D01*
X165843000Y-55524061D01*
X156294708Y-55524061D01*
X156255990Y-55430589D01*
X156093475Y-55187368D01*
X155886632Y-54980525D01*
X155712240Y-54864000D01*
X155886632Y-54747475D01*
X156093475Y-54540632D01*
X156255990Y-54297411D01*
X156367932Y-54027158D01*
X156425000Y-53740260D01*
X156425000Y-53447740D01*
X156367932Y-53160842D01*
X156255990Y-52890589D01*
X156093475Y-52647368D01*
X155886632Y-52440525D01*
X155643411Y-52278010D01*
X155447835Y-52197000D01*
X170419985Y-52197000D01*
X170454774Y-52371898D01*
G37*
%TD.AperFunction*%
%TD*%
M02*
