%TF.GenerationSoftware,KiCad,Pcbnew,(5.1.9-0-10_14)*%
%TF.CreationDate,2021-04-06T21:39:04+02:00*%
%TF.ProjectId,Silviaduino,53696c76-6961-4647-9569-6e6f2e6b6963,rev?*%
%TF.SameCoordinates,Original*%
%TF.FileFunction,Soldermask,Bot*%
%TF.FilePolarity,Negative*%
%FSLAX46Y46*%
G04 Gerber Fmt 4.6, Leading zero omitted, Abs format (unit mm)*
G04 Created by KiCad (PCBNEW (5.1.9-0-10_14)) date 2021-04-06 21:39:04*
%MOMM*%
%LPD*%
G01*
G04 APERTURE LIST*
%ADD10O,1.700000X1.700000*%
%ADD11R,1.700000X1.700000*%
%ADD12C,1.300000*%
%ADD13C,1.600000*%
%ADD14R,1.300000X1.300000*%
%ADD15R,1.600000X1.600000*%
G04 APERTURE END LIST*
D10*
%TO.C,J1*%
X154940000Y-53594000D03*
X154940000Y-56134000D03*
X154940000Y-58674000D03*
D11*
X154940000Y-61214000D03*
%TD*%
D10*
%TO.C,J12*%
X215900000Y-55880000D03*
D11*
X215900000Y-53340000D03*
%TD*%
D12*
%TO.C,U3*%
X189230000Y-54070000D03*
X186690000Y-54070000D03*
D13*
X193040000Y-99060000D03*
X190500000Y-99060000D03*
X187960000Y-99060000D03*
X185420000Y-99060000D03*
X182880000Y-99060000D03*
D12*
X189141600Y-66310000D03*
X189141600Y-68310000D03*
X191141600Y-68310000D03*
X191141600Y-66310000D03*
X193141600Y-68310000D03*
D14*
X193141600Y-66310000D03*
D13*
X180340000Y-93980000D03*
X180340000Y-96520000D03*
X180340000Y-99060000D03*
X180340000Y-101600000D03*
X180340000Y-91440000D03*
X180340000Y-88900000D03*
X180340000Y-86360000D03*
X180340000Y-104140000D03*
X180340000Y-106680000D03*
X180340000Y-109220000D03*
X180340000Y-111760000D03*
X195580000Y-111760000D03*
X195580000Y-109220000D03*
X195580000Y-106680000D03*
X195580000Y-104140000D03*
X195580000Y-101600000D03*
X195580000Y-99060000D03*
X195580000Y-96520000D03*
X195580000Y-93980000D03*
X195580000Y-91440000D03*
X195580000Y-88900000D03*
X180340000Y-83820000D03*
X180340000Y-81280000D03*
X180340000Y-78740000D03*
X180340000Y-76200000D03*
X180340000Y-73660000D03*
X180340000Y-71120000D03*
X180340000Y-68580000D03*
X180340000Y-66040000D03*
X180340000Y-63500000D03*
X180340000Y-60960000D03*
X180340000Y-58420000D03*
X180340000Y-55880000D03*
D15*
X180340000Y-53340000D03*
D13*
X195580000Y-86360000D03*
X195580000Y-83820000D03*
X195580000Y-81280000D03*
X195580000Y-78740000D03*
X195580000Y-76200000D03*
X195580000Y-73660000D03*
X195580000Y-71120000D03*
X195580000Y-68580000D03*
X195580000Y-66040000D03*
X195580000Y-63500000D03*
X195580000Y-60960000D03*
X195580000Y-58420000D03*
X195580000Y-55880000D03*
X195580000Y-53340000D03*
D15*
X183390800Y-59639200D03*
D13*
X183390800Y-62179200D03*
X183390800Y-64719200D03*
X183390800Y-67259200D03*
X183390800Y-69799200D03*
X193040000Y-55880000D03*
%TD*%
D10*
%TO.C,J11*%
X163830000Y-109220000D03*
X163830000Y-111760000D03*
X166370000Y-109220000D03*
X166370000Y-111760000D03*
X168910000Y-109220000D03*
X168910000Y-111760000D03*
X171450000Y-109220000D03*
D11*
X171450000Y-111760000D03*
%TD*%
D10*
%TO.C,J10*%
X215900000Y-111760000D03*
X213360000Y-111760000D03*
X215900000Y-109220000D03*
X213360000Y-109220000D03*
X215900000Y-106680000D03*
X213360000Y-106680000D03*
X215900000Y-104140000D03*
X213360000Y-104140000D03*
X215900000Y-101600000D03*
D11*
X213360000Y-101600000D03*
%TD*%
D10*
%TO.C,J9*%
X215900000Y-93980000D03*
X215900000Y-91440000D03*
X215900000Y-88900000D03*
X215900000Y-86360000D03*
D11*
X215900000Y-83820000D03*
%TD*%
D10*
%TO.C,J8*%
X154940000Y-109220000D03*
X154940000Y-106680000D03*
X154940000Y-104140000D03*
D11*
X154940000Y-101600000D03*
%TD*%
D10*
%TO.C,J7*%
X215900000Y-78740000D03*
X215900000Y-76200000D03*
D11*
X215900000Y-73660000D03*
%TD*%
D10*
%TO.C,J6*%
X215900000Y-68580000D03*
X215900000Y-66040000D03*
X215900000Y-63500000D03*
D11*
X215900000Y-60960000D03*
%TD*%
D10*
%TO.C,J5*%
X154940000Y-96520000D03*
D11*
X154940000Y-93980000D03*
%TD*%
D10*
%TO.C,J4*%
X154940000Y-88900000D03*
D11*
X154940000Y-86360000D03*
%TD*%
D10*
%TO.C,J3*%
X154940000Y-81280000D03*
D11*
X154940000Y-78740000D03*
%TD*%
D10*
%TO.C,J2*%
X154940000Y-66294000D03*
X154940000Y-68834000D03*
X154940000Y-71374000D03*
D11*
X154940000Y-73914000D03*
%TD*%
M02*
