%TF.GenerationSoftware,KiCad,Pcbnew,(5.1.9-0-10_14)*%
%TF.CreationDate,2021-04-06T21:39:04+02:00*%
%TF.ProjectId,Silviaduino,53696c76-6961-4647-9569-6e6f2e6b6963,rev?*%
%TF.SameCoordinates,Original*%
%TF.FileFunction,Copper,L1,Top*%
%TF.FilePolarity,Positive*%
%FSLAX46Y46*%
G04 Gerber Fmt 4.6, Leading zero omitted, Abs format (unit mm)*
G04 Created by KiCad (PCBNEW (5.1.9-0-10_14)) date 2021-04-06 21:39:04*
%MOMM*%
%LPD*%
G01*
G04 APERTURE LIST*
%TA.AperFunction,ComponentPad*%
%ADD10O,1.700000X1.700000*%
%TD*%
%TA.AperFunction,ComponentPad*%
%ADD11R,1.700000X1.700000*%
%TD*%
%TA.AperFunction,ComponentPad*%
%ADD12C,1.300000*%
%TD*%
%TA.AperFunction,ComponentPad*%
%ADD13C,1.600000*%
%TD*%
%TA.AperFunction,ComponentPad*%
%ADD14R,1.300000X1.300000*%
%TD*%
%TA.AperFunction,ComponentPad*%
%ADD15R,1.600000X1.600000*%
%TD*%
%TA.AperFunction,SMDPad,CuDef*%
%ADD16C,0.100000*%
%TD*%
%TA.AperFunction,SMDPad,CuDef*%
%ADD17R,0.900000X1.300000*%
%TD*%
%TA.AperFunction,SMDPad,CuDef*%
%ADD18R,1.300000X0.900000*%
%TD*%
%TA.AperFunction,SMDPad,CuDef*%
%ADD19R,0.800000X0.900000*%
%TD*%
%TA.AperFunction,ViaPad*%
%ADD20C,0.800000*%
%TD*%
%TA.AperFunction,Conductor*%
%ADD21C,0.250000*%
%TD*%
G04 APERTURE END LIST*
D10*
%TO.P,J1,4*%
%TO.N,RTD1F+*%
X154940000Y-53594000D03*
%TO.P,J1,3*%
%TO.N,RTD1IN+*%
X154940000Y-56134000D03*
%TO.P,J1,2*%
%TO.N,RTD1IN-*%
X154940000Y-58674000D03*
D11*
%TO.P,J1,1*%
%TO.N,RTD1F-*%
X154940000Y-61214000D03*
%TD*%
%TO.P,R11,2*%
%TO.N,I2C_SCL_5V*%
%TA.AperFunction,SMDPad,CuDef*%
G36*
G01*
X202172000Y-67241000D02*
X202172000Y-66871000D01*
G75*
G02*
X202307000Y-66736000I135000J0D01*
G01*
X202577000Y-66736000D01*
G75*
G02*
X202712000Y-66871000I0J-135000D01*
G01*
X202712000Y-67241000D01*
G75*
G02*
X202577000Y-67376000I-135000J0D01*
G01*
X202307000Y-67376000D01*
G75*
G02*
X202172000Y-67241000I0J135000D01*
G01*
G37*
%TD.AperFunction*%
%TO.P,R11,1*%
%TO.N,+5V*%
%TA.AperFunction,SMDPad,CuDef*%
G36*
G01*
X201152000Y-67241000D02*
X201152000Y-66871000D01*
G75*
G02*
X201287000Y-66736000I135000J0D01*
G01*
X201557000Y-66736000D01*
G75*
G02*
X201692000Y-66871000I0J-135000D01*
G01*
X201692000Y-67241000D01*
G75*
G02*
X201557000Y-67376000I-135000J0D01*
G01*
X201287000Y-67376000D01*
G75*
G02*
X201152000Y-67241000I0J135000D01*
G01*
G37*
%TD.AperFunction*%
%TD*%
%TO.P,R10,2*%
%TO.N,I2C_SDA_5V*%
%TA.AperFunction,SMDPad,CuDef*%
G36*
G01*
X208776000Y-67241000D02*
X208776000Y-66871000D01*
G75*
G02*
X208911000Y-66736000I135000J0D01*
G01*
X209181000Y-66736000D01*
G75*
G02*
X209316000Y-66871000I0J-135000D01*
G01*
X209316000Y-67241000D01*
G75*
G02*
X209181000Y-67376000I-135000J0D01*
G01*
X208911000Y-67376000D01*
G75*
G02*
X208776000Y-67241000I0J135000D01*
G01*
G37*
%TD.AperFunction*%
%TO.P,R10,1*%
%TO.N,+5V*%
%TA.AperFunction,SMDPad,CuDef*%
G36*
G01*
X207756000Y-67241000D02*
X207756000Y-66871000D01*
G75*
G02*
X207891000Y-66736000I135000J0D01*
G01*
X208161000Y-66736000D01*
G75*
G02*
X208296000Y-66871000I0J-135000D01*
G01*
X208296000Y-67241000D01*
G75*
G02*
X208161000Y-67376000I-135000J0D01*
G01*
X207891000Y-67376000D01*
G75*
G02*
X207756000Y-67241000I0J135000D01*
G01*
G37*
%TD.AperFunction*%
%TD*%
%TO.P,R9,2*%
%TO.N,I2C_SCL*%
%TA.AperFunction,SMDPad,CuDef*%
G36*
G01*
X202198000Y-60775000D02*
X202198000Y-61145000D01*
G75*
G02*
X202063000Y-61280000I-135000J0D01*
G01*
X201793000Y-61280000D01*
G75*
G02*
X201658000Y-61145000I0J135000D01*
G01*
X201658000Y-60775000D01*
G75*
G02*
X201793000Y-60640000I135000J0D01*
G01*
X202063000Y-60640000D01*
G75*
G02*
X202198000Y-60775000I0J-135000D01*
G01*
G37*
%TD.AperFunction*%
%TO.P,R9,1*%
%TO.N,TEMP_DVDD*%
%TA.AperFunction,SMDPad,CuDef*%
G36*
G01*
X203218000Y-60775000D02*
X203218000Y-61145000D01*
G75*
G02*
X203083000Y-61280000I-135000J0D01*
G01*
X202813000Y-61280000D01*
G75*
G02*
X202678000Y-61145000I0J135000D01*
G01*
X202678000Y-60775000D01*
G75*
G02*
X202813000Y-60640000I135000J0D01*
G01*
X203083000Y-60640000D01*
G75*
G02*
X203218000Y-60775000I0J-135000D01*
G01*
G37*
%TD.AperFunction*%
%TD*%
%TO.P,R8,2*%
%TO.N,I2C_SDA*%
%TA.AperFunction,SMDPad,CuDef*%
G36*
G01*
X209054000Y-60775000D02*
X209054000Y-61145000D01*
G75*
G02*
X208919000Y-61280000I-135000J0D01*
G01*
X208649000Y-61280000D01*
G75*
G02*
X208514000Y-61145000I0J135000D01*
G01*
X208514000Y-60775000D01*
G75*
G02*
X208649000Y-60640000I135000J0D01*
G01*
X208919000Y-60640000D01*
G75*
G02*
X209054000Y-60775000I0J-135000D01*
G01*
G37*
%TD.AperFunction*%
%TO.P,R8,1*%
%TO.N,TEMP_DVDD*%
%TA.AperFunction,SMDPad,CuDef*%
G36*
G01*
X210074000Y-60775000D02*
X210074000Y-61145000D01*
G75*
G02*
X209939000Y-61280000I-135000J0D01*
G01*
X209669000Y-61280000D01*
G75*
G02*
X209534000Y-61145000I0J135000D01*
G01*
X209534000Y-60775000D01*
G75*
G02*
X209669000Y-60640000I135000J0D01*
G01*
X209939000Y-60640000D01*
G75*
G02*
X210074000Y-60775000I0J-135000D01*
G01*
G37*
%TD.AperFunction*%
%TD*%
%TO.P,R7,2*%
%TO.N,Net-(R5-Pad2)*%
%TA.AperFunction,SMDPad,CuDef*%
G36*
G01*
X159581000Y-68820000D02*
X159951000Y-68820000D01*
G75*
G02*
X160086000Y-68955000I0J-135000D01*
G01*
X160086000Y-69225000D01*
G75*
G02*
X159951000Y-69360000I-135000J0D01*
G01*
X159581000Y-69360000D01*
G75*
G02*
X159446000Y-69225000I0J135000D01*
G01*
X159446000Y-68955000D01*
G75*
G02*
X159581000Y-68820000I135000J0D01*
G01*
G37*
%TD.AperFunction*%
%TO.P,R7,1*%
%TO.N,Net-(R7-Pad1)*%
%TA.AperFunction,SMDPad,CuDef*%
G36*
G01*
X159581000Y-67800000D02*
X159951000Y-67800000D01*
G75*
G02*
X160086000Y-67935000I0J-135000D01*
G01*
X160086000Y-68205000D01*
G75*
G02*
X159951000Y-68340000I-135000J0D01*
G01*
X159581000Y-68340000D01*
G75*
G02*
X159446000Y-68205000I0J135000D01*
G01*
X159446000Y-67935000D01*
G75*
G02*
X159581000Y-67800000I135000J0D01*
G01*
G37*
%TD.AperFunction*%
%TD*%
%TO.P,R6,2*%
%TO.N,Net-(R4-Pad2)*%
%TA.AperFunction,SMDPad,CuDef*%
G36*
G01*
X160343000Y-55614000D02*
X160713000Y-55614000D01*
G75*
G02*
X160848000Y-55749000I0J-135000D01*
G01*
X160848000Y-56019000D01*
G75*
G02*
X160713000Y-56154000I-135000J0D01*
G01*
X160343000Y-56154000D01*
G75*
G02*
X160208000Y-56019000I0J135000D01*
G01*
X160208000Y-55749000D01*
G75*
G02*
X160343000Y-55614000I135000J0D01*
G01*
G37*
%TD.AperFunction*%
%TO.P,R6,1*%
%TO.N,Net-(R6-Pad1)*%
%TA.AperFunction,SMDPad,CuDef*%
G36*
G01*
X160343000Y-54594000D02*
X160713000Y-54594000D01*
G75*
G02*
X160848000Y-54729000I0J-135000D01*
G01*
X160848000Y-54999000D01*
G75*
G02*
X160713000Y-55134000I-135000J0D01*
G01*
X160343000Y-55134000D01*
G75*
G02*
X160208000Y-54999000I0J135000D01*
G01*
X160208000Y-54729000D01*
G75*
G02*
X160343000Y-54594000I135000J0D01*
G01*
G37*
%TD.AperFunction*%
%TD*%
%TO.P,R5,2*%
%TO.N,Net-(R5-Pad2)*%
%TA.AperFunction,SMDPad,CuDef*%
G36*
G01*
X159951000Y-70880000D02*
X159581000Y-70880000D01*
G75*
G02*
X159446000Y-70745000I0J135000D01*
G01*
X159446000Y-70475000D01*
G75*
G02*
X159581000Y-70340000I135000J0D01*
G01*
X159951000Y-70340000D01*
G75*
G02*
X160086000Y-70475000I0J-135000D01*
G01*
X160086000Y-70745000D01*
G75*
G02*
X159951000Y-70880000I-135000J0D01*
G01*
G37*
%TD.AperFunction*%
%TO.P,R5,1*%
%TO.N,RTD2IN+*%
%TA.AperFunction,SMDPad,CuDef*%
G36*
G01*
X159951000Y-71900000D02*
X159581000Y-71900000D01*
G75*
G02*
X159446000Y-71765000I0J135000D01*
G01*
X159446000Y-71495000D01*
G75*
G02*
X159581000Y-71360000I135000J0D01*
G01*
X159951000Y-71360000D01*
G75*
G02*
X160086000Y-71495000I0J-135000D01*
G01*
X160086000Y-71765000D01*
G75*
G02*
X159951000Y-71900000I-135000J0D01*
G01*
G37*
%TD.AperFunction*%
%TD*%
%TO.P,R4,2*%
%TO.N,Net-(R4-Pad2)*%
%TA.AperFunction,SMDPad,CuDef*%
G36*
G01*
X160713000Y-57164000D02*
X160343000Y-57164000D01*
G75*
G02*
X160208000Y-57029000I0J135000D01*
G01*
X160208000Y-56759000D01*
G75*
G02*
X160343000Y-56624000I135000J0D01*
G01*
X160713000Y-56624000D01*
G75*
G02*
X160848000Y-56759000I0J-135000D01*
G01*
X160848000Y-57029000D01*
G75*
G02*
X160713000Y-57164000I-135000J0D01*
G01*
G37*
%TD.AperFunction*%
%TO.P,R4,1*%
%TO.N,RTD1IN+*%
%TA.AperFunction,SMDPad,CuDef*%
G36*
G01*
X160713000Y-58184000D02*
X160343000Y-58184000D01*
G75*
G02*
X160208000Y-58049000I0J135000D01*
G01*
X160208000Y-57779000D01*
G75*
G02*
X160343000Y-57644000I135000J0D01*
G01*
X160713000Y-57644000D01*
G75*
G02*
X160848000Y-57779000I0J-135000D01*
G01*
X160848000Y-58049000D01*
G75*
G02*
X160713000Y-58184000I-135000J0D01*
G01*
G37*
%TD.AperFunction*%
%TD*%
%TO.P,R3,2*%
%TO.N,Net-(D3-Pad2)*%
%TA.AperFunction,SMDPad,CuDef*%
G36*
G01*
X173971800Y-80635600D02*
X173601800Y-80635600D01*
G75*
G02*
X173466800Y-80500600I0J135000D01*
G01*
X173466800Y-80230600D01*
G75*
G02*
X173601800Y-80095600I135000J0D01*
G01*
X173971800Y-80095600D01*
G75*
G02*
X174106800Y-80230600I0J-135000D01*
G01*
X174106800Y-80500600D01*
G75*
G02*
X173971800Y-80635600I-135000J0D01*
G01*
G37*
%TD.AperFunction*%
%TO.P,R3,1*%
%TO.N,SSR3_GATE*%
%TA.AperFunction,SMDPad,CuDef*%
G36*
G01*
X173971800Y-81655600D02*
X173601800Y-81655600D01*
G75*
G02*
X173466800Y-81520600I0J135000D01*
G01*
X173466800Y-81250600D01*
G75*
G02*
X173601800Y-81115600I135000J0D01*
G01*
X173971800Y-81115600D01*
G75*
G02*
X174106800Y-81250600I0J-135000D01*
G01*
X174106800Y-81520600D01*
G75*
G02*
X173971800Y-81655600I-135000J0D01*
G01*
G37*
%TD.AperFunction*%
%TD*%
%TO.P,R2,2*%
%TO.N,Net-(D2-Pad2)*%
%TA.AperFunction,SMDPad,CuDef*%
G36*
G01*
X169857000Y-80608200D02*
X169487000Y-80608200D01*
G75*
G02*
X169352000Y-80473200I0J135000D01*
G01*
X169352000Y-80203200D01*
G75*
G02*
X169487000Y-80068200I135000J0D01*
G01*
X169857000Y-80068200D01*
G75*
G02*
X169992000Y-80203200I0J-135000D01*
G01*
X169992000Y-80473200D01*
G75*
G02*
X169857000Y-80608200I-135000J0D01*
G01*
G37*
%TD.AperFunction*%
%TO.P,R2,1*%
%TO.N,SSR2_GATE*%
%TA.AperFunction,SMDPad,CuDef*%
G36*
G01*
X169857000Y-81628200D02*
X169487000Y-81628200D01*
G75*
G02*
X169352000Y-81493200I0J135000D01*
G01*
X169352000Y-81223200D01*
G75*
G02*
X169487000Y-81088200I135000J0D01*
G01*
X169857000Y-81088200D01*
G75*
G02*
X169992000Y-81223200I0J-135000D01*
G01*
X169992000Y-81493200D01*
G75*
G02*
X169857000Y-81628200I-135000J0D01*
G01*
G37*
%TD.AperFunction*%
%TD*%
%TO.P,R1,2*%
%TO.N,Net-(D1-Pad2)*%
%TA.AperFunction,SMDPad,CuDef*%
G36*
G01*
X165666000Y-80481200D02*
X165296000Y-80481200D01*
G75*
G02*
X165161000Y-80346200I0J135000D01*
G01*
X165161000Y-80076200D01*
G75*
G02*
X165296000Y-79941200I135000J0D01*
G01*
X165666000Y-79941200D01*
G75*
G02*
X165801000Y-80076200I0J-135000D01*
G01*
X165801000Y-80346200D01*
G75*
G02*
X165666000Y-80481200I-135000J0D01*
G01*
G37*
%TD.AperFunction*%
%TO.P,R1,1*%
%TO.N,SSR1_GATE*%
%TA.AperFunction,SMDPad,CuDef*%
G36*
G01*
X165666000Y-81501200D02*
X165296000Y-81501200D01*
G75*
G02*
X165161000Y-81366200I0J135000D01*
G01*
X165161000Y-81096200D01*
G75*
G02*
X165296000Y-80961200I135000J0D01*
G01*
X165666000Y-80961200D01*
G75*
G02*
X165801000Y-81096200I0J-135000D01*
G01*
X165801000Y-81366200D01*
G75*
G02*
X165666000Y-81501200I-135000J0D01*
G01*
G37*
%TD.AperFunction*%
%TD*%
%TO.P,C9,2*%
%TO.N,GND*%
%TA.AperFunction,SMDPad,CuDef*%
G36*
G01*
X170010000Y-53060000D02*
X170350000Y-53060000D01*
G75*
G02*
X170490000Y-53200000I0J-140000D01*
G01*
X170490000Y-53480000D01*
G75*
G02*
X170350000Y-53620000I-140000J0D01*
G01*
X170010000Y-53620000D01*
G75*
G02*
X169870000Y-53480000I0J140000D01*
G01*
X169870000Y-53200000D01*
G75*
G02*
X170010000Y-53060000I140000J0D01*
G01*
G37*
%TD.AperFunction*%
%TO.P,C9,1*%
%TO.N,TEMP_DVDD*%
%TA.AperFunction,SMDPad,CuDef*%
G36*
G01*
X170010000Y-52100000D02*
X170350000Y-52100000D01*
G75*
G02*
X170490000Y-52240000I0J-140000D01*
G01*
X170490000Y-52520000D01*
G75*
G02*
X170350000Y-52660000I-140000J0D01*
G01*
X170010000Y-52660000D01*
G75*
G02*
X169870000Y-52520000I0J140000D01*
G01*
X169870000Y-52240000D01*
G75*
G02*
X170010000Y-52100000I140000J0D01*
G01*
G37*
%TD.AperFunction*%
%TD*%
%TO.P,C8,2*%
%TO.N,RTD2IN-*%
%TA.AperFunction,SMDPad,CuDef*%
G36*
G01*
X157818000Y-70276000D02*
X158158000Y-70276000D01*
G75*
G02*
X158298000Y-70416000I0J-140000D01*
G01*
X158298000Y-70696000D01*
G75*
G02*
X158158000Y-70836000I-140000J0D01*
G01*
X157818000Y-70836000D01*
G75*
G02*
X157678000Y-70696000I0J140000D01*
G01*
X157678000Y-70416000D01*
G75*
G02*
X157818000Y-70276000I140000J0D01*
G01*
G37*
%TD.AperFunction*%
%TO.P,C8,1*%
%TO.N,RTD2IN+*%
%TA.AperFunction,SMDPad,CuDef*%
G36*
G01*
X157818000Y-69316000D02*
X158158000Y-69316000D01*
G75*
G02*
X158298000Y-69456000I0J-140000D01*
G01*
X158298000Y-69736000D01*
G75*
G02*
X158158000Y-69876000I-140000J0D01*
G01*
X157818000Y-69876000D01*
G75*
G02*
X157678000Y-69736000I0J140000D01*
G01*
X157678000Y-69456000D01*
G75*
G02*
X157818000Y-69316000I140000J0D01*
G01*
G37*
%TD.AperFunction*%
%TD*%
%TO.P,C7,2*%
%TO.N,RTD1IN-*%
%TA.AperFunction,SMDPad,CuDef*%
G36*
G01*
X157564000Y-56588000D02*
X157904000Y-56588000D01*
G75*
G02*
X158044000Y-56728000I0J-140000D01*
G01*
X158044000Y-57008000D01*
G75*
G02*
X157904000Y-57148000I-140000J0D01*
G01*
X157564000Y-57148000D01*
G75*
G02*
X157424000Y-57008000I0J140000D01*
G01*
X157424000Y-56728000D01*
G75*
G02*
X157564000Y-56588000I140000J0D01*
G01*
G37*
%TD.AperFunction*%
%TO.P,C7,1*%
%TO.N,RTD1IN+*%
%TA.AperFunction,SMDPad,CuDef*%
G36*
G01*
X157564000Y-55628000D02*
X157904000Y-55628000D01*
G75*
G02*
X158044000Y-55768000I0J-140000D01*
G01*
X158044000Y-56048000D01*
G75*
G02*
X157904000Y-56188000I-140000J0D01*
G01*
X157564000Y-56188000D01*
G75*
G02*
X157424000Y-56048000I0J140000D01*
G01*
X157424000Y-55768000D01*
G75*
G02*
X157564000Y-55628000I140000J0D01*
G01*
G37*
%TD.AperFunction*%
%TD*%
%TO.P,C6,2*%
%TO.N,GND*%
%TA.AperFunction,SMDPad,CuDef*%
G36*
G01*
X212682000Y-86786000D02*
X213022000Y-86786000D01*
G75*
G02*
X213162000Y-86926000I0J-140000D01*
G01*
X213162000Y-87206000D01*
G75*
G02*
X213022000Y-87346000I-140000J0D01*
G01*
X212682000Y-87346000D01*
G75*
G02*
X212542000Y-87206000I0J140000D01*
G01*
X212542000Y-86926000D01*
G75*
G02*
X212682000Y-86786000I140000J0D01*
G01*
G37*
%TD.AperFunction*%
%TO.P,C6,1*%
%TO.N,+5V*%
%TA.AperFunction,SMDPad,CuDef*%
G36*
G01*
X212682000Y-85826000D02*
X213022000Y-85826000D01*
G75*
G02*
X213162000Y-85966000I0J-140000D01*
G01*
X213162000Y-86246000D01*
G75*
G02*
X213022000Y-86386000I-140000J0D01*
G01*
X212682000Y-86386000D01*
G75*
G02*
X212542000Y-86246000I0J140000D01*
G01*
X212542000Y-85966000D01*
G75*
G02*
X212682000Y-85826000I140000J0D01*
G01*
G37*
%TD.AperFunction*%
%TD*%
%TO.P,C5,2*%
%TO.N,+5V*%
%TA.AperFunction,SMDPad,CuDef*%
G36*
G01*
X205940000Y-80180000D02*
X205940000Y-79840000D01*
G75*
G02*
X206080000Y-79700000I140000J0D01*
G01*
X206360000Y-79700000D01*
G75*
G02*
X206500000Y-79840000I0J-140000D01*
G01*
X206500000Y-80180000D01*
G75*
G02*
X206360000Y-80320000I-140000J0D01*
G01*
X206080000Y-80320000D01*
G75*
G02*
X205940000Y-80180000I0J140000D01*
G01*
G37*
%TD.AperFunction*%
%TO.P,C5,1*%
%TO.N,GND*%
%TA.AperFunction,SMDPad,CuDef*%
G36*
G01*
X204980000Y-80180000D02*
X204980000Y-79840000D01*
G75*
G02*
X205120000Y-79700000I140000J0D01*
G01*
X205400000Y-79700000D01*
G75*
G02*
X205540000Y-79840000I0J-140000D01*
G01*
X205540000Y-80180000D01*
G75*
G02*
X205400000Y-80320000I-140000J0D01*
G01*
X205120000Y-80320000D01*
G75*
G02*
X204980000Y-80180000I0J140000D01*
G01*
G37*
%TD.AperFunction*%
%TD*%
%TO.P,C4,2*%
%TO.N,GND*%
%TA.AperFunction,SMDPad,CuDef*%
G36*
G01*
X172804000Y-53032000D02*
X173144000Y-53032000D01*
G75*
G02*
X173284000Y-53172000I0J-140000D01*
G01*
X173284000Y-53452000D01*
G75*
G02*
X173144000Y-53592000I-140000J0D01*
G01*
X172804000Y-53592000D01*
G75*
G02*
X172664000Y-53452000I0J140000D01*
G01*
X172664000Y-53172000D01*
G75*
G02*
X172804000Y-53032000I140000J0D01*
G01*
G37*
%TD.AperFunction*%
%TO.P,C4,1*%
%TO.N,TEMP_VDD*%
%TA.AperFunction,SMDPad,CuDef*%
G36*
G01*
X172804000Y-52072000D02*
X173144000Y-52072000D01*
G75*
G02*
X173284000Y-52212000I0J-140000D01*
G01*
X173284000Y-52492000D01*
G75*
G02*
X173144000Y-52632000I-140000J0D01*
G01*
X172804000Y-52632000D01*
G75*
G02*
X172664000Y-52492000I0J140000D01*
G01*
X172664000Y-52212000D01*
G75*
G02*
X172804000Y-52072000I140000J0D01*
G01*
G37*
%TD.AperFunction*%
%TD*%
%TO.P,C3,2*%
%TO.N,GND*%
%TA.AperFunction,SMDPad,CuDef*%
G36*
G01*
X200830000Y-53915000D02*
X200490000Y-53915000D01*
G75*
G02*
X200350000Y-53775000I0J140000D01*
G01*
X200350000Y-53495000D01*
G75*
G02*
X200490000Y-53355000I140000J0D01*
G01*
X200830000Y-53355000D01*
G75*
G02*
X200970000Y-53495000I0J-140000D01*
G01*
X200970000Y-53775000D01*
G75*
G02*
X200830000Y-53915000I-140000J0D01*
G01*
G37*
%TD.AperFunction*%
%TO.P,C3,1*%
%TO.N,+5V*%
%TA.AperFunction,SMDPad,CuDef*%
G36*
G01*
X200830000Y-54875000D02*
X200490000Y-54875000D01*
G75*
G02*
X200350000Y-54735000I0J140000D01*
G01*
X200350000Y-54455000D01*
G75*
G02*
X200490000Y-54315000I140000J0D01*
G01*
X200830000Y-54315000D01*
G75*
G02*
X200970000Y-54455000I0J-140000D01*
G01*
X200970000Y-54735000D01*
G75*
G02*
X200830000Y-54875000I-140000J0D01*
G01*
G37*
%TD.AperFunction*%
%TD*%
%TO.P,C2,2*%
%TO.N,GND*%
%TA.AperFunction,SMDPad,CuDef*%
G36*
G01*
X211920000Y-54810000D02*
X212260000Y-54810000D01*
G75*
G02*
X212400000Y-54950000I0J-140000D01*
G01*
X212400000Y-55230000D01*
G75*
G02*
X212260000Y-55370000I-140000J0D01*
G01*
X211920000Y-55370000D01*
G75*
G02*
X211780000Y-55230000I0J140000D01*
G01*
X211780000Y-54950000D01*
G75*
G02*
X211920000Y-54810000I140000J0D01*
G01*
G37*
%TD.AperFunction*%
%TO.P,C2,1*%
%TO.N,+9V*%
%TA.AperFunction,SMDPad,CuDef*%
G36*
G01*
X211920000Y-53850000D02*
X212260000Y-53850000D01*
G75*
G02*
X212400000Y-53990000I0J-140000D01*
G01*
X212400000Y-54270000D01*
G75*
G02*
X212260000Y-54410000I-140000J0D01*
G01*
X211920000Y-54410000D01*
G75*
G02*
X211780000Y-54270000I0J140000D01*
G01*
X211780000Y-53990000D01*
G75*
G02*
X211920000Y-53850000I140000J0D01*
G01*
G37*
%TD.AperFunction*%
%TD*%
D10*
%TO.P,J12,2*%
%TO.N,GND*%
X215900000Y-55880000D03*
D11*
%TO.P,J12,1*%
%TO.N,+9V*%
X215900000Y-53340000D03*
%TD*%
%TO.P,U6,20*%
%TO.N,Net-(U6-Pad20)*%
%TA.AperFunction,SMDPad,CuDef*%
G36*
G01*
X168154000Y-72400000D02*
X168404000Y-72400000D01*
G75*
G02*
X168529000Y-72525000I0J-125000D01*
G01*
X168529000Y-74175000D01*
G75*
G02*
X168404000Y-74300000I-125000J0D01*
G01*
X168154000Y-74300000D01*
G75*
G02*
X168029000Y-74175000I0J125000D01*
G01*
X168029000Y-72525000D01*
G75*
G02*
X168154000Y-72400000I125000J0D01*
G01*
G37*
%TD.AperFunction*%
%TO.P,U6,19*%
%TO.N,GND*%
%TA.AperFunction,SMDPad,CuDef*%
G36*
G01*
X167504000Y-72400000D02*
X167754000Y-72400000D01*
G75*
G02*
X167879000Y-72525000I0J-125000D01*
G01*
X167879000Y-74175000D01*
G75*
G02*
X167754000Y-74300000I-125000J0D01*
G01*
X167504000Y-74300000D01*
G75*
G02*
X167379000Y-74175000I0J125000D01*
G01*
X167379000Y-72525000D01*
G75*
G02*
X167504000Y-72400000I125000J0D01*
G01*
G37*
%TD.AperFunction*%
%TO.P,U6,18*%
%TA.AperFunction,SMDPad,CuDef*%
G36*
G01*
X166854000Y-72400000D02*
X167104000Y-72400000D01*
G75*
G02*
X167229000Y-72525000I0J-125000D01*
G01*
X167229000Y-74175000D01*
G75*
G02*
X167104000Y-74300000I-125000J0D01*
G01*
X166854000Y-74300000D01*
G75*
G02*
X166729000Y-74175000I0J125000D01*
G01*
X166729000Y-72525000D01*
G75*
G02*
X166854000Y-72400000I125000J0D01*
G01*
G37*
%TD.AperFunction*%
%TO.P,U6,17*%
%TO.N,TEMP_SPI_MISO*%
%TA.AperFunction,SMDPad,CuDef*%
G36*
G01*
X166204000Y-72400000D02*
X166454000Y-72400000D01*
G75*
G02*
X166579000Y-72525000I0J-125000D01*
G01*
X166579000Y-74175000D01*
G75*
G02*
X166454000Y-74300000I-125000J0D01*
G01*
X166204000Y-74300000D01*
G75*
G02*
X166079000Y-74175000I0J125000D01*
G01*
X166079000Y-72525000D01*
G75*
G02*
X166204000Y-72400000I125000J0D01*
G01*
G37*
%TD.AperFunction*%
%TO.P,U6,16*%
%TO.N,TEMP_SPI_CS1*%
%TA.AperFunction,SMDPad,CuDef*%
G36*
G01*
X165554000Y-72400000D02*
X165804000Y-72400000D01*
G75*
G02*
X165929000Y-72525000I0J-125000D01*
G01*
X165929000Y-74175000D01*
G75*
G02*
X165804000Y-74300000I-125000J0D01*
G01*
X165554000Y-74300000D01*
G75*
G02*
X165429000Y-74175000I0J125000D01*
G01*
X165429000Y-72525000D01*
G75*
G02*
X165554000Y-72400000I125000J0D01*
G01*
G37*
%TD.AperFunction*%
%TO.P,U6,15*%
%TO.N,TEMP_SPI_SCK*%
%TA.AperFunction,SMDPad,CuDef*%
G36*
G01*
X164904000Y-72400000D02*
X165154000Y-72400000D01*
G75*
G02*
X165279000Y-72525000I0J-125000D01*
G01*
X165279000Y-74175000D01*
G75*
G02*
X165154000Y-74300000I-125000J0D01*
G01*
X164904000Y-74300000D01*
G75*
G02*
X164779000Y-74175000I0J125000D01*
G01*
X164779000Y-72525000D01*
G75*
G02*
X164904000Y-72400000I125000J0D01*
G01*
G37*
%TD.AperFunction*%
%TO.P,U6,14*%
%TO.N,TEMP_SPI_MOSI*%
%TA.AperFunction,SMDPad,CuDef*%
G36*
G01*
X164254000Y-72400000D02*
X164504000Y-72400000D01*
G75*
G02*
X164629000Y-72525000I0J-125000D01*
G01*
X164629000Y-74175000D01*
G75*
G02*
X164504000Y-74300000I-125000J0D01*
G01*
X164254000Y-74300000D01*
G75*
G02*
X164129000Y-74175000I0J125000D01*
G01*
X164129000Y-72525000D01*
G75*
G02*
X164254000Y-72400000I125000J0D01*
G01*
G37*
%TD.AperFunction*%
%TO.P,U6,13*%
%TO.N,GND*%
%TA.AperFunction,SMDPad,CuDef*%
G36*
G01*
X163604000Y-72400000D02*
X163854000Y-72400000D01*
G75*
G02*
X163979000Y-72525000I0J-125000D01*
G01*
X163979000Y-74175000D01*
G75*
G02*
X163854000Y-74300000I-125000J0D01*
G01*
X163604000Y-74300000D01*
G75*
G02*
X163479000Y-74175000I0J125000D01*
G01*
X163479000Y-72525000D01*
G75*
G02*
X163604000Y-72400000I125000J0D01*
G01*
G37*
%TD.AperFunction*%
%TO.P,U6,12*%
%TO.N,RTD2F-*%
%TA.AperFunction,SMDPad,CuDef*%
G36*
G01*
X162954000Y-72400000D02*
X163204000Y-72400000D01*
G75*
G02*
X163329000Y-72525000I0J-125000D01*
G01*
X163329000Y-74175000D01*
G75*
G02*
X163204000Y-74300000I-125000J0D01*
G01*
X162954000Y-74300000D01*
G75*
G02*
X162829000Y-74175000I0J125000D01*
G01*
X162829000Y-72525000D01*
G75*
G02*
X162954000Y-72400000I125000J0D01*
G01*
G37*
%TD.AperFunction*%
%TO.P,U6,11*%
%TO.N,RTD2IN-*%
%TA.AperFunction,SMDPad,CuDef*%
G36*
G01*
X162304000Y-72400000D02*
X162554000Y-72400000D01*
G75*
G02*
X162679000Y-72525000I0J-125000D01*
G01*
X162679000Y-74175000D01*
G75*
G02*
X162554000Y-74300000I-125000J0D01*
G01*
X162304000Y-74300000D01*
G75*
G02*
X162179000Y-74175000I0J125000D01*
G01*
X162179000Y-72525000D01*
G75*
G02*
X162304000Y-72400000I125000J0D01*
G01*
G37*
%TD.AperFunction*%
%TO.P,U6,10*%
%TO.N,RTD2IN+*%
%TA.AperFunction,SMDPad,CuDef*%
G36*
G01*
X162304000Y-65400000D02*
X162554000Y-65400000D01*
G75*
G02*
X162679000Y-65525000I0J-125000D01*
G01*
X162679000Y-67175000D01*
G75*
G02*
X162554000Y-67300000I-125000J0D01*
G01*
X162304000Y-67300000D01*
G75*
G02*
X162179000Y-67175000I0J125000D01*
G01*
X162179000Y-65525000D01*
G75*
G02*
X162304000Y-65400000I125000J0D01*
G01*
G37*
%TD.AperFunction*%
%TO.P,U6,9*%
%TO.N,RTD2F+*%
%TA.AperFunction,SMDPad,CuDef*%
G36*
G01*
X162954000Y-65400000D02*
X163204000Y-65400000D01*
G75*
G02*
X163329000Y-65525000I0J-125000D01*
G01*
X163329000Y-67175000D01*
G75*
G02*
X163204000Y-67300000I-125000J0D01*
G01*
X162954000Y-67300000D01*
G75*
G02*
X162829000Y-67175000I0J125000D01*
G01*
X162829000Y-65525000D01*
G75*
G02*
X162954000Y-65400000I125000J0D01*
G01*
G37*
%TD.AperFunction*%
%TO.P,U6,8*%
%TA.AperFunction,SMDPad,CuDef*%
G36*
G01*
X163604000Y-65400000D02*
X163854000Y-65400000D01*
G75*
G02*
X163979000Y-65525000I0J-125000D01*
G01*
X163979000Y-67175000D01*
G75*
G02*
X163854000Y-67300000I-125000J0D01*
G01*
X163604000Y-67300000D01*
G75*
G02*
X163479000Y-67175000I0J125000D01*
G01*
X163479000Y-65525000D01*
G75*
G02*
X163604000Y-65400000I125000J0D01*
G01*
G37*
%TD.AperFunction*%
%TO.P,U6,7*%
%TO.N,Net-(R7-Pad1)*%
%TA.AperFunction,SMDPad,CuDef*%
G36*
G01*
X164254000Y-65400000D02*
X164504000Y-65400000D01*
G75*
G02*
X164629000Y-65525000I0J-125000D01*
G01*
X164629000Y-67175000D01*
G75*
G02*
X164504000Y-67300000I-125000J0D01*
G01*
X164254000Y-67300000D01*
G75*
G02*
X164129000Y-67175000I0J125000D01*
G01*
X164129000Y-65525000D01*
G75*
G02*
X164254000Y-65400000I125000J0D01*
G01*
G37*
%TD.AperFunction*%
%TO.P,U6,6*%
%TA.AperFunction,SMDPad,CuDef*%
G36*
G01*
X164904000Y-65400000D02*
X165154000Y-65400000D01*
G75*
G02*
X165279000Y-65525000I0J-125000D01*
G01*
X165279000Y-67175000D01*
G75*
G02*
X165154000Y-67300000I-125000J0D01*
G01*
X164904000Y-67300000D01*
G75*
G02*
X164779000Y-67175000I0J125000D01*
G01*
X164779000Y-65525000D01*
G75*
G02*
X164904000Y-65400000I125000J0D01*
G01*
G37*
%TD.AperFunction*%
%TO.P,U6,5*%
%TO.N,Net-(R5-Pad2)*%
%TA.AperFunction,SMDPad,CuDef*%
G36*
G01*
X165554000Y-65400000D02*
X165804000Y-65400000D01*
G75*
G02*
X165929000Y-65525000I0J-125000D01*
G01*
X165929000Y-67175000D01*
G75*
G02*
X165804000Y-67300000I-125000J0D01*
G01*
X165554000Y-67300000D01*
G75*
G02*
X165429000Y-67175000I0J125000D01*
G01*
X165429000Y-65525000D01*
G75*
G02*
X165554000Y-65400000I125000J0D01*
G01*
G37*
%TD.AperFunction*%
%TO.P,U6,4*%
%TA.AperFunction,SMDPad,CuDef*%
G36*
G01*
X166204000Y-65400000D02*
X166454000Y-65400000D01*
G75*
G02*
X166579000Y-65525000I0J-125000D01*
G01*
X166579000Y-67175000D01*
G75*
G02*
X166454000Y-67300000I-125000J0D01*
G01*
X166204000Y-67300000D01*
G75*
G02*
X166079000Y-67175000I0J125000D01*
G01*
X166079000Y-65525000D01*
G75*
G02*
X166204000Y-65400000I125000J0D01*
G01*
G37*
%TD.AperFunction*%
%TO.P,U6,3*%
%TO.N,TEMP_VDD*%
%TA.AperFunction,SMDPad,CuDef*%
G36*
G01*
X166854000Y-65400000D02*
X167104000Y-65400000D01*
G75*
G02*
X167229000Y-65525000I0J-125000D01*
G01*
X167229000Y-67175000D01*
G75*
G02*
X167104000Y-67300000I-125000J0D01*
G01*
X166854000Y-67300000D01*
G75*
G02*
X166729000Y-67175000I0J125000D01*
G01*
X166729000Y-65525000D01*
G75*
G02*
X166854000Y-65400000I125000J0D01*
G01*
G37*
%TD.AperFunction*%
%TO.P,U6,2*%
%TO.N,TEMP_DVDD*%
%TA.AperFunction,SMDPad,CuDef*%
G36*
G01*
X167504000Y-65400000D02*
X167754000Y-65400000D01*
G75*
G02*
X167879000Y-65525000I0J-125000D01*
G01*
X167879000Y-67175000D01*
G75*
G02*
X167754000Y-67300000I-125000J0D01*
G01*
X167504000Y-67300000D01*
G75*
G02*
X167379000Y-67175000I0J125000D01*
G01*
X167379000Y-65525000D01*
G75*
G02*
X167504000Y-65400000I125000J0D01*
G01*
G37*
%TD.AperFunction*%
%TO.P,U6,1*%
%TO.N,TEMP_DRDY1*%
%TA.AperFunction,SMDPad,CuDef*%
G36*
G01*
X168154000Y-65400000D02*
X168404000Y-65400000D01*
G75*
G02*
X168529000Y-65525000I0J-125000D01*
G01*
X168529000Y-67175000D01*
G75*
G02*
X168404000Y-67300000I-125000J0D01*
G01*
X168154000Y-67300000D01*
G75*
G02*
X168029000Y-67175000I0J125000D01*
G01*
X168029000Y-65525000D01*
G75*
G02*
X168154000Y-65400000I125000J0D01*
G01*
G37*
%TD.AperFunction*%
%TD*%
%TO.P,U5,20*%
%TO.N,Net-(U5-Pad20)*%
%TA.AperFunction,SMDPad,CuDef*%
G36*
G01*
X168143000Y-58994000D02*
X168393000Y-58994000D01*
G75*
G02*
X168518000Y-59119000I0J-125000D01*
G01*
X168518000Y-60769000D01*
G75*
G02*
X168393000Y-60894000I-125000J0D01*
G01*
X168143000Y-60894000D01*
G75*
G02*
X168018000Y-60769000I0J125000D01*
G01*
X168018000Y-59119000D01*
G75*
G02*
X168143000Y-58994000I125000J0D01*
G01*
G37*
%TD.AperFunction*%
%TO.P,U5,19*%
%TO.N,GND*%
%TA.AperFunction,SMDPad,CuDef*%
G36*
G01*
X167493000Y-58994000D02*
X167743000Y-58994000D01*
G75*
G02*
X167868000Y-59119000I0J-125000D01*
G01*
X167868000Y-60769000D01*
G75*
G02*
X167743000Y-60894000I-125000J0D01*
G01*
X167493000Y-60894000D01*
G75*
G02*
X167368000Y-60769000I0J125000D01*
G01*
X167368000Y-59119000D01*
G75*
G02*
X167493000Y-58994000I125000J0D01*
G01*
G37*
%TD.AperFunction*%
%TO.P,U5,18*%
%TA.AperFunction,SMDPad,CuDef*%
G36*
G01*
X166843000Y-58994000D02*
X167093000Y-58994000D01*
G75*
G02*
X167218000Y-59119000I0J-125000D01*
G01*
X167218000Y-60769000D01*
G75*
G02*
X167093000Y-60894000I-125000J0D01*
G01*
X166843000Y-60894000D01*
G75*
G02*
X166718000Y-60769000I0J125000D01*
G01*
X166718000Y-59119000D01*
G75*
G02*
X166843000Y-58994000I125000J0D01*
G01*
G37*
%TD.AperFunction*%
%TO.P,U5,17*%
%TO.N,TEMP_SPI_MISO*%
%TA.AperFunction,SMDPad,CuDef*%
G36*
G01*
X166193000Y-58994000D02*
X166443000Y-58994000D01*
G75*
G02*
X166568000Y-59119000I0J-125000D01*
G01*
X166568000Y-60769000D01*
G75*
G02*
X166443000Y-60894000I-125000J0D01*
G01*
X166193000Y-60894000D01*
G75*
G02*
X166068000Y-60769000I0J125000D01*
G01*
X166068000Y-59119000D01*
G75*
G02*
X166193000Y-58994000I125000J0D01*
G01*
G37*
%TD.AperFunction*%
%TO.P,U5,16*%
%TO.N,TEMP_SPI_CS0*%
%TA.AperFunction,SMDPad,CuDef*%
G36*
G01*
X165543000Y-58994000D02*
X165793000Y-58994000D01*
G75*
G02*
X165918000Y-59119000I0J-125000D01*
G01*
X165918000Y-60769000D01*
G75*
G02*
X165793000Y-60894000I-125000J0D01*
G01*
X165543000Y-60894000D01*
G75*
G02*
X165418000Y-60769000I0J125000D01*
G01*
X165418000Y-59119000D01*
G75*
G02*
X165543000Y-58994000I125000J0D01*
G01*
G37*
%TD.AperFunction*%
%TO.P,U5,15*%
%TO.N,TEMP_SPI_SCK*%
%TA.AperFunction,SMDPad,CuDef*%
G36*
G01*
X164893000Y-58994000D02*
X165143000Y-58994000D01*
G75*
G02*
X165268000Y-59119000I0J-125000D01*
G01*
X165268000Y-60769000D01*
G75*
G02*
X165143000Y-60894000I-125000J0D01*
G01*
X164893000Y-60894000D01*
G75*
G02*
X164768000Y-60769000I0J125000D01*
G01*
X164768000Y-59119000D01*
G75*
G02*
X164893000Y-58994000I125000J0D01*
G01*
G37*
%TD.AperFunction*%
%TO.P,U5,14*%
%TO.N,TEMP_SPI_MOSI*%
%TA.AperFunction,SMDPad,CuDef*%
G36*
G01*
X164243000Y-58994000D02*
X164493000Y-58994000D01*
G75*
G02*
X164618000Y-59119000I0J-125000D01*
G01*
X164618000Y-60769000D01*
G75*
G02*
X164493000Y-60894000I-125000J0D01*
G01*
X164243000Y-60894000D01*
G75*
G02*
X164118000Y-60769000I0J125000D01*
G01*
X164118000Y-59119000D01*
G75*
G02*
X164243000Y-58994000I125000J0D01*
G01*
G37*
%TD.AperFunction*%
%TO.P,U5,13*%
%TO.N,GND*%
%TA.AperFunction,SMDPad,CuDef*%
G36*
G01*
X163593000Y-58994000D02*
X163843000Y-58994000D01*
G75*
G02*
X163968000Y-59119000I0J-125000D01*
G01*
X163968000Y-60769000D01*
G75*
G02*
X163843000Y-60894000I-125000J0D01*
G01*
X163593000Y-60894000D01*
G75*
G02*
X163468000Y-60769000I0J125000D01*
G01*
X163468000Y-59119000D01*
G75*
G02*
X163593000Y-58994000I125000J0D01*
G01*
G37*
%TD.AperFunction*%
%TO.P,U5,12*%
%TO.N,RTD1F-*%
%TA.AperFunction,SMDPad,CuDef*%
G36*
G01*
X162943000Y-58994000D02*
X163193000Y-58994000D01*
G75*
G02*
X163318000Y-59119000I0J-125000D01*
G01*
X163318000Y-60769000D01*
G75*
G02*
X163193000Y-60894000I-125000J0D01*
G01*
X162943000Y-60894000D01*
G75*
G02*
X162818000Y-60769000I0J125000D01*
G01*
X162818000Y-59119000D01*
G75*
G02*
X162943000Y-58994000I125000J0D01*
G01*
G37*
%TD.AperFunction*%
%TO.P,U5,11*%
%TO.N,RTD1IN-*%
%TA.AperFunction,SMDPad,CuDef*%
G36*
G01*
X162293000Y-58994000D02*
X162543000Y-58994000D01*
G75*
G02*
X162668000Y-59119000I0J-125000D01*
G01*
X162668000Y-60769000D01*
G75*
G02*
X162543000Y-60894000I-125000J0D01*
G01*
X162293000Y-60894000D01*
G75*
G02*
X162168000Y-60769000I0J125000D01*
G01*
X162168000Y-59119000D01*
G75*
G02*
X162293000Y-58994000I125000J0D01*
G01*
G37*
%TD.AperFunction*%
%TO.P,U5,10*%
%TO.N,RTD1IN+*%
%TA.AperFunction,SMDPad,CuDef*%
G36*
G01*
X162293000Y-51994000D02*
X162543000Y-51994000D01*
G75*
G02*
X162668000Y-52119000I0J-125000D01*
G01*
X162668000Y-53769000D01*
G75*
G02*
X162543000Y-53894000I-125000J0D01*
G01*
X162293000Y-53894000D01*
G75*
G02*
X162168000Y-53769000I0J125000D01*
G01*
X162168000Y-52119000D01*
G75*
G02*
X162293000Y-51994000I125000J0D01*
G01*
G37*
%TD.AperFunction*%
%TO.P,U5,9*%
%TO.N,RTD1F+*%
%TA.AperFunction,SMDPad,CuDef*%
G36*
G01*
X162943000Y-51994000D02*
X163193000Y-51994000D01*
G75*
G02*
X163318000Y-52119000I0J-125000D01*
G01*
X163318000Y-53769000D01*
G75*
G02*
X163193000Y-53894000I-125000J0D01*
G01*
X162943000Y-53894000D01*
G75*
G02*
X162818000Y-53769000I0J125000D01*
G01*
X162818000Y-52119000D01*
G75*
G02*
X162943000Y-51994000I125000J0D01*
G01*
G37*
%TD.AperFunction*%
%TO.P,U5,8*%
%TA.AperFunction,SMDPad,CuDef*%
G36*
G01*
X163593000Y-51994000D02*
X163843000Y-51994000D01*
G75*
G02*
X163968000Y-52119000I0J-125000D01*
G01*
X163968000Y-53769000D01*
G75*
G02*
X163843000Y-53894000I-125000J0D01*
G01*
X163593000Y-53894000D01*
G75*
G02*
X163468000Y-53769000I0J125000D01*
G01*
X163468000Y-52119000D01*
G75*
G02*
X163593000Y-51994000I125000J0D01*
G01*
G37*
%TD.AperFunction*%
%TO.P,U5,7*%
%TO.N,Net-(R6-Pad1)*%
%TA.AperFunction,SMDPad,CuDef*%
G36*
G01*
X164243000Y-51994000D02*
X164493000Y-51994000D01*
G75*
G02*
X164618000Y-52119000I0J-125000D01*
G01*
X164618000Y-53769000D01*
G75*
G02*
X164493000Y-53894000I-125000J0D01*
G01*
X164243000Y-53894000D01*
G75*
G02*
X164118000Y-53769000I0J125000D01*
G01*
X164118000Y-52119000D01*
G75*
G02*
X164243000Y-51994000I125000J0D01*
G01*
G37*
%TD.AperFunction*%
%TO.P,U5,6*%
%TA.AperFunction,SMDPad,CuDef*%
G36*
G01*
X164893000Y-51994000D02*
X165143000Y-51994000D01*
G75*
G02*
X165268000Y-52119000I0J-125000D01*
G01*
X165268000Y-53769000D01*
G75*
G02*
X165143000Y-53894000I-125000J0D01*
G01*
X164893000Y-53894000D01*
G75*
G02*
X164768000Y-53769000I0J125000D01*
G01*
X164768000Y-52119000D01*
G75*
G02*
X164893000Y-51994000I125000J0D01*
G01*
G37*
%TD.AperFunction*%
%TO.P,U5,5*%
%TO.N,Net-(R4-Pad2)*%
%TA.AperFunction,SMDPad,CuDef*%
G36*
G01*
X165543000Y-51994000D02*
X165793000Y-51994000D01*
G75*
G02*
X165918000Y-52119000I0J-125000D01*
G01*
X165918000Y-53769000D01*
G75*
G02*
X165793000Y-53894000I-125000J0D01*
G01*
X165543000Y-53894000D01*
G75*
G02*
X165418000Y-53769000I0J125000D01*
G01*
X165418000Y-52119000D01*
G75*
G02*
X165543000Y-51994000I125000J0D01*
G01*
G37*
%TD.AperFunction*%
%TO.P,U5,4*%
%TA.AperFunction,SMDPad,CuDef*%
G36*
G01*
X166193000Y-51994000D02*
X166443000Y-51994000D01*
G75*
G02*
X166568000Y-52119000I0J-125000D01*
G01*
X166568000Y-53769000D01*
G75*
G02*
X166443000Y-53894000I-125000J0D01*
G01*
X166193000Y-53894000D01*
G75*
G02*
X166068000Y-53769000I0J125000D01*
G01*
X166068000Y-52119000D01*
G75*
G02*
X166193000Y-51994000I125000J0D01*
G01*
G37*
%TD.AperFunction*%
%TO.P,U5,3*%
%TO.N,TEMP_VDD*%
%TA.AperFunction,SMDPad,CuDef*%
G36*
G01*
X166843000Y-51994000D02*
X167093000Y-51994000D01*
G75*
G02*
X167218000Y-52119000I0J-125000D01*
G01*
X167218000Y-53769000D01*
G75*
G02*
X167093000Y-53894000I-125000J0D01*
G01*
X166843000Y-53894000D01*
G75*
G02*
X166718000Y-53769000I0J125000D01*
G01*
X166718000Y-52119000D01*
G75*
G02*
X166843000Y-51994000I125000J0D01*
G01*
G37*
%TD.AperFunction*%
%TO.P,U5,2*%
%TO.N,TEMP_DVDD*%
%TA.AperFunction,SMDPad,CuDef*%
G36*
G01*
X167493000Y-51994000D02*
X167743000Y-51994000D01*
G75*
G02*
X167868000Y-52119000I0J-125000D01*
G01*
X167868000Y-53769000D01*
G75*
G02*
X167743000Y-53894000I-125000J0D01*
G01*
X167493000Y-53894000D01*
G75*
G02*
X167368000Y-53769000I0J125000D01*
G01*
X167368000Y-52119000D01*
G75*
G02*
X167493000Y-51994000I125000J0D01*
G01*
G37*
%TD.AperFunction*%
%TO.P,U5,1*%
%TO.N,TEMP_DRDY0*%
%TA.AperFunction,SMDPad,CuDef*%
G36*
G01*
X168143000Y-51994000D02*
X168393000Y-51994000D01*
G75*
G02*
X168518000Y-52119000I0J-125000D01*
G01*
X168518000Y-53769000D01*
G75*
G02*
X168393000Y-53894000I-125000J0D01*
G01*
X168143000Y-53894000D01*
G75*
G02*
X168018000Y-53769000I0J125000D01*
G01*
X168018000Y-52119000D01*
G75*
G02*
X168143000Y-51994000I125000J0D01*
G01*
G37*
%TD.AperFunction*%
%TD*%
%TO.P,U4,16*%
%TO.N,+5V*%
%TA.AperFunction,SMDPad,CuDef*%
G36*
G01*
X209365000Y-83335000D02*
X209365000Y-83035000D01*
G75*
G02*
X209515000Y-82885000I150000J0D01*
G01*
X211265000Y-82885000D01*
G75*
G02*
X211415000Y-83035000I0J-150000D01*
G01*
X211415000Y-83335000D01*
G75*
G02*
X211265000Y-83485000I-150000J0D01*
G01*
X209515000Y-83485000D01*
G75*
G02*
X209365000Y-83335000I0J150000D01*
G01*
G37*
%TD.AperFunction*%
%TO.P,U4,15*%
%TO.N,PROP_SSR_CTRL*%
%TA.AperFunction,SMDPad,CuDef*%
G36*
G01*
X209365000Y-84605000D02*
X209365000Y-84305000D01*
G75*
G02*
X209515000Y-84155000I150000J0D01*
G01*
X211265000Y-84155000D01*
G75*
G02*
X211415000Y-84305000I0J-150000D01*
G01*
X211415000Y-84605000D01*
G75*
G02*
X211265000Y-84755000I-150000J0D01*
G01*
X209515000Y-84755000D01*
G75*
G02*
X209365000Y-84605000I0J150000D01*
G01*
G37*
%TD.AperFunction*%
%TO.P,U4,14*%
%TO.N,+5V*%
%TA.AperFunction,SMDPad,CuDef*%
G36*
G01*
X209365000Y-85875000D02*
X209365000Y-85575000D01*
G75*
G02*
X209515000Y-85425000I150000J0D01*
G01*
X211265000Y-85425000D01*
G75*
G02*
X211415000Y-85575000I0J-150000D01*
G01*
X211415000Y-85875000D01*
G75*
G02*
X211265000Y-86025000I-150000J0D01*
G01*
X209515000Y-86025000D01*
G75*
G02*
X209365000Y-85875000I0J150000D01*
G01*
G37*
%TD.AperFunction*%
%TO.P,U4,13*%
%TO.N,GND*%
%TA.AperFunction,SMDPad,CuDef*%
G36*
G01*
X209365000Y-87145000D02*
X209365000Y-86845000D01*
G75*
G02*
X209515000Y-86695000I150000J0D01*
G01*
X211265000Y-86695000D01*
G75*
G02*
X211415000Y-86845000I0J-150000D01*
G01*
X211415000Y-87145000D01*
G75*
G02*
X211265000Y-87295000I-150000J0D01*
G01*
X209515000Y-87295000D01*
G75*
G02*
X209365000Y-87145000I0J150000D01*
G01*
G37*
%TD.AperFunction*%
%TO.P,U4,12*%
%TA.AperFunction,SMDPad,CuDef*%
G36*
G01*
X209365000Y-88415000D02*
X209365000Y-88115000D01*
G75*
G02*
X209515000Y-87965000I150000J0D01*
G01*
X211265000Y-87965000D01*
G75*
G02*
X211415000Y-88115000I0J-150000D01*
G01*
X211415000Y-88415000D01*
G75*
G02*
X211265000Y-88565000I-150000J0D01*
G01*
X209515000Y-88565000D01*
G75*
G02*
X209365000Y-88415000I0J150000D01*
G01*
G37*
%TD.AperFunction*%
%TO.P,U4,11*%
%TO.N,Net-(U4-Pad11)*%
%TA.AperFunction,SMDPad,CuDef*%
G36*
G01*
X209365000Y-89685000D02*
X209365000Y-89385000D01*
G75*
G02*
X209515000Y-89235000I150000J0D01*
G01*
X211265000Y-89235000D01*
G75*
G02*
X211415000Y-89385000I0J-150000D01*
G01*
X211415000Y-89685000D01*
G75*
G02*
X211265000Y-89835000I-150000J0D01*
G01*
X209515000Y-89835000D01*
G75*
G02*
X209365000Y-89685000I0J150000D01*
G01*
G37*
%TD.AperFunction*%
%TO.P,U4,10*%
%TO.N,I2C_SCL_5V*%
%TA.AperFunction,SMDPad,CuDef*%
G36*
G01*
X209365000Y-90955000D02*
X209365000Y-90655000D01*
G75*
G02*
X209515000Y-90505000I150000J0D01*
G01*
X211265000Y-90505000D01*
G75*
G02*
X211415000Y-90655000I0J-150000D01*
G01*
X211415000Y-90955000D01*
G75*
G02*
X211265000Y-91105000I-150000J0D01*
G01*
X209515000Y-91105000D01*
G75*
G02*
X209365000Y-90955000I0J150000D01*
G01*
G37*
%TD.AperFunction*%
%TO.P,U4,9*%
%TO.N,I2C_SDA_5V*%
%TA.AperFunction,SMDPad,CuDef*%
G36*
G01*
X209365000Y-92225000D02*
X209365000Y-91925000D01*
G75*
G02*
X209515000Y-91775000I150000J0D01*
G01*
X211265000Y-91775000D01*
G75*
G02*
X211415000Y-91925000I0J-150000D01*
G01*
X211415000Y-92225000D01*
G75*
G02*
X211265000Y-92375000I-150000J0D01*
G01*
X209515000Y-92375000D01*
G75*
G02*
X209365000Y-92225000I0J150000D01*
G01*
G37*
%TD.AperFunction*%
%TO.P,U4,8*%
%TO.N,GND*%
%TA.AperFunction,SMDPad,CuDef*%
G36*
G01*
X200065000Y-92225000D02*
X200065000Y-91925000D01*
G75*
G02*
X200215000Y-91775000I150000J0D01*
G01*
X201965000Y-91775000D01*
G75*
G02*
X202115000Y-91925000I0J-150000D01*
G01*
X202115000Y-92225000D01*
G75*
G02*
X201965000Y-92375000I-150000J0D01*
G01*
X200215000Y-92375000D01*
G75*
G02*
X200065000Y-92225000I0J150000D01*
G01*
G37*
%TD.AperFunction*%
%TO.P,U4,7*%
%TA.AperFunction,SMDPad,CuDef*%
G36*
G01*
X200065000Y-90955000D02*
X200065000Y-90655000D01*
G75*
G02*
X200215000Y-90505000I150000J0D01*
G01*
X201965000Y-90505000D01*
G75*
G02*
X202115000Y-90655000I0J-150000D01*
G01*
X202115000Y-90955000D01*
G75*
G02*
X201965000Y-91105000I-150000J0D01*
G01*
X200215000Y-91105000D01*
G75*
G02*
X200065000Y-90955000I0J150000D01*
G01*
G37*
%TD.AperFunction*%
%TO.P,U4,6*%
%TA.AperFunction,SMDPad,CuDef*%
G36*
G01*
X200065000Y-89685000D02*
X200065000Y-89385000D01*
G75*
G02*
X200215000Y-89235000I150000J0D01*
G01*
X201965000Y-89235000D01*
G75*
G02*
X202115000Y-89385000I0J-150000D01*
G01*
X202115000Y-89685000D01*
G75*
G02*
X201965000Y-89835000I-150000J0D01*
G01*
X200215000Y-89835000D01*
G75*
G02*
X200065000Y-89685000I0J150000D01*
G01*
G37*
%TD.AperFunction*%
%TO.P,U4,5*%
%TA.AperFunction,SMDPad,CuDef*%
G36*
G01*
X200065000Y-88415000D02*
X200065000Y-88115000D01*
G75*
G02*
X200215000Y-87965000I150000J0D01*
G01*
X201965000Y-87965000D01*
G75*
G02*
X202115000Y-88115000I0J-150000D01*
G01*
X202115000Y-88415000D01*
G75*
G02*
X201965000Y-88565000I-150000J0D01*
G01*
X200215000Y-88565000D01*
G75*
G02*
X200065000Y-88415000I0J150000D01*
G01*
G37*
%TD.AperFunction*%
%TO.P,U4,4*%
%TA.AperFunction,SMDPad,CuDef*%
G36*
G01*
X200065000Y-87145000D02*
X200065000Y-86845000D01*
G75*
G02*
X200215000Y-86695000I150000J0D01*
G01*
X201965000Y-86695000D01*
G75*
G02*
X202115000Y-86845000I0J-150000D01*
G01*
X202115000Y-87145000D01*
G75*
G02*
X201965000Y-87295000I-150000J0D01*
G01*
X200215000Y-87295000D01*
G75*
G02*
X200065000Y-87145000I0J150000D01*
G01*
G37*
%TD.AperFunction*%
%TO.P,U4,3*%
%TA.AperFunction,SMDPad,CuDef*%
G36*
G01*
X200065000Y-85875000D02*
X200065000Y-85575000D01*
G75*
G02*
X200215000Y-85425000I150000J0D01*
G01*
X201965000Y-85425000D01*
G75*
G02*
X202115000Y-85575000I0J-150000D01*
G01*
X202115000Y-85875000D01*
G75*
G02*
X201965000Y-86025000I-150000J0D01*
G01*
X200215000Y-86025000D01*
G75*
G02*
X200065000Y-85875000I0J150000D01*
G01*
G37*
%TD.AperFunction*%
%TO.P,U4,2*%
%TA.AperFunction,SMDPad,CuDef*%
G36*
G01*
X200065000Y-84605000D02*
X200065000Y-84305000D01*
G75*
G02*
X200215000Y-84155000I150000J0D01*
G01*
X201965000Y-84155000D01*
G75*
G02*
X202115000Y-84305000I0J-150000D01*
G01*
X202115000Y-84605000D01*
G75*
G02*
X201965000Y-84755000I-150000J0D01*
G01*
X200215000Y-84755000D01*
G75*
G02*
X200065000Y-84605000I0J150000D01*
G01*
G37*
%TD.AperFunction*%
%TO.P,U4,1*%
%TO.N,PRES_AIN*%
%TA.AperFunction,SMDPad,CuDef*%
G36*
G01*
X200065000Y-83335000D02*
X200065000Y-83035000D01*
G75*
G02*
X200215000Y-82885000I150000J0D01*
G01*
X201965000Y-82885000D01*
G75*
G02*
X202115000Y-83035000I0J-150000D01*
G01*
X202115000Y-83335000D01*
G75*
G02*
X201965000Y-83485000I-150000J0D01*
G01*
X200215000Y-83485000D01*
G75*
G02*
X200065000Y-83335000I0J150000D01*
G01*
G37*
%TD.AperFunction*%
%TD*%
D12*
%TO.P,U3,66*%
%TO.N,Net-(U3-Pad66)*%
X189230000Y-54070000D03*
%TO.P,U3,67*%
%TO.N,Net-(U3-Pad67)*%
X186690000Y-54070000D03*
D13*
%TO.P,U3,54*%
%TO.N,Net-(U3-Pad54)*%
X193040000Y-99060000D03*
%TO.P,U3,53*%
%TO.N,Net-(U3-Pad53)*%
X190500000Y-99060000D03*
%TO.P,U3,52*%
%TO.N,Net-(U3-Pad52)*%
X187960000Y-99060000D03*
%TO.P,U3,51*%
%TO.N,Net-(U3-Pad51)*%
X185420000Y-99060000D03*
%TO.P,U3,50*%
%TO.N,Net-(U3-Pad50)*%
X182880000Y-99060000D03*
D12*
%TO.P,U3,62*%
%TO.N,Net-(U3-Pad62)*%
X189141600Y-66310000D03*
%TO.P,U3,63*%
%TO.N,Net-(U3-Pad63)*%
X189141600Y-68310000D03*
%TO.P,U3,64*%
%TO.N,Net-(U3-Pad64)*%
X191141600Y-68310000D03*
%TO.P,U3,61*%
%TO.N,Net-(U3-Pad61)*%
X191141600Y-66310000D03*
%TO.P,U3,65*%
%TO.N,Net-(U3-Pad65)*%
X193141600Y-68310000D03*
D14*
%TO.P,U3,60*%
%TO.N,Net-(U3-Pad60)*%
X193141600Y-66310000D03*
D13*
%TO.P,U3,17*%
%TO.N,Net-(U3-Pad17)*%
X180340000Y-93980000D03*
%TO.P,U3,18*%
%TO.N,TEMP_SPI_MOSI*%
X180340000Y-96520000D03*
%TO.P,U3,19*%
%TO.N,TEMP_SPI_SCK*%
X180340000Y-99060000D03*
%TO.P,U3,20*%
%TO.N,TEMP_DRDY0*%
X180340000Y-101600000D03*
%TO.P,U3,16*%
%TO.N,Net-(U3-Pad16)*%
X180340000Y-91440000D03*
%TO.P,U3,15*%
%TO.N,TEMP_DVDD*%
X180340000Y-88900000D03*
%TO.P,U3,14*%
%TO.N,UEXT_MISO*%
X180340000Y-86360000D03*
%TO.P,U3,21*%
%TO.N,TEMP_DRDY1*%
X180340000Y-104140000D03*
%TO.P,U3,22*%
%TO.N,BTN_BREW*%
X180340000Y-106680000D03*
%TO.P,U3,23*%
%TO.N,BTN_WATER*%
X180340000Y-109220000D03*
%TO.P,U3,24*%
%TO.N,BTN_STEAM*%
X180340000Y-111760000D03*
%TO.P,U3,25*%
%TO.N,ESP8266_RST*%
X195580000Y-111760000D03*
%TO.P,U3,26*%
%TO.N,RX_FROM_ESP8266*%
X195580000Y-109220000D03*
%TO.P,U3,27*%
%TO.N,TX_TO_ESP8266*%
X195580000Y-106680000D03*
%TO.P,U3,28*%
%TO.N,ESP8266_CHPD*%
X195580000Y-104140000D03*
%TO.P,U3,29*%
%TO.N,ESP8266_GPIO0*%
X195580000Y-101600000D03*
%TO.P,U3,30*%
%TO.N,TEMP_SPI_CS1*%
X195580000Y-99060000D03*
%TO.P,U3,31*%
%TO.N,ESP8266_GPIO2*%
X195580000Y-96520000D03*
%TO.P,U3,32*%
%TO.N,PROP_SSR_EN*%
X195580000Y-93980000D03*
%TO.P,U3,33*%
%TO.N,Net-(U3-Pad33)*%
X195580000Y-91440000D03*
%TO.P,U3,34*%
%TO.N,GND*%
X195580000Y-88900000D03*
%TO.P,U3,13*%
%TO.N,UEXT_MOSI*%
X180340000Y-83820000D03*
%TO.P,U3,12*%
%TO.N,UEXT_SSEL*%
X180340000Y-81280000D03*
%TO.P,U3,11*%
%TO.N,Net-(U3-Pad11)*%
X180340000Y-78740000D03*
%TO.P,U3,10*%
%TO.N,UEXT_TXD*%
X180340000Y-76200000D03*
%TO.P,U3,9*%
%TO.N,UEXT_RXD*%
X180340000Y-73660000D03*
%TO.P,U3,8*%
%TO.N,Net-(U3-Pad8)*%
X180340000Y-71120000D03*
%TO.P,U3,7*%
%TO.N,Net-(U3-Pad7)*%
X180340000Y-68580000D03*
%TO.P,U3,6*%
%TO.N,SSR3_GATE*%
X180340000Y-66040000D03*
%TO.P,U3,5*%
%TO.N,SSR2_GATE*%
X180340000Y-63500000D03*
%TO.P,U3,4*%
%TO.N,SSR1_GATE*%
X180340000Y-60960000D03*
%TO.P,U3,3*%
%TO.N,TEMP_SPI_MISO*%
X180340000Y-58420000D03*
%TO.P,U3,2*%
%TO.N,TEMP_SPI_CS0*%
X180340000Y-55880000D03*
D15*
%TO.P,U3,1*%
%TO.N,GND*%
X180340000Y-53340000D03*
D13*
%TO.P,U3,35*%
%TO.N,UEXT_SCK*%
X195580000Y-86360000D03*
%TO.P,U3,36*%
%TO.N,Net-(U3-Pad36)*%
X195580000Y-83820000D03*
%TO.P,U3,37*%
%TO.N,Net-(U3-Pad37)*%
X195580000Y-81280000D03*
%TO.P,U3,38*%
%TO.N,I2C_SCL*%
X195580000Y-78740000D03*
%TO.P,U3,39*%
%TO.N,I2C_SDA*%
X195580000Y-76200000D03*
%TO.P,U3,40*%
%TO.N,UEXT_SDA*%
X195580000Y-73660000D03*
%TO.P,U3,41*%
%TO.N,UEXT_SCL*%
X195580000Y-71120000D03*
%TO.P,U3,42*%
%TO.N,Net-(U3-Pad42)*%
X195580000Y-68580000D03*
%TO.P,U3,43*%
%TO.N,ENC_CLK*%
X195580000Y-66040000D03*
%TO.P,U3,44*%
%TO.N,ENC_DT*%
X195580000Y-63500000D03*
%TO.P,U3,45*%
%TO.N,ENC_SW*%
X195580000Y-60960000D03*
%TO.P,U3,46*%
%TO.N,TEMP_DVDD*%
X195580000Y-58420000D03*
%TO.P,U3,47*%
%TO.N,GND*%
X195580000Y-55880000D03*
%TO.P,U3,48*%
%TO.N,+5V*%
X195580000Y-53340000D03*
D15*
%TO.P,U3,55*%
%TO.N,Net-(U3-Pad55)*%
X183390800Y-59639200D03*
D13*
%TO.P,U3,56*%
%TO.N,Net-(U3-Pad56)*%
X183390800Y-62179200D03*
%TO.P,U3,57*%
%TO.N,Net-(U3-Pad57)*%
X183390800Y-64719200D03*
%TO.P,U3,58*%
%TO.N,Net-(U3-Pad58)*%
X183390800Y-67259200D03*
%TO.P,U3,59*%
%TO.N,Net-(U3-Pad59)*%
X183390800Y-69799200D03*
%TO.P,U3,49*%
%TO.N,Net-(U3-Pad49)*%
X193040000Y-55880000D03*
%TD*%
%TA.AperFunction,SMDPad,CuDef*%
D16*
%TO.P,U2,2*%
%TO.N,+9V*%
G36*
X172869500Y-59704000D02*
G01*
X172869500Y-56579000D01*
X173286000Y-56579000D01*
X173286000Y-55104000D01*
X174186000Y-55104000D01*
X174186000Y-56579000D01*
X174602500Y-56579000D01*
X174602500Y-59704000D01*
X172869500Y-59704000D01*
G37*
%TD.AperFunction*%
D17*
%TO.P,U2,3*%
%TO.N,TEMP_VDD*%
X172236000Y-55754000D03*
%TO.P,U2,1*%
%TO.N,GND*%
X175236000Y-55754000D03*
%TD*%
%TA.AperFunction,SMDPad,CuDef*%
D16*
%TO.P,U1,2*%
%TO.N,+9V*%
G36*
X208040000Y-55476500D02*
G01*
X204915000Y-55476500D01*
X204915000Y-55060000D01*
X203440000Y-55060000D01*
X203440000Y-54160000D01*
X204915000Y-54160000D01*
X204915000Y-53743500D01*
X208040000Y-53743500D01*
X208040000Y-55476500D01*
G37*
%TD.AperFunction*%
D18*
%TO.P,U1,3*%
%TO.N,+5V*%
X204090000Y-56110000D03*
%TO.P,U1,1*%
%TO.N,GND*%
X204090000Y-53110000D03*
%TD*%
D19*
%TO.P,Q5,3*%
%TO.N,I2C_SCL_5V*%
X202370000Y-64842000D03*
%TO.P,Q5,2*%
%TO.N,I2C_SCL*%
X201420000Y-62842000D03*
%TO.P,Q5,1*%
%TO.N,TEMP_DVDD*%
X203320000Y-62842000D03*
%TD*%
%TO.P,Q4,3*%
%TO.N,I2C_SDA_5V*%
X209132000Y-64842000D03*
%TO.P,Q4,2*%
%TO.N,I2C_SDA*%
X208182000Y-62842000D03*
%TO.P,Q4,1*%
%TO.N,TEMP_DVDD*%
X210082000Y-62842000D03*
%TD*%
%TO.P,Q3,3*%
%TO.N,SSR3_VNEG*%
X172847000Y-85836000D03*
%TO.P,Q3,2*%
%TO.N,GND*%
X171897000Y-83836000D03*
%TO.P,Q3,1*%
%TO.N,SSR3_GATE*%
X173797000Y-83836000D03*
%TD*%
%TO.P,Q2,3*%
%TO.N,SSR2_VNEG*%
X168722000Y-85820000D03*
%TO.P,Q2,2*%
%TO.N,GND*%
X167772000Y-83820000D03*
%TO.P,Q2,1*%
%TO.N,SSR2_GATE*%
X169672000Y-83820000D03*
%TD*%
%TO.P,Q1,3*%
%TO.N,SSR1_VNEG*%
X164592000Y-85836000D03*
%TO.P,Q1,2*%
%TO.N,GND*%
X163642000Y-83836000D03*
%TO.P,Q1,1*%
%TO.N,SSR1_GATE*%
X165542000Y-83836000D03*
%TD*%
D10*
%TO.P,J11,8*%
%TO.N,GND*%
X163830000Y-109220000D03*
%TO.P,J11,7*%
%TO.N,RX_FROM_ESP8266*%
X163830000Y-111760000D03*
%TO.P,J11,6*%
%TO.N,ESP8266_GPIO2*%
X166370000Y-109220000D03*
%TO.P,J11,5*%
%TO.N,ESP8266_CHPD*%
X166370000Y-111760000D03*
%TO.P,J11,4*%
%TO.N,ESP8266_GPIO0*%
X168910000Y-109220000D03*
%TO.P,J11,3*%
%TO.N,ESP8266_RST*%
X168910000Y-111760000D03*
%TO.P,J11,2*%
%TO.N,TX_TO_ESP8266*%
X171450000Y-109220000D03*
D11*
%TO.P,J11,1*%
%TO.N,TEMP_DVDD*%
X171450000Y-111760000D03*
%TD*%
D10*
%TO.P,J10,10*%
%TO.N,UEXT_SSEL*%
X215900000Y-111760000D03*
%TO.P,J10,9*%
%TO.N,UEXT_SCK*%
X213360000Y-111760000D03*
%TO.P,J10,8*%
%TO.N,UEXT_MOSI*%
X215900000Y-109220000D03*
%TO.P,J10,7*%
%TO.N,UEXT_MISO*%
X213360000Y-109220000D03*
%TO.P,J10,6*%
%TO.N,UEXT_SDA*%
X215900000Y-106680000D03*
%TO.P,J10,5*%
%TO.N,UEXT_SCL*%
X213360000Y-106680000D03*
%TO.P,J10,4*%
%TO.N,UEXT_RXD*%
X215900000Y-104140000D03*
%TO.P,J10,3*%
%TO.N,UEXT_TXD*%
X213360000Y-104140000D03*
%TO.P,J10,2*%
%TO.N,GND*%
X215900000Y-101600000D03*
D11*
%TO.P,J10,1*%
%TO.N,TEMP_DVDD*%
X213360000Y-101600000D03*
%TD*%
D10*
%TO.P,J9,5*%
%TO.N,GND*%
X215900000Y-93980000D03*
%TO.P,J9,4*%
%TO.N,TEMP_DVDD*%
X215900000Y-91440000D03*
%TO.P,J9,3*%
%TO.N,ENC_SW*%
X215900000Y-88900000D03*
%TO.P,J9,2*%
%TO.N,ENC_DT*%
X215900000Y-86360000D03*
D11*
%TO.P,J9,1*%
%TO.N,ENC_CLK*%
X215900000Y-83820000D03*
%TD*%
D10*
%TO.P,J8,4*%
%TO.N,BTN_BREW*%
X154940000Y-109220000D03*
%TO.P,J8,3*%
%TO.N,BTN_WATER*%
X154940000Y-106680000D03*
%TO.P,J8,2*%
%TO.N,BTN_STEAM*%
X154940000Y-104140000D03*
D11*
%TO.P,J8,1*%
%TO.N,GND*%
X154940000Y-101600000D03*
%TD*%
D10*
%TO.P,J7,3*%
%TO.N,+5V*%
X215900000Y-78740000D03*
%TO.P,J7,2*%
%TO.N,PRES_AIN*%
X215900000Y-76200000D03*
D11*
%TO.P,J7,1*%
%TO.N,GND*%
X215900000Y-73660000D03*
%TD*%
D10*
%TO.P,J6,4*%
%TO.N,PROP_SSR_CTRL*%
X215900000Y-68580000D03*
%TO.P,J6,3*%
%TO.N,PROP_SSR_EN*%
X215900000Y-66040000D03*
%TO.P,J6,2*%
%TO.N,GND*%
X215900000Y-63500000D03*
D11*
%TO.P,J6,1*%
%TO.N,+9V*%
X215900000Y-60960000D03*
%TD*%
D10*
%TO.P,J5,2*%
%TO.N,+5V*%
X154940000Y-96520000D03*
D11*
%TO.P,J5,1*%
%TO.N,SSR3_VNEG*%
X154940000Y-93980000D03*
%TD*%
D10*
%TO.P,J4,2*%
%TO.N,+5V*%
X154940000Y-88900000D03*
D11*
%TO.P,J4,1*%
%TO.N,SSR2_VNEG*%
X154940000Y-86360000D03*
%TD*%
D10*
%TO.P,J3,2*%
%TO.N,+5V*%
X154940000Y-81280000D03*
D11*
%TO.P,J3,1*%
%TO.N,SSR1_VNEG*%
X154940000Y-78740000D03*
%TD*%
D10*
%TO.P,J2,4*%
%TO.N,RTD2F+*%
X154940000Y-66294000D03*
%TO.P,J2,3*%
%TO.N,RTD2IN+*%
X154940000Y-68834000D03*
%TO.P,J2,2*%
%TO.N,RTD2IN-*%
X154940000Y-71374000D03*
D11*
%TO.P,J2,1*%
%TO.N,RTD2F-*%
X154940000Y-73914000D03*
%TD*%
%TO.P,D3,2*%
%TO.N,Net-(D3-Pad2)*%
%TA.AperFunction,SMDPad,CuDef*%
G36*
G01*
X172163450Y-80803100D02*
X171650950Y-80803100D01*
G75*
G02*
X171432200Y-80584350I0J218750D01*
G01*
X171432200Y-80146850D01*
G75*
G02*
X171650950Y-79928100I218750J0D01*
G01*
X172163450Y-79928100D01*
G75*
G02*
X172382200Y-80146850I0J-218750D01*
G01*
X172382200Y-80584350D01*
G75*
G02*
X172163450Y-80803100I-218750J0D01*
G01*
G37*
%TD.AperFunction*%
%TO.P,D3,1*%
%TO.N,GND*%
%TA.AperFunction,SMDPad,CuDef*%
G36*
G01*
X172163450Y-82378100D02*
X171650950Y-82378100D01*
G75*
G02*
X171432200Y-82159350I0J218750D01*
G01*
X171432200Y-81721850D01*
G75*
G02*
X171650950Y-81503100I218750J0D01*
G01*
X172163450Y-81503100D01*
G75*
G02*
X172382200Y-81721850I0J-218750D01*
G01*
X172382200Y-82159350D01*
G75*
G02*
X172163450Y-82378100I-218750J0D01*
G01*
G37*
%TD.AperFunction*%
%TD*%
%TO.P,D2,2*%
%TO.N,Net-(D2-Pad2)*%
%TA.AperFunction,SMDPad,CuDef*%
G36*
G01*
X168023250Y-80777500D02*
X167510750Y-80777500D01*
G75*
G02*
X167292000Y-80558750I0J218750D01*
G01*
X167292000Y-80121250D01*
G75*
G02*
X167510750Y-79902500I218750J0D01*
G01*
X168023250Y-79902500D01*
G75*
G02*
X168242000Y-80121250I0J-218750D01*
G01*
X168242000Y-80558750D01*
G75*
G02*
X168023250Y-80777500I-218750J0D01*
G01*
G37*
%TD.AperFunction*%
%TO.P,D2,1*%
%TO.N,GND*%
%TA.AperFunction,SMDPad,CuDef*%
G36*
G01*
X168023250Y-82352500D02*
X167510750Y-82352500D01*
G75*
G02*
X167292000Y-82133750I0J218750D01*
G01*
X167292000Y-81696250D01*
G75*
G02*
X167510750Y-81477500I218750J0D01*
G01*
X168023250Y-81477500D01*
G75*
G02*
X168242000Y-81696250I0J-218750D01*
G01*
X168242000Y-82133750D01*
G75*
G02*
X168023250Y-82352500I-218750J0D01*
G01*
G37*
%TD.AperFunction*%
%TD*%
%TO.P,D1,2*%
%TO.N,Net-(D1-Pad2)*%
%TA.AperFunction,SMDPad,CuDef*%
G36*
G01*
X163832250Y-80676000D02*
X163319750Y-80676000D01*
G75*
G02*
X163101000Y-80457250I0J218750D01*
G01*
X163101000Y-80019750D01*
G75*
G02*
X163319750Y-79801000I218750J0D01*
G01*
X163832250Y-79801000D01*
G75*
G02*
X164051000Y-80019750I0J-218750D01*
G01*
X164051000Y-80457250D01*
G75*
G02*
X163832250Y-80676000I-218750J0D01*
G01*
G37*
%TD.AperFunction*%
%TO.P,D1,1*%
%TO.N,GND*%
%TA.AperFunction,SMDPad,CuDef*%
G36*
G01*
X163832250Y-82251000D02*
X163319750Y-82251000D01*
G75*
G02*
X163101000Y-82032250I0J218750D01*
G01*
X163101000Y-81594750D01*
G75*
G02*
X163319750Y-81376000I218750J0D01*
G01*
X163832250Y-81376000D01*
G75*
G02*
X164051000Y-81594750I0J-218750D01*
G01*
X164051000Y-82032250D01*
G75*
G02*
X163832250Y-82251000I-218750J0D01*
G01*
G37*
%TD.AperFunction*%
%TD*%
D20*
%TO.N,GND*%
X162052000Y-82804000D03*
X170434000Y-82550000D03*
X165354000Y-69850000D03*
X171704000Y-53340000D03*
X165644990Y-82785988D03*
X165675972Y-57149736D03*
%TO.N,SSR1_GATE*%
X166116000Y-78740000D03*
%TO.N,SSR2_GATE*%
X169164000Y-78994000D03*
%TO.N,SSR3_GATE*%
X175006000Y-82296000D03*
%TO.N,I2C_SDA_5V*%
X209296000Y-70358000D03*
X208280000Y-91440000D03*
%TO.N,TEMP_DVDD*%
X168402000Y-57150000D03*
X170434000Y-63246000D03*
X171450000Y-52070000D03*
X177800000Y-77724000D03*
%TO.N,I2C_SCL_5V*%
X202438000Y-68580000D03*
X207554990Y-90424000D03*
%TO.N,+5V*%
X199898000Y-65532000D03*
%TO.N,TEMP_SPI_MISO*%
X165354000Y-71374000D03*
X165238679Y-58049068D03*
%TO.N,TEMP_SPI_SCK*%
X167056333Y-76702653D03*
X166870714Y-63098140D03*
%TO.N,TEMP_SPI_MOSI*%
X168038468Y-77684788D03*
X168910000Y-64008000D03*
%TO.N,TEMP_DRDY0*%
X169672000Y-55372000D03*
%TO.N,TEMP_DRDY1*%
X176784000Y-74422000D03*
%TO.N,PRES_AIN*%
X209550000Y-81280000D03*
%TO.N,UEXT_SDA*%
X212344000Y-94996000D03*
%TO.N,PROP_SSR_EN*%
X191770000Y-60706000D03*
%TO.N,TEMP_VDD*%
X167640000Y-68326000D03*
X166878000Y-55626000D03*
%TD*%
D21*
%TO.N,SSR1_VNEG*%
X164592000Y-85836000D02*
X162036000Y-85836000D01*
X159004000Y-82804000D02*
X154940000Y-78740000D01*
X162036000Y-85836000D02*
X159004000Y-82804000D01*
X159242000Y-83042000D02*
X159004000Y-82804000D01*
%TO.N,GND*%
X217075001Y-62324999D02*
X215900000Y-63500000D01*
X217075001Y-57055001D02*
X217075001Y-62324999D01*
X215900000Y-55880000D02*
X217075001Y-57055001D01*
X163642000Y-81879500D02*
X163576000Y-81813500D01*
X163642000Y-83836000D02*
X163642000Y-81879500D01*
X167772000Y-81920000D02*
X167767000Y-81915000D01*
X167772000Y-83820000D02*
X167772000Y-81920000D01*
X171907200Y-83825800D02*
X171897000Y-83836000D01*
X171907200Y-81940600D02*
X171907200Y-83825800D01*
X162585500Y-82804000D02*
X163576000Y-81813500D01*
X162052000Y-82804000D02*
X162585500Y-82804000D01*
X171297800Y-82550000D02*
X171907200Y-81940600D01*
X170434000Y-82550000D02*
X171297800Y-82550000D01*
X165587000Y-69850000D02*
X165354000Y-69850000D01*
X167629000Y-73350000D02*
X167629000Y-72400000D01*
X166979000Y-73350000D02*
X166979000Y-72413588D01*
X163729000Y-73350000D02*
X163729000Y-72413588D01*
X170180000Y-53340000D02*
X171704000Y-53340000D01*
X171732000Y-53312000D02*
X171704000Y-53340000D01*
X172974000Y-53312000D02*
X171732000Y-53312000D01*
X177926000Y-55754000D02*
X180340000Y-53340000D01*
X175236000Y-55754000D02*
X177926000Y-55754000D01*
X167767000Y-81915000D02*
X166515978Y-81915000D01*
X166515978Y-81915000D02*
X165644990Y-82785988D01*
X163729000Y-71475000D02*
X165354000Y-69850000D01*
X163729000Y-73350000D02*
X163729000Y-71475000D01*
X166979000Y-71475000D02*
X165354000Y-69850000D01*
X166979000Y-73350000D02*
X166979000Y-71475000D01*
X167629000Y-72125000D02*
X165354000Y-69850000D01*
X167629000Y-73350000D02*
X167629000Y-72125000D01*
X167618000Y-59944000D02*
X167618000Y-58100138D01*
X166968000Y-59944000D02*
X166968000Y-58441764D01*
X166968000Y-58441764D02*
X165675972Y-57149736D01*
X163718000Y-59944000D02*
X163718000Y-58496745D01*
X167618000Y-58100138D02*
X166667598Y-57149736D01*
X163718000Y-58496745D02*
X165065009Y-57149736D01*
X166667598Y-57149736D02*
X165675972Y-57149736D01*
X165065009Y-57149736D02*
X165675972Y-57149736D01*
X201185000Y-53110000D02*
X200660000Y-53635000D01*
X204090000Y-53110000D02*
X201185000Y-53110000D01*
X197825000Y-53635000D02*
X195580000Y-55880000D01*
X200660000Y-53635000D02*
X197825000Y-53635000D01*
X215110000Y-55090000D02*
X215900000Y-55880000D01*
X212090000Y-55090000D02*
X215110000Y-55090000D01*
X215900000Y-93348232D02*
X215900000Y-93980000D01*
X210390000Y-88265000D02*
X210816768Y-88265000D01*
X211740010Y-88345010D02*
X211740010Y-89188242D01*
X210390000Y-86995000D02*
X211740010Y-88345010D01*
X211740010Y-89188242D02*
X214691884Y-92140116D01*
X214691884Y-92140116D02*
X215900000Y-93348232D01*
X210816768Y-88265000D02*
X214691884Y-92140116D01*
X201090000Y-84455000D02*
X201090000Y-92075000D01*
X200455000Y-88900000D02*
X201090000Y-88265000D01*
X195580000Y-88900000D02*
X200455000Y-88900000D01*
X211589000Y-87066000D02*
X210390000Y-88265000D01*
X212852000Y-87066000D02*
X211589000Y-87066000D01*
X199739990Y-84129990D02*
X199739990Y-82838242D01*
X200065000Y-84455000D02*
X199739990Y-84129990D01*
X202568232Y-80010000D02*
X205260000Y-80010000D01*
X199739990Y-82838242D02*
X202568232Y-80010000D01*
X201090000Y-84455000D02*
X200065000Y-84455000D01*
%TO.N,SSR1_GATE*%
X165542000Y-81292200D02*
X165481000Y-81231200D01*
X165481000Y-81231200D02*
X164919988Y-81792212D01*
X164919988Y-81792212D02*
X164919988Y-83213988D01*
X164919988Y-83213988D02*
X165542000Y-83836000D01*
X166126010Y-78750010D02*
X166116000Y-78740000D01*
X166126010Y-80586190D02*
X166126010Y-78750010D01*
X165481000Y-81231200D02*
X166126010Y-80586190D01*
%TO.N,SSR2_VNEG*%
X155191001Y-86611001D02*
X154940000Y-86360000D01*
X168630999Y-86611001D02*
X155191001Y-86611001D01*
X168722000Y-86520000D02*
X168630999Y-86611001D01*
X168722000Y-85820000D02*
X168722000Y-86520000D01*
%TO.N,SSR2_GATE*%
X169672000Y-81358200D02*
X169672000Y-83820000D01*
X169298354Y-78994000D02*
X169164000Y-78994000D01*
X170317010Y-80012656D02*
X169298354Y-78994000D01*
X170317010Y-80713190D02*
X170317010Y-80012656D01*
X169672000Y-81358200D02*
X170317010Y-80713190D01*
%TO.N,SSR3_VNEG*%
X172847000Y-86536000D02*
X171753000Y-87630000D01*
X172847000Y-85836000D02*
X172847000Y-86536000D01*
X161290000Y-87630000D02*
X154940000Y-93980000D01*
X171753000Y-87630000D02*
X161290000Y-87630000D01*
%TO.N,SSR3_GATE*%
X173786800Y-83825800D02*
X173797000Y-83836000D01*
X173797000Y-81395800D02*
X173786800Y-81385600D01*
X173797000Y-83836000D02*
X173797000Y-81395800D01*
X174095600Y-81385600D02*
X175006000Y-82296000D01*
X173786800Y-81385600D02*
X174095600Y-81385600D01*
%TO.N,I2C_SDA_5V*%
X209132000Y-66970000D02*
X209046000Y-67056000D01*
X209132000Y-64842000D02*
X209132000Y-66970000D01*
X209046000Y-70108000D02*
X209296000Y-70358000D01*
X209046000Y-67056000D02*
X209046000Y-70108000D01*
X209755000Y-91440000D02*
X210390000Y-92075000D01*
X208280000Y-91440000D02*
X209755000Y-91440000D01*
%TO.N,I2C_SDA*%
X208784000Y-62240000D02*
X208182000Y-62842000D01*
X208784000Y-60960000D02*
X208784000Y-62240000D01*
X208182000Y-64729370D02*
X196711370Y-76200000D01*
X208182000Y-62842000D02*
X208182000Y-64729370D01*
X196711370Y-76200000D02*
X195580000Y-76200000D01*
%TO.N,TEMP_DVDD*%
X167618000Y-52007588D02*
X167618000Y-52944000D01*
X167956598Y-51668990D02*
X167618000Y-52007588D01*
X169468990Y-51668990D02*
X167956598Y-51668990D01*
X170180000Y-52380000D02*
X169468990Y-51668990D01*
X167618000Y-52944000D02*
X167618000Y-56112000D01*
X168402000Y-56896000D02*
X168402000Y-57150000D01*
X167618000Y-56112000D02*
X168402000Y-56896000D01*
X167954010Y-65074990D02*
X167629000Y-65400000D01*
X167629000Y-65400000D02*
X167629000Y-66350000D01*
X168662695Y-65074990D02*
X167954010Y-65074990D01*
X171140000Y-52380000D02*
X171450000Y-52070000D01*
X170180000Y-52380000D02*
X171140000Y-52380000D01*
X202948000Y-60960000D02*
X200408000Y-58420000D01*
X209804000Y-60960000D02*
X207264000Y-58420000D01*
X200152000Y-58420000D02*
X195580000Y-58420000D01*
X207264000Y-58420000D02*
X200152000Y-58420000D01*
X200408000Y-58420000D02*
X200152000Y-58420000D01*
X202948000Y-62470000D02*
X203320000Y-62842000D01*
X202948000Y-60960000D02*
X202948000Y-62470000D01*
X209804000Y-62564000D02*
X210082000Y-62842000D01*
X209804000Y-60960000D02*
X209804000Y-62564000D01*
X167703990Y-65338598D02*
X167967598Y-65074990D01*
X167629000Y-65400000D02*
X167690402Y-65338598D01*
X167690402Y-65338598D02*
X167703990Y-65338598D01*
X167967598Y-65074990D02*
X168590402Y-65074990D01*
X177800000Y-74284588D02*
X177614706Y-74099294D01*
X177800000Y-77724000D02*
X177800000Y-74284588D01*
X217075001Y-94544001D02*
X217075001Y-92615001D01*
X213360000Y-98259002D02*
X217075001Y-94544001D01*
X217075001Y-92615001D02*
X215900000Y-91440000D01*
X213360000Y-101600000D02*
X213360000Y-98259002D01*
X170434000Y-64770000D02*
X169359706Y-65844294D01*
X170434000Y-63246000D02*
X170434000Y-64770000D01*
X169359706Y-65844294D02*
X177614706Y-74099294D01*
X168590402Y-65074990D02*
X169359706Y-65844294D01*
%TO.N,I2C_SCL_5V*%
X202370000Y-66984000D02*
X202442000Y-67056000D01*
X202370000Y-64842000D02*
X202370000Y-66984000D01*
X202442000Y-68576000D02*
X202438000Y-68580000D01*
X202442000Y-67056000D02*
X202442000Y-68576000D01*
X210009000Y-90424000D02*
X207554990Y-90424000D01*
X210390000Y-90805000D02*
X210009000Y-90424000D01*
%TO.N,I2C_SCL*%
X201928000Y-62334000D02*
X201420000Y-62842000D01*
X201928000Y-60960000D02*
X201928000Y-62334000D01*
X198431991Y-72711599D02*
X196068591Y-75074999D01*
X194454999Y-77614999D02*
X195580000Y-78740000D01*
X201420000Y-62842000D02*
X200770000Y-62842000D01*
X196068591Y-75074999D02*
X195039999Y-75074999D01*
X195039999Y-75074999D02*
X194454999Y-75659999D01*
X198431991Y-65180009D02*
X198431991Y-72711599D01*
X200770000Y-62842000D02*
X198431991Y-65180009D01*
X194454999Y-75659999D02*
X194454999Y-77614999D01*
%TO.N,+9V*%
X205065001Y-52399999D02*
X205065001Y-53722499D01*
X205065001Y-53722499D02*
X204177500Y-54610000D01*
X204880001Y-52214999D02*
X205065001Y-52399999D01*
X176625001Y-52214999D02*
X204880001Y-52214999D01*
X173736000Y-55104000D02*
X176625001Y-52214999D01*
X173736000Y-55841500D02*
X173736000Y-55104000D01*
X204657500Y-54130000D02*
X212090000Y-54130000D01*
X204177500Y-54610000D02*
X204657500Y-54130000D01*
X215110000Y-54130000D02*
X215900000Y-53340000D01*
X212090000Y-54130000D02*
X215110000Y-54130000D01*
%TO.N,+5V*%
X153764999Y-82455001D02*
X153764999Y-87724999D01*
X153764999Y-87724999D02*
X154940000Y-88900000D01*
X154940000Y-81280000D02*
X153764999Y-82455001D01*
X153764999Y-95344999D02*
X154940000Y-96520000D01*
X153764999Y-90075001D02*
X153764999Y-95344999D01*
X154940000Y-88900000D02*
X153764999Y-90075001D01*
X202175000Y-56110000D02*
X200660000Y-54595000D01*
X204090000Y-56110000D02*
X202175000Y-56110000D01*
X194454999Y-56420001D02*
X194454999Y-54465001D01*
X194454999Y-54465001D02*
X195580000Y-53340000D01*
X195039999Y-57005001D02*
X194454999Y-56420001D01*
X196120001Y-57005001D02*
X195039999Y-57005001D01*
X198530002Y-54595000D02*
X196120001Y-57005001D01*
X200660000Y-54595000D02*
X198530002Y-54595000D01*
X208026000Y-70866000D02*
X215900000Y-78740000D01*
X208026000Y-67056000D02*
X208026000Y-70866000D01*
X207490000Y-78740000D02*
X206220000Y-80010000D01*
X215900000Y-78740000D02*
X207490000Y-78740000D01*
X201422000Y-67056000D02*
X199898000Y-65532000D01*
X210771000Y-86106000D02*
X210390000Y-85725000D01*
X212852000Y-86106000D02*
X210771000Y-86106000D01*
X209365000Y-85725000D02*
X210390000Y-85725000D01*
X209039990Y-83510010D02*
X209039990Y-85399990D01*
X209365000Y-83185000D02*
X209039990Y-83510010D01*
X209039990Y-85399990D02*
X209365000Y-85725000D01*
X210390000Y-83185000D02*
X209365000Y-83185000D01*
X210390000Y-80186000D02*
X210390000Y-83185000D01*
X206396000Y-80186000D02*
X206220000Y-80010000D01*
X210390000Y-80186000D02*
X206396000Y-80186000D01*
%TO.N,TEMP_SPI_MISO*%
X177540990Y-61219010D02*
X180340000Y-58420000D01*
X166643010Y-61219010D02*
X177540990Y-61219010D01*
X166318000Y-60894000D02*
X166643010Y-61219010D01*
X166318000Y-59944000D02*
X166318000Y-60894000D01*
X166329000Y-72349000D02*
X165354000Y-71374000D01*
X166329000Y-73350000D02*
X166329000Y-72349000D01*
X166318000Y-58562704D02*
X166318000Y-59944000D01*
X165804364Y-58049068D02*
X166318000Y-58562704D01*
X165238679Y-58049068D02*
X165804364Y-58049068D01*
%TO.N,TEMP_SPI_CS0*%
X181465001Y-57005001D02*
X180340000Y-55880000D01*
X181465001Y-58960001D02*
X181465001Y-57005001D01*
X180880001Y-59545001D02*
X181465001Y-58960001D01*
X180089997Y-59545001D02*
X180880001Y-59545001D01*
X177965977Y-61669021D02*
X180089997Y-59545001D01*
X166443021Y-61669021D02*
X177965977Y-61669021D01*
X165668000Y-60894000D02*
X166443021Y-61669021D01*
X165668000Y-59944000D02*
X165668000Y-60894000D01*
%TO.N,TEMP_SPI_SCK*%
X165029000Y-73350000D02*
X165029000Y-74675320D01*
X165029000Y-74675320D02*
X167056333Y-76702653D01*
X165018000Y-61245426D02*
X166870714Y-63098140D01*
X165018000Y-59944000D02*
X165018000Y-61245426D01*
%TO.N,TEMP_SPI_MOSI*%
X164379000Y-75098322D02*
X166965466Y-77684788D01*
X166965466Y-77684788D02*
X168038468Y-77684788D01*
X164379000Y-73350000D02*
X164379000Y-75098322D01*
X164368000Y-62580322D02*
X165654499Y-63866821D01*
X164368000Y-59944000D02*
X164368000Y-62580322D01*
X168768821Y-63866821D02*
X168910000Y-64008000D01*
X165654499Y-63866821D02*
X168768821Y-63866821D01*
%TO.N,RTD1F-*%
X163068000Y-60880412D02*
X163068000Y-59944000D01*
X162101588Y-61214000D02*
X162106598Y-61219010D01*
X162729402Y-61219010D02*
X163068000Y-60880412D01*
X162106598Y-61219010D02*
X162729402Y-61219010D01*
X154940000Y-61214000D02*
X162101588Y-61214000D01*
%TO.N,RTD1IN-*%
X160810000Y-59944000D02*
X157734000Y-56868000D01*
X162418000Y-59944000D02*
X160810000Y-59944000D01*
X156746000Y-56868000D02*
X157734000Y-56868000D01*
X154940000Y-58674000D02*
X156746000Y-56868000D01*
%TO.N,RTD1IN+*%
X157508000Y-56134000D02*
X157734000Y-55908000D01*
X154940000Y-56134000D02*
X157508000Y-56134000D01*
X160698000Y-52944000D02*
X162418000Y-52944000D01*
X157734000Y-55908000D02*
X160698000Y-52944000D01*
X158522000Y-55908000D02*
X157734000Y-55908000D01*
X160528000Y-57914000D02*
X158522000Y-55908000D01*
%TO.N,RTD1F+*%
X163068000Y-52007588D02*
X163068000Y-52944000D01*
X162729402Y-51668990D02*
X163068000Y-52007588D01*
X154940000Y-53594000D02*
X156865010Y-51668990D01*
X163718000Y-51994000D02*
X163718000Y-52944000D01*
X163392990Y-51668990D02*
X163718000Y-51994000D01*
X162412990Y-51668990D02*
X163392990Y-51668990D01*
X156865010Y-51668990D02*
X162412990Y-51668990D01*
X162412990Y-51668990D02*
X162729402Y-51668990D01*
%TO.N,Net-(R6-Pad1)*%
X164368000Y-53880412D02*
X164368000Y-52944000D01*
X163384412Y-54864000D02*
X164368000Y-53880412D01*
X160528000Y-54864000D02*
X163384412Y-54864000D01*
X164048000Y-54864000D02*
X163384412Y-54864000D01*
X165018000Y-53894000D02*
X164048000Y-54864000D01*
X165018000Y-52944000D02*
X165018000Y-53894000D01*
%TO.N,Net-(R4-Pad2)*%
X160528000Y-55884000D02*
X160530000Y-55882000D01*
X165668000Y-53880412D02*
X165668000Y-52944000D01*
X163664412Y-55884000D02*
X165668000Y-53880412D01*
X160528000Y-55884000D02*
X163664412Y-55884000D01*
X166318000Y-52944000D02*
X166318000Y-53900000D01*
X164334000Y-55884000D02*
X163664412Y-55884000D01*
X160528000Y-56894000D02*
X163324000Y-56894000D01*
X164592000Y-55626000D02*
X164334000Y-55884000D01*
X163324000Y-56894000D02*
X164592000Y-55626000D01*
X166318000Y-53900000D02*
X164592000Y-55626000D01*
%TO.N,TEMP_DRDY0*%
X168268000Y-53968000D02*
X169672000Y-55372000D01*
X168268000Y-52944000D02*
X168268000Y-53968000D01*
%TO.N,TEMP_SPI_CS1*%
X179214999Y-87189999D02*
X179799999Y-87774999D01*
X194780001Y-98260001D02*
X195580000Y-99060000D01*
X170982090Y-79603090D02*
X173994844Y-79603090D01*
X179214999Y-84823245D02*
X179214999Y-87189999D01*
X173994844Y-79603090D02*
X179214999Y-84823245D01*
X165679000Y-73350000D02*
X165679000Y-74300000D01*
X184294999Y-87774999D02*
X194780001Y-98260001D01*
X179799999Y-87774999D02*
X184294999Y-87774999D01*
X165679000Y-74300000D02*
X170982090Y-79603090D01*
%TO.N,RTD2F-*%
X163079000Y-74286412D02*
X163079000Y-73350000D01*
X155651010Y-74625010D02*
X162740402Y-74625010D01*
X162740402Y-74625010D02*
X163079000Y-74286412D01*
X154940000Y-73914000D02*
X155651010Y-74625010D01*
%TO.N,RTD2IN-*%
X157988000Y-70836000D02*
X160502000Y-73350000D01*
X160502000Y-73350000D02*
X162429000Y-73350000D01*
X157988000Y-70556000D02*
X157988000Y-70836000D01*
X155758000Y-70556000D02*
X154940000Y-71374000D01*
X157988000Y-70556000D02*
X155758000Y-70556000D01*
%TO.N,RTD2IN+*%
X160515446Y-66350000D02*
X162429000Y-66350000D01*
X157988000Y-68877446D02*
X160515446Y-66350000D01*
X157988000Y-69596000D02*
X157988000Y-68877446D01*
X159120990Y-70984990D02*
X159766000Y-71630000D01*
X158298000Y-69596000D02*
X159120990Y-70418990D01*
X159120990Y-70418990D02*
X159120990Y-70984990D01*
X157988000Y-69596000D02*
X158298000Y-69596000D01*
X155702000Y-69596000D02*
X154940000Y-68834000D01*
X157988000Y-69596000D02*
X155702000Y-69596000D01*
%TO.N,RTD2F+*%
X163079000Y-65400000D02*
X163079000Y-66350000D01*
X162753990Y-65074990D02*
X163079000Y-65400000D01*
X154940000Y-66294000D02*
X156159010Y-65074990D01*
X163729000Y-65400000D02*
X163403990Y-65074990D01*
X163403990Y-65074990D02*
X162610990Y-65074990D01*
X163729000Y-66350000D02*
X163729000Y-65400000D01*
X162610990Y-65074990D02*
X162753990Y-65074990D01*
X156159010Y-65074990D02*
X162610990Y-65074990D01*
%TO.N,Net-(R7-Pad1)*%
X164379000Y-67286412D02*
X164379000Y-66350000D01*
X163595412Y-68070000D02*
X164379000Y-67286412D01*
X159766000Y-68070000D02*
X163595412Y-68070000D01*
X164259000Y-68070000D02*
X163595412Y-68070000D01*
X165029000Y-67300000D02*
X164259000Y-68070000D01*
X165029000Y-66350000D02*
X165029000Y-67300000D01*
%TO.N,Net-(R5-Pad2)*%
X159766000Y-70610000D02*
X159766000Y-69090000D01*
X165679000Y-67300000D02*
X165679000Y-66350000D01*
X163889000Y-69090000D02*
X165679000Y-67300000D01*
X166329000Y-66350000D02*
X166329000Y-67351000D01*
X164590000Y-69090000D02*
X163578000Y-69090000D01*
X163578000Y-69090000D02*
X163889000Y-69090000D01*
X166329000Y-67351000D02*
X164590000Y-69090000D01*
X159766000Y-69090000D02*
X163578000Y-69090000D01*
%TO.N,TEMP_DRDY1*%
X168712000Y-66350000D02*
X176784000Y-74422000D01*
X168279000Y-66350000D02*
X168712000Y-66350000D01*
%TO.N,PROP_SSR_CTRL*%
X215900000Y-68580000D02*
X217678000Y-70358000D01*
X212979998Y-84455000D02*
X210390000Y-84455000D01*
X217678000Y-79756998D02*
X212979998Y-84455000D01*
X217678000Y-70358000D02*
X217678000Y-79756998D01*
%TO.N,PRES_AIN*%
X201573500Y-82701500D02*
X208128500Y-82701500D01*
X208128500Y-82701500D02*
X209550000Y-81280000D01*
X201090000Y-83185000D02*
X201573500Y-82701500D01*
X201573500Y-82701500D02*
X201715010Y-82559990D01*
%TO.N,RX_FROM_ESP8266*%
X165005001Y-110584999D02*
X194215001Y-110584999D01*
X194215001Y-110584999D02*
X195580000Y-109220000D01*
X163830000Y-111760000D02*
X165005001Y-110584999D01*
%TO.N,TX_TO_ESP8266*%
X172575001Y-108094999D02*
X194165001Y-108094999D01*
X194165001Y-108094999D02*
X195580000Y-106680000D01*
X171450000Y-109220000D02*
X172575001Y-108094999D01*
%TO.N,ESP8266_CHPD*%
X196705001Y-105265001D02*
X195580000Y-104140000D01*
X196705001Y-109760001D02*
X196705001Y-105265001D01*
X192739997Y-112935001D02*
X195329997Y-110345001D01*
X196120001Y-110345001D02*
X196705001Y-109760001D01*
X195329997Y-110345001D02*
X196120001Y-110345001D01*
X167545001Y-112935001D02*
X192739997Y-112935001D01*
X166370000Y-111760000D02*
X167545001Y-112935001D01*
%TO.N,ESP8266_GPIO0*%
X194454999Y-102725001D02*
X195580000Y-101600000D01*
X175404999Y-102725001D02*
X194454999Y-102725001D01*
X168910000Y-109220000D02*
X175404999Y-102725001D01*
%TO.N,ESP8266_GPIO2*%
X196705001Y-97645001D02*
X195580000Y-96520000D01*
X196705001Y-99600001D02*
X196705001Y-97645001D01*
X175404999Y-100185001D02*
X196120001Y-100185001D01*
X196120001Y-100185001D02*
X196705001Y-99600001D01*
X166370000Y-109220000D02*
X175404999Y-100185001D01*
%TO.N,PROP_SSR_EN*%
X188166599Y-86566599D02*
X195580000Y-93980000D01*
X188166599Y-64309401D02*
X188166599Y-86566599D01*
X191770000Y-60706000D02*
X188166599Y-64309401D01*
%TO.N,Net-(D1-Pad2)*%
X163613500Y-80201000D02*
X163576000Y-80238500D01*
X163603300Y-80211200D02*
X163576000Y-80238500D01*
X165481000Y-80211200D02*
X163603300Y-80211200D01*
%TO.N,Net-(D2-Pad2)*%
X167767200Y-80340200D02*
X167767000Y-80340000D01*
X167768800Y-80338200D02*
X167767000Y-80340000D01*
X169672000Y-80338200D02*
X167768800Y-80338200D01*
%TO.N,Net-(D3-Pad2)*%
X173786800Y-80365600D02*
X171907200Y-80365600D01*
%TO.N,TEMP_VDD*%
X166968000Y-52007588D02*
X166968000Y-52944000D01*
X167756607Y-51218981D02*
X166968000Y-52007588D01*
X171840981Y-51218981D02*
X167756607Y-51218981D01*
X172974000Y-52352000D02*
X171840981Y-51218981D01*
X173284000Y-52352000D02*
X172974000Y-52352000D01*
X173609010Y-52677010D02*
X173284000Y-52352000D01*
X173609010Y-54180990D02*
X173609010Y-52677010D01*
X172236000Y-55554000D02*
X173609010Y-54180990D01*
X172236000Y-55754000D02*
X172236000Y-55554000D01*
X166979000Y-67665000D02*
X167640000Y-68326000D01*
X166979000Y-66350000D02*
X166979000Y-67665000D01*
X166968000Y-55536000D02*
X166968000Y-52944000D01*
X166878000Y-55626000D02*
X166968000Y-55536000D01*
%TD*%
M02*
