%TF.GenerationSoftware,KiCad,Pcbnew,(5.1.9-0-10_14)*%
%TF.CreationDate,2021-04-06T21:39:04+02:00*%
%TF.ProjectId,Silviaduino,53696c76-6961-4647-9569-6e6f2e6b6963,rev?*%
%TF.SameCoordinates,Original*%
%TF.FileFunction,Copper,L3,Inr*%
%TF.FilePolarity,Positive*%
%FSLAX46Y46*%
G04 Gerber Fmt 4.6, Leading zero omitted, Abs format (unit mm)*
G04 Created by KiCad (PCBNEW (5.1.9-0-10_14)) date 2021-04-06 21:39:04*
%MOMM*%
%LPD*%
G01*
G04 APERTURE LIST*
%TA.AperFunction,ComponentPad*%
%ADD10O,1.700000X1.700000*%
%TD*%
%TA.AperFunction,ComponentPad*%
%ADD11R,1.700000X1.700000*%
%TD*%
%TA.AperFunction,ComponentPad*%
%ADD12C,1.300000*%
%TD*%
%TA.AperFunction,ComponentPad*%
%ADD13C,1.600000*%
%TD*%
%TA.AperFunction,ComponentPad*%
%ADD14R,1.300000X1.300000*%
%TD*%
%TA.AperFunction,ComponentPad*%
%ADD15R,1.600000X1.600000*%
%TD*%
%TA.AperFunction,ViaPad*%
%ADD16C,0.800000*%
%TD*%
%TA.AperFunction,Conductor*%
%ADD17C,0.250000*%
%TD*%
G04 APERTURE END LIST*
D10*
%TO.N,RTD1F+*%
%TO.C,J1*%
X154940000Y-53594000D03*
%TO.N,RTD1IN+*%
X154940000Y-56134000D03*
%TO.N,RTD1IN-*%
X154940000Y-58674000D03*
D11*
%TO.N,RTD1F-*%
X154940000Y-61214000D03*
%TD*%
D10*
%TO.N,GND*%
%TO.C,J12*%
X215900000Y-55880000D03*
D11*
%TO.N,+9V*%
X215900000Y-53340000D03*
%TD*%
D12*
%TO.N,Net-(U3-Pad66)*%
%TO.C,U3*%
X189230000Y-54070000D03*
%TO.N,Net-(U3-Pad67)*%
X186690000Y-54070000D03*
D13*
%TO.N,Net-(U3-Pad54)*%
X193040000Y-99060000D03*
%TO.N,Net-(U3-Pad53)*%
X190500000Y-99060000D03*
%TO.N,Net-(U3-Pad52)*%
X187960000Y-99060000D03*
%TO.N,Net-(U3-Pad51)*%
X185420000Y-99060000D03*
%TO.N,Net-(U3-Pad50)*%
X182880000Y-99060000D03*
D12*
%TO.N,Net-(U3-Pad62)*%
X189141600Y-66310000D03*
%TO.N,Net-(U3-Pad63)*%
X189141600Y-68310000D03*
%TO.N,Net-(U3-Pad64)*%
X191141600Y-68310000D03*
%TO.N,Net-(U3-Pad61)*%
X191141600Y-66310000D03*
%TO.N,Net-(U3-Pad65)*%
X193141600Y-68310000D03*
D14*
%TO.N,Net-(U3-Pad60)*%
X193141600Y-66310000D03*
D13*
%TO.N,Net-(U3-Pad17)*%
X180340000Y-93980000D03*
%TO.N,TEMP_SPI_MOSI*%
X180340000Y-96520000D03*
%TO.N,TEMP_SPI_SCK*%
X180340000Y-99060000D03*
%TO.N,TEMP_DRDY0*%
X180340000Y-101600000D03*
%TO.N,Net-(U3-Pad16)*%
X180340000Y-91440000D03*
%TO.N,TEMP_DVDD*%
X180340000Y-88900000D03*
%TO.N,UEXT_MISO*%
X180340000Y-86360000D03*
%TO.N,TEMP_DRDY1*%
X180340000Y-104140000D03*
%TO.N,BTN_BREW*%
X180340000Y-106680000D03*
%TO.N,BTN_WATER*%
X180340000Y-109220000D03*
%TO.N,BTN_STEAM*%
X180340000Y-111760000D03*
%TO.N,ESP8266_RST*%
X195580000Y-111760000D03*
%TO.N,RX_FROM_ESP8266*%
X195580000Y-109220000D03*
%TO.N,TX_TO_ESP8266*%
X195580000Y-106680000D03*
%TO.N,ESP8266_CHPD*%
X195580000Y-104140000D03*
%TO.N,ESP8266_GPIO0*%
X195580000Y-101600000D03*
%TO.N,TEMP_SPI_CS1*%
X195580000Y-99060000D03*
%TO.N,ESP8266_GPIO2*%
X195580000Y-96520000D03*
%TO.N,PROP_SSR_EN*%
X195580000Y-93980000D03*
%TO.N,Net-(U3-Pad33)*%
X195580000Y-91440000D03*
%TO.N,GND*%
X195580000Y-88900000D03*
%TO.N,UEXT_MOSI*%
X180340000Y-83820000D03*
%TO.N,UEXT_SSEL*%
X180340000Y-81280000D03*
%TO.N,Net-(U3-Pad11)*%
X180340000Y-78740000D03*
%TO.N,UEXT_TXD*%
X180340000Y-76200000D03*
%TO.N,UEXT_RXD*%
X180340000Y-73660000D03*
%TO.N,Net-(U3-Pad8)*%
X180340000Y-71120000D03*
%TO.N,Net-(U3-Pad7)*%
X180340000Y-68580000D03*
%TO.N,SSR3_GATE*%
X180340000Y-66040000D03*
%TO.N,SSR2_GATE*%
X180340000Y-63500000D03*
%TO.N,SSR1_GATE*%
X180340000Y-60960000D03*
%TO.N,TEMP_SPI_MISO*%
X180340000Y-58420000D03*
%TO.N,TEMP_SPI_CS0*%
X180340000Y-55880000D03*
D15*
%TO.N,GND*%
X180340000Y-53340000D03*
D13*
%TO.N,UEXT_SCK*%
X195580000Y-86360000D03*
%TO.N,Net-(U3-Pad36)*%
X195580000Y-83820000D03*
%TO.N,Net-(U3-Pad37)*%
X195580000Y-81280000D03*
%TO.N,I2C_SCL*%
X195580000Y-78740000D03*
%TO.N,I2C_SDA*%
X195580000Y-76200000D03*
%TO.N,UEXT_SDA*%
X195580000Y-73660000D03*
%TO.N,UEXT_SCL*%
X195580000Y-71120000D03*
%TO.N,Net-(U3-Pad42)*%
X195580000Y-68580000D03*
%TO.N,ENC_CLK*%
X195580000Y-66040000D03*
%TO.N,ENC_DT*%
X195580000Y-63500000D03*
%TO.N,ENC_SW*%
X195580000Y-60960000D03*
%TO.N,TEMP_DVDD*%
X195580000Y-58420000D03*
%TO.N,GND*%
X195580000Y-55880000D03*
%TO.N,+5V*%
X195580000Y-53340000D03*
D15*
%TO.N,Net-(U3-Pad55)*%
X183390800Y-59639200D03*
D13*
%TO.N,Net-(U3-Pad56)*%
X183390800Y-62179200D03*
%TO.N,Net-(U3-Pad57)*%
X183390800Y-64719200D03*
%TO.N,Net-(U3-Pad58)*%
X183390800Y-67259200D03*
%TO.N,Net-(U3-Pad59)*%
X183390800Y-69799200D03*
%TO.N,Net-(U3-Pad49)*%
X193040000Y-55880000D03*
%TD*%
D10*
%TO.N,GND*%
%TO.C,J11*%
X163830000Y-109220000D03*
%TO.N,RX_FROM_ESP8266*%
X163830000Y-111760000D03*
%TO.N,ESP8266_GPIO2*%
X166370000Y-109220000D03*
%TO.N,ESP8266_CHPD*%
X166370000Y-111760000D03*
%TO.N,ESP8266_GPIO0*%
X168910000Y-109220000D03*
%TO.N,ESP8266_RST*%
X168910000Y-111760000D03*
%TO.N,TX_TO_ESP8266*%
X171450000Y-109220000D03*
D11*
%TO.N,TEMP_DVDD*%
X171450000Y-111760000D03*
%TD*%
D10*
%TO.N,UEXT_SSEL*%
%TO.C,J10*%
X215900000Y-111760000D03*
%TO.N,UEXT_SCK*%
X213360000Y-111760000D03*
%TO.N,UEXT_MOSI*%
X215900000Y-109220000D03*
%TO.N,UEXT_MISO*%
X213360000Y-109220000D03*
%TO.N,UEXT_SDA*%
X215900000Y-106680000D03*
%TO.N,UEXT_SCL*%
X213360000Y-106680000D03*
%TO.N,UEXT_RXD*%
X215900000Y-104140000D03*
%TO.N,UEXT_TXD*%
X213360000Y-104140000D03*
%TO.N,GND*%
X215900000Y-101600000D03*
D11*
%TO.N,TEMP_DVDD*%
X213360000Y-101600000D03*
%TD*%
D10*
%TO.N,GND*%
%TO.C,J9*%
X215900000Y-93980000D03*
%TO.N,TEMP_DVDD*%
X215900000Y-91440000D03*
%TO.N,ENC_SW*%
X215900000Y-88900000D03*
%TO.N,ENC_DT*%
X215900000Y-86360000D03*
D11*
%TO.N,ENC_CLK*%
X215900000Y-83820000D03*
%TD*%
D10*
%TO.N,BTN_BREW*%
%TO.C,J8*%
X154940000Y-109220000D03*
%TO.N,BTN_WATER*%
X154940000Y-106680000D03*
%TO.N,BTN_STEAM*%
X154940000Y-104140000D03*
D11*
%TO.N,GND*%
X154940000Y-101600000D03*
%TD*%
D10*
%TO.N,+5V*%
%TO.C,J7*%
X215900000Y-78740000D03*
%TO.N,PRES_AIN*%
X215900000Y-76200000D03*
D11*
%TO.N,GND*%
X215900000Y-73660000D03*
%TD*%
D10*
%TO.N,PROP_SSR_CTRL*%
%TO.C,J6*%
X215900000Y-68580000D03*
%TO.N,PROP_SSR_EN*%
X215900000Y-66040000D03*
%TO.N,GND*%
X215900000Y-63500000D03*
D11*
%TO.N,+9V*%
X215900000Y-60960000D03*
%TD*%
D10*
%TO.N,+5V*%
%TO.C,J5*%
X154940000Y-96520000D03*
D11*
%TO.N,SSR3_VNEG*%
X154940000Y-93980000D03*
%TD*%
D10*
%TO.N,+5V*%
%TO.C,J4*%
X154940000Y-88900000D03*
D11*
%TO.N,SSR2_VNEG*%
X154940000Y-86360000D03*
%TD*%
D10*
%TO.N,+5V*%
%TO.C,J3*%
X154940000Y-81280000D03*
D11*
%TO.N,SSR1_VNEG*%
X154940000Y-78740000D03*
%TD*%
D10*
%TO.N,RTD2F+*%
%TO.C,J2*%
X154940000Y-66294000D03*
%TO.N,RTD2IN+*%
X154940000Y-68834000D03*
%TO.N,RTD2IN-*%
X154940000Y-71374000D03*
D11*
%TO.N,RTD2F-*%
X154940000Y-73914000D03*
%TD*%
D16*
%TO.N,GND*%
X162052000Y-82804000D03*
X170434000Y-82550000D03*
X165354000Y-69850000D03*
X171704000Y-53340000D03*
X165644990Y-82785988D03*
X165675972Y-57149736D03*
%TO.N,SSR1_GATE*%
X166116000Y-78740000D03*
%TO.N,SSR2_GATE*%
X169164000Y-78994000D03*
%TO.N,SSR3_GATE*%
X175006000Y-82296000D03*
%TO.N,I2C_SDA_5V*%
X209296000Y-70358000D03*
X208280000Y-91440000D03*
%TO.N,TEMP_DVDD*%
X168402000Y-57150000D03*
X170434000Y-63246000D03*
X171450000Y-52070000D03*
X177800000Y-77724000D03*
%TO.N,I2C_SCL_5V*%
X202438000Y-68580000D03*
X207554990Y-90424000D03*
%TO.N,+5V*%
X199898000Y-65532000D03*
%TO.N,TEMP_SPI_MISO*%
X165354000Y-71374000D03*
X165238679Y-58049068D03*
%TO.N,TEMP_SPI_SCK*%
X167056333Y-76702653D03*
X166870714Y-63098140D03*
%TO.N,TEMP_SPI_MOSI*%
X168038468Y-77684788D03*
X168910000Y-64008000D03*
%TO.N,TEMP_DRDY0*%
X169672000Y-55372000D03*
%TO.N,TEMP_DRDY1*%
X176784000Y-74422000D03*
%TO.N,PRES_AIN*%
X209550000Y-81280000D03*
%TO.N,UEXT_SDA*%
X212344000Y-94996000D03*
%TO.N,PROP_SSR_EN*%
X191770000Y-60706000D03*
%TO.N,TEMP_VDD*%
X167640000Y-68326000D03*
X166878000Y-55626000D03*
%TD*%
D17*
%TO.N,TEMP_DVDD*%
X168402000Y-61214000D02*
X170434000Y-63246000D01*
X168402000Y-57150000D02*
X168402000Y-61214000D01*
%TO.N,TEMP_SPI_MISO*%
X166167836Y-70560164D02*
X166167836Y-65387044D01*
X165238679Y-64457887D02*
X165238679Y-58049068D01*
X166167836Y-65387044D02*
X165238679Y-64457887D01*
X165354000Y-71374000D02*
X166167836Y-70560164D01*
%TO.N,TEMP_SPI_SCK*%
X180340000Y-99060000D02*
X167056333Y-85776333D01*
X167056333Y-85776333D02*
X167056333Y-76702653D01*
X167056333Y-76702653D02*
X166656334Y-76302654D01*
X166656334Y-63312520D02*
X166870714Y-63098140D01*
X166656334Y-76302654D02*
X166656334Y-63312520D01*
%TO.N,TEMP_SPI_MOSI*%
X168038468Y-84218468D02*
X168038468Y-77684788D01*
X180340000Y-96520000D02*
X168038468Y-84218468D01*
X168038468Y-77684788D02*
X168572255Y-77151001D01*
X168910000Y-76813256D02*
X168572255Y-77151001D01*
X168910000Y-64008000D02*
X168910000Y-76813256D01*
%TO.N,TEMP_DRDY0*%
X181465001Y-100474999D02*
X180340000Y-101600000D01*
X169672000Y-55372000D02*
X169672000Y-57037002D01*
X178872499Y-94177501D02*
X178872499Y-66237501D01*
X179799999Y-95105001D02*
X178872499Y-94177501D01*
X169672000Y-57037002D02*
X178872499Y-66237501D01*
X181465001Y-95979999D02*
X180590003Y-95105001D01*
X180590003Y-95105001D02*
X179799999Y-95105001D01*
X181465001Y-100474999D02*
X181465001Y-95979999D01*
%TO.N,UEXT_MISO*%
X191914999Y-97934999D02*
X202074999Y-97934999D01*
X202074999Y-97934999D02*
X213360000Y-109220000D01*
X180340000Y-86360000D02*
X191914999Y-97934999D01*
%TO.N,UEXT_MOSI*%
X214724999Y-108044999D02*
X215900000Y-109220000D01*
X212985997Y-108044999D02*
X214724999Y-108044999D01*
X191625001Y-95105001D02*
X200045999Y-95105001D01*
X200045999Y-95105001D02*
X212985997Y-108044999D01*
X180340000Y-83820000D02*
X191625001Y-95105001D01*
%TO.N,UEXT_SSEL*%
X217075001Y-110584999D02*
X215900000Y-111760000D01*
X217075001Y-108655999D02*
X217075001Y-110584999D01*
X215525997Y-108044999D02*
X216464001Y-108044999D01*
X214724999Y-106305997D02*
X214724999Y-107244001D01*
X213924001Y-105504999D02*
X214724999Y-106305997D01*
X212985997Y-105504999D02*
X213924001Y-105504999D01*
X200335997Y-92854999D02*
X212985997Y-105504999D01*
X191914999Y-92854999D02*
X200335997Y-92854999D01*
X216464001Y-108044999D02*
X217075001Y-108655999D01*
X214724999Y-107244001D02*
X215525997Y-108044999D01*
X180340000Y-81280000D02*
X191914999Y-92854999D01*
%TO.N,UEXT_TXD*%
X199245001Y-90025001D02*
X213360000Y-104140000D01*
X194165001Y-90025001D02*
X199245001Y-90025001D01*
X180340000Y-76200000D02*
X194165001Y-90025001D01*
%TO.N,UEXT_RXD*%
X214724999Y-100679997D02*
X214724999Y-102964999D01*
X194165001Y-87485001D02*
X201530003Y-87485001D01*
X214724999Y-102964999D02*
X215900000Y-104140000D01*
X201530003Y-87485001D02*
X214724999Y-100679997D01*
X180340000Y-73660000D02*
X194165001Y-87485001D01*
%TO.N,UEXT_SDA*%
X212344000Y-91300478D02*
X195580000Y-74536478D01*
X195580000Y-74536478D02*
X195580000Y-73660000D01*
X212344000Y-94996000D02*
X212344000Y-91300478D01*
%TO.N,ENC_CLK*%
X198120000Y-66040000D02*
X215900000Y-83820000D01*
X195580000Y-66040000D02*
X198120000Y-66040000D01*
%TO.N,ENC_DT*%
X195329997Y-67454999D02*
X196994999Y-67454999D01*
X196994999Y-67454999D02*
X215900000Y-86360000D01*
X195580000Y-63500000D02*
X194454999Y-64625001D01*
X194454999Y-64625001D02*
X194454999Y-66580001D01*
X194454999Y-66580001D02*
X195329997Y-67454999D01*
%TO.N,ENC_SW*%
X196994999Y-69994999D02*
X215900000Y-88900000D01*
X192116601Y-68728003D02*
X193383597Y-69994999D01*
X195580000Y-60960000D02*
X192116601Y-64423399D01*
X192116601Y-64423399D02*
X192116601Y-68728003D01*
X193383597Y-69994999D02*
X196994999Y-69994999D01*
%TO.N,PROP_SSR_EN*%
X192641001Y-59834999D02*
X191770000Y-60706000D01*
X215900000Y-66040000D02*
X209694999Y-59834999D01*
X209694999Y-59834999D02*
X192641001Y-59834999D01*
%TO.N,TEMP_VDD*%
X166878000Y-62032424D02*
X166878000Y-55626000D01*
X167640000Y-62794424D02*
X166878000Y-62032424D01*
X167640000Y-68326000D02*
X167640000Y-62794424D01*
%TD*%
M02*
