M48
INCH,TZ
T1C0.0079
T2C0.0157
T3C0.0276
T4C0.0394
T5C0.0433
T6C0.0886
%
G90
G05
T1
X53800Y-41200
X53900Y-40100
X54289Y-38969
X54457Y-38683
X54800Y-41600
X55000Y-38900
X55100Y-38600
X55300Y-38100
X55313Y-38798
X55389Y-38411
X55900Y-24200
X56100Y-24300
X56200Y-38600
X56200Y-41600
X56257Y-38915
X56439Y-38383
X56600Y-21900
X56715Y-38444
X56832Y-38643
X56844Y-21666
X57030Y-38433
X57200Y-21300
X57600Y-22900
X57800Y-38600
X58100Y-21100
X58370Y-21553
X58400Y-21300
X58706Y-24531
X58800Y-21800
X58809Y-22847
X59000Y-21500
X59000Y-22800
X59240Y-21707
X59433Y-21742
X59711Y-21903
X60100Y-43800
X60300Y-44000
X60500Y-44200
X61000Y-21600
X61319Y-43798
X61533Y-43556
X61565Y-43811
X62400Y-44200
X62600Y-38700
X62800Y-21600
X63014Y-19586
X63117Y-20305
X63300Y-40900
X63389Y-19811
X63600Y-22500
X63600Y-22800
X63600Y-24900
X63900Y-21700
X64600Y-36300
X65400Y-23100
X65943Y-23118
X66100Y-25900
X68000Y-48300
X68200Y-48200
X68400Y-48100
X68600Y-48000
T2
X53300Y-37500
X55214Y-41286
X55545Y-24500
X55800Y-21536
X56600Y-24500
X57317Y-40983
X57600Y-37500
X58983Y-44217
X62167Y-23733
X63500Y-22100
X64800Y-50100
X64989Y-37246
X65400Y-40800
X65500Y-19300
X66192Y-35686
X66213Y-30236
X66400Y-24100
X66400Y-33000
X66500Y-17700
X66500Y-22300
X66600Y-16600
X67600Y-22500
X67700Y-19400
T3
X64200Y-17000
X64200Y-19000
T4
X52400Y-49800
X52400Y-50800
X63500Y-28000
X63500Y-29000
X63500Y-30000
X63500Y-31000
X63500Y-32000
X63500Y-33000
X63500Y-34000
X66000Y-43200
X66000Y-44200
X66000Y-45200
X66000Y-46200
X66000Y-47200
X67000Y-43200
X67000Y-44200
X67000Y-45200
X67000Y-46200
X67000Y-47200
X69600Y-42200
X69600Y-43200
X69600Y-44200
X69600Y-45200
X69600Y-46200
X69600Y-47800
X69600Y-48800
X69600Y-49800
X69600Y-50800
X69700Y-37500
X69700Y-38500
X69700Y-39500
X69700Y-40500
X69800Y-31700
X69800Y-32700
X69800Y-34700
X69800Y-35700
X69900Y-17500
X69900Y-18500
X69900Y-20400
X69900Y-21400
X69900Y-23300
X69900Y-24300
X69900Y-25300
X69900Y-28900
X69900Y-29900
T5
X54700Y-43800
X55700Y-43800
X56700Y-43800
T6
X52250Y-17000
X52250Y-41400
X60750Y-17000
X60750Y-41400
T0
M30
