%TF.GenerationSoftware,KiCad,Pcbnew,(5.1.9-0-10_14)*%
%TF.CreationDate,2021-11-19T16:31:04+01:00*%
%TF.ProjectId,Silviaduino,53696c76-6961-4647-9569-6e6f2e6b6963,rev?*%
%TF.SameCoordinates,Original*%
%TF.FileFunction,Copper,L1,Top*%
%TF.FilePolarity,Positive*%
%FSLAX46Y46*%
G04 Gerber Fmt 4.6, Leading zero omitted, Abs format (unit mm)*
G04 Created by KiCad (PCBNEW (5.1.9-0-10_14)) date 2021-11-19 16:31:04*
%MOMM*%
%LPD*%
G01*
G04 APERTURE LIST*
%TA.AperFunction,SMDPad,CuDef*%
%ADD10C,0.100000*%
%TD*%
%TA.AperFunction,ComponentPad*%
%ADD11C,3.800000*%
%TD*%
%TA.AperFunction,SMDPad,CuDef*%
%ADD12R,1.300000X0.900000*%
%TD*%
%TA.AperFunction,ComponentPad*%
%ADD13O,1.905000X2.000000*%
%TD*%
%TA.AperFunction,ComponentPad*%
%ADD14R,1.905000X2.000000*%
%TD*%
%TA.AperFunction,ComponentPad*%
%ADD15O,1.400000X1.400000*%
%TD*%
%TA.AperFunction,ComponentPad*%
%ADD16C,1.400000*%
%TD*%
%TA.AperFunction,SMDPad,CuDef*%
%ADD17R,0.900000X0.800000*%
%TD*%
%TA.AperFunction,SMDPad,CuDef*%
%ADD18R,2.400000X0.740000*%
%TD*%
%TA.AperFunction,SMDPad,CuDef*%
%ADD19R,1.300000X1.900000*%
%TD*%
%TA.AperFunction,SMDPad,CuDef*%
%ADD20R,1.000000X2.800000*%
%TD*%
%TA.AperFunction,SMDPad,CuDef*%
%ADD21R,1.000000X0.800000*%
%TD*%
%TA.AperFunction,SMDPad,CuDef*%
%ADD22R,1.000000X1.200000*%
%TD*%
%TA.AperFunction,SMDPad,CuDef*%
%ADD23R,0.700000X1.200000*%
%TD*%
%TA.AperFunction,ComponentPad*%
%ADD24O,1.700000X1.700000*%
%TD*%
%TA.AperFunction,ComponentPad*%
%ADD25R,1.700000X1.700000*%
%TD*%
%TA.AperFunction,ViaPad*%
%ADD26C,0.800000*%
%TD*%
%TA.AperFunction,ViaPad*%
%ADD27C,0.400000*%
%TD*%
%TA.AperFunction,Conductor*%
%ADD28C,0.250000*%
%TD*%
%TA.AperFunction,Conductor*%
%ADD29C,0.200000*%
%TD*%
G04 APERTURE END LIST*
%TO.P,R18,2*%
%TO.N,RTD2IN-*%
%TA.AperFunction,SMDPad,CuDef*%
G36*
G01*
X170455000Y-63329000D02*
X169905000Y-63329000D01*
G75*
G02*
X169705000Y-63129000I0J200000D01*
G01*
X169705000Y-62729000D01*
G75*
G02*
X169905000Y-62529000I200000J0D01*
G01*
X170455000Y-62529000D01*
G75*
G02*
X170655000Y-62729000I0J-200000D01*
G01*
X170655000Y-63129000D01*
G75*
G02*
X170455000Y-63329000I-200000J0D01*
G01*
G37*
%TD.AperFunction*%
%TO.P,R18,1*%
%TO.N,Net-(R17-Pad2)*%
%TA.AperFunction,SMDPad,CuDef*%
G36*
G01*
X170455000Y-64979000D02*
X169905000Y-64979000D01*
G75*
G02*
X169705000Y-64779000I0J200000D01*
G01*
X169705000Y-64379000D01*
G75*
G02*
X169905000Y-64179000I200000J0D01*
G01*
X170455000Y-64179000D01*
G75*
G02*
X170655000Y-64379000I0J-200000D01*
G01*
X170655000Y-64779000D01*
G75*
G02*
X170455000Y-64979000I-200000J0D01*
G01*
G37*
%TD.AperFunction*%
%TD*%
%TO.P,R17,2*%
%TO.N,Net-(R17-Pad2)*%
%TA.AperFunction,SMDPad,CuDef*%
G36*
G01*
X170700000Y-65601000D02*
X170700000Y-65971000D01*
G75*
G02*
X170565000Y-66106000I-135000J0D01*
G01*
X170295000Y-66106000D01*
G75*
G02*
X170160000Y-65971000I0J135000D01*
G01*
X170160000Y-65601000D01*
G75*
G02*
X170295000Y-65466000I135000J0D01*
G01*
X170565000Y-65466000D01*
G75*
G02*
X170700000Y-65601000I0J-135000D01*
G01*
G37*
%TD.AperFunction*%
%TO.P,R17,1*%
%TO.N,+5V*%
%TA.AperFunction,SMDPad,CuDef*%
G36*
G01*
X171720000Y-65601000D02*
X171720000Y-65971000D01*
G75*
G02*
X171585000Y-66106000I-135000J0D01*
G01*
X171315000Y-66106000D01*
G75*
G02*
X171180000Y-65971000I0J135000D01*
G01*
X171180000Y-65601000D01*
G75*
G02*
X171315000Y-65466000I135000J0D01*
G01*
X171585000Y-65466000D01*
G75*
G02*
X171720000Y-65601000I0J-135000D01*
G01*
G37*
%TD.AperFunction*%
%TD*%
%TO.P,C15,2*%
%TO.N,RTD2IN-*%
%TA.AperFunction,SMDPad,CuDef*%
G36*
G01*
X171874000Y-63046000D02*
X171534000Y-63046000D01*
G75*
G02*
X171394000Y-62906000I0J140000D01*
G01*
X171394000Y-62626000D01*
G75*
G02*
X171534000Y-62486000I140000J0D01*
G01*
X171874000Y-62486000D01*
G75*
G02*
X172014000Y-62626000I0J-140000D01*
G01*
X172014000Y-62906000D01*
G75*
G02*
X171874000Y-63046000I-140000J0D01*
G01*
G37*
%TD.AperFunction*%
%TO.P,C15,1*%
%TO.N,+5V*%
%TA.AperFunction,SMDPad,CuDef*%
G36*
G01*
X171874000Y-64006000D02*
X171534000Y-64006000D01*
G75*
G02*
X171394000Y-63866000I0J140000D01*
G01*
X171394000Y-63586000D01*
G75*
G02*
X171534000Y-63446000I140000J0D01*
G01*
X171874000Y-63446000D01*
G75*
G02*
X172014000Y-63586000I0J-140000D01*
G01*
X172014000Y-63866000D01*
G75*
G02*
X171874000Y-64006000I-140000J0D01*
G01*
G37*
%TD.AperFunction*%
%TD*%
%TO.P,R9,2*%
%TO.N,Net-(R8-Pad1)*%
%TA.AperFunction,SMDPad,CuDef*%
G36*
G01*
X170201000Y-103715000D02*
X169651000Y-103715000D01*
G75*
G02*
X169451000Y-103515000I0J200000D01*
G01*
X169451000Y-103115000D01*
G75*
G02*
X169651000Y-102915000I200000J0D01*
G01*
X170201000Y-102915000D01*
G75*
G02*
X170401000Y-103115000I0J-200000D01*
G01*
X170401000Y-103515000D01*
G75*
G02*
X170201000Y-103715000I-200000J0D01*
G01*
G37*
%TD.AperFunction*%
%TO.P,R9,1*%
%TO.N,PSSR_EN_9V*%
%TA.AperFunction,SMDPad,CuDef*%
G36*
G01*
X170201000Y-105365000D02*
X169651000Y-105365000D01*
G75*
G02*
X169451000Y-105165000I0J200000D01*
G01*
X169451000Y-104765000D01*
G75*
G02*
X169651000Y-104565000I200000J0D01*
G01*
X170201000Y-104565000D01*
G75*
G02*
X170401000Y-104765000I0J-200000D01*
G01*
X170401000Y-105165000D01*
G75*
G02*
X170201000Y-105365000I-200000J0D01*
G01*
G37*
%TD.AperFunction*%
%TD*%
%TO.P,R8,2*%
%TO.N,RTD2IN-*%
%TA.AperFunction,SMDPad,CuDef*%
G36*
G01*
X167873000Y-104502000D02*
X168423000Y-104502000D01*
G75*
G02*
X168623000Y-104702000I0J-200000D01*
G01*
X168623000Y-105102000D01*
G75*
G02*
X168423000Y-105302000I-200000J0D01*
G01*
X167873000Y-105302000D01*
G75*
G02*
X167673000Y-105102000I0J200000D01*
G01*
X167673000Y-104702000D01*
G75*
G02*
X167873000Y-104502000I200000J0D01*
G01*
G37*
%TD.AperFunction*%
%TO.P,R8,1*%
%TO.N,Net-(R8-Pad1)*%
%TA.AperFunction,SMDPad,CuDef*%
G36*
G01*
X167873000Y-102852000D02*
X168423000Y-102852000D01*
G75*
G02*
X168623000Y-103052000I0J-200000D01*
G01*
X168623000Y-103452000D01*
G75*
G02*
X168423000Y-103652000I-200000J0D01*
G01*
X167873000Y-103652000D01*
G75*
G02*
X167673000Y-103452000I0J200000D01*
G01*
X167673000Y-103052000D01*
G75*
G02*
X167873000Y-102852000I200000J0D01*
G01*
G37*
%TD.AperFunction*%
%TD*%
%TO.P,R6,2*%
%TO.N,RTD2IN-*%
%TA.AperFunction,SMDPad,CuDef*%
G36*
G01*
X163176000Y-94763000D02*
X163176000Y-94213000D01*
G75*
G02*
X163376000Y-94013000I200000J0D01*
G01*
X163776000Y-94013000D01*
G75*
G02*
X163976000Y-94213000I0J-200000D01*
G01*
X163976000Y-94763000D01*
G75*
G02*
X163776000Y-94963000I-200000J0D01*
G01*
X163376000Y-94963000D01*
G75*
G02*
X163176000Y-94763000I0J200000D01*
G01*
G37*
%TD.AperFunction*%
%TO.P,R6,1*%
%TO.N,Net-(R6-Pad1)*%
%TA.AperFunction,SMDPad,CuDef*%
G36*
G01*
X161526000Y-94763000D02*
X161526000Y-94213000D01*
G75*
G02*
X161726000Y-94013000I200000J0D01*
G01*
X162126000Y-94013000D01*
G75*
G02*
X162326000Y-94213000I0J-200000D01*
G01*
X162326000Y-94763000D01*
G75*
G02*
X162126000Y-94963000I-200000J0D01*
G01*
X161726000Y-94963000D01*
G75*
G02*
X161526000Y-94763000I0J200000D01*
G01*
G37*
%TD.AperFunction*%
%TD*%
%TO.P,R5,2*%
%TO.N,RTD2IN-*%
%TA.AperFunction,SMDPad,CuDef*%
G36*
G01*
X171367000Y-60219000D02*
X171367000Y-59669000D01*
G75*
G02*
X171567000Y-59469000I200000J0D01*
G01*
X171967000Y-59469000D01*
G75*
G02*
X172167000Y-59669000I0J-200000D01*
G01*
X172167000Y-60219000D01*
G75*
G02*
X171967000Y-60419000I-200000J0D01*
G01*
X171567000Y-60419000D01*
G75*
G02*
X171367000Y-60219000I0J200000D01*
G01*
G37*
%TD.AperFunction*%
%TO.P,R5,1*%
%TO.N,Net-(R4-Pad2)*%
%TA.AperFunction,SMDPad,CuDef*%
G36*
G01*
X169717000Y-60219000D02*
X169717000Y-59669000D01*
G75*
G02*
X169917000Y-59469000I200000J0D01*
G01*
X170317000Y-59469000D01*
G75*
G02*
X170517000Y-59669000I0J-200000D01*
G01*
X170517000Y-60219000D01*
G75*
G02*
X170317000Y-60419000I-200000J0D01*
G01*
X169917000Y-60419000D01*
G75*
G02*
X169717000Y-60219000I0J200000D01*
G01*
G37*
%TD.AperFunction*%
%TD*%
%TO.P,C4,2*%
%TO.N,RTD2IN-*%
%TA.AperFunction,SMDPad,CuDef*%
G36*
G01*
X168906000Y-63429000D02*
X168406000Y-63429000D01*
G75*
G02*
X168181000Y-63204000I0J225000D01*
G01*
X168181000Y-62754000D01*
G75*
G02*
X168406000Y-62529000I225000J0D01*
G01*
X168906000Y-62529000D01*
G75*
G02*
X169131000Y-62754000I0J-225000D01*
G01*
X169131000Y-63204000D01*
G75*
G02*
X168906000Y-63429000I-225000J0D01*
G01*
G37*
%TD.AperFunction*%
%TO.P,C4,1*%
%TO.N,+3.3VA*%
%TA.AperFunction,SMDPad,CuDef*%
G36*
G01*
X168906000Y-64979000D02*
X168406000Y-64979000D01*
G75*
G02*
X168181000Y-64754000I0J225000D01*
G01*
X168181000Y-64304000D01*
G75*
G02*
X168406000Y-64079000I225000J0D01*
G01*
X168906000Y-64079000D01*
G75*
G02*
X169131000Y-64304000I0J-225000D01*
G01*
X169131000Y-64754000D01*
G75*
G02*
X168906000Y-64979000I-225000J0D01*
G01*
G37*
%TD.AperFunction*%
%TD*%
%TO.P,C3,2*%
%TO.N,RTD2IN-*%
%TA.AperFunction,SMDPad,CuDef*%
G36*
G01*
X133100000Y-113609000D02*
X133600000Y-113609000D01*
G75*
G02*
X133825000Y-113834000I0J-225000D01*
G01*
X133825000Y-114284000D01*
G75*
G02*
X133600000Y-114509000I-225000J0D01*
G01*
X133100000Y-114509000D01*
G75*
G02*
X132875000Y-114284000I0J225000D01*
G01*
X132875000Y-113834000D01*
G75*
G02*
X133100000Y-113609000I225000J0D01*
G01*
G37*
%TD.AperFunction*%
%TO.P,C3,1*%
%TO.N,+5V*%
%TA.AperFunction,SMDPad,CuDef*%
G36*
G01*
X133100000Y-112059000D02*
X133600000Y-112059000D01*
G75*
G02*
X133825000Y-112284000I0J-225000D01*
G01*
X133825000Y-112734000D01*
G75*
G02*
X133600000Y-112959000I-225000J0D01*
G01*
X133100000Y-112959000D01*
G75*
G02*
X132875000Y-112734000I0J225000D01*
G01*
X132875000Y-112284000D01*
G75*
G02*
X133100000Y-112059000I225000J0D01*
G01*
G37*
%TD.AperFunction*%
%TD*%
%TO.P,C2,2*%
%TO.N,RTD2IN-*%
%TA.AperFunction,SMDPad,CuDef*%
G36*
G01*
X133346000Y-118801000D02*
X132846000Y-118801000D01*
G75*
G02*
X132621000Y-118576000I0J225000D01*
G01*
X132621000Y-118126000D01*
G75*
G02*
X132846000Y-117901000I225000J0D01*
G01*
X133346000Y-117901000D01*
G75*
G02*
X133571000Y-118126000I0J-225000D01*
G01*
X133571000Y-118576000D01*
G75*
G02*
X133346000Y-118801000I-225000J0D01*
G01*
G37*
%TD.AperFunction*%
%TO.P,C2,1*%
%TO.N,+9V*%
%TA.AperFunction,SMDPad,CuDef*%
G36*
G01*
X133346000Y-120351000D02*
X132846000Y-120351000D01*
G75*
G02*
X132621000Y-120126000I0J225000D01*
G01*
X132621000Y-119676000D01*
G75*
G02*
X132846000Y-119451000I225000J0D01*
G01*
X133346000Y-119451000D01*
G75*
G02*
X133571000Y-119676000I0J-225000D01*
G01*
X133571000Y-120126000D01*
G75*
G02*
X133346000Y-120351000I-225000J0D01*
G01*
G37*
%TD.AperFunction*%
%TD*%
%TO.P,U5,16*%
%TO.N,SPI1_MISO*%
%TA.AperFunction,SMDPad,CuDef*%
G36*
G01*
X163433000Y-51723000D02*
X163233000Y-51723000D01*
G75*
G02*
X163133000Y-51623000I0J100000D01*
G01*
X163133000Y-50348000D01*
G75*
G02*
X163233000Y-50248000I100000J0D01*
G01*
X163433000Y-50248000D01*
G75*
G02*
X163533000Y-50348000I0J-100000D01*
G01*
X163533000Y-51623000D01*
G75*
G02*
X163433000Y-51723000I-100000J0D01*
G01*
G37*
%TD.AperFunction*%
%TO.P,U5,15*%
%TO.N,SPI1_MOSI*%
%TA.AperFunction,SMDPad,CuDef*%
G36*
G01*
X164083000Y-51723000D02*
X163883000Y-51723000D01*
G75*
G02*
X163783000Y-51623000I0J100000D01*
G01*
X163783000Y-50348000D01*
G75*
G02*
X163883000Y-50248000I100000J0D01*
G01*
X164083000Y-50248000D01*
G75*
G02*
X164183000Y-50348000I0J-100000D01*
G01*
X164183000Y-51623000D01*
G75*
G02*
X164083000Y-51723000I-100000J0D01*
G01*
G37*
%TD.AperFunction*%
%TO.P,U5,14*%
%TO.N,ADS1220_DRDY*%
%TA.AperFunction,SMDPad,CuDef*%
G36*
G01*
X164733000Y-51723000D02*
X164533000Y-51723000D01*
G75*
G02*
X164433000Y-51623000I0J100000D01*
G01*
X164433000Y-50348000D01*
G75*
G02*
X164533000Y-50248000I100000J0D01*
G01*
X164733000Y-50248000D01*
G75*
G02*
X164833000Y-50348000I0J-100000D01*
G01*
X164833000Y-51623000D01*
G75*
G02*
X164733000Y-51723000I-100000J0D01*
G01*
G37*
%TD.AperFunction*%
%TO.P,U5,13*%
%TO.N,+3V3*%
%TA.AperFunction,SMDPad,CuDef*%
G36*
G01*
X165383000Y-51723000D02*
X165183000Y-51723000D01*
G75*
G02*
X165083000Y-51623000I0J100000D01*
G01*
X165083000Y-50348000D01*
G75*
G02*
X165183000Y-50248000I100000J0D01*
G01*
X165383000Y-50248000D01*
G75*
G02*
X165483000Y-50348000I0J-100000D01*
G01*
X165483000Y-51623000D01*
G75*
G02*
X165383000Y-51723000I-100000J0D01*
G01*
G37*
%TD.AperFunction*%
%TO.P,U5,12*%
%TO.N,+3.3VA*%
%TA.AperFunction,SMDPad,CuDef*%
G36*
G01*
X166033000Y-51723000D02*
X165833000Y-51723000D01*
G75*
G02*
X165733000Y-51623000I0J100000D01*
G01*
X165733000Y-50348000D01*
G75*
G02*
X165833000Y-50248000I100000J0D01*
G01*
X166033000Y-50248000D01*
G75*
G02*
X166133000Y-50348000I0J-100000D01*
G01*
X166133000Y-51623000D01*
G75*
G02*
X166033000Y-51723000I-100000J0D01*
G01*
G37*
%TD.AperFunction*%
%TO.P,U5,11*%
%TO.N,ADS1220_AIN0*%
%TA.AperFunction,SMDPad,CuDef*%
G36*
G01*
X166683000Y-51723000D02*
X166483000Y-51723000D01*
G75*
G02*
X166383000Y-51623000I0J100000D01*
G01*
X166383000Y-50348000D01*
G75*
G02*
X166483000Y-50248000I100000J0D01*
G01*
X166683000Y-50248000D01*
G75*
G02*
X166783000Y-50348000I0J-100000D01*
G01*
X166783000Y-51623000D01*
G75*
G02*
X166683000Y-51723000I-100000J0D01*
G01*
G37*
%TD.AperFunction*%
%TO.P,U5,10*%
%TO.N,ADS1220_AIN1*%
%TA.AperFunction,SMDPad,CuDef*%
G36*
G01*
X167333000Y-51723000D02*
X167133000Y-51723000D01*
G75*
G02*
X167033000Y-51623000I0J100000D01*
G01*
X167033000Y-50348000D01*
G75*
G02*
X167133000Y-50248000I100000J0D01*
G01*
X167333000Y-50248000D01*
G75*
G02*
X167433000Y-50348000I0J-100000D01*
G01*
X167433000Y-51623000D01*
G75*
G02*
X167333000Y-51723000I-100000J0D01*
G01*
G37*
%TD.AperFunction*%
%TO.P,U5,9*%
%TO.N,ADS1220_REFP0*%
%TA.AperFunction,SMDPad,CuDef*%
G36*
G01*
X167983000Y-51723000D02*
X167783000Y-51723000D01*
G75*
G02*
X167683000Y-51623000I0J100000D01*
G01*
X167683000Y-50348000D01*
G75*
G02*
X167783000Y-50248000I100000J0D01*
G01*
X167983000Y-50248000D01*
G75*
G02*
X168083000Y-50348000I0J-100000D01*
G01*
X168083000Y-51623000D01*
G75*
G02*
X167983000Y-51723000I-100000J0D01*
G01*
G37*
%TD.AperFunction*%
%TO.P,U5,8*%
%TO.N,ADS1220_REFN0*%
%TA.AperFunction,SMDPad,CuDef*%
G36*
G01*
X167983000Y-57448000D02*
X167783000Y-57448000D01*
G75*
G02*
X167683000Y-57348000I0J100000D01*
G01*
X167683000Y-56073000D01*
G75*
G02*
X167783000Y-55973000I100000J0D01*
G01*
X167983000Y-55973000D01*
G75*
G02*
X168083000Y-56073000I0J-100000D01*
G01*
X168083000Y-57348000D01*
G75*
G02*
X167983000Y-57448000I-100000J0D01*
G01*
G37*
%TD.AperFunction*%
%TO.P,U5,7*%
%TO.N,ADS1220_AIN2*%
%TA.AperFunction,SMDPad,CuDef*%
G36*
G01*
X167333000Y-57448000D02*
X167133000Y-57448000D01*
G75*
G02*
X167033000Y-57348000I0J100000D01*
G01*
X167033000Y-56073000D01*
G75*
G02*
X167133000Y-55973000I100000J0D01*
G01*
X167333000Y-55973000D01*
G75*
G02*
X167433000Y-56073000I0J-100000D01*
G01*
X167433000Y-57348000D01*
G75*
G02*
X167333000Y-57448000I-100000J0D01*
G01*
G37*
%TD.AperFunction*%
%TO.P,U5,6*%
%TO.N,ADS1220_AIN3*%
%TA.AperFunction,SMDPad,CuDef*%
G36*
G01*
X166683000Y-57448000D02*
X166483000Y-57448000D01*
G75*
G02*
X166383000Y-57348000I0J100000D01*
G01*
X166383000Y-56073000D01*
G75*
G02*
X166483000Y-55973000I100000J0D01*
G01*
X166683000Y-55973000D01*
G75*
G02*
X166783000Y-56073000I0J-100000D01*
G01*
X166783000Y-57348000D01*
G75*
G02*
X166683000Y-57448000I-100000J0D01*
G01*
G37*
%TD.AperFunction*%
%TO.P,U5,5*%
%TO.N,RTD2IN-*%
%TA.AperFunction,SMDPad,CuDef*%
G36*
G01*
X166033000Y-57448000D02*
X165833000Y-57448000D01*
G75*
G02*
X165733000Y-57348000I0J100000D01*
G01*
X165733000Y-56073000D01*
G75*
G02*
X165833000Y-55973000I100000J0D01*
G01*
X166033000Y-55973000D01*
G75*
G02*
X166133000Y-56073000I0J-100000D01*
G01*
X166133000Y-57348000D01*
G75*
G02*
X166033000Y-57448000I-100000J0D01*
G01*
G37*
%TD.AperFunction*%
%TO.P,U5,4*%
%TA.AperFunction,SMDPad,CuDef*%
G36*
G01*
X165383000Y-57448000D02*
X165183000Y-57448000D01*
G75*
G02*
X165083000Y-57348000I0J100000D01*
G01*
X165083000Y-56073000D01*
G75*
G02*
X165183000Y-55973000I100000J0D01*
G01*
X165383000Y-55973000D01*
G75*
G02*
X165483000Y-56073000I0J-100000D01*
G01*
X165483000Y-57348000D01*
G75*
G02*
X165383000Y-57448000I-100000J0D01*
G01*
G37*
%TD.AperFunction*%
%TO.P,U5,3*%
%TA.AperFunction,SMDPad,CuDef*%
G36*
G01*
X164733000Y-57448000D02*
X164533000Y-57448000D01*
G75*
G02*
X164433000Y-57348000I0J100000D01*
G01*
X164433000Y-56073000D01*
G75*
G02*
X164533000Y-55973000I100000J0D01*
G01*
X164733000Y-55973000D01*
G75*
G02*
X164833000Y-56073000I0J-100000D01*
G01*
X164833000Y-57348000D01*
G75*
G02*
X164733000Y-57448000I-100000J0D01*
G01*
G37*
%TD.AperFunction*%
%TO.P,U5,2*%
%TO.N,ADS1220_CS*%
%TA.AperFunction,SMDPad,CuDef*%
G36*
G01*
X164083000Y-57448000D02*
X163883000Y-57448000D01*
G75*
G02*
X163783000Y-57348000I0J100000D01*
G01*
X163783000Y-56073000D01*
G75*
G02*
X163883000Y-55973000I100000J0D01*
G01*
X164083000Y-55973000D01*
G75*
G02*
X164183000Y-56073000I0J-100000D01*
G01*
X164183000Y-57348000D01*
G75*
G02*
X164083000Y-57448000I-100000J0D01*
G01*
G37*
%TD.AperFunction*%
%TO.P,U5,1*%
%TO.N,SPI1_SCLK*%
%TA.AperFunction,SMDPad,CuDef*%
G36*
G01*
X163433000Y-57448000D02*
X163233000Y-57448000D01*
G75*
G02*
X163133000Y-57348000I0J100000D01*
G01*
X163133000Y-56073000D01*
G75*
G02*
X163233000Y-55973000I100000J0D01*
G01*
X163433000Y-55973000D01*
G75*
G02*
X163533000Y-56073000I0J-100000D01*
G01*
X163533000Y-57348000D01*
G75*
G02*
X163433000Y-57448000I-100000J0D01*
G01*
G37*
%TD.AperFunction*%
%TD*%
%TA.AperFunction,SMDPad,CuDef*%
D10*
%TO.P,U4,160*%
%TO.N,Net-(U4-Pad160)*%
G36*
X135810000Y-56183000D02*
G01*
X135810000Y-57323000D01*
X135610000Y-57323000D01*
X135610000Y-56183000D01*
X135810000Y-56183000D01*
G37*
%TD.AperFunction*%
%TA.AperFunction,SMDPad,CuDef*%
%TO.P,U4,159*%
%TO.N,Net-(U4-Pad159)*%
G36*
X135810000Y-59263000D02*
G01*
X135810000Y-60403000D01*
X135610000Y-60403000D01*
X135610000Y-59263000D01*
X135810000Y-59263000D01*
G37*
%TD.AperFunction*%
%TA.AperFunction,SMDPad,CuDef*%
%TO.P,U4,158*%
%TO.N,Net-(U4-Pad158)*%
G36*
X136210000Y-56183000D02*
G01*
X136210000Y-57323000D01*
X136010000Y-57323000D01*
X136010000Y-56183000D01*
X136210000Y-56183000D01*
G37*
%TD.AperFunction*%
%TA.AperFunction,SMDPad,CuDef*%
%TO.P,U4,157*%
%TO.N,Net-(U4-Pad157)*%
G36*
X136210000Y-59263000D02*
G01*
X136210000Y-60403000D01*
X136010000Y-60403000D01*
X136010000Y-59263000D01*
X136210000Y-59263000D01*
G37*
%TD.AperFunction*%
%TA.AperFunction,SMDPad,CuDef*%
%TO.P,U4,156*%
%TO.N,Net-(U4-Pad156)*%
G36*
X136610000Y-56183000D02*
G01*
X136610000Y-57323000D01*
X136410000Y-57323000D01*
X136410000Y-56183000D01*
X136610000Y-56183000D01*
G37*
%TD.AperFunction*%
%TA.AperFunction,SMDPad,CuDef*%
%TO.P,U4,155*%
%TO.N,Net-(U4-Pad155)*%
G36*
X136610000Y-59263000D02*
G01*
X136610000Y-60403000D01*
X136410000Y-60403000D01*
X136410000Y-59263000D01*
X136610000Y-59263000D01*
G37*
%TD.AperFunction*%
%TA.AperFunction,SMDPad,CuDef*%
%TO.P,U4,154*%
%TO.N,Net-(U4-Pad154)*%
G36*
X137010000Y-56183000D02*
G01*
X137010000Y-57323000D01*
X136810000Y-57323000D01*
X136810000Y-56183000D01*
X137010000Y-56183000D01*
G37*
%TD.AperFunction*%
%TA.AperFunction,SMDPad,CuDef*%
%TO.P,U4,153*%
%TO.N,Net-(U4-Pad153)*%
G36*
X137010000Y-59263000D02*
G01*
X137010000Y-60403000D01*
X136810000Y-60403000D01*
X136810000Y-59263000D01*
X137010000Y-59263000D01*
G37*
%TD.AperFunction*%
%TA.AperFunction,SMDPad,CuDef*%
%TO.P,U4,152*%
%TO.N,Net-(U4-Pad152)*%
G36*
X137410000Y-56183000D02*
G01*
X137410000Y-57323000D01*
X137210000Y-57323000D01*
X137210000Y-56183000D01*
X137410000Y-56183000D01*
G37*
%TD.AperFunction*%
%TA.AperFunction,SMDPad,CuDef*%
%TO.P,U4,151*%
%TO.N,Net-(U4-Pad151)*%
G36*
X137410000Y-59263000D02*
G01*
X137410000Y-60403000D01*
X137210000Y-60403000D01*
X137210000Y-59263000D01*
X137410000Y-59263000D01*
G37*
%TD.AperFunction*%
%TA.AperFunction,SMDPad,CuDef*%
%TO.P,U4,150*%
%TO.N,Net-(U4-Pad150)*%
G36*
X137810000Y-56183000D02*
G01*
X137810000Y-57323000D01*
X137610000Y-57323000D01*
X137610000Y-56183000D01*
X137810000Y-56183000D01*
G37*
%TD.AperFunction*%
%TA.AperFunction,SMDPad,CuDef*%
%TO.P,U4,149*%
%TO.N,Net-(U4-Pad149)*%
G36*
X137810000Y-59263000D02*
G01*
X137810000Y-60403000D01*
X137610000Y-60403000D01*
X137610000Y-59263000D01*
X137810000Y-59263000D01*
G37*
%TD.AperFunction*%
%TA.AperFunction,SMDPad,CuDef*%
%TO.P,U4,148*%
%TO.N,Net-(U4-Pad148)*%
G36*
X138210000Y-56183000D02*
G01*
X138210000Y-57323000D01*
X138010000Y-57323000D01*
X138010000Y-56183000D01*
X138210000Y-56183000D01*
G37*
%TD.AperFunction*%
%TA.AperFunction,SMDPad,CuDef*%
%TO.P,U4,147*%
%TO.N,Net-(U4-Pad147)*%
G36*
X138210000Y-59263000D02*
G01*
X138210000Y-60403000D01*
X138010000Y-60403000D01*
X138010000Y-59263000D01*
X138210000Y-59263000D01*
G37*
%TD.AperFunction*%
%TA.AperFunction,SMDPad,CuDef*%
%TO.P,U4,146*%
%TO.N,Net-(U4-Pad146)*%
G36*
X138610000Y-56183000D02*
G01*
X138610000Y-57323000D01*
X138410000Y-57323000D01*
X138410000Y-56183000D01*
X138610000Y-56183000D01*
G37*
%TD.AperFunction*%
%TA.AperFunction,SMDPad,CuDef*%
%TO.P,U4,145*%
%TO.N,Net-(U4-Pad145)*%
G36*
X138610000Y-59263000D02*
G01*
X138610000Y-60403000D01*
X138410000Y-60403000D01*
X138410000Y-59263000D01*
X138610000Y-59263000D01*
G37*
%TD.AperFunction*%
%TA.AperFunction,SMDPad,CuDef*%
%TO.P,U4,144*%
%TO.N,Net-(U4-Pad144)*%
G36*
X139010000Y-56183000D02*
G01*
X139010000Y-57323000D01*
X138810000Y-57323000D01*
X138810000Y-56183000D01*
X139010000Y-56183000D01*
G37*
%TD.AperFunction*%
%TA.AperFunction,SMDPad,CuDef*%
%TO.P,U4,143*%
%TO.N,Net-(U4-Pad143)*%
G36*
X139010000Y-59263000D02*
G01*
X139010000Y-60403000D01*
X138810000Y-60403000D01*
X138810000Y-59263000D01*
X139010000Y-59263000D01*
G37*
%TD.AperFunction*%
%TA.AperFunction,SMDPad,CuDef*%
%TO.P,U4,142*%
%TO.N,Net-(U4-Pad142)*%
G36*
X139410000Y-56183000D02*
G01*
X139410000Y-57323000D01*
X139210000Y-57323000D01*
X139210000Y-56183000D01*
X139410000Y-56183000D01*
G37*
%TD.AperFunction*%
%TA.AperFunction,SMDPad,CuDef*%
%TO.P,U4,141*%
%TO.N,Net-(U4-Pad141)*%
G36*
X139410000Y-59263000D02*
G01*
X139410000Y-60403000D01*
X139210000Y-60403000D01*
X139210000Y-59263000D01*
X139410000Y-59263000D01*
G37*
%TD.AperFunction*%
%TA.AperFunction,SMDPad,CuDef*%
%TO.P,U4,140*%
%TO.N,+5V*%
G36*
X139810000Y-56183000D02*
G01*
X139810000Y-57323000D01*
X139610000Y-57323000D01*
X139610000Y-56183000D01*
X139810000Y-56183000D01*
G37*
%TD.AperFunction*%
%TA.AperFunction,SMDPad,CuDef*%
%TO.P,U4,139*%
%TO.N,RTD2IN-*%
G36*
X139810000Y-59263000D02*
G01*
X139810000Y-60403000D01*
X139610000Y-60403000D01*
X139610000Y-59263000D01*
X139810000Y-59263000D01*
G37*
%TD.AperFunction*%
%TA.AperFunction,SMDPad,CuDef*%
%TO.P,U4,138*%
%TO.N,Net-(U4-Pad138)*%
G36*
X140210000Y-56183000D02*
G01*
X140210000Y-57323000D01*
X140010000Y-57323000D01*
X140010000Y-56183000D01*
X140210000Y-56183000D01*
G37*
%TD.AperFunction*%
%TA.AperFunction,SMDPad,CuDef*%
%TO.P,U4,137*%
%TO.N,Net-(U4-Pad137)*%
G36*
X140210000Y-59263000D02*
G01*
X140210000Y-60403000D01*
X140010000Y-60403000D01*
X140010000Y-59263000D01*
X140210000Y-59263000D01*
G37*
%TD.AperFunction*%
%TA.AperFunction,SMDPad,CuDef*%
%TO.P,U4,136*%
%TO.N,Net-(U4-Pad136)*%
G36*
X140610000Y-56183000D02*
G01*
X140610000Y-57323000D01*
X140410000Y-57323000D01*
X140410000Y-56183000D01*
X140610000Y-56183000D01*
G37*
%TD.AperFunction*%
%TA.AperFunction,SMDPad,CuDef*%
%TO.P,U4,135*%
%TO.N,Net-(U4-Pad135)*%
G36*
X140610000Y-59263000D02*
G01*
X140610000Y-60403000D01*
X140410000Y-60403000D01*
X140410000Y-59263000D01*
X140610000Y-59263000D01*
G37*
%TD.AperFunction*%
%TA.AperFunction,SMDPad,CuDef*%
%TO.P,U4,134*%
%TO.N,Net-(U4-Pad134)*%
G36*
X141010000Y-56183000D02*
G01*
X141010000Y-57323000D01*
X140810000Y-57323000D01*
X140810000Y-56183000D01*
X141010000Y-56183000D01*
G37*
%TD.AperFunction*%
%TA.AperFunction,SMDPad,CuDef*%
%TO.P,U4,133*%
%TO.N,Net-(U4-Pad133)*%
G36*
X141010000Y-59263000D02*
G01*
X141010000Y-60403000D01*
X140810000Y-60403000D01*
X140810000Y-59263000D01*
X141010000Y-59263000D01*
G37*
%TD.AperFunction*%
%TA.AperFunction,SMDPad,CuDef*%
%TO.P,U4,132*%
%TO.N,Net-(U4-Pad132)*%
G36*
X141410000Y-56183000D02*
G01*
X141410000Y-57323000D01*
X141210000Y-57323000D01*
X141210000Y-56183000D01*
X141410000Y-56183000D01*
G37*
%TD.AperFunction*%
%TA.AperFunction,SMDPad,CuDef*%
%TO.P,U4,131*%
%TO.N,Net-(U4-Pad131)*%
G36*
X141410000Y-59263000D02*
G01*
X141410000Y-60403000D01*
X141210000Y-60403000D01*
X141210000Y-59263000D01*
X141410000Y-59263000D01*
G37*
%TD.AperFunction*%
%TA.AperFunction,SMDPad,CuDef*%
%TO.P,U4,130*%
%TO.N,RTD2IN-*%
G36*
X141810000Y-56183000D02*
G01*
X141810000Y-57323000D01*
X141610000Y-57323000D01*
X141610000Y-56183000D01*
X141810000Y-56183000D01*
G37*
%TD.AperFunction*%
%TA.AperFunction,SMDPad,CuDef*%
%TO.P,U4,129*%
%TO.N,+5V*%
G36*
X141810000Y-59263000D02*
G01*
X141810000Y-60403000D01*
X141610000Y-60403000D01*
X141610000Y-59263000D01*
X141810000Y-59263000D01*
G37*
%TD.AperFunction*%
%TA.AperFunction,SMDPad,CuDef*%
%TO.P,U4,128*%
%TO.N,Net-(U4-Pad128)*%
G36*
X142210000Y-56183000D02*
G01*
X142210000Y-57323000D01*
X142010000Y-57323000D01*
X142010000Y-56183000D01*
X142210000Y-56183000D01*
G37*
%TD.AperFunction*%
%TA.AperFunction,SMDPad,CuDef*%
%TO.P,U4,127*%
%TO.N,UART0_TX*%
G36*
X142210000Y-59263000D02*
G01*
X142210000Y-60403000D01*
X142010000Y-60403000D01*
X142010000Y-59263000D01*
X142210000Y-59263000D01*
G37*
%TD.AperFunction*%
%TA.AperFunction,SMDPad,CuDef*%
%TO.P,U4,126*%
%TO.N,Net-(U4-Pad126)*%
G36*
X142610000Y-56183000D02*
G01*
X142610000Y-57323000D01*
X142410000Y-57323000D01*
X142410000Y-56183000D01*
X142610000Y-56183000D01*
G37*
%TD.AperFunction*%
%TA.AperFunction,SMDPad,CuDef*%
%TO.P,U4,125*%
%TO.N,UART0_RX*%
G36*
X142610000Y-59263000D02*
G01*
X142610000Y-60403000D01*
X142410000Y-60403000D01*
X142410000Y-59263000D01*
X142610000Y-59263000D01*
G37*
%TD.AperFunction*%
%TA.AperFunction,SMDPad,CuDef*%
%TO.P,U4,124*%
%TO.N,Net-(U4-Pad124)*%
G36*
X143010000Y-56183000D02*
G01*
X143010000Y-57323000D01*
X142810000Y-57323000D01*
X142810000Y-56183000D01*
X143010000Y-56183000D01*
G37*
%TD.AperFunction*%
%TA.AperFunction,SMDPad,CuDef*%
%TO.P,U4,123*%
%TO.N,Net-(U4-Pad123)*%
G36*
X143010000Y-59263000D02*
G01*
X143010000Y-60403000D01*
X142810000Y-60403000D01*
X142810000Y-59263000D01*
X143010000Y-59263000D01*
G37*
%TD.AperFunction*%
%TA.AperFunction,SMDPad,CuDef*%
%TO.P,U4,122*%
%TO.N,Net-(U4-Pad122)*%
G36*
X143410000Y-56183000D02*
G01*
X143410000Y-57323000D01*
X143210000Y-57323000D01*
X143210000Y-56183000D01*
X143410000Y-56183000D01*
G37*
%TD.AperFunction*%
%TA.AperFunction,SMDPad,CuDef*%
%TO.P,U4,121*%
%TO.N,Net-(U4-Pad121)*%
G36*
X143410000Y-59263000D02*
G01*
X143410000Y-60403000D01*
X143210000Y-60403000D01*
X143210000Y-59263000D01*
X143410000Y-59263000D01*
G37*
%TD.AperFunction*%
%TA.AperFunction,SMDPad,CuDef*%
%TO.P,U4,120*%
%TO.N,+5V*%
G36*
X143810000Y-56183000D02*
G01*
X143810000Y-57323000D01*
X143610000Y-57323000D01*
X143610000Y-56183000D01*
X143810000Y-56183000D01*
G37*
%TD.AperFunction*%
%TA.AperFunction,SMDPad,CuDef*%
%TO.P,U4,119*%
%TO.N,RTD2IN-*%
G36*
X143810000Y-59263000D02*
G01*
X143810000Y-60403000D01*
X143610000Y-60403000D01*
X143610000Y-59263000D01*
X143810000Y-59263000D01*
G37*
%TD.AperFunction*%
%TA.AperFunction,SMDPad,CuDef*%
%TO.P,U4,118*%
%TO.N,I2C0_SDA*%
G36*
X144210000Y-56183000D02*
G01*
X144210000Y-57323000D01*
X144010000Y-57323000D01*
X144010000Y-56183000D01*
X144210000Y-56183000D01*
G37*
%TD.AperFunction*%
%TA.AperFunction,SMDPad,CuDef*%
%TO.P,U4,117*%
%TO.N,Net-(U4-Pad117)*%
G36*
X144210000Y-59263000D02*
G01*
X144210000Y-60403000D01*
X144010000Y-60403000D01*
X144010000Y-59263000D01*
X144210000Y-59263000D01*
G37*
%TD.AperFunction*%
%TA.AperFunction,SMDPad,CuDef*%
%TO.P,U4,116*%
%TO.N,I2C0_SCL*%
G36*
X144610000Y-56183000D02*
G01*
X144610000Y-57323000D01*
X144410000Y-57323000D01*
X144410000Y-56183000D01*
X144610000Y-56183000D01*
G37*
%TD.AperFunction*%
%TA.AperFunction,SMDPad,CuDef*%
%TO.P,U4,115*%
%TO.N,Net-(U4-Pad115)*%
G36*
X144610000Y-59263000D02*
G01*
X144610000Y-60403000D01*
X144410000Y-60403000D01*
X144410000Y-59263000D01*
X144610000Y-59263000D01*
G37*
%TD.AperFunction*%
%TA.AperFunction,SMDPad,CuDef*%
%TO.P,U4,114*%
%TO.N,RTD2IN-*%
G36*
X145010000Y-56183000D02*
G01*
X145010000Y-57323000D01*
X144810000Y-57323000D01*
X144810000Y-56183000D01*
X145010000Y-56183000D01*
G37*
%TD.AperFunction*%
%TA.AperFunction,SMDPad,CuDef*%
%TO.P,U4,113*%
%TO.N,+5V*%
G36*
X145010000Y-59263000D02*
G01*
X145010000Y-60403000D01*
X144810000Y-60403000D01*
X144810000Y-59263000D01*
X145010000Y-59263000D01*
G37*
%TD.AperFunction*%
%TA.AperFunction,SMDPad,CuDef*%
%TO.P,U4,112*%
%TO.N,Net-(U4-Pad112)*%
G36*
X145410000Y-56183000D02*
G01*
X145410000Y-57323000D01*
X145210000Y-57323000D01*
X145210000Y-56183000D01*
X145410000Y-56183000D01*
G37*
%TD.AperFunction*%
%TA.AperFunction,SMDPad,CuDef*%
%TO.P,U4,111*%
%TO.N,Net-(U4-Pad111)*%
G36*
X145410000Y-59263000D02*
G01*
X145410000Y-60403000D01*
X145210000Y-60403000D01*
X145210000Y-59263000D01*
X145410000Y-59263000D01*
G37*
%TD.AperFunction*%
%TA.AperFunction,SMDPad,CuDef*%
%TO.P,U4,110*%
%TO.N,Net-(U4-Pad110)*%
G36*
X145810000Y-56183000D02*
G01*
X145810000Y-57323000D01*
X145610000Y-57323000D01*
X145610000Y-56183000D01*
X145810000Y-56183000D01*
G37*
%TD.AperFunction*%
%TA.AperFunction,SMDPad,CuDef*%
%TO.P,U4,109*%
%TO.N,Net-(U4-Pad109)*%
G36*
X145810000Y-59263000D02*
G01*
X145810000Y-60403000D01*
X145610000Y-60403000D01*
X145610000Y-59263000D01*
X145810000Y-59263000D01*
G37*
%TD.AperFunction*%
%TA.AperFunction,SMDPad,CuDef*%
%TO.P,U4,108*%
%TO.N,Net-(U4-Pad108)*%
G36*
X146210000Y-56183000D02*
G01*
X146210000Y-57323000D01*
X146010000Y-57323000D01*
X146010000Y-56183000D01*
X146210000Y-56183000D01*
G37*
%TD.AperFunction*%
%TA.AperFunction,SMDPad,CuDef*%
%TO.P,U4,107*%
%TO.N,RTD2IN-*%
G36*
X146210000Y-59263000D02*
G01*
X146210000Y-60403000D01*
X146010000Y-60403000D01*
X146010000Y-59263000D01*
X146210000Y-59263000D01*
G37*
%TD.AperFunction*%
%TA.AperFunction,SMDPad,CuDef*%
%TO.P,U4,106*%
%TO.N,SDC_CLK*%
G36*
X146610000Y-56183000D02*
G01*
X146610000Y-57323000D01*
X146410000Y-57323000D01*
X146410000Y-56183000D01*
X146610000Y-56183000D01*
G37*
%TD.AperFunction*%
%TA.AperFunction,SMDPad,CuDef*%
%TO.P,U4,105*%
%TO.N,SPI2_SCLK*%
G36*
X146610000Y-59263000D02*
G01*
X146610000Y-60403000D01*
X146410000Y-60403000D01*
X146410000Y-59263000D01*
X146610000Y-59263000D01*
G37*
%TD.AperFunction*%
%TA.AperFunction,SMDPad,CuDef*%
%TO.P,U4,104*%
%TO.N,SDC_CMD*%
G36*
X147010000Y-56183000D02*
G01*
X147010000Y-57323000D01*
X146810000Y-57323000D01*
X146810000Y-56183000D01*
X147010000Y-56183000D01*
G37*
%TD.AperFunction*%
%TA.AperFunction,SMDPad,CuDef*%
%TO.P,U4,103*%
%TO.N,DISPLAY_CS*%
G36*
X147010000Y-59263000D02*
G01*
X147010000Y-60403000D01*
X146810000Y-60403000D01*
X146810000Y-59263000D01*
X147010000Y-59263000D01*
G37*
%TD.AperFunction*%
%TA.AperFunction,SMDPad,CuDef*%
%TO.P,U4,102*%
%TO.N,SDC_D0*%
G36*
X147410000Y-56183000D02*
G01*
X147410000Y-57323000D01*
X147210000Y-57323000D01*
X147210000Y-56183000D01*
X147410000Y-56183000D01*
G37*
%TD.AperFunction*%
%TA.AperFunction,SMDPad,CuDef*%
%TO.P,U4,101*%
%TO.N,Net-(U4-Pad101)*%
G36*
X147410000Y-59263000D02*
G01*
X147410000Y-60403000D01*
X147210000Y-60403000D01*
X147210000Y-59263000D01*
X147410000Y-59263000D01*
G37*
%TD.AperFunction*%
%TA.AperFunction,SMDPad,CuDef*%
%TO.P,U4,100*%
%TO.N,SDC_D1*%
G36*
X147810000Y-56183000D02*
G01*
X147810000Y-57323000D01*
X147610000Y-57323000D01*
X147610000Y-56183000D01*
X147810000Y-56183000D01*
G37*
%TD.AperFunction*%
%TA.AperFunction,SMDPad,CuDef*%
%TO.P,U4,99*%
%TO.N,SPI2_MOSI*%
G36*
X147810000Y-59263000D02*
G01*
X147810000Y-60403000D01*
X147610000Y-60403000D01*
X147610000Y-59263000D01*
X147810000Y-59263000D01*
G37*
%TD.AperFunction*%
%TA.AperFunction,SMDPad,CuDef*%
%TO.P,U4,98*%
%TO.N,SDC_D2*%
G36*
X148210000Y-56183000D02*
G01*
X148210000Y-57323000D01*
X148010000Y-57323000D01*
X148010000Y-56183000D01*
X148210000Y-56183000D01*
G37*
%TD.AperFunction*%
%TA.AperFunction,SMDPad,CuDef*%
%TO.P,U4,97*%
%TO.N,Net-(U4-Pad97)*%
G36*
X148210000Y-59263000D02*
G01*
X148210000Y-60403000D01*
X148010000Y-60403000D01*
X148010000Y-59263000D01*
X148210000Y-59263000D01*
G37*
%TD.AperFunction*%
%TA.AperFunction,SMDPad,CuDef*%
%TO.P,U4,96*%
%TO.N,SDC_D3*%
G36*
X148610000Y-56183000D02*
G01*
X148610000Y-57323000D01*
X148410000Y-57323000D01*
X148410000Y-56183000D01*
X148610000Y-56183000D01*
G37*
%TD.AperFunction*%
%TA.AperFunction,SMDPad,CuDef*%
%TO.P,U4,95*%
%TO.N,Net-(U4-Pad95)*%
G36*
X148610000Y-59263000D02*
G01*
X148610000Y-60403000D01*
X148410000Y-60403000D01*
X148410000Y-59263000D01*
X148610000Y-59263000D01*
G37*
%TD.AperFunction*%
%TA.AperFunction,SMDPad,CuDef*%
%TO.P,U4,94*%
%TO.N,Net-(U4-Pad94)*%
G36*
X149010000Y-56183000D02*
G01*
X149010000Y-57323000D01*
X148810000Y-57323000D01*
X148810000Y-56183000D01*
X149010000Y-56183000D01*
G37*
%TD.AperFunction*%
%TA.AperFunction,SMDPad,CuDef*%
%TO.P,U4,93*%
%TO.N,Net-(U4-Pad93)*%
G36*
X149010000Y-59263000D02*
G01*
X149010000Y-60403000D01*
X148810000Y-60403000D01*
X148810000Y-59263000D01*
X149010000Y-59263000D01*
G37*
%TD.AperFunction*%
%TA.AperFunction,SMDPad,CuDef*%
%TO.P,U4,92*%
%TO.N,Net-(U4-Pad92)*%
G36*
X149410000Y-56183000D02*
G01*
X149410000Y-57323000D01*
X149210000Y-57323000D01*
X149210000Y-56183000D01*
X149410000Y-56183000D01*
G37*
%TD.AperFunction*%
%TA.AperFunction,SMDPad,CuDef*%
%TO.P,U4,91*%
%TO.N,Net-(U4-Pad91)*%
G36*
X149410000Y-59263000D02*
G01*
X149410000Y-60403000D01*
X149210000Y-60403000D01*
X149210000Y-59263000D01*
X149410000Y-59263000D01*
G37*
%TD.AperFunction*%
%TA.AperFunction,SMDPad,CuDef*%
%TO.P,U4,90*%
%TO.N,Net-(U4-Pad90)*%
G36*
X149810000Y-56183000D02*
G01*
X149810000Y-57323000D01*
X149610000Y-57323000D01*
X149610000Y-56183000D01*
X149810000Y-56183000D01*
G37*
%TD.AperFunction*%
%TA.AperFunction,SMDPad,CuDef*%
%TO.P,U4,89*%
%TO.N,V_SDCARD*%
G36*
X149810000Y-59263000D02*
G01*
X149810000Y-60403000D01*
X149610000Y-60403000D01*
X149610000Y-59263000D01*
X149810000Y-59263000D01*
G37*
%TD.AperFunction*%
%TA.AperFunction,SMDPad,CuDef*%
%TO.P,U4,88*%
%TO.N,JTAG_RESET*%
G36*
X150210000Y-56183000D02*
G01*
X150210000Y-57323000D01*
X150010000Y-57323000D01*
X150010000Y-56183000D01*
X150210000Y-56183000D01*
G37*
%TD.AperFunction*%
%TA.AperFunction,SMDPad,CuDef*%
%TO.P,U4,87*%
%TO.N,Net-(U4-Pad87)*%
G36*
X150210000Y-59263000D02*
G01*
X150210000Y-60403000D01*
X150010000Y-60403000D01*
X150010000Y-59263000D01*
X150210000Y-59263000D01*
G37*
%TD.AperFunction*%
%TA.AperFunction,SMDPad,CuDef*%
%TO.P,U4,86*%
%TO.N,JTAG_TMS*%
G36*
X150610000Y-56183000D02*
G01*
X150610000Y-57323000D01*
X150410000Y-57323000D01*
X150410000Y-56183000D01*
X150610000Y-56183000D01*
G37*
%TD.AperFunction*%
%TA.AperFunction,SMDPad,CuDef*%
%TO.P,U4,85*%
%TO.N,Net-(U4-Pad85)*%
G36*
X150610000Y-59263000D02*
G01*
X150610000Y-60403000D01*
X150410000Y-60403000D01*
X150410000Y-59263000D01*
X150610000Y-59263000D01*
G37*
%TD.AperFunction*%
%TA.AperFunction,SMDPad,CuDef*%
%TO.P,U4,84*%
%TO.N,JTAG_TCK*%
G36*
X151010000Y-56183000D02*
G01*
X151010000Y-57323000D01*
X150810000Y-57323000D01*
X150810000Y-56183000D01*
X151010000Y-56183000D01*
G37*
%TD.AperFunction*%
%TA.AperFunction,SMDPad,CuDef*%
%TO.P,U4,83*%
%TO.N,Net-(U4-Pad83)*%
G36*
X151010000Y-59263000D02*
G01*
X151010000Y-60403000D01*
X150810000Y-60403000D01*
X150810000Y-59263000D01*
X151010000Y-59263000D01*
G37*
%TD.AperFunction*%
%TA.AperFunction,SMDPad,CuDef*%
%TO.P,U4,82*%
%TO.N,JTAG_TDO*%
G36*
X151410000Y-56183000D02*
G01*
X151410000Y-57323000D01*
X151210000Y-57323000D01*
X151210000Y-56183000D01*
X151410000Y-56183000D01*
G37*
%TD.AperFunction*%
%TA.AperFunction,SMDPad,CuDef*%
%TO.P,U4,80*%
%TO.N,PSSR_EN_3V3*%
G36*
X135810000Y-99363000D02*
G01*
X135810000Y-100503000D01*
X135610000Y-100503000D01*
X135610000Y-99363000D01*
X135810000Y-99363000D01*
G37*
%TD.AperFunction*%
%TA.AperFunction,SMDPad,CuDef*%
%TO.P,U4,79*%
%TO.N,Net-(U4-Pad79)*%
G36*
X135810000Y-102443000D02*
G01*
X135810000Y-103583000D01*
X135610000Y-103583000D01*
X135610000Y-102443000D01*
X135810000Y-102443000D01*
G37*
%TD.AperFunction*%
%TA.AperFunction,SMDPad,CuDef*%
%TO.P,U4,78*%
%TO.N,PSSR_DAC_3V3*%
G36*
X136210000Y-99363000D02*
G01*
X136210000Y-100503000D01*
X136010000Y-100503000D01*
X136010000Y-99363000D01*
X136210000Y-99363000D01*
G37*
%TD.AperFunction*%
%TA.AperFunction,SMDPad,CuDef*%
%TO.P,U4,77*%
%TO.N,Net-(U4-Pad77)*%
G36*
X136210000Y-102443000D02*
G01*
X136210000Y-103583000D01*
X136010000Y-103583000D01*
X136010000Y-102443000D01*
X136210000Y-102443000D01*
G37*
%TD.AperFunction*%
%TA.AperFunction,SMDPad,CuDef*%
%TO.P,U4,76*%
%TO.N,DISPLAY_RES*%
G36*
X136610000Y-99363000D02*
G01*
X136610000Y-100503000D01*
X136410000Y-100503000D01*
X136410000Y-99363000D01*
X136610000Y-99363000D01*
G37*
%TD.AperFunction*%
%TA.AperFunction,SMDPad,CuDef*%
%TO.P,U4,75*%
%TO.N,Net-(U4-Pad75)*%
G36*
X136610000Y-102443000D02*
G01*
X136610000Y-103583000D01*
X136410000Y-103583000D01*
X136410000Y-102443000D01*
X136610000Y-102443000D01*
G37*
%TD.AperFunction*%
%TA.AperFunction,SMDPad,CuDef*%
%TO.P,U4,74*%
%TO.N,DISPLAY_DC*%
G36*
X137010000Y-99363000D02*
G01*
X137010000Y-100503000D01*
X136810000Y-100503000D01*
X136810000Y-99363000D01*
X137010000Y-99363000D01*
G37*
%TD.AperFunction*%
%TA.AperFunction,SMDPad,CuDef*%
%TO.P,U4,73*%
%TO.N,Net-(R4-Pad2)*%
G36*
X137010000Y-102443000D02*
G01*
X137010000Y-103583000D01*
X136810000Y-103583000D01*
X136810000Y-102443000D01*
X137010000Y-102443000D01*
G37*
%TD.AperFunction*%
%TA.AperFunction,SMDPad,CuDef*%
%TO.P,U4,72*%
%TO.N,RTD2IN-*%
G36*
X137410000Y-99363000D02*
G01*
X137410000Y-100503000D01*
X137210000Y-100503000D01*
X137210000Y-99363000D01*
X137410000Y-99363000D01*
G37*
%TD.AperFunction*%
%TA.AperFunction,SMDPad,CuDef*%
%TO.P,U4,71*%
%TO.N,Net-(R17-Pad2)*%
G36*
X137410000Y-102443000D02*
G01*
X137410000Y-103583000D01*
X137210000Y-103583000D01*
X137210000Y-102443000D01*
X137410000Y-102443000D01*
G37*
%TD.AperFunction*%
%TA.AperFunction,SMDPad,CuDef*%
%TO.P,U4,70*%
%TO.N,RTD2IN-*%
G36*
X137810000Y-99363000D02*
G01*
X137810000Y-100503000D01*
X137610000Y-100503000D01*
X137610000Y-99363000D01*
X137810000Y-99363000D01*
G37*
%TD.AperFunction*%
%TA.AperFunction,SMDPad,CuDef*%
%TO.P,U4,69*%
%TO.N,+3V3*%
G36*
X137810000Y-102443000D02*
G01*
X137810000Y-103583000D01*
X137610000Y-103583000D01*
X137610000Y-102443000D01*
X137810000Y-102443000D01*
G37*
%TD.AperFunction*%
%TA.AperFunction,SMDPad,CuDef*%
%TO.P,U4,68*%
%TO.N,SPI5_SCK*%
G36*
X138210000Y-99363000D02*
G01*
X138210000Y-100503000D01*
X138010000Y-100503000D01*
X138010000Y-99363000D01*
X138210000Y-99363000D01*
G37*
%TD.AperFunction*%
%TA.AperFunction,SMDPad,CuDef*%
%TO.P,U4,67*%
%TO.N,SPI5_MISO*%
G36*
X138210000Y-102443000D02*
G01*
X138210000Y-103583000D01*
X138010000Y-103583000D01*
X138010000Y-102443000D01*
X138210000Y-102443000D01*
G37*
%TD.AperFunction*%
%TA.AperFunction,SMDPad,CuDef*%
%TO.P,U4,66*%
%TO.N,SPI5_MOSI*%
G36*
X138610000Y-99363000D02*
G01*
X138610000Y-100503000D01*
X138410000Y-100503000D01*
X138410000Y-99363000D01*
X138610000Y-99363000D01*
G37*
%TD.AperFunction*%
%TA.AperFunction,SMDPad,CuDef*%
%TO.P,U4,65*%
%TO.N,Net-(U4-Pad65)*%
G36*
X138610000Y-102443000D02*
G01*
X138610000Y-103583000D01*
X138410000Y-103583000D01*
X138410000Y-102443000D01*
X138610000Y-102443000D01*
G37*
%TD.AperFunction*%
%TA.AperFunction,SMDPad,CuDef*%
%TO.P,U4,64*%
%TO.N,Net-(U4-Pad64)*%
G36*
X139010000Y-99363000D02*
G01*
X139010000Y-100503000D01*
X138810000Y-100503000D01*
X138810000Y-99363000D01*
X139010000Y-99363000D01*
G37*
%TD.AperFunction*%
%TA.AperFunction,SMDPad,CuDef*%
%TO.P,U4,63*%
%TO.N,ENC_CLK*%
G36*
X139010000Y-102443000D02*
G01*
X139010000Y-103583000D01*
X138810000Y-103583000D01*
X138810000Y-102443000D01*
X139010000Y-102443000D01*
G37*
%TD.AperFunction*%
%TA.AperFunction,SMDPad,CuDef*%
%TO.P,U4,62*%
%TO.N,BTN_STEAM*%
G36*
X139410000Y-99363000D02*
G01*
X139410000Y-100503000D01*
X139210000Y-100503000D01*
X139210000Y-99363000D01*
X139410000Y-99363000D01*
G37*
%TD.AperFunction*%
%TA.AperFunction,SMDPad,CuDef*%
%TO.P,U4,61*%
%TO.N,ENC_DT*%
G36*
X139410000Y-102443000D02*
G01*
X139410000Y-103583000D01*
X139210000Y-103583000D01*
X139210000Y-102443000D01*
X139410000Y-102443000D01*
G37*
%TD.AperFunction*%
%TA.AperFunction,SMDPad,CuDef*%
%TO.P,U4,60*%
%TO.N,UEXT_CS*%
G36*
X139810000Y-99363000D02*
G01*
X139810000Y-100503000D01*
X139610000Y-100503000D01*
X139610000Y-99363000D01*
X139810000Y-99363000D01*
G37*
%TD.AperFunction*%
%TA.AperFunction,SMDPad,CuDef*%
%TO.P,U4,59*%
%TO.N,ENC_SW*%
G36*
X139810000Y-102443000D02*
G01*
X139810000Y-103583000D01*
X139610000Y-103583000D01*
X139610000Y-102443000D01*
X139810000Y-102443000D01*
G37*
%TD.AperFunction*%
%TA.AperFunction,SMDPad,CuDef*%
%TO.P,U4,58*%
%TO.N,BTN_WATER*%
G36*
X140210000Y-99363000D02*
G01*
X140210000Y-100503000D01*
X140010000Y-100503000D01*
X140010000Y-99363000D01*
X140210000Y-99363000D01*
G37*
%TD.AperFunction*%
%TA.AperFunction,SMDPad,CuDef*%
%TO.P,U4,57*%
%TO.N,RTD2IN-*%
G36*
X140210000Y-102443000D02*
G01*
X140210000Y-103583000D01*
X140010000Y-103583000D01*
X140010000Y-102443000D01*
X140210000Y-102443000D01*
G37*
%TD.AperFunction*%
%TA.AperFunction,SMDPad,CuDef*%
%TO.P,U4,56*%
%TO.N,BTN_BREW*%
G36*
X140610000Y-99363000D02*
G01*
X140610000Y-100503000D01*
X140410000Y-100503000D01*
X140410000Y-99363000D01*
X140610000Y-99363000D01*
G37*
%TD.AperFunction*%
%TA.AperFunction,SMDPad,CuDef*%
%TO.P,U4,55*%
%TO.N,Net-(U4-Pad55)*%
G36*
X140610000Y-102443000D02*
G01*
X140610000Y-103583000D01*
X140410000Y-103583000D01*
X140410000Y-102443000D01*
X140610000Y-102443000D01*
G37*
%TD.AperFunction*%
%TA.AperFunction,SMDPad,CuDef*%
%TO.P,U4,54*%
%TO.N,SSR3_GATE*%
G36*
X141010000Y-99363000D02*
G01*
X141010000Y-100503000D01*
X140810000Y-100503000D01*
X140810000Y-99363000D01*
X141010000Y-99363000D01*
G37*
%TD.AperFunction*%
%TA.AperFunction,SMDPad,CuDef*%
%TO.P,U4,53*%
%TO.N,Net-(U4-Pad53)*%
G36*
X141010000Y-102443000D02*
G01*
X141010000Y-103583000D01*
X140810000Y-103583000D01*
X140810000Y-102443000D01*
X141010000Y-102443000D01*
G37*
%TD.AperFunction*%
%TA.AperFunction,SMDPad,CuDef*%
%TO.P,U4,52*%
%TO.N,SSR2_GATE*%
G36*
X141410000Y-99363000D02*
G01*
X141410000Y-100503000D01*
X141210000Y-100503000D01*
X141210000Y-99363000D01*
X141410000Y-99363000D01*
G37*
%TD.AperFunction*%
%TA.AperFunction,SMDPad,CuDef*%
%TO.P,U4,51*%
%TO.N,Net-(U4-Pad51)*%
G36*
X141410000Y-102443000D02*
G01*
X141410000Y-103583000D01*
X141210000Y-103583000D01*
X141210000Y-102443000D01*
X141410000Y-102443000D01*
G37*
%TD.AperFunction*%
%TA.AperFunction,SMDPad,CuDef*%
%TO.P,U4,50*%
%TO.N,SSR1_GATE*%
G36*
X141810000Y-99363000D02*
G01*
X141810000Y-100503000D01*
X141610000Y-100503000D01*
X141610000Y-99363000D01*
X141810000Y-99363000D01*
G37*
%TD.AperFunction*%
%TA.AperFunction,SMDPad,CuDef*%
%TO.P,U4,49*%
%TO.N,Net-(U4-Pad49)*%
G36*
X141810000Y-102443000D02*
G01*
X141810000Y-103583000D01*
X141610000Y-103583000D01*
X141610000Y-102443000D01*
X141810000Y-102443000D01*
G37*
%TD.AperFunction*%
%TA.AperFunction,SMDPad,CuDef*%
%TO.P,U4,48*%
%TO.N,Net-(U4-Pad48)*%
G36*
X142210000Y-99363000D02*
G01*
X142210000Y-100503000D01*
X142010000Y-100503000D01*
X142010000Y-99363000D01*
X142210000Y-99363000D01*
G37*
%TD.AperFunction*%
%TA.AperFunction,SMDPad,CuDef*%
%TO.P,U4,47*%
%TO.N,Net-(U4-Pad47)*%
G36*
X142210000Y-102443000D02*
G01*
X142210000Y-103583000D01*
X142010000Y-103583000D01*
X142010000Y-102443000D01*
X142210000Y-102443000D01*
G37*
%TD.AperFunction*%
%TA.AperFunction,SMDPad,CuDef*%
%TO.P,U4,46*%
%TO.N,ADS1220_DRDY*%
G36*
X142610000Y-99363000D02*
G01*
X142610000Y-100503000D01*
X142410000Y-100503000D01*
X142410000Y-99363000D01*
X142610000Y-99363000D01*
G37*
%TD.AperFunction*%
%TA.AperFunction,SMDPad,CuDef*%
%TO.P,U4,45*%
%TO.N,Net-(U4-Pad45)*%
G36*
X142610000Y-102443000D02*
G01*
X142610000Y-103583000D01*
X142410000Y-103583000D01*
X142410000Y-102443000D01*
X142610000Y-102443000D01*
G37*
%TD.AperFunction*%
%TA.AperFunction,SMDPad,CuDef*%
%TO.P,U4,44*%
%TO.N,RTD2IN-*%
G36*
X143010000Y-99363000D02*
G01*
X143010000Y-100503000D01*
X142810000Y-100503000D01*
X142810000Y-99363000D01*
X143010000Y-99363000D01*
G37*
%TD.AperFunction*%
%TA.AperFunction,SMDPad,CuDef*%
%TO.P,U4,43*%
%TO.N,+3V3*%
G36*
X143010000Y-102443000D02*
G01*
X143010000Y-103583000D01*
X142810000Y-103583000D01*
X142810000Y-102443000D01*
X143010000Y-102443000D01*
G37*
%TD.AperFunction*%
%TA.AperFunction,SMDPad,CuDef*%
%TO.P,U4,42*%
%TO.N,SPI1_MOSI*%
G36*
X143410000Y-99363000D02*
G01*
X143410000Y-100503000D01*
X143210000Y-100503000D01*
X143210000Y-99363000D01*
X143410000Y-99363000D01*
G37*
%TD.AperFunction*%
%TA.AperFunction,SMDPad,CuDef*%
%TO.P,U4,41*%
%TO.N,Net-(U4-Pad41)*%
G36*
X143410000Y-102443000D02*
G01*
X143410000Y-103583000D01*
X143210000Y-103583000D01*
X143210000Y-102443000D01*
X143410000Y-102443000D01*
G37*
%TD.AperFunction*%
%TA.AperFunction,SMDPad,CuDef*%
%TO.P,U4,40*%
%TO.N,SPI1_MISO*%
G36*
X143810000Y-99363000D02*
G01*
X143810000Y-100503000D01*
X143610000Y-100503000D01*
X143610000Y-99363000D01*
X143810000Y-99363000D01*
G37*
%TD.AperFunction*%
%TA.AperFunction,SMDPad,CuDef*%
%TO.P,U4,39*%
%TO.N,Net-(U4-Pad39)*%
G36*
X143810000Y-102443000D02*
G01*
X143810000Y-103583000D01*
X143610000Y-103583000D01*
X143610000Y-102443000D01*
X143810000Y-102443000D01*
G37*
%TD.AperFunction*%
%TA.AperFunction,SMDPad,CuDef*%
%TO.P,U4,38*%
%TO.N,SPI1_SCLK*%
G36*
X144210000Y-99363000D02*
G01*
X144210000Y-100503000D01*
X144010000Y-100503000D01*
X144010000Y-99363000D01*
X144210000Y-99363000D01*
G37*
%TD.AperFunction*%
%TA.AperFunction,SMDPad,CuDef*%
%TO.P,U4,37*%
%TO.N,Net-(U4-Pad37)*%
G36*
X144210000Y-102443000D02*
G01*
X144210000Y-103583000D01*
X144010000Y-103583000D01*
X144010000Y-102443000D01*
X144210000Y-102443000D01*
G37*
%TD.AperFunction*%
%TA.AperFunction,SMDPad,CuDef*%
%TO.P,U4,36*%
%TO.N,ADS1220_CS*%
G36*
X144610000Y-99363000D02*
G01*
X144610000Y-100503000D01*
X144410000Y-100503000D01*
X144410000Y-99363000D01*
X144610000Y-99363000D01*
G37*
%TD.AperFunction*%
%TA.AperFunction,SMDPad,CuDef*%
%TO.P,U4,35*%
%TO.N,Net-(U4-Pad35)*%
G36*
X144610000Y-102443000D02*
G01*
X144610000Y-103583000D01*
X144410000Y-103583000D01*
X144410000Y-102443000D01*
X144610000Y-102443000D01*
G37*
%TD.AperFunction*%
%TA.AperFunction,SMDPad,CuDef*%
%TO.P,U4,34*%
%TO.N,+3V3*%
G36*
X145010000Y-99363000D02*
G01*
X145010000Y-100503000D01*
X144810000Y-100503000D01*
X144810000Y-99363000D01*
X145010000Y-99363000D01*
G37*
%TD.AperFunction*%
%TA.AperFunction,SMDPad,CuDef*%
%TO.P,U4,33*%
%TO.N,RTD2IN-*%
G36*
X145010000Y-102443000D02*
G01*
X145010000Y-103583000D01*
X144810000Y-103583000D01*
X144810000Y-102443000D01*
X145010000Y-102443000D01*
G37*
%TD.AperFunction*%
%TA.AperFunction,SMDPad,CuDef*%
%TO.P,U4,32*%
%TO.N,Net-(U4-Pad32)*%
G36*
X145410000Y-99363000D02*
G01*
X145410000Y-100503000D01*
X145210000Y-100503000D01*
X145210000Y-99363000D01*
X145410000Y-99363000D01*
G37*
%TD.AperFunction*%
%TA.AperFunction,SMDPad,CuDef*%
%TO.P,U4,31*%
%TO.N,Net-(U4-Pad31)*%
G36*
X145410000Y-102443000D02*
G01*
X145410000Y-103583000D01*
X145210000Y-103583000D01*
X145210000Y-102443000D01*
X145410000Y-102443000D01*
G37*
%TD.AperFunction*%
%TA.AperFunction,SMDPad,CuDef*%
%TO.P,U4,30*%
%TO.N,Net-(U4-Pad30)*%
G36*
X145810000Y-99363000D02*
G01*
X145810000Y-100503000D01*
X145610000Y-100503000D01*
X145610000Y-99363000D01*
X145810000Y-99363000D01*
G37*
%TD.AperFunction*%
%TA.AperFunction,SMDPad,CuDef*%
%TO.P,U4,29*%
%TO.N,Net-(U4-Pad29)*%
G36*
X145810000Y-102443000D02*
G01*
X145810000Y-103583000D01*
X145610000Y-103583000D01*
X145610000Y-102443000D01*
X145810000Y-102443000D01*
G37*
%TD.AperFunction*%
%TA.AperFunction,SMDPad,CuDef*%
%TO.P,U4,28*%
%TO.N,Net-(U4-Pad28)*%
G36*
X146210000Y-99363000D02*
G01*
X146210000Y-100503000D01*
X146010000Y-100503000D01*
X146010000Y-99363000D01*
X146210000Y-99363000D01*
G37*
%TD.AperFunction*%
%TA.AperFunction,SMDPad,CuDef*%
%TO.P,U4,27*%
%TO.N,Net-(U4-Pad27)*%
G36*
X146210000Y-102443000D02*
G01*
X146210000Y-103583000D01*
X146010000Y-103583000D01*
X146010000Y-102443000D01*
X146210000Y-102443000D01*
G37*
%TD.AperFunction*%
%TA.AperFunction,SMDPad,CuDef*%
%TO.P,U4,26*%
%TO.N,Net-(U4-Pad26)*%
G36*
X146610000Y-99363000D02*
G01*
X146610000Y-100503000D01*
X146410000Y-100503000D01*
X146410000Y-99363000D01*
X146610000Y-99363000D01*
G37*
%TD.AperFunction*%
%TA.AperFunction,SMDPad,CuDef*%
%TO.P,U4,25*%
%TO.N,Net-(U4-Pad25)*%
G36*
X146610000Y-102443000D02*
G01*
X146610000Y-103583000D01*
X146410000Y-103583000D01*
X146410000Y-102443000D01*
X146610000Y-102443000D01*
G37*
%TD.AperFunction*%
%TA.AperFunction,SMDPad,CuDef*%
%TO.P,U4,24*%
%TO.N,RTD2IN-*%
G36*
X147010000Y-99363000D02*
G01*
X147010000Y-100503000D01*
X146810000Y-100503000D01*
X146810000Y-99363000D01*
X147010000Y-99363000D01*
G37*
%TD.AperFunction*%
%TA.AperFunction,SMDPad,CuDef*%
%TO.P,U4,23*%
%TO.N,+3V3*%
G36*
X147010000Y-102443000D02*
G01*
X147010000Y-103583000D01*
X146810000Y-103583000D01*
X146810000Y-102443000D01*
X147010000Y-102443000D01*
G37*
%TD.AperFunction*%
%TA.AperFunction,SMDPad,CuDef*%
%TO.P,U4,22*%
%TO.N,Net-(U4-Pad22)*%
G36*
X147410000Y-99363000D02*
G01*
X147410000Y-100503000D01*
X147210000Y-100503000D01*
X147210000Y-99363000D01*
X147410000Y-99363000D01*
G37*
%TD.AperFunction*%
%TA.AperFunction,SMDPad,CuDef*%
%TO.P,U4,21*%
%TO.N,Net-(U4-Pad21)*%
G36*
X147410000Y-102443000D02*
G01*
X147410000Y-103583000D01*
X147210000Y-103583000D01*
X147210000Y-102443000D01*
X147410000Y-102443000D01*
G37*
%TD.AperFunction*%
%TA.AperFunction,SMDPad,CuDef*%
%TO.P,U4,20*%
%TO.N,Net-(U4-Pad20)*%
G36*
X147810000Y-99363000D02*
G01*
X147810000Y-100503000D01*
X147610000Y-100503000D01*
X147610000Y-99363000D01*
X147810000Y-99363000D01*
G37*
%TD.AperFunction*%
%TA.AperFunction,SMDPad,CuDef*%
%TO.P,U4,19*%
%TO.N,Net-(U4-Pad19)*%
G36*
X147810000Y-102443000D02*
G01*
X147810000Y-103583000D01*
X147610000Y-103583000D01*
X147610000Y-102443000D01*
X147810000Y-102443000D01*
G37*
%TD.AperFunction*%
%TA.AperFunction,SMDPad,CuDef*%
%TO.P,U4,18*%
%TO.N,Net-(U4-Pad18)*%
G36*
X148210000Y-99363000D02*
G01*
X148210000Y-100503000D01*
X148010000Y-100503000D01*
X148010000Y-99363000D01*
X148210000Y-99363000D01*
G37*
%TD.AperFunction*%
%TA.AperFunction,SMDPad,CuDef*%
%TO.P,U4,17*%
%TO.N,Net-(U4-Pad17)*%
G36*
X148210000Y-102443000D02*
G01*
X148210000Y-103583000D01*
X148010000Y-103583000D01*
X148010000Y-102443000D01*
X148210000Y-102443000D01*
G37*
%TD.AperFunction*%
%TA.AperFunction,SMDPad,CuDef*%
%TO.P,U4,16*%
%TO.N,Net-(U4-Pad16)*%
G36*
X148610000Y-99363000D02*
G01*
X148610000Y-100503000D01*
X148410000Y-100503000D01*
X148410000Y-99363000D01*
X148610000Y-99363000D01*
G37*
%TD.AperFunction*%
%TA.AperFunction,SMDPad,CuDef*%
%TO.P,U4,15*%
%TO.N,Net-(U4-Pad15)*%
G36*
X148610000Y-102443000D02*
G01*
X148610000Y-103583000D01*
X148410000Y-103583000D01*
X148410000Y-102443000D01*
X148610000Y-102443000D01*
G37*
%TD.AperFunction*%
%TA.AperFunction,SMDPad,CuDef*%
%TO.P,U4,14*%
%TO.N,Net-(U4-Pad14)*%
G36*
X149010000Y-99363000D02*
G01*
X149010000Y-100503000D01*
X148810000Y-100503000D01*
X148810000Y-99363000D01*
X149010000Y-99363000D01*
G37*
%TD.AperFunction*%
%TA.AperFunction,SMDPad,CuDef*%
%TO.P,U4,13*%
%TO.N,Net-(U4-Pad13)*%
G36*
X149010000Y-102443000D02*
G01*
X149010000Y-103583000D01*
X148810000Y-103583000D01*
X148810000Y-102443000D01*
X149010000Y-102443000D01*
G37*
%TD.AperFunction*%
%TA.AperFunction,SMDPad,CuDef*%
%TO.P,U4,12*%
%TO.N,Net-(U4-Pad12)*%
G36*
X149410000Y-99363000D02*
G01*
X149410000Y-100503000D01*
X149210000Y-100503000D01*
X149210000Y-99363000D01*
X149410000Y-99363000D01*
G37*
%TD.AperFunction*%
%TA.AperFunction,SMDPad,CuDef*%
%TO.P,U4,11*%
%TO.N,Net-(U4-Pad11)*%
G36*
X149410000Y-102443000D02*
G01*
X149410000Y-103583000D01*
X149210000Y-103583000D01*
X149210000Y-102443000D01*
X149410000Y-102443000D01*
G37*
%TD.AperFunction*%
%TA.AperFunction,SMDPad,CuDef*%
%TO.P,U4,10*%
%TO.N,Net-(U4-Pad10)*%
G36*
X149810000Y-99363000D02*
G01*
X149810000Y-100503000D01*
X149610000Y-100503000D01*
X149610000Y-99363000D01*
X149810000Y-99363000D01*
G37*
%TD.AperFunction*%
%TA.AperFunction,SMDPad,CuDef*%
%TO.P,U4,9*%
%TO.N,Net-(U4-Pad9)*%
G36*
X149810000Y-102443000D02*
G01*
X149810000Y-103583000D01*
X149610000Y-103583000D01*
X149610000Y-102443000D01*
X149810000Y-102443000D01*
G37*
%TD.AperFunction*%
%TA.AperFunction,SMDPad,CuDef*%
%TO.P,U4,8*%
%TO.N,Net-(U4-Pad8)*%
G36*
X150210000Y-99363000D02*
G01*
X150210000Y-100503000D01*
X150010000Y-100503000D01*
X150010000Y-99363000D01*
X150210000Y-99363000D01*
G37*
%TD.AperFunction*%
%TA.AperFunction,SMDPad,CuDef*%
%TO.P,U4,7*%
%TO.N,Net-(U4-Pad7)*%
G36*
X150210000Y-102443000D02*
G01*
X150210000Y-103583000D01*
X150010000Y-103583000D01*
X150010000Y-102443000D01*
X150210000Y-102443000D01*
G37*
%TD.AperFunction*%
%TA.AperFunction,SMDPad,CuDef*%
%TO.P,U4,6*%
%TO.N,Net-(U4-Pad6)*%
G36*
X150610000Y-99363000D02*
G01*
X150610000Y-100503000D01*
X150410000Y-100503000D01*
X150410000Y-99363000D01*
X150610000Y-99363000D01*
G37*
%TD.AperFunction*%
%TA.AperFunction,SMDPad,CuDef*%
%TO.P,U4,5*%
%TO.N,Net-(U4-Pad5)*%
G36*
X150610000Y-102443000D02*
G01*
X150610000Y-103583000D01*
X150410000Y-103583000D01*
X150410000Y-102443000D01*
X150610000Y-102443000D01*
G37*
%TD.AperFunction*%
%TA.AperFunction,SMDPad,CuDef*%
%TO.P,U4,4*%
%TO.N,Net-(U4-Pad4)*%
G36*
X151010000Y-99363000D02*
G01*
X151010000Y-100503000D01*
X150810000Y-100503000D01*
X150810000Y-99363000D01*
X151010000Y-99363000D01*
G37*
%TD.AperFunction*%
%TA.AperFunction,SMDPad,CuDef*%
%TO.P,U4,3*%
%TO.N,Net-(U4-Pad3)*%
G36*
X151010000Y-102443000D02*
G01*
X151010000Y-103583000D01*
X150810000Y-103583000D01*
X150810000Y-102443000D01*
X151010000Y-102443000D01*
G37*
%TD.AperFunction*%
%TA.AperFunction,SMDPad,CuDef*%
%TO.P,U4,2*%
%TO.N,Net-(U4-Pad2)*%
G36*
X151410000Y-99363000D02*
G01*
X151410000Y-100503000D01*
X151210000Y-100503000D01*
X151210000Y-99363000D01*
X151410000Y-99363000D01*
G37*
%TD.AperFunction*%
D11*
%TO.P,U4,161*%
%TO.N,N/C*%
X132715000Y-105156000D03*
X154305000Y-105156000D03*
X132715000Y-43180000D03*
X154305000Y-43180000D03*
%TA.AperFunction,SMDPad,CuDef*%
D10*
%TO.P,U4,81*%
%TO.N,Net-(U4-Pad81)*%
G36*
X151410000Y-59263000D02*
G01*
X151410000Y-60403000D01*
X151210000Y-60403000D01*
X151210000Y-59263000D01*
X151410000Y-59263000D01*
G37*
%TD.AperFunction*%
%TA.AperFunction,SMDPad,CuDef*%
%TO.P,U4,1*%
%TO.N,Net-(U4-Pad1)*%
G36*
X151410000Y-102443000D02*
G01*
X151410000Y-103583000D01*
X151210000Y-103583000D01*
X151210000Y-102443000D01*
X151410000Y-102443000D01*
G37*
%TD.AperFunction*%
%TD*%
%TO.P,U3,8*%
%TO.N,+9V*%
%TA.AperFunction,SMDPad,CuDef*%
G36*
G01*
X168378000Y-97559000D02*
X168378000Y-97259000D01*
G75*
G02*
X168528000Y-97109000I150000J0D01*
G01*
X170178000Y-97109000D01*
G75*
G02*
X170328000Y-97259000I0J-150000D01*
G01*
X170328000Y-97559000D01*
G75*
G02*
X170178000Y-97709000I-150000J0D01*
G01*
X168528000Y-97709000D01*
G75*
G02*
X168378000Y-97559000I0J150000D01*
G01*
G37*
%TD.AperFunction*%
%TO.P,U3,7*%
%TO.N,PSSR_EN_9V*%
%TA.AperFunction,SMDPad,CuDef*%
G36*
G01*
X168378000Y-98829000D02*
X168378000Y-98529000D01*
G75*
G02*
X168528000Y-98379000I150000J0D01*
G01*
X170178000Y-98379000D01*
G75*
G02*
X170328000Y-98529000I0J-150000D01*
G01*
X170328000Y-98829000D01*
G75*
G02*
X170178000Y-98979000I-150000J0D01*
G01*
X168528000Y-98979000D01*
G75*
G02*
X168378000Y-98829000I0J150000D01*
G01*
G37*
%TD.AperFunction*%
%TO.P,U3,6*%
%TO.N,Net-(R8-Pad1)*%
%TA.AperFunction,SMDPad,CuDef*%
G36*
G01*
X168378000Y-100099000D02*
X168378000Y-99799000D01*
G75*
G02*
X168528000Y-99649000I150000J0D01*
G01*
X170178000Y-99649000D01*
G75*
G02*
X170328000Y-99799000I0J-150000D01*
G01*
X170328000Y-100099000D01*
G75*
G02*
X170178000Y-100249000I-150000J0D01*
G01*
X168528000Y-100249000D01*
G75*
G02*
X168378000Y-100099000I0J150000D01*
G01*
G37*
%TD.AperFunction*%
%TO.P,U3,5*%
%TO.N,PSSR_EN_3V3*%
%TA.AperFunction,SMDPad,CuDef*%
G36*
G01*
X168378000Y-101369000D02*
X168378000Y-101069000D01*
G75*
G02*
X168528000Y-100919000I150000J0D01*
G01*
X170178000Y-100919000D01*
G75*
G02*
X170328000Y-101069000I0J-150000D01*
G01*
X170328000Y-101369000D01*
G75*
G02*
X170178000Y-101519000I-150000J0D01*
G01*
X168528000Y-101519000D01*
G75*
G02*
X168378000Y-101369000I0J150000D01*
G01*
G37*
%TD.AperFunction*%
%TO.P,U3,4*%
%TO.N,RTD2IN-*%
%TA.AperFunction,SMDPad,CuDef*%
G36*
G01*
X163428000Y-101369000D02*
X163428000Y-101069000D01*
G75*
G02*
X163578000Y-100919000I150000J0D01*
G01*
X165228000Y-100919000D01*
G75*
G02*
X165378000Y-101069000I0J-150000D01*
G01*
X165378000Y-101369000D01*
G75*
G02*
X165228000Y-101519000I-150000J0D01*
G01*
X163578000Y-101519000D01*
G75*
G02*
X163428000Y-101369000I0J150000D01*
G01*
G37*
%TD.AperFunction*%
%TO.P,U3,3*%
%TO.N,PSSR_DAC_3V3*%
%TA.AperFunction,SMDPad,CuDef*%
G36*
G01*
X163428000Y-100099000D02*
X163428000Y-99799000D01*
G75*
G02*
X163578000Y-99649000I150000J0D01*
G01*
X165228000Y-99649000D01*
G75*
G02*
X165378000Y-99799000I0J-150000D01*
G01*
X165378000Y-100099000D01*
G75*
G02*
X165228000Y-100249000I-150000J0D01*
G01*
X163578000Y-100249000D01*
G75*
G02*
X163428000Y-100099000I0J150000D01*
G01*
G37*
%TD.AperFunction*%
%TO.P,U3,2*%
%TO.N,Net-(R6-Pad1)*%
%TA.AperFunction,SMDPad,CuDef*%
G36*
G01*
X163428000Y-98829000D02*
X163428000Y-98529000D01*
G75*
G02*
X163578000Y-98379000I150000J0D01*
G01*
X165228000Y-98379000D01*
G75*
G02*
X165378000Y-98529000I0J-150000D01*
G01*
X165378000Y-98829000D01*
G75*
G02*
X165228000Y-98979000I-150000J0D01*
G01*
X163578000Y-98979000D01*
G75*
G02*
X163428000Y-98829000I0J150000D01*
G01*
G37*
%TD.AperFunction*%
%TO.P,U3,1*%
%TO.N,PSSR_DAC_5V*%
%TA.AperFunction,SMDPad,CuDef*%
G36*
G01*
X163428000Y-97559000D02*
X163428000Y-97259000D01*
G75*
G02*
X163578000Y-97109000I150000J0D01*
G01*
X165228000Y-97109000D01*
G75*
G02*
X165378000Y-97259000I0J-150000D01*
G01*
X165378000Y-97559000D01*
G75*
G02*
X165228000Y-97709000I-150000J0D01*
G01*
X163578000Y-97709000D01*
G75*
G02*
X163428000Y-97559000I0J150000D01*
G01*
G37*
%TD.AperFunction*%
%TD*%
%TA.AperFunction,SMDPad,CuDef*%
%TO.P,U2,2*%
%TO.N,+5V*%
G36*
X167400000Y-63604500D02*
G01*
X164275000Y-63604500D01*
X164275000Y-63188000D01*
X162800000Y-63188000D01*
X162800000Y-62288000D01*
X164275000Y-62288000D01*
X164275000Y-61871500D01*
X167400000Y-61871500D01*
X167400000Y-63604500D01*
G37*
%TD.AperFunction*%
D12*
%TO.P,U2,3*%
%TO.N,+3.3VA*%
X163450000Y-64238000D03*
%TO.P,U2,1*%
%TO.N,RTD2IN-*%
X163450000Y-61238000D03*
%TD*%
D13*
%TO.P,U1,3*%
%TO.N,+5V*%
X138938000Y-111252000D03*
%TO.P,U1,2*%
%TO.N,RTD2IN-*%
X141478000Y-111252000D03*
D14*
%TO.P,U1,1*%
%TO.N,+9V*%
X144018000Y-111252000D03*
%TD*%
%TO.P,R16,2*%
%TO.N,ADS1220_REFN0*%
%TA.AperFunction,SMDPad,CuDef*%
G36*
G01*
X166185000Y-44944000D02*
X166555000Y-44944000D01*
G75*
G02*
X166690000Y-45079000I0J-135000D01*
G01*
X166690000Y-45349000D01*
G75*
G02*
X166555000Y-45484000I-135000J0D01*
G01*
X166185000Y-45484000D01*
G75*
G02*
X166050000Y-45349000I0J135000D01*
G01*
X166050000Y-45079000D01*
G75*
G02*
X166185000Y-44944000I135000J0D01*
G01*
G37*
%TD.AperFunction*%
%TO.P,R16,1*%
%TO.N,RTD2IN-*%
%TA.AperFunction,SMDPad,CuDef*%
G36*
G01*
X166185000Y-43924000D02*
X166555000Y-43924000D01*
G75*
G02*
X166690000Y-44059000I0J-135000D01*
G01*
X166690000Y-44329000D01*
G75*
G02*
X166555000Y-44464000I-135000J0D01*
G01*
X166185000Y-44464000D01*
G75*
G02*
X166050000Y-44329000I0J135000D01*
G01*
X166050000Y-44059000D01*
G75*
G02*
X166185000Y-43924000I135000J0D01*
G01*
G37*
%TD.AperFunction*%
%TD*%
D15*
%TO.P,R15,2*%
%TO.N,ADS1220_IDAC1_RREF*%
X163068000Y-48260000D03*
D16*
%TO.P,R15,1*%
%TO.N,RTD2IN-*%
X163068000Y-43180000D03*
%TD*%
%TO.P,R14,2*%
%TO.N,ADS1220_REFP0*%
%TA.AperFunction,SMDPad,CuDef*%
G36*
G01*
X166555000Y-46750000D02*
X166185000Y-46750000D01*
G75*
G02*
X166050000Y-46615000I0J135000D01*
G01*
X166050000Y-46345000D01*
G75*
G02*
X166185000Y-46210000I135000J0D01*
G01*
X166555000Y-46210000D01*
G75*
G02*
X166690000Y-46345000I0J-135000D01*
G01*
X166690000Y-46615000D01*
G75*
G02*
X166555000Y-46750000I-135000J0D01*
G01*
G37*
%TD.AperFunction*%
%TO.P,R14,1*%
%TO.N,ADS1220_IDAC1_RREF*%
%TA.AperFunction,SMDPad,CuDef*%
G36*
G01*
X166555000Y-47770000D02*
X166185000Y-47770000D01*
G75*
G02*
X166050000Y-47635000I0J135000D01*
G01*
X166050000Y-47365000D01*
G75*
G02*
X166185000Y-47230000I135000J0D01*
G01*
X166555000Y-47230000D01*
G75*
G02*
X166690000Y-47365000I0J-135000D01*
G01*
X166690000Y-47635000D01*
G75*
G02*
X166555000Y-47770000I-135000J0D01*
G01*
G37*
%TD.AperFunction*%
%TD*%
%TO.P,R13,2*%
%TO.N,ADS1220_AIN0*%
%TA.AperFunction,SMDPad,CuDef*%
G36*
G01*
X171889000Y-46496000D02*
X171519000Y-46496000D01*
G75*
G02*
X171384000Y-46361000I0J135000D01*
G01*
X171384000Y-46091000D01*
G75*
G02*
X171519000Y-45956000I135000J0D01*
G01*
X171889000Y-45956000D01*
G75*
G02*
X172024000Y-46091000I0J-135000D01*
G01*
X172024000Y-46361000D01*
G75*
G02*
X171889000Y-46496000I-135000J0D01*
G01*
G37*
%TD.AperFunction*%
%TO.P,R13,1*%
%TO.N,ADS1220_IDAC1_RREF*%
%TA.AperFunction,SMDPad,CuDef*%
G36*
G01*
X171889000Y-47516000D02*
X171519000Y-47516000D01*
G75*
G02*
X171384000Y-47381000I0J135000D01*
G01*
X171384000Y-47111000D01*
G75*
G02*
X171519000Y-46976000I135000J0D01*
G01*
X171889000Y-46976000D01*
G75*
G02*
X172024000Y-47111000I0J-135000D01*
G01*
X172024000Y-47381000D01*
G75*
G02*
X171889000Y-47516000I-135000J0D01*
G01*
G37*
%TD.AperFunction*%
%TD*%
%TO.P,R12,2*%
%TO.N,ADS1220_AIN2*%
%TA.AperFunction,SMDPad,CuDef*%
G36*
G01*
X171889000Y-54116000D02*
X171519000Y-54116000D01*
G75*
G02*
X171384000Y-53981000I0J135000D01*
G01*
X171384000Y-53711000D01*
G75*
G02*
X171519000Y-53576000I135000J0D01*
G01*
X171889000Y-53576000D01*
G75*
G02*
X172024000Y-53711000I0J-135000D01*
G01*
X172024000Y-53981000D01*
G75*
G02*
X171889000Y-54116000I-135000J0D01*
G01*
G37*
%TD.AperFunction*%
%TO.P,R12,1*%
%TO.N,ADS1220_IDAC1_RTD1*%
%TA.AperFunction,SMDPad,CuDef*%
G36*
G01*
X171889000Y-55136000D02*
X171519000Y-55136000D01*
G75*
G02*
X171384000Y-55001000I0J135000D01*
G01*
X171384000Y-54731000D01*
G75*
G02*
X171519000Y-54596000I135000J0D01*
G01*
X171889000Y-54596000D01*
G75*
G02*
X172024000Y-54731000I0J-135000D01*
G01*
X172024000Y-55001000D01*
G75*
G02*
X171889000Y-55136000I-135000J0D01*
G01*
G37*
%TD.AperFunction*%
%TD*%
%TO.P,R11,2*%
%TO.N,ADS1220_AIN1*%
%TA.AperFunction,SMDPad,CuDef*%
G36*
G01*
X171519000Y-44692000D02*
X171889000Y-44692000D01*
G75*
G02*
X172024000Y-44827000I0J-135000D01*
G01*
X172024000Y-45097000D01*
G75*
G02*
X171889000Y-45232000I-135000J0D01*
G01*
X171519000Y-45232000D01*
G75*
G02*
X171384000Y-45097000I0J135000D01*
G01*
X171384000Y-44827000D01*
G75*
G02*
X171519000Y-44692000I135000J0D01*
G01*
G37*
%TD.AperFunction*%
%TO.P,R11,1*%
%TO.N,ADS1220_IDAC1_RTD1*%
%TA.AperFunction,SMDPad,CuDef*%
G36*
G01*
X171519000Y-43672000D02*
X171889000Y-43672000D01*
G75*
G02*
X172024000Y-43807000I0J-135000D01*
G01*
X172024000Y-44077000D01*
G75*
G02*
X171889000Y-44212000I-135000J0D01*
G01*
X171519000Y-44212000D01*
G75*
G02*
X171384000Y-44077000I0J135000D01*
G01*
X171384000Y-43807000D01*
G75*
G02*
X171519000Y-43672000I135000J0D01*
G01*
G37*
%TD.AperFunction*%
%TD*%
%TO.P,R10,2*%
%TO.N,ADS1220_AIN3*%
%TA.AperFunction,SMDPad,CuDef*%
G36*
G01*
X171519000Y-52056000D02*
X171889000Y-52056000D01*
G75*
G02*
X172024000Y-52191000I0J-135000D01*
G01*
X172024000Y-52461000D01*
G75*
G02*
X171889000Y-52596000I-135000J0D01*
G01*
X171519000Y-52596000D01*
G75*
G02*
X171384000Y-52461000I0J135000D01*
G01*
X171384000Y-52191000D01*
G75*
G02*
X171519000Y-52056000I135000J0D01*
G01*
G37*
%TD.AperFunction*%
%TO.P,R10,1*%
%TO.N,RTD2IN-*%
%TA.AperFunction,SMDPad,CuDef*%
G36*
G01*
X171519000Y-51036000D02*
X171889000Y-51036000D01*
G75*
G02*
X172024000Y-51171000I0J-135000D01*
G01*
X172024000Y-51441000D01*
G75*
G02*
X171889000Y-51576000I-135000J0D01*
G01*
X171519000Y-51576000D01*
G75*
G02*
X171384000Y-51441000I0J135000D01*
G01*
X171384000Y-51171000D01*
G75*
G02*
X171519000Y-51036000I135000J0D01*
G01*
G37*
%TD.AperFunction*%
%TD*%
%TO.P,R7,2*%
%TO.N,Net-(R6-Pad1)*%
%TA.AperFunction,SMDPad,CuDef*%
G36*
G01*
X161983000Y-96280000D02*
X161613000Y-96280000D01*
G75*
G02*
X161478000Y-96145000I0J135000D01*
G01*
X161478000Y-95875000D01*
G75*
G02*
X161613000Y-95740000I135000J0D01*
G01*
X161983000Y-95740000D01*
G75*
G02*
X162118000Y-95875000I0J-135000D01*
G01*
X162118000Y-96145000D01*
G75*
G02*
X161983000Y-96280000I-135000J0D01*
G01*
G37*
%TD.AperFunction*%
%TO.P,R7,1*%
%TO.N,PSSR_DAC_5V*%
%TA.AperFunction,SMDPad,CuDef*%
G36*
G01*
X161983000Y-97300000D02*
X161613000Y-97300000D01*
G75*
G02*
X161478000Y-97165000I0J135000D01*
G01*
X161478000Y-96895000D01*
G75*
G02*
X161613000Y-96760000I135000J0D01*
G01*
X161983000Y-96760000D01*
G75*
G02*
X162118000Y-96895000I0J-135000D01*
G01*
X162118000Y-97165000D01*
G75*
G02*
X161983000Y-97300000I-135000J0D01*
G01*
G37*
%TD.AperFunction*%
%TD*%
%TO.P,R4,2*%
%TO.N,Net-(R4-Pad2)*%
%TA.AperFunction,SMDPad,CuDef*%
G36*
G01*
X170702000Y-61283000D02*
X170702000Y-61653000D01*
G75*
G02*
X170567000Y-61788000I-135000J0D01*
G01*
X170297000Y-61788000D01*
G75*
G02*
X170162000Y-61653000I0J135000D01*
G01*
X170162000Y-61283000D01*
G75*
G02*
X170297000Y-61148000I135000J0D01*
G01*
X170567000Y-61148000D01*
G75*
G02*
X170702000Y-61283000I0J-135000D01*
G01*
G37*
%TD.AperFunction*%
%TO.P,R4,1*%
%TO.N,PXDCR_AIN*%
%TA.AperFunction,SMDPad,CuDef*%
G36*
G01*
X171722000Y-61283000D02*
X171722000Y-61653000D01*
G75*
G02*
X171587000Y-61788000I-135000J0D01*
G01*
X171317000Y-61788000D01*
G75*
G02*
X171182000Y-61653000I0J135000D01*
G01*
X171182000Y-61283000D01*
G75*
G02*
X171317000Y-61148000I135000J0D01*
G01*
X171587000Y-61148000D01*
G75*
G02*
X171722000Y-61283000I0J-135000D01*
G01*
G37*
%TD.AperFunction*%
%TD*%
%TO.P,R3,2*%
%TO.N,Net-(D3-Pad2)*%
%TA.AperFunction,SMDPad,CuDef*%
G36*
G01*
X168162000Y-87699000D02*
X168162000Y-88069000D01*
G75*
G02*
X168027000Y-88204000I-135000J0D01*
G01*
X167757000Y-88204000D01*
G75*
G02*
X167622000Y-88069000I0J135000D01*
G01*
X167622000Y-87699000D01*
G75*
G02*
X167757000Y-87564000I135000J0D01*
G01*
X168027000Y-87564000D01*
G75*
G02*
X168162000Y-87699000I0J-135000D01*
G01*
G37*
%TD.AperFunction*%
%TO.P,R3,1*%
%TO.N,SSR3_GATE*%
%TA.AperFunction,SMDPad,CuDef*%
G36*
G01*
X169182000Y-87699000D02*
X169182000Y-88069000D01*
G75*
G02*
X169047000Y-88204000I-135000J0D01*
G01*
X168777000Y-88204000D01*
G75*
G02*
X168642000Y-88069000I0J135000D01*
G01*
X168642000Y-87699000D01*
G75*
G02*
X168777000Y-87564000I135000J0D01*
G01*
X169047000Y-87564000D01*
G75*
G02*
X169182000Y-87699000I0J-135000D01*
G01*
G37*
%TD.AperFunction*%
%TD*%
%TO.P,R2,2*%
%TO.N,Net-(D2-Pad2)*%
%TA.AperFunction,SMDPad,CuDef*%
G36*
G01*
X168162000Y-80333000D02*
X168162000Y-80703000D01*
G75*
G02*
X168027000Y-80838000I-135000J0D01*
G01*
X167757000Y-80838000D01*
G75*
G02*
X167622000Y-80703000I0J135000D01*
G01*
X167622000Y-80333000D01*
G75*
G02*
X167757000Y-80198000I135000J0D01*
G01*
X168027000Y-80198000D01*
G75*
G02*
X168162000Y-80333000I0J-135000D01*
G01*
G37*
%TD.AperFunction*%
%TO.P,R2,1*%
%TO.N,SSR2_GATE*%
%TA.AperFunction,SMDPad,CuDef*%
G36*
G01*
X169182000Y-80333000D02*
X169182000Y-80703000D01*
G75*
G02*
X169047000Y-80838000I-135000J0D01*
G01*
X168777000Y-80838000D01*
G75*
G02*
X168642000Y-80703000I0J135000D01*
G01*
X168642000Y-80333000D01*
G75*
G02*
X168777000Y-80198000I135000J0D01*
G01*
X169047000Y-80198000D01*
G75*
G02*
X169182000Y-80333000I0J-135000D01*
G01*
G37*
%TD.AperFunction*%
%TD*%
%TO.P,R1,2*%
%TO.N,Net-(D1-Pad2)*%
%TA.AperFunction,SMDPad,CuDef*%
G36*
G01*
X168162000Y-73221000D02*
X168162000Y-73591000D01*
G75*
G02*
X168027000Y-73726000I-135000J0D01*
G01*
X167757000Y-73726000D01*
G75*
G02*
X167622000Y-73591000I0J135000D01*
G01*
X167622000Y-73221000D01*
G75*
G02*
X167757000Y-73086000I135000J0D01*
G01*
X168027000Y-73086000D01*
G75*
G02*
X168162000Y-73221000I0J-135000D01*
G01*
G37*
%TD.AperFunction*%
%TO.P,R1,1*%
%TO.N,SSR1_GATE*%
%TA.AperFunction,SMDPad,CuDef*%
G36*
G01*
X169182000Y-73221000D02*
X169182000Y-73591000D01*
G75*
G02*
X169047000Y-73726000I-135000J0D01*
G01*
X168777000Y-73726000D01*
G75*
G02*
X168642000Y-73591000I0J135000D01*
G01*
X168642000Y-73221000D01*
G75*
G02*
X168777000Y-73086000I135000J0D01*
G01*
X169047000Y-73086000D01*
G75*
G02*
X169182000Y-73221000I0J-135000D01*
G01*
G37*
%TD.AperFunction*%
%TD*%
D17*
%TO.P,Q3,3*%
%TO.N,SSR3_VNEG*%
X172450000Y-88646000D03*
%TO.P,Q3,2*%
%TO.N,RTD2IN-*%
X170450000Y-89596000D03*
%TO.P,Q3,1*%
%TO.N,SSR3_GATE*%
X170450000Y-87696000D03*
%TD*%
%TO.P,Q2,3*%
%TO.N,SSR2_VNEG*%
X172450000Y-81280000D03*
%TO.P,Q2,2*%
%TO.N,RTD2IN-*%
X170450000Y-82230000D03*
%TO.P,Q2,1*%
%TO.N,SSR2_GATE*%
X170450000Y-80330000D03*
%TD*%
%TO.P,Q1,3*%
%TO.N,SSR1_VNEG*%
X172466000Y-74168000D03*
%TO.P,Q1,2*%
%TO.N,RTD2IN-*%
X170466000Y-75118000D03*
%TO.P,Q1,1*%
%TO.N,SSR1_GATE*%
X170466000Y-73218000D03*
%TD*%
D18*
%TO.P,J14,10*%
%TO.N,JTAG_RESET*%
X170860000Y-129540000D03*
%TO.P,J14,9*%
%TO.N,RTD2IN-*%
X166960000Y-129540000D03*
%TO.P,J14,8*%
%TO.N,Net-(J14-Pad8)*%
X170860000Y-128270000D03*
%TO.P,J14,7*%
%TO.N,Net-(J14-Pad7)*%
X166960000Y-128270000D03*
%TO.P,J14,6*%
%TO.N,JTAG_TDO*%
X170860000Y-127000000D03*
%TO.P,J14,5*%
%TO.N,RTD2IN-*%
X166960000Y-127000000D03*
%TO.P,J14,4*%
%TO.N,JTAG_TCK*%
X170860000Y-125730000D03*
%TO.P,J14,3*%
%TO.N,RTD2IN-*%
X166960000Y-125730000D03*
%TO.P,J14,2*%
%TO.N,JTAG_TMS*%
X170860000Y-124460000D03*
%TO.P,J14,1*%
%TO.N,+3V3*%
X166960000Y-124460000D03*
%TD*%
D19*
%TO.P,J13,11*%
%TO.N,N/C*%
X162377000Y-129295000D03*
D20*
X148877000Y-128845000D03*
D21*
%TO.P,J13,10*%
X148877000Y-124695000D03*
D22*
%TO.P,J13,11*%
X148877000Y-118495000D03*
X160027000Y-114195000D03*
D23*
%TO.P,J13,7*%
%TO.N,SDC_D0*%
X151877000Y-114195000D03*
%TO.P,J13,6*%
%TO.N,RTD2IN-*%
X152977000Y-114195000D03*
%TO.P,J13,5*%
%TO.N,SDC_CLK*%
X154077000Y-114195000D03*
%TO.P,J13,4*%
%TO.N,V_SDCARD*%
X155177000Y-114195000D03*
%TO.P,J13,3*%
%TO.N,SDC_CMD*%
X156277000Y-114195000D03*
%TO.P,J13,2*%
%TO.N,SDC_D3*%
X157377000Y-114195000D03*
%TO.P,J13,1*%
%TO.N,SDC_D2*%
X158477000Y-114195000D03*
%TO.P,J13,8*%
%TO.N,SDC_D1*%
X150777000Y-114195000D03*
%TO.P,J13,9*%
%TO.N,RTD2IN-*%
X149827000Y-114195000D03*
%TD*%
D24*
%TO.P,J12,2*%
%TO.N,RTD2IN-*%
X133096000Y-129032000D03*
D25*
%TO.P,J12,1*%
%TO.N,+9V*%
X133096000Y-126492000D03*
%TD*%
D24*
%TO.P,J11,4*%
%TO.N,PSSR_DAC_5V*%
X177038000Y-102870000D03*
%TO.P,J11,3*%
%TO.N,PSSR_EN_9V*%
X177038000Y-100330000D03*
%TO.P,J11,2*%
%TO.N,RTD2IN-*%
X177038000Y-97790000D03*
D25*
%TO.P,J11,1*%
%TO.N,+9V*%
X177038000Y-95250000D03*
%TD*%
D24*
%TO.P,J10,10*%
%TO.N,UEXT_CS*%
X170180000Y-119888000D03*
%TO.P,J10,9*%
%TO.N,SPI5_SCK*%
X167640000Y-119888000D03*
%TO.P,J10,8*%
%TO.N,SPI5_MOSI*%
X170180000Y-117348000D03*
%TO.P,J10,7*%
%TO.N,SPI5_MISO*%
X167640000Y-117348000D03*
%TO.P,J10,6*%
%TO.N,I2C0_SDA*%
X170180000Y-114808000D03*
%TO.P,J10,5*%
%TO.N,I2C0_SCL*%
X167640000Y-114808000D03*
%TO.P,J10,4*%
%TO.N,UART0_RX*%
X170180000Y-112268000D03*
%TO.P,J10,3*%
%TO.N,UART0_TX*%
X167640000Y-112268000D03*
%TO.P,J10,2*%
%TO.N,RTD2IN-*%
X170180000Y-109728000D03*
D25*
%TO.P,J10,1*%
%TO.N,+3V3*%
X167640000Y-109728000D03*
%TD*%
D24*
%TO.P,J9,5*%
%TO.N,RTD2IN-*%
X176784000Y-117348000D03*
%TO.P,J9,4*%
%TO.N,+3V3*%
X176784000Y-114808000D03*
%TO.P,J9,3*%
%TO.N,ENC_SW*%
X176784000Y-112268000D03*
%TO.P,J9,2*%
%TO.N,ENC_DT*%
X176784000Y-109728000D03*
D25*
%TO.P,J9,1*%
%TO.N,ENC_CLK*%
X176784000Y-107188000D03*
%TD*%
D24*
%TO.P,J8,4*%
%TO.N,BTN_BREW*%
X176784000Y-129032000D03*
%TO.P,J8,3*%
%TO.N,BTN_WATER*%
X176784000Y-126492000D03*
%TO.P,J8,2*%
%TO.N,BTN_STEAM*%
X176784000Y-123952000D03*
D25*
%TO.P,J8,1*%
%TO.N,RTD2IN-*%
X176784000Y-121412000D03*
%TD*%
D24*
%TO.P,J7,3*%
%TO.N,+5V*%
X177546000Y-64262000D03*
%TO.P,J7,2*%
%TO.N,PXDCR_AIN*%
X177546000Y-61722000D03*
D25*
%TO.P,J7,1*%
%TO.N,RTD2IN-*%
X177546000Y-59182000D03*
%TD*%
D24*
%TO.P,J6,7*%
%TO.N,DISPLAY_CS*%
X161290000Y-86360000D03*
%TO.P,J6,6*%
%TO.N,DISPLAY_DC*%
X161290000Y-83820000D03*
%TO.P,J6,5*%
%TO.N,DISPLAY_RES*%
X161290000Y-81280000D03*
%TO.P,J6,4*%
%TO.N,SPI2_MOSI*%
X161290000Y-78740000D03*
%TO.P,J6,3*%
%TO.N,SPI2_SCLK*%
X161290000Y-76200000D03*
%TO.P,J6,2*%
%TO.N,+3V3*%
X161290000Y-73660000D03*
D25*
%TO.P,J6,1*%
%TO.N,RTD2IN-*%
X161290000Y-71120000D03*
%TD*%
D24*
%TO.P,J5,2*%
%TO.N,+5V*%
X177292000Y-90678000D03*
D25*
%TO.P,J5,1*%
%TO.N,SSR3_VNEG*%
X177292000Y-88138000D03*
%TD*%
D24*
%TO.P,J4,2*%
%TO.N,+5V*%
X177292000Y-83058000D03*
D25*
%TO.P,J4,1*%
%TO.N,SSR2_VNEG*%
X177292000Y-80518000D03*
%TD*%
D24*
%TO.P,J3,2*%
%TO.N,+5V*%
X177546000Y-75946000D03*
D25*
%TO.P,J3,1*%
%TO.N,SSR1_VNEG*%
X177546000Y-73406000D03*
%TD*%
D24*
%TO.P,J2,2*%
%TO.N,ADS1220_IDAC1_RTD1*%
X177546000Y-54356000D03*
D25*
%TO.P,J2,1*%
%TO.N,RTD2IN-*%
X177546000Y-51816000D03*
%TD*%
D24*
%TO.P,J1,2*%
%TO.N,ADS1220_IDAC1_RREF*%
X177546000Y-46990000D03*
D25*
%TO.P,J1,1*%
%TO.N,ADS1220_IDAC1_RTD1*%
X177546000Y-44450000D03*
%TD*%
%TO.P,D3,2*%
%TO.N,Net-(D3-Pad2)*%
%TA.AperFunction,SMDPad,CuDef*%
G36*
G01*
X167569500Y-89405750D02*
X167569500Y-89918250D01*
G75*
G02*
X167350750Y-90137000I-218750J0D01*
G01*
X166913250Y-90137000D01*
G75*
G02*
X166694500Y-89918250I0J218750D01*
G01*
X166694500Y-89405750D01*
G75*
G02*
X166913250Y-89187000I218750J0D01*
G01*
X167350750Y-89187000D01*
G75*
G02*
X167569500Y-89405750I0J-218750D01*
G01*
G37*
%TD.AperFunction*%
%TO.P,D3,1*%
%TO.N,RTD2IN-*%
%TA.AperFunction,SMDPad,CuDef*%
G36*
G01*
X169144500Y-89405750D02*
X169144500Y-89918250D01*
G75*
G02*
X168925750Y-90137000I-218750J0D01*
G01*
X168488250Y-90137000D01*
G75*
G02*
X168269500Y-89918250I0J218750D01*
G01*
X168269500Y-89405750D01*
G75*
G02*
X168488250Y-89187000I218750J0D01*
G01*
X168925750Y-89187000D01*
G75*
G02*
X169144500Y-89405750I0J-218750D01*
G01*
G37*
%TD.AperFunction*%
%TD*%
%TO.P,D2,2*%
%TO.N,Net-(D2-Pad2)*%
%TA.AperFunction,SMDPad,CuDef*%
G36*
G01*
X167544000Y-82039750D02*
X167544000Y-82552250D01*
G75*
G02*
X167325250Y-82771000I-218750J0D01*
G01*
X166887750Y-82771000D01*
G75*
G02*
X166669000Y-82552250I0J218750D01*
G01*
X166669000Y-82039750D01*
G75*
G02*
X166887750Y-81821000I218750J0D01*
G01*
X167325250Y-81821000D01*
G75*
G02*
X167544000Y-82039750I0J-218750D01*
G01*
G37*
%TD.AperFunction*%
%TO.P,D2,1*%
%TO.N,RTD2IN-*%
%TA.AperFunction,SMDPad,CuDef*%
G36*
G01*
X169119000Y-82039750D02*
X169119000Y-82552250D01*
G75*
G02*
X168900250Y-82771000I-218750J0D01*
G01*
X168462750Y-82771000D01*
G75*
G02*
X168244000Y-82552250I0J218750D01*
G01*
X168244000Y-82039750D01*
G75*
G02*
X168462750Y-81821000I218750J0D01*
G01*
X168900250Y-81821000D01*
G75*
G02*
X169119000Y-82039750I0J-218750D01*
G01*
G37*
%TD.AperFunction*%
%TD*%
%TO.P,D1,2*%
%TO.N,Net-(D1-Pad2)*%
%TA.AperFunction,SMDPad,CuDef*%
G36*
G01*
X167544000Y-74927750D02*
X167544000Y-75440250D01*
G75*
G02*
X167325250Y-75659000I-218750J0D01*
G01*
X166887750Y-75659000D01*
G75*
G02*
X166669000Y-75440250I0J218750D01*
G01*
X166669000Y-74927750D01*
G75*
G02*
X166887750Y-74709000I218750J0D01*
G01*
X167325250Y-74709000D01*
G75*
G02*
X167544000Y-74927750I0J-218750D01*
G01*
G37*
%TD.AperFunction*%
%TO.P,D1,1*%
%TO.N,RTD2IN-*%
%TA.AperFunction,SMDPad,CuDef*%
G36*
G01*
X169119000Y-74927750D02*
X169119000Y-75440250D01*
G75*
G02*
X168900250Y-75659000I-218750J0D01*
G01*
X168462750Y-75659000D01*
G75*
G02*
X168244000Y-75440250I0J218750D01*
G01*
X168244000Y-74927750D01*
G75*
G02*
X168462750Y-74709000I218750J0D01*
G01*
X168900250Y-74709000D01*
G75*
G02*
X169119000Y-74927750I0J-218750D01*
G01*
G37*
%TD.AperFunction*%
%TD*%
%TO.P,C14,2*%
%TO.N,ADS1220_REFN0*%
%TA.AperFunction,SMDPad,CuDef*%
G36*
G01*
X167470000Y-43634000D02*
X167810000Y-43634000D01*
G75*
G02*
X167950000Y-43774000I0J-140000D01*
G01*
X167950000Y-44054000D01*
G75*
G02*
X167810000Y-44194000I-140000J0D01*
G01*
X167470000Y-44194000D01*
G75*
G02*
X167330000Y-44054000I0J140000D01*
G01*
X167330000Y-43774000D01*
G75*
G02*
X167470000Y-43634000I140000J0D01*
G01*
G37*
%TD.AperFunction*%
%TO.P,C14,1*%
%TO.N,RTD2IN-*%
%TA.AperFunction,SMDPad,CuDef*%
G36*
G01*
X167470000Y-42674000D02*
X167810000Y-42674000D01*
G75*
G02*
X167950000Y-42814000I0J-140000D01*
G01*
X167950000Y-43094000D01*
G75*
G02*
X167810000Y-43234000I-140000J0D01*
G01*
X167470000Y-43234000D01*
G75*
G02*
X167330000Y-43094000I0J140000D01*
G01*
X167330000Y-42814000D01*
G75*
G02*
X167470000Y-42674000I140000J0D01*
G01*
G37*
%TD.AperFunction*%
%TD*%
%TO.P,C13,2*%
%TO.N,ADS1220_REFP0*%
%TA.AperFunction,SMDPad,CuDef*%
G36*
G01*
X167470000Y-45920000D02*
X167810000Y-45920000D01*
G75*
G02*
X167950000Y-46060000I0J-140000D01*
G01*
X167950000Y-46340000D01*
G75*
G02*
X167810000Y-46480000I-140000J0D01*
G01*
X167470000Y-46480000D01*
G75*
G02*
X167330000Y-46340000I0J140000D01*
G01*
X167330000Y-46060000D01*
G75*
G02*
X167470000Y-45920000I140000J0D01*
G01*
G37*
%TD.AperFunction*%
%TO.P,C13,1*%
%TO.N,ADS1220_REFN0*%
%TA.AperFunction,SMDPad,CuDef*%
G36*
G01*
X167470000Y-44960000D02*
X167810000Y-44960000D01*
G75*
G02*
X167950000Y-45100000I0J-140000D01*
G01*
X167950000Y-45380000D01*
G75*
G02*
X167810000Y-45520000I-140000J0D01*
G01*
X167470000Y-45520000D01*
G75*
G02*
X167330000Y-45380000I0J140000D01*
G01*
X167330000Y-45100000D01*
G75*
G02*
X167470000Y-44960000I140000J0D01*
G01*
G37*
%TD.AperFunction*%
%TD*%
%TO.P,C12,2*%
%TO.N,RTD2IN-*%
%TA.AperFunction,SMDPad,CuDef*%
G36*
G01*
X167470000Y-48206000D02*
X167810000Y-48206000D01*
G75*
G02*
X167950000Y-48346000I0J-140000D01*
G01*
X167950000Y-48626000D01*
G75*
G02*
X167810000Y-48766000I-140000J0D01*
G01*
X167470000Y-48766000D01*
G75*
G02*
X167330000Y-48626000I0J140000D01*
G01*
X167330000Y-48346000D01*
G75*
G02*
X167470000Y-48206000I140000J0D01*
G01*
G37*
%TD.AperFunction*%
%TO.P,C12,1*%
%TO.N,ADS1220_REFP0*%
%TA.AperFunction,SMDPad,CuDef*%
G36*
G01*
X167470000Y-47246000D02*
X167810000Y-47246000D01*
G75*
G02*
X167950000Y-47386000I0J-140000D01*
G01*
X167950000Y-47666000D01*
G75*
G02*
X167810000Y-47806000I-140000J0D01*
G01*
X167470000Y-47806000D01*
G75*
G02*
X167330000Y-47666000I0J140000D01*
G01*
X167330000Y-47386000D01*
G75*
G02*
X167470000Y-47246000I140000J0D01*
G01*
G37*
%TD.AperFunction*%
%TD*%
%TO.P,C11,2*%
%TO.N,ADS1220_AIN0*%
%TA.AperFunction,SMDPad,CuDef*%
G36*
G01*
X170604000Y-47806000D02*
X170264000Y-47806000D01*
G75*
G02*
X170124000Y-47666000I0J140000D01*
G01*
X170124000Y-47386000D01*
G75*
G02*
X170264000Y-47246000I140000J0D01*
G01*
X170604000Y-47246000D01*
G75*
G02*
X170744000Y-47386000I0J-140000D01*
G01*
X170744000Y-47666000D01*
G75*
G02*
X170604000Y-47806000I-140000J0D01*
G01*
G37*
%TD.AperFunction*%
%TO.P,C11,1*%
%TO.N,RTD2IN-*%
%TA.AperFunction,SMDPad,CuDef*%
G36*
G01*
X170604000Y-48766000D02*
X170264000Y-48766000D01*
G75*
G02*
X170124000Y-48626000I0J140000D01*
G01*
X170124000Y-48346000D01*
G75*
G02*
X170264000Y-48206000I140000J0D01*
G01*
X170604000Y-48206000D01*
G75*
G02*
X170744000Y-48346000I0J-140000D01*
G01*
X170744000Y-48626000D01*
G75*
G02*
X170604000Y-48766000I-140000J0D01*
G01*
G37*
%TD.AperFunction*%
%TD*%
%TO.P,C10,2*%
%TO.N,ADS1220_AIN2*%
%TA.AperFunction,SMDPad,CuDef*%
G36*
G01*
X170604000Y-55172000D02*
X170264000Y-55172000D01*
G75*
G02*
X170124000Y-55032000I0J140000D01*
G01*
X170124000Y-54752000D01*
G75*
G02*
X170264000Y-54612000I140000J0D01*
G01*
X170604000Y-54612000D01*
G75*
G02*
X170744000Y-54752000I0J-140000D01*
G01*
X170744000Y-55032000D01*
G75*
G02*
X170604000Y-55172000I-140000J0D01*
G01*
G37*
%TD.AperFunction*%
%TO.P,C10,1*%
%TO.N,RTD2IN-*%
%TA.AperFunction,SMDPad,CuDef*%
G36*
G01*
X170604000Y-56132000D02*
X170264000Y-56132000D01*
G75*
G02*
X170124000Y-55992000I0J140000D01*
G01*
X170124000Y-55712000D01*
G75*
G02*
X170264000Y-55572000I140000J0D01*
G01*
X170604000Y-55572000D01*
G75*
G02*
X170744000Y-55712000I0J-140000D01*
G01*
X170744000Y-55992000D01*
G75*
G02*
X170604000Y-56132000I-140000J0D01*
G01*
G37*
%TD.AperFunction*%
%TD*%
%TO.P,C9,2*%
%TO.N,+3V3*%
%TA.AperFunction,SMDPad,CuDef*%
G36*
G01*
X161120000Y-52524000D02*
X161460000Y-52524000D01*
G75*
G02*
X161600000Y-52664000I0J-140000D01*
G01*
X161600000Y-52944000D01*
G75*
G02*
X161460000Y-53084000I-140000J0D01*
G01*
X161120000Y-53084000D01*
G75*
G02*
X160980000Y-52944000I0J140000D01*
G01*
X160980000Y-52664000D01*
G75*
G02*
X161120000Y-52524000I140000J0D01*
G01*
G37*
%TD.AperFunction*%
%TO.P,C9,1*%
%TO.N,RTD2IN-*%
%TA.AperFunction,SMDPad,CuDef*%
G36*
G01*
X161120000Y-51564000D02*
X161460000Y-51564000D01*
G75*
G02*
X161600000Y-51704000I0J-140000D01*
G01*
X161600000Y-51984000D01*
G75*
G02*
X161460000Y-52124000I-140000J0D01*
G01*
X161120000Y-52124000D01*
G75*
G02*
X160980000Y-51984000I0J140000D01*
G01*
X160980000Y-51704000D01*
G75*
G02*
X161120000Y-51564000I140000J0D01*
G01*
G37*
%TD.AperFunction*%
%TD*%
%TO.P,C8,2*%
%TO.N,ADS1220_AIN1*%
%TA.AperFunction,SMDPad,CuDef*%
G36*
G01*
X170604000Y-45492000D02*
X170264000Y-45492000D01*
G75*
G02*
X170124000Y-45352000I0J140000D01*
G01*
X170124000Y-45072000D01*
G75*
G02*
X170264000Y-44932000I140000J0D01*
G01*
X170604000Y-44932000D01*
G75*
G02*
X170744000Y-45072000I0J-140000D01*
G01*
X170744000Y-45352000D01*
G75*
G02*
X170604000Y-45492000I-140000J0D01*
G01*
G37*
%TD.AperFunction*%
%TO.P,C8,1*%
%TO.N,ADS1220_AIN0*%
%TA.AperFunction,SMDPad,CuDef*%
G36*
G01*
X170604000Y-46452000D02*
X170264000Y-46452000D01*
G75*
G02*
X170124000Y-46312000I0J140000D01*
G01*
X170124000Y-46032000D01*
G75*
G02*
X170264000Y-45892000I140000J0D01*
G01*
X170604000Y-45892000D01*
G75*
G02*
X170744000Y-46032000I0J-140000D01*
G01*
X170744000Y-46312000D01*
G75*
G02*
X170604000Y-46452000I-140000J0D01*
G01*
G37*
%TD.AperFunction*%
%TD*%
%TO.P,C7,2*%
%TO.N,ADS1220_AIN3*%
%TA.AperFunction,SMDPad,CuDef*%
G36*
G01*
X170604000Y-52914000D02*
X170264000Y-52914000D01*
G75*
G02*
X170124000Y-52774000I0J140000D01*
G01*
X170124000Y-52494000D01*
G75*
G02*
X170264000Y-52354000I140000J0D01*
G01*
X170604000Y-52354000D01*
G75*
G02*
X170744000Y-52494000I0J-140000D01*
G01*
X170744000Y-52774000D01*
G75*
G02*
X170604000Y-52914000I-140000J0D01*
G01*
G37*
%TD.AperFunction*%
%TO.P,C7,1*%
%TO.N,ADS1220_AIN2*%
%TA.AperFunction,SMDPad,CuDef*%
G36*
G01*
X170604000Y-53874000D02*
X170264000Y-53874000D01*
G75*
G02*
X170124000Y-53734000I0J140000D01*
G01*
X170124000Y-53454000D01*
G75*
G02*
X170264000Y-53314000I140000J0D01*
G01*
X170604000Y-53314000D01*
G75*
G02*
X170744000Y-53454000I0J-140000D01*
G01*
X170744000Y-53734000D01*
G75*
G02*
X170604000Y-53874000I-140000J0D01*
G01*
G37*
%TD.AperFunction*%
%TD*%
%TO.P,C6,2*%
%TO.N,RTD2IN-*%
%TA.AperFunction,SMDPad,CuDef*%
G36*
G01*
X170604000Y-43234000D02*
X170264000Y-43234000D01*
G75*
G02*
X170124000Y-43094000I0J140000D01*
G01*
X170124000Y-42814000D01*
G75*
G02*
X170264000Y-42674000I140000J0D01*
G01*
X170604000Y-42674000D01*
G75*
G02*
X170744000Y-42814000I0J-140000D01*
G01*
X170744000Y-43094000D01*
G75*
G02*
X170604000Y-43234000I-140000J0D01*
G01*
G37*
%TD.AperFunction*%
%TO.P,C6,1*%
%TO.N,ADS1220_AIN1*%
%TA.AperFunction,SMDPad,CuDef*%
G36*
G01*
X170604000Y-44194000D02*
X170264000Y-44194000D01*
G75*
G02*
X170124000Y-44054000I0J140000D01*
G01*
X170124000Y-43774000D01*
G75*
G02*
X170264000Y-43634000I140000J0D01*
G01*
X170604000Y-43634000D01*
G75*
G02*
X170744000Y-43774000I0J-140000D01*
G01*
X170744000Y-44054000D01*
G75*
G02*
X170604000Y-44194000I-140000J0D01*
G01*
G37*
%TD.AperFunction*%
%TD*%
%TO.P,C5,2*%
%TO.N,RTD2IN-*%
%TA.AperFunction,SMDPad,CuDef*%
G36*
G01*
X170604000Y-50600000D02*
X170264000Y-50600000D01*
G75*
G02*
X170124000Y-50460000I0J140000D01*
G01*
X170124000Y-50180000D01*
G75*
G02*
X170264000Y-50040000I140000J0D01*
G01*
X170604000Y-50040000D01*
G75*
G02*
X170744000Y-50180000I0J-140000D01*
G01*
X170744000Y-50460000D01*
G75*
G02*
X170604000Y-50600000I-140000J0D01*
G01*
G37*
%TD.AperFunction*%
%TO.P,C5,1*%
%TO.N,ADS1220_AIN3*%
%TA.AperFunction,SMDPad,CuDef*%
G36*
G01*
X170604000Y-51560000D02*
X170264000Y-51560000D01*
G75*
G02*
X170124000Y-51420000I0J140000D01*
G01*
X170124000Y-51140000D01*
G75*
G02*
X170264000Y-51000000I140000J0D01*
G01*
X170604000Y-51000000D01*
G75*
G02*
X170744000Y-51140000I0J-140000D01*
G01*
X170744000Y-51420000D01*
G75*
G02*
X170604000Y-51560000I-140000J0D01*
G01*
G37*
%TD.AperFunction*%
%TD*%
%TO.P,C1,2*%
%TO.N,+3.3VA*%
%TA.AperFunction,SMDPad,CuDef*%
G36*
G01*
X161460000Y-54156000D02*
X161120000Y-54156000D01*
G75*
G02*
X160980000Y-54016000I0J140000D01*
G01*
X160980000Y-53736000D01*
G75*
G02*
X161120000Y-53596000I140000J0D01*
G01*
X161460000Y-53596000D01*
G75*
G02*
X161600000Y-53736000I0J-140000D01*
G01*
X161600000Y-54016000D01*
G75*
G02*
X161460000Y-54156000I-140000J0D01*
G01*
G37*
%TD.AperFunction*%
%TO.P,C1,1*%
%TO.N,RTD2IN-*%
%TA.AperFunction,SMDPad,CuDef*%
G36*
G01*
X161460000Y-55116000D02*
X161120000Y-55116000D01*
G75*
G02*
X160980000Y-54976000I0J140000D01*
G01*
X160980000Y-54696000D01*
G75*
G02*
X161120000Y-54556000I140000J0D01*
G01*
X161460000Y-54556000D01*
G75*
G02*
X161600000Y-54696000I0J-140000D01*
G01*
X161600000Y-54976000D01*
G75*
G02*
X161460000Y-55116000I-140000J0D01*
G01*
G37*
%TD.AperFunction*%
%TD*%
D26*
%TO.N,+5V*%
X146304000Y-95250000D03*
X135382000Y-95250000D03*
%TO.N,RTD2IN-*%
X171958000Y-49276000D03*
X169164000Y-42164000D03*
X171704000Y-57150000D03*
X166370000Y-49022000D03*
X161290000Y-56134000D03*
X166116000Y-103632000D03*
X164592000Y-127254000D03*
X143764000Y-62230000D03*
X168656000Y-83820000D03*
D27*
X146812000Y-98044000D03*
D26*
X140242772Y-104867228D03*
X145585271Y-104096727D03*
X168181078Y-76799620D03*
X157904272Y-60281728D03*
X141732000Y-54702010D03*
X141084076Y-62230000D03*
D27*
X142894010Y-98844011D03*
X137893249Y-98980611D03*
D26*
X149816728Y-112311272D03*
X165071506Y-94604361D03*
X168128542Y-90641210D03*
X168656000Y-61214000D03*
D27*
X145288000Y-54102000D03*
X166116000Y-58674000D03*
%TO.N,BTN_BREW*%
X140494271Y-98546473D03*
%TO.N,BTN_WATER*%
X139954000Y-98044000D03*
%TO.N,BTN_STEAM*%
X140687150Y-97564850D03*
%TO.N,+3.3VA*%
X161544000Y-63246000D03*
X162306000Y-55118000D03*
%TO.N,+3V3*%
X159512000Y-54864000D03*
X154940000Y-54864000D03*
X164084000Y-92202000D03*
X139192000Y-105664000D03*
X142748000Y-105664000D03*
X160782000Y-103886000D03*
X159004000Y-98298000D03*
D26*
%TO.N,ADS1220_REFN0*%
X168910000Y-56642000D03*
X168910000Y-44958000D03*
D27*
%TO.N,UEXT_CS*%
X139700000Y-98806000D03*
%TO.N,SPI5_SCK*%
X138322010Y-98254998D03*
%TO.N,SPI5_MOSI*%
X140462000Y-96774000D03*
%TO.N,I2C0_SDA*%
X143764000Y-55626000D03*
%TO.N,I2C0_SCL*%
X144384148Y-55031489D03*
%TO.N,UART0_RX*%
X142494000Y-61722000D03*
%TO.N,UART0_TX*%
X141986000Y-61468000D03*
%TO.N,SDC_D0*%
X153162000Y-111760000D03*
X148336000Y-54102000D03*
%TO.N,SDC_CLK*%
X146304000Y-58166000D03*
X153670000Y-112268000D03*
X147574000Y-53594000D03*
%TO.N,V_SDCARD*%
X155751322Y-111246725D03*
X149113968Y-62308400D03*
%TO.N,SDC_CMD*%
X149374480Y-58031509D03*
X156375381Y-111278781D03*
%TO.N,SDC_D3*%
X149860000Y-57912000D03*
X156294222Y-110631922D03*
%TO.N,SDC_D2*%
X158496000Y-112268000D03*
X149352000Y-55372000D03*
%TO.N,SDC_D1*%
X148259044Y-54744656D03*
X152654000Y-111252000D03*
%TO.N,JTAG_RESET*%
X174244000Y-121920000D03*
X149860000Y-54610000D03*
%TO.N,JTAG_TDO*%
X173736000Y-122174000D03*
X151664791Y-55633416D03*
%TO.N,JTAG_TCK*%
X173228000Y-122428000D03*
X150960926Y-55224936D03*
%TO.N,JTAG_TMS*%
X172720000Y-122682000D03*
X150468999Y-55135385D03*
%TO.N,Net-(R4-Pad2)*%
X136906000Y-101854000D03*
X167493990Y-58720152D03*
%TO.N,SPI1_MISO*%
X160318076Y-51575624D03*
X144056011Y-97647508D03*
%TO.N,SPI1_MOSI*%
X143355792Y-97494089D03*
X161007150Y-50320850D03*
%TO.N,ADS1220_DRDY*%
X160056021Y-49747979D03*
X142748000Y-98044000D03*
%TO.N,ADS1220_CS*%
X161544000Y-57912000D03*
X144856023Y-97620675D03*
%TO.N,SPI1_SCLK*%
X161544000Y-57150000D03*
X144353190Y-98153787D03*
%TO.N,Net-(R17-Pad2)*%
X167894000Y-65786000D03*
X136652000Y-104648000D03*
%TD*%
D28*
%TO.N,SSR1_VNEG*%
X173228000Y-73406000D02*
X172466000Y-74168000D01*
X177546000Y-73406000D02*
X173228000Y-73406000D01*
%TO.N,SSR1_GATE*%
X169100000Y-73218000D02*
X168912000Y-73406000D01*
X170466000Y-73218000D02*
X169100000Y-73218000D01*
D29*
X159219376Y-93812990D02*
X146387008Y-93812990D01*
X170466000Y-73218000D02*
X170416000Y-73218000D01*
X146387008Y-93812990D02*
X141710000Y-98489998D01*
X169816000Y-73818000D02*
X169816000Y-74478000D01*
X169816000Y-74478000D02*
X169855999Y-74517999D01*
X170014782Y-91241220D02*
X161791146Y-91241220D01*
X171076001Y-74517999D02*
X171400012Y-74842010D01*
X141710000Y-98489998D02*
X141710000Y-99933000D01*
X171400012Y-89855990D02*
X170014782Y-91241220D01*
X171400012Y-74842010D02*
X171400012Y-89855990D01*
X161791146Y-91241220D02*
X159219376Y-93812990D01*
X170416000Y-73218000D02*
X169816000Y-73818000D01*
X169855999Y-74517999D02*
X171076001Y-74517999D01*
D28*
%TO.N,SSR2_VNEG*%
X173212000Y-80518000D02*
X172450000Y-81280000D01*
X177292000Y-80518000D02*
X173212000Y-80518000D01*
%TO.N,SSR2_GATE*%
X169100000Y-80330000D02*
X168912000Y-80518000D01*
X170450000Y-80330000D02*
X169100000Y-80330000D01*
D29*
X166920009Y-90941209D02*
X161666878Y-90941209D01*
X146179019Y-93512979D02*
X141310000Y-98381998D01*
X141310000Y-98381998D02*
X141310000Y-99363000D01*
X168912000Y-80518000D02*
X169948002Y-80518000D01*
X169948002Y-80518000D02*
X171100001Y-81669999D01*
X168314792Y-88986990D02*
X167769510Y-89532272D01*
X141310000Y-99363000D02*
X141310000Y-99933000D01*
X170369012Y-88986990D02*
X168314792Y-88986990D01*
X167769510Y-90091708D02*
X166920009Y-90941209D01*
X171100001Y-88256001D02*
X170369012Y-88986990D01*
X171100001Y-81669999D02*
X171100001Y-88256001D01*
X167769510Y-89532272D02*
X167769510Y-90091708D01*
X161666878Y-90941209D02*
X159095109Y-93512979D01*
X159095109Y-93512979D02*
X146179019Y-93512979D01*
D28*
%TO.N,SSR3_VNEG*%
X172958000Y-88138000D02*
X172450000Y-88646000D01*
X177292000Y-88138000D02*
X172958000Y-88138000D01*
%TO.N,SSR3_GATE*%
X169100000Y-87696000D02*
X168912000Y-87884000D01*
X170450000Y-87696000D02*
X169100000Y-87696000D01*
D29*
X140910000Y-98103719D02*
X140910000Y-99933000D01*
X142477742Y-96789977D02*
X142223742Y-96789977D01*
X152389000Y-87884000D02*
X147060032Y-93212968D01*
X167098224Y-87884000D02*
X152389000Y-87884000D01*
X142223742Y-96789977D02*
X140910000Y-98103719D01*
X167618234Y-87363990D02*
X167098224Y-87884000D01*
X168391990Y-87363990D02*
X167618234Y-87363990D01*
X168912000Y-87884000D02*
X168391990Y-87363990D01*
X147060032Y-93212968D02*
X146054751Y-93212968D01*
X146054751Y-93212968D02*
X142477742Y-96789977D01*
D28*
%TO.N,+9V*%
X171512000Y-95250000D02*
X169353000Y-97409000D01*
X177038000Y-95250000D02*
X171512000Y-95250000D01*
X133096000Y-126492000D02*
X133096000Y-119901000D01*
X135369000Y-119901000D02*
X144018000Y-111252000D01*
X133096000Y-119901000D02*
X135369000Y-119901000D01*
%TO.N,+5V*%
X134607000Y-111252000D02*
X133350000Y-112509000D01*
X138938000Y-111252000D02*
X134607000Y-111252000D01*
X138885214Y-58166000D02*
X139710000Y-57341214D01*
X139710000Y-57341214D02*
X139710000Y-56753000D01*
X133604000Y-59944000D02*
X135382000Y-58166000D01*
X138938000Y-107950000D02*
X133604000Y-102616000D01*
X138938000Y-111252000D02*
X138938000Y-107950000D01*
X140631214Y-58166000D02*
X141710000Y-59244786D01*
X135382000Y-58166000D02*
X138684000Y-58166000D01*
X141710000Y-59244786D02*
X141710000Y-59833000D01*
X138684000Y-58166000D02*
X140631214Y-58166000D01*
X138684000Y-58166000D02*
X138885214Y-58166000D01*
X143710000Y-57341214D02*
X143710000Y-56753000D01*
X142885214Y-58166000D02*
X143710000Y-57341214D01*
X142240000Y-58166000D02*
X143831214Y-58166000D01*
X140631214Y-58166000D02*
X142240000Y-58166000D01*
X144910000Y-59244786D02*
X144910000Y-59833000D01*
X143831214Y-58166000D02*
X144910000Y-59244786D01*
X142240000Y-58166000D02*
X142885214Y-58166000D01*
X133604000Y-60960000D02*
X133604000Y-54102000D01*
X133604000Y-60960000D02*
X133604000Y-59944000D01*
X133604000Y-54102000D02*
X135890000Y-51816000D01*
X135890000Y-51816000D02*
X152908000Y-51816000D01*
X152908000Y-51816000D02*
X155702000Y-54610000D01*
X155702000Y-54610000D02*
X155702000Y-60706000D01*
X157734000Y-62738000D02*
X163537500Y-62738000D01*
X155702000Y-60706000D02*
X157734000Y-62738000D01*
X177490000Y-64206000D02*
X177546000Y-64262000D01*
X176403769Y-91566231D02*
X161925769Y-91566231D01*
X177292000Y-90678000D02*
X176403769Y-91566231D01*
X158242000Y-95250000D02*
X146304000Y-95250000D01*
X161925769Y-91566231D02*
X158242000Y-95250000D01*
X135382000Y-95250000D02*
X133604000Y-95250000D01*
X133604000Y-95250000D02*
X133604000Y-60960000D01*
X133604000Y-102616000D02*
X133604000Y-95250000D01*
X171704000Y-65532000D02*
X171450000Y-65786000D01*
X171704000Y-63726000D02*
X171704000Y-65532000D01*
X177010000Y-63726000D02*
X177546000Y-64262000D01*
X171704000Y-63726000D02*
X177010000Y-63726000D01*
X164525500Y-63726000D02*
X163537500Y-62738000D01*
X171704000Y-63726000D02*
X164525500Y-63726000D01*
%TO.N,RTD2IN-*%
X165356000Y-43180000D02*
X166370000Y-44194000D01*
X163068000Y-43180000D02*
X165356000Y-43180000D01*
X177036000Y-51306000D02*
X177546000Y-51816000D01*
X171704000Y-51306000D02*
X177036000Y-51306000D01*
X170914000Y-50320000D02*
X171958000Y-49276000D01*
X170434000Y-50320000D02*
X170914000Y-50320000D01*
X171168000Y-48486000D02*
X171958000Y-49276000D01*
X170434000Y-48486000D02*
X171168000Y-48486000D01*
X171704000Y-49530000D02*
X171958000Y-49276000D01*
X171704000Y-51306000D02*
X171704000Y-49530000D01*
X169954000Y-42954000D02*
X169164000Y-42164000D01*
X170434000Y-42954000D02*
X169954000Y-42954000D01*
X168374000Y-42954000D02*
X169164000Y-42164000D01*
X167640000Y-42954000D02*
X168374000Y-42954000D01*
X170124000Y-50320000D02*
X170434000Y-50320000D01*
X170434000Y-55880000D02*
X171704000Y-57150000D01*
X170434000Y-55852000D02*
X170434000Y-55880000D01*
X166906000Y-48486000D02*
X166370000Y-49022000D01*
X167640000Y-48486000D02*
X166906000Y-48486000D01*
X161290000Y-54836000D02*
X161290000Y-56134000D01*
X171767000Y-57213000D02*
X171704000Y-57150000D01*
X171767000Y-59944000D02*
X171767000Y-57213000D01*
X168747500Y-75118000D02*
X168681500Y-75184000D01*
X170466000Y-75118000D02*
X168747500Y-75118000D01*
X170384000Y-82296000D02*
X170450000Y-82230000D01*
X168681500Y-82296000D02*
X170384000Y-82296000D01*
X168773000Y-89596000D02*
X168707000Y-89662000D01*
X170450000Y-89596000D02*
X168773000Y-89596000D01*
X167386000Y-104902000D02*
X166116000Y-103632000D01*
X168148000Y-104902000D02*
X167386000Y-104902000D01*
X164403000Y-101919000D02*
X166116000Y-103632000D01*
X164403000Y-101219000D02*
X164403000Y-101919000D01*
X133096000Y-114313000D02*
X133350000Y-114059000D01*
X133096000Y-118351000D02*
X133096000Y-114313000D01*
X140790757Y-111252000D02*
X141478000Y-111252000D01*
X137983757Y-114059000D02*
X140790757Y-111252000D01*
X133350000Y-114059000D02*
X137983757Y-114059000D01*
X164846000Y-127000000D02*
X164592000Y-127254000D01*
X166960000Y-127000000D02*
X164846000Y-127000000D01*
X166116000Y-125730000D02*
X164592000Y-127254000D01*
X166960000Y-125730000D02*
X166116000Y-125730000D01*
X164592000Y-128622000D02*
X164592000Y-127254000D01*
X165510000Y-129540000D02*
X164592000Y-128622000D01*
X166960000Y-129540000D02*
X165510000Y-129540000D01*
D29*
X149827000Y-114555002D02*
X149827000Y-114195000D01*
X150266999Y-114995001D02*
X149827000Y-114555002D01*
X152426999Y-114995001D02*
X150266999Y-114995001D01*
X152977000Y-114445000D02*
X152426999Y-114995001D01*
X152977000Y-114195000D02*
X152977000Y-114445000D01*
X143710000Y-62176000D02*
X143764000Y-62230000D01*
X143710000Y-59833000D02*
X143710000Y-62176000D01*
X144283000Y-62230000D02*
X143764000Y-62230000D01*
X146110000Y-60403000D02*
X144283000Y-62230000D01*
X146110000Y-59833000D02*
X146110000Y-60403000D01*
X146910000Y-98142000D02*
X146812000Y-98044000D01*
X146910000Y-99933000D02*
X146910000Y-98142000D01*
D28*
X163576000Y-94488000D02*
X164221761Y-94488000D01*
D29*
X168681500Y-83794500D02*
X168656000Y-83820000D01*
X168681500Y-82296000D02*
X168681500Y-83794500D01*
X146812000Y-98044000D02*
X146812000Y-98044000D01*
X140110000Y-103013000D02*
X140110000Y-104734456D01*
X140110000Y-104734456D02*
X140242772Y-104867228D01*
X144910000Y-103583000D02*
X145423727Y-104096727D01*
X144910000Y-103013000D02*
X144910000Y-103583000D01*
X145423727Y-104096727D02*
X145585271Y-104096727D01*
X168681500Y-75184000D02*
X168681500Y-76299198D01*
X168681500Y-76299198D02*
X168181078Y-76799620D01*
D28*
X161799272Y-60281728D02*
X157904272Y-60281728D01*
X163450000Y-61238000D02*
X158860544Y-61238000D01*
X165283000Y-56710500D02*
X161711772Y-60281728D01*
X158860544Y-61238000D02*
X157904272Y-60281728D01*
X164633000Y-56710500D02*
X164633000Y-57448000D01*
X161290000Y-51844000D02*
X160980000Y-51844000D01*
X161711772Y-60281728D02*
X157904272Y-60281728D01*
X160980000Y-51844000D02*
X157904272Y-54919728D01*
X157904272Y-54919728D02*
X157904272Y-60281728D01*
X164633000Y-57448000D02*
X161799272Y-60281728D01*
D29*
X141710000Y-56753000D02*
X141710000Y-54724010D01*
X141710000Y-54724010D02*
X141732000Y-54702010D01*
X144910000Y-56753000D02*
X144910000Y-54826010D01*
X139710000Y-59833000D02*
X139710000Y-60855924D01*
X139710000Y-60855924D02*
X141084076Y-62230000D01*
X142910000Y-99933000D02*
X142910000Y-98860001D01*
X142910000Y-98860001D02*
X142894010Y-98844011D01*
X137310000Y-99563860D02*
X137893249Y-98980611D01*
X137710000Y-99163860D02*
X137893249Y-98980611D01*
X137310000Y-99933000D02*
X137310000Y-99563860D01*
X137710000Y-99933000D02*
X137710000Y-99163860D01*
X149827000Y-114195000D02*
X149827000Y-112321544D01*
X149827000Y-112321544D02*
X149816728Y-112311272D01*
X163576000Y-94488000D02*
X164955145Y-94488000D01*
X164955145Y-94488000D02*
X165071506Y-94604361D01*
X168707000Y-90062752D02*
X168128542Y-90641210D01*
X168707000Y-89662000D02*
X168707000Y-90062752D01*
X168656000Y-61214000D02*
X168656000Y-62979000D01*
X170130000Y-62979000D02*
X170180000Y-62929000D01*
X168656000Y-62979000D02*
X170130000Y-62979000D01*
X171541000Y-62929000D02*
X171704000Y-62766000D01*
X170180000Y-62929000D02*
X171541000Y-62929000D01*
X165283000Y-56710500D02*
X165933000Y-56710500D01*
X144910000Y-54480000D02*
X145288000Y-54102000D01*
X144910000Y-54826010D02*
X144910000Y-54480000D01*
X165933000Y-58491000D02*
X166116000Y-58674000D01*
X165933000Y-56710500D02*
X165933000Y-58491000D01*
%TO.N,BTN_BREW*%
X140510000Y-99933000D02*
X140510000Y-98562202D01*
X140510000Y-98562202D02*
X140494271Y-98546473D01*
%TO.N,BTN_WATER*%
X140008001Y-98521999D02*
X140100001Y-98613999D01*
X140100001Y-99923001D02*
X140110000Y-99933000D01*
X140100001Y-98613999D02*
X140100001Y-99923001D01*
X140008001Y-98098001D02*
X139997278Y-98087278D01*
X140008001Y-98521999D02*
X140008001Y-98098001D01*
%TO.N,BTN_STEAM*%
X139310000Y-99933000D02*
X139252315Y-99875315D01*
X139252315Y-97983685D02*
X139252315Y-98491685D01*
X139671150Y-97564850D02*
X139252315Y-97983685D01*
X140687150Y-97564850D02*
X139671150Y-97564850D01*
X139252315Y-98491685D02*
X139252315Y-98407963D01*
X139252315Y-99875315D02*
X139252315Y-98491685D01*
%TO.N,ENC_CLK*%
X176784000Y-107188000D02*
X165524562Y-107188000D01*
X165524562Y-107188000D02*
X159979532Y-101642970D01*
X159979532Y-101642970D02*
X139678612Y-101642970D01*
X139678612Y-101642970D02*
X139009990Y-102311592D01*
X139009990Y-102311592D02*
X139009990Y-103013000D01*
%TO.N,ENC_DT*%
X175433988Y-108377988D02*
X166290271Y-108377988D01*
X166290271Y-108377988D02*
X159855262Y-101942979D01*
X139310000Y-102435860D02*
X139310000Y-103013000D01*
X159855262Y-101942979D02*
X139802881Y-101942979D01*
X176784000Y-109728000D02*
X175433988Y-108377988D01*
X139802881Y-101942979D02*
X139310000Y-102435860D01*
%TO.N,ENC_SW*%
X173193999Y-108677999D02*
X166166003Y-108677999D01*
X176784000Y-112268000D02*
X173193999Y-108677999D01*
X166166003Y-108677999D02*
X159730994Y-102242990D01*
X159730994Y-102242990D02*
X139927149Y-102242990D01*
X139927149Y-102242990D02*
X139710000Y-102460139D01*
X139710000Y-102460139D02*
X139710000Y-103013000D01*
D28*
%TO.N,Net-(D1-Pad2)*%
X167106500Y-74191500D02*
X167892000Y-73406000D01*
X167106500Y-75184000D02*
X167106500Y-74191500D01*
%TO.N,Net-(D2-Pad2)*%
X167106500Y-81303500D02*
X167892000Y-80518000D01*
X167106500Y-82296000D02*
X167106500Y-81303500D01*
%TO.N,Net-(D3-Pad2)*%
X167132000Y-88644000D02*
X167892000Y-87884000D01*
X167132000Y-89662000D02*
X167132000Y-88644000D01*
%TO.N,PXDCR_AIN*%
X177292000Y-61468000D02*
X177546000Y-61722000D01*
X171452000Y-61468000D02*
X177292000Y-61468000D01*
%TO.N,+3.3VA*%
X165933000Y-51723000D02*
X165933000Y-50985500D01*
X163780000Y-53876000D02*
X165933000Y-51723000D01*
X161290000Y-53876000D02*
X163780000Y-53876000D01*
D29*
X162536000Y-64238000D02*
X161544000Y-63246000D01*
X163450000Y-64238000D02*
X162536000Y-64238000D01*
X162306000Y-54892000D02*
X161290000Y-53876000D01*
X162306000Y-55118000D02*
X162306000Y-54892000D01*
X163741000Y-64529000D02*
X163450000Y-64238000D01*
X168656000Y-64529000D02*
X163741000Y-64529000D01*
D28*
%TO.N,ADS1220_AIN3*%
X171396000Y-52634000D02*
X171704000Y-52326000D01*
X170434000Y-52634000D02*
X171396000Y-52634000D01*
X170434000Y-51280000D02*
X170434000Y-52634000D01*
X170127370Y-52634000D02*
X170434000Y-52634000D01*
X166583000Y-56710500D02*
X166583000Y-56163364D01*
X166998374Y-55747990D02*
X167013380Y-55747990D01*
X167013380Y-55747990D02*
X170127370Y-52634000D01*
X166583000Y-56163364D02*
X166998374Y-55747990D01*
%TO.N,ADS1220_AIN1*%
X170434000Y-43914000D02*
X170434000Y-45212000D01*
X171454000Y-45212000D02*
X171704000Y-44962000D01*
X170434000Y-45212000D02*
X171454000Y-45212000D01*
X168910000Y-51295642D02*
X168910000Y-47274352D01*
X167233000Y-51723000D02*
X167557010Y-52047010D01*
X168158632Y-52047010D02*
X168910000Y-51295642D01*
X168910000Y-47274352D02*
X169799990Y-46384362D01*
X167557010Y-52047010D02*
X168158632Y-52047010D01*
X167233000Y-50985500D02*
X167233000Y-51723000D01*
X169799990Y-45839800D02*
X170427790Y-45212000D01*
X169799990Y-46384362D02*
X169799990Y-45839800D01*
X170427790Y-45212000D02*
X170434000Y-45212000D01*
%TO.N,ADS1220_AIN2*%
X171452000Y-53594000D02*
X171704000Y-53846000D01*
X170434000Y-53594000D02*
X171452000Y-53594000D01*
X170434000Y-54892000D02*
X170434000Y-53594000D01*
X168364358Y-54892000D02*
X170434000Y-54892000D01*
X167233000Y-56023358D02*
X168364358Y-54892000D01*
X167233000Y-56710500D02*
X167233000Y-56023358D01*
%TO.N,ADS1220_AIN0*%
X170434000Y-47526000D02*
X170434000Y-46172000D01*
X171650000Y-46172000D02*
X171704000Y-46226000D01*
X170434000Y-46172000D02*
X171650000Y-46172000D01*
X167356021Y-52496021D02*
X168344618Y-52496021D01*
X166583000Y-51723000D02*
X167356021Y-52496021D01*
X168344618Y-52496021D02*
X169418000Y-51422639D01*
X166583000Y-50985500D02*
X166583000Y-51723000D01*
X170124000Y-47526000D02*
X170434000Y-47526000D01*
X169418000Y-48232000D02*
X170124000Y-47526000D01*
X169418000Y-51422639D02*
X169418000Y-48232000D01*
%TO.N,+3V3*%
X165283000Y-51723000D02*
X165283000Y-50985500D01*
X164202000Y-52804000D02*
X165283000Y-51723000D01*
X161290000Y-52804000D02*
X164202000Y-52804000D01*
D29*
X161290000Y-52804000D02*
X161290000Y-52832000D01*
X159512000Y-54610000D02*
X159512000Y-54864000D01*
X161290000Y-52832000D02*
X159512000Y-54610000D01*
X154940000Y-67310000D02*
X161290000Y-73660000D01*
X154940000Y-54864000D02*
X154940000Y-67310000D01*
X153055000Y-109728000D02*
X167640000Y-109728000D01*
X146910000Y-103013000D02*
X146910000Y-103583000D01*
X172754001Y-110778001D02*
X176784000Y-114808000D01*
X168690001Y-110778001D02*
X172754001Y-110778001D01*
X167640000Y-109728000D02*
X168690001Y-110778001D01*
X167132000Y-124460000D02*
X166960000Y-124460000D01*
X176784000Y-114808000D02*
X167132000Y-124460000D01*
X144910000Y-99933000D02*
X144910000Y-99380140D01*
X144910000Y-99380140D02*
X148024140Y-96266000D01*
X163171300Y-92202000D02*
X164084000Y-92202000D01*
X159107300Y-96266000D02*
X163171300Y-92202000D01*
X144155500Y-104828500D02*
X148155500Y-104828500D01*
X142910000Y-103583000D02*
X144155500Y-104828500D01*
X142910000Y-103013000D02*
X142910000Y-103583000D01*
X148155500Y-104828500D02*
X153055000Y-109728000D01*
X146910000Y-103583000D02*
X148155500Y-104828500D01*
X137710000Y-104182000D02*
X139192000Y-105664000D01*
X137710000Y-103013000D02*
X137710000Y-104182000D01*
X143320000Y-105664000D02*
X144155500Y-104828500D01*
X142748000Y-105664000D02*
X143320000Y-105664000D01*
X167640000Y-109728000D02*
X166624000Y-109728000D01*
X166624000Y-109728000D02*
X160782000Y-103886000D01*
X159004000Y-98298000D02*
X159004000Y-96266000D01*
X159004000Y-96266000D02*
X159107300Y-96266000D01*
X148024140Y-96266000D02*
X159004000Y-96266000D01*
D28*
%TO.N,ADS1220_REFP0*%
X167640000Y-47526000D02*
X167640000Y-46200000D01*
X166650000Y-46200000D02*
X166370000Y-46480000D01*
X167640000Y-46200000D02*
X166650000Y-46200000D01*
X167950000Y-47526000D02*
X167640000Y-47526000D01*
X168274010Y-47850010D02*
X167950000Y-47526000D01*
X168274010Y-50594490D02*
X168274010Y-47850010D01*
X167883000Y-50985500D02*
X168274010Y-50594490D01*
%TO.N,ADS1220_REFN0*%
X167640000Y-43914000D02*
X167640000Y-45240000D01*
X167614000Y-45214000D02*
X167640000Y-45240000D01*
X166370000Y-45214000D02*
X167614000Y-45214000D01*
X168841500Y-56710500D02*
X168910000Y-56642000D01*
X167883000Y-56710500D02*
X168841500Y-56710500D01*
X167922000Y-44958000D02*
X167640000Y-45240000D01*
X168910000Y-44958000D02*
X167922000Y-44958000D01*
%TO.N,ADS1220_IDAC1_RREF*%
X165610000Y-48260000D02*
X166370000Y-47500000D01*
X163068000Y-48260000D02*
X165610000Y-48260000D01*
X177290000Y-47246000D02*
X177546000Y-46990000D01*
X171704000Y-47246000D02*
X177290000Y-47246000D01*
%TO.N,ADS1220_IDAC1_RTD1*%
X177038000Y-43942000D02*
X177546000Y-44450000D01*
X171704000Y-43942000D02*
X177038000Y-43942000D01*
X177036000Y-54866000D02*
X177546000Y-54356000D01*
X171704000Y-54866000D02*
X177036000Y-54866000D01*
X178720001Y-45624001D02*
X177546000Y-44450000D01*
X178720001Y-53181999D02*
X178720001Y-45624001D01*
X177546000Y-54356000D02*
X178720001Y-53181999D01*
D29*
%TO.N,DISPLAY_CS*%
X160562001Y-75149999D02*
X147009990Y-61597988D01*
X147009990Y-61597988D02*
X147009990Y-59932990D01*
X161794001Y-75149999D02*
X160562001Y-75149999D01*
X162340001Y-75695999D02*
X161794001Y-75149999D01*
X161574002Y-77470000D02*
X162340001Y-76704001D01*
X161005998Y-77470000D02*
X161574002Y-77470000D01*
X162340001Y-76704001D02*
X162340001Y-75695999D01*
X160239999Y-78235999D02*
X161005998Y-77470000D01*
X147009990Y-59932990D02*
X146910000Y-59833000D01*
X160239999Y-79244001D02*
X160239999Y-78235999D01*
X161354003Y-79790001D02*
X160785999Y-79790001D01*
X162640012Y-81076010D02*
X161354003Y-79790001D01*
X162640012Y-85009988D02*
X162640012Y-81076010D01*
X160785999Y-79790001D02*
X160239999Y-79244001D01*
X161290000Y-86360000D02*
X162640012Y-85009988D01*
%TO.N,DISPLAY_DC*%
X136906000Y-98721998D02*
X136906000Y-99384140D01*
X161290000Y-83820000D02*
X151807998Y-83820000D01*
X151807998Y-83820000D02*
X136906000Y-98721998D01*
%TO.N,DISPLAY_RES*%
X136510000Y-98693719D02*
X136510000Y-99933000D01*
X161290000Y-81280000D02*
X153923719Y-81280000D01*
X153923719Y-81280000D02*
X136510000Y-98693719D01*
%TO.N,SPI2_MOSI*%
X161778282Y-74710001D02*
X160785999Y-74710001D01*
X162640012Y-75571731D02*
X161778282Y-74710001D01*
X147710000Y-61634002D02*
X147710000Y-59833000D01*
X162640012Y-77389988D02*
X162640012Y-75571731D01*
X160785999Y-74710001D02*
X147710000Y-61634002D01*
X161290000Y-78740000D02*
X162640012Y-77389988D01*
%TO.N,SPI2_SCLK*%
X160087919Y-76200000D02*
X146510000Y-62622081D01*
X146510000Y-62622081D02*
X146510000Y-60403000D01*
X161290000Y-76200000D02*
X160087919Y-76200000D01*
X146510000Y-60403000D02*
X146510000Y-59833000D01*
%TO.N,UEXT_CS*%
X139700000Y-99923000D02*
X139710000Y-99933000D01*
X139700000Y-98806000D02*
X139700000Y-99923000D01*
%TO.N,SPI5_SCK*%
X138110000Y-99355864D02*
X138322010Y-99143854D01*
X138322010Y-99143854D02*
X138322010Y-98254998D01*
X138110000Y-99933000D02*
X138110000Y-99355864D01*
%TO.N,SPI5_MOSI*%
X138938000Y-98298000D02*
X138938000Y-98298000D01*
X138952305Y-97775695D02*
X139954000Y-96774000D01*
X138952305Y-98937835D02*
X138952305Y-97775695D01*
X138510000Y-99380140D02*
X138952305Y-98937835D01*
X139954000Y-96774000D02*
X140462000Y-96774000D01*
X138510000Y-99933000D02*
X138510000Y-99380140D01*
%TO.N,SPI5_MISO*%
X160343999Y-110051999D02*
X144578999Y-110051999D01*
X167640000Y-117348000D02*
X160343999Y-110051999D01*
X138110000Y-103583000D02*
X138110000Y-103013000D01*
X144578999Y-110051999D02*
X138110000Y-103583000D01*
%TO.N,I2C0_SDA*%
X144110000Y-55972000D02*
X144110000Y-56753000D01*
X143764000Y-55626000D02*
X144110000Y-55972000D01*
%TO.N,I2C0_SCL*%
X144510000Y-55157341D02*
X144384148Y-55031489D01*
X144510000Y-56753000D02*
X144510000Y-55157341D01*
%TO.N,UART0_RX*%
X142494000Y-59849000D02*
X142510000Y-59833000D01*
X142494000Y-61722000D02*
X142494000Y-59849000D01*
%TO.N,UART0_TX*%
X142110000Y-61344000D02*
X142110000Y-59833000D01*
X141986000Y-61468000D02*
X142110000Y-61344000D01*
D28*
%TO.N,PSSR_DAC_5V*%
X173492990Y-99324990D02*
X177038000Y-102870000D01*
X168353638Y-99324990D02*
X173492990Y-99324990D01*
X166437648Y-97409000D02*
X168353638Y-99324990D01*
X164403000Y-97409000D02*
X166437648Y-97409000D01*
X162177000Y-97409000D02*
X161798000Y-97030000D01*
X164403000Y-97409000D02*
X162177000Y-97409000D01*
%TO.N,PSSR_EN_9V*%
X175387000Y-98679000D02*
X177038000Y-100330000D01*
X169353000Y-98679000D02*
X175387000Y-98679000D01*
X178212001Y-101504001D02*
X177038000Y-100330000D01*
X176680522Y-104965000D02*
X178212001Y-103433521D01*
X178212001Y-103433521D02*
X178212001Y-101504001D01*
X169926000Y-104965000D02*
X176680522Y-104965000D01*
D29*
%TO.N,SDC_D0*%
X153162000Y-112110000D02*
X153162000Y-111760000D01*
X151877000Y-113395000D02*
X153162000Y-112110000D01*
X151877000Y-114195000D02*
X151877000Y-113395000D01*
X147310000Y-55128000D02*
X147310000Y-56753000D01*
X148336000Y-54102000D02*
X147310000Y-55128000D01*
%TO.N,SDC_CLK*%
X146510000Y-57960000D02*
X146304000Y-58166000D01*
X146510000Y-56753000D02*
X146510000Y-57960000D01*
X154077000Y-112675000D02*
X153670000Y-112268000D01*
X154077000Y-114195000D02*
X154077000Y-112675000D01*
X146510000Y-54658000D02*
X146510000Y-56753000D01*
X147574000Y-53594000D02*
X146510000Y-54658000D01*
%TO.N,V_SDCARD*%
X155177000Y-114195000D02*
X155177000Y-111821047D01*
X155177000Y-111821047D02*
X155751322Y-111246725D01*
X149710000Y-61712368D02*
X149113968Y-62308400D01*
X149710000Y-59833000D02*
X149710000Y-61712368D01*
%TO.N,SDC_CMD*%
X146910000Y-56753000D02*
X146910000Y-57323000D01*
X146910000Y-57323000D02*
X147618509Y-58031509D01*
X147618509Y-58031509D02*
X149374480Y-58031509D01*
X156277000Y-114195000D02*
X156277000Y-111377162D01*
X156277000Y-111377162D02*
X156375381Y-111278781D01*
%TO.N,SDC_D3*%
X148510000Y-57323000D02*
X148510000Y-56753000D01*
X148710010Y-57523010D02*
X148510000Y-57323000D01*
X149471010Y-57523010D02*
X148710010Y-57523010D01*
X149860000Y-57912000D02*
X149471010Y-57523010D01*
X157377000Y-111714700D02*
X156294222Y-110631922D01*
X157377000Y-114195000D02*
X157377000Y-111714700D01*
%TO.N,SDC_D2*%
X158477000Y-112287000D02*
X158496000Y-112268000D01*
X158477000Y-114195000D02*
X158477000Y-112287000D01*
X148110000Y-56183000D02*
X148110000Y-56753000D01*
X148921000Y-55372000D02*
X148110000Y-56183000D01*
X149352000Y-55372000D02*
X148921000Y-55372000D01*
%TO.N,SDC_D1*%
X147710000Y-56753000D02*
X147710000Y-55293700D01*
X147710000Y-55293700D02*
X148259044Y-54744656D01*
X150777000Y-113395000D02*
X152654000Y-111518000D01*
X150777000Y-114195000D02*
X150777000Y-113395000D01*
X152654000Y-111518000D02*
X152654000Y-111252000D01*
%TO.N,JTAG_RESET*%
X174244000Y-127556000D02*
X174244000Y-121920000D01*
X172260000Y-129540000D02*
X174244000Y-127556000D01*
X170860000Y-129540000D02*
X172260000Y-129540000D01*
X149860000Y-55387668D02*
X150110000Y-55637668D01*
X150110000Y-55637668D02*
X150110000Y-56753000D01*
X149860000Y-54610000D02*
X149860000Y-55387668D01*
%TO.N,JTAG_TDO*%
X173736000Y-125524000D02*
X173736000Y-122174000D01*
X172260000Y-127000000D02*
X173736000Y-125524000D01*
X170860000Y-127000000D02*
X172260000Y-127000000D01*
X151310000Y-55988207D02*
X151664791Y-55633416D01*
X151310000Y-56753000D02*
X151310000Y-55988207D01*
%TO.N,JTAG_TCK*%
X173228000Y-124762000D02*
X173228000Y-122428000D01*
X172260000Y-125730000D02*
X173228000Y-124762000D01*
X170860000Y-125730000D02*
X172260000Y-125730000D01*
X151160925Y-55713004D02*
X151160925Y-55424935D01*
X151010000Y-55863929D02*
X151160925Y-55713004D01*
X151010000Y-56653000D02*
X151010000Y-55863929D01*
X151160925Y-55424935D02*
X150960926Y-55224936D01*
X150910000Y-56753000D02*
X151010000Y-56653000D01*
%TO.N,JTAG_TMS*%
X170942000Y-124460000D02*
X172720000Y-122682000D01*
X170860000Y-124460000D02*
X170942000Y-124460000D01*
X150510000Y-55176386D02*
X150468999Y-55135385D01*
X150510000Y-56753000D02*
X150510000Y-55176386D01*
D28*
%TO.N,Net-(R4-Pad2)*%
X170432000Y-60259000D02*
X170117000Y-59944000D01*
X170432000Y-61468000D02*
X170432000Y-60259000D01*
D29*
X136910000Y-101858000D02*
X136906000Y-101854000D01*
X136910000Y-103013000D02*
X136910000Y-101858000D01*
X168717838Y-59944000D02*
X167493990Y-58720152D01*
X170117000Y-59944000D02*
X168717838Y-59944000D01*
D28*
%TO.N,Net-(R6-Pad1)*%
X161798000Y-94616000D02*
X161926000Y-94488000D01*
X161798000Y-96010000D02*
X161798000Y-94616000D01*
D29*
X161277990Y-97303766D02*
X161277990Y-96530010D01*
X162653224Y-98679000D02*
X161277990Y-97303766D01*
X161277990Y-96530010D02*
X161798000Y-96010000D01*
X164403000Y-98679000D02*
X162653224Y-98679000D01*
D28*
%TO.N,Net-(R8-Pad1)*%
X170328000Y-99949000D02*
X170652010Y-100273010D01*
X170652010Y-102588990D02*
X169926000Y-103315000D01*
X170652010Y-100273010D02*
X170652010Y-102588990D01*
X169353000Y-99949000D02*
X170328000Y-99949000D01*
X168211000Y-103315000D02*
X168148000Y-103252000D01*
X169926000Y-103315000D02*
X168211000Y-103315000D01*
D29*
%TO.N,PSSR_EN_3V3*%
X163148987Y-101003021D02*
X136202882Y-101003021D01*
X169353000Y-101219000D02*
X168852990Y-100718990D01*
X163433018Y-100718990D02*
X163148987Y-101003021D01*
X168852990Y-100718990D02*
X163433018Y-100718990D01*
X135710000Y-100510139D02*
X135710000Y-99933000D01*
X136202882Y-101003021D02*
X135710000Y-100510139D01*
%TO.N,PSSR_DAC_3V3*%
X164403000Y-99949000D02*
X163428000Y-99949000D01*
X162673990Y-100703010D02*
X136327149Y-100703010D01*
X136327149Y-100703010D02*
X136110000Y-100485861D01*
X163428000Y-99949000D02*
X162673990Y-100703010D01*
X136110000Y-100485861D02*
X136110000Y-99933000D01*
%TO.N,SPI1_MISO*%
X160908200Y-50985500D02*
X160318076Y-51575624D01*
X163333000Y-50985500D02*
X160908200Y-50985500D01*
X143810000Y-99833000D02*
X143810000Y-97893519D01*
X143810000Y-97893519D02*
X144056011Y-97647508D01*
X143710000Y-99933000D02*
X143810000Y-99833000D01*
%TO.N,SPI1_MOSI*%
X143310000Y-97539881D02*
X143355792Y-97494089D01*
X143310000Y-99933000D02*
X143310000Y-97539881D01*
X163983000Y-50985500D02*
X163983000Y-50248000D01*
X163983000Y-50248000D02*
X163782990Y-50047990D01*
X161280010Y-50047990D02*
X161007150Y-50320850D01*
X163782990Y-50047990D02*
X161280010Y-50047990D01*
%TO.N,ADS1220_DRDY*%
X164132979Y-49747979D02*
X160056021Y-49747979D01*
X164633000Y-50248000D02*
X164132979Y-49747979D01*
X164633000Y-50985500D02*
X164633000Y-50248000D01*
X142748000Y-98044000D02*
X142494000Y-98298000D01*
X142494000Y-99917000D02*
X142510000Y-99933000D01*
X142494000Y-98298000D02*
X142494000Y-99917000D01*
%TO.N,ADS1220_CS*%
X163983000Y-57448000D02*
X163519000Y-57912000D01*
X163519000Y-57912000D02*
X161544000Y-57912000D01*
X163983000Y-56710500D02*
X163983000Y-57448000D01*
X144510000Y-99933000D02*
X144510000Y-99355862D01*
X144856023Y-99009839D02*
X144856023Y-97620675D01*
X144510000Y-99355862D02*
X144856023Y-99009839D01*
%TO.N,SPI1_SCLK*%
X161983500Y-56710500D02*
X161544000Y-57150000D01*
X163333000Y-56710500D02*
X161983500Y-56710500D01*
X144110000Y-98396977D02*
X144353190Y-98153787D01*
X144110000Y-99933000D02*
X144110000Y-98396977D01*
%TO.N,Net-(R17-Pad2)*%
X170180000Y-65536000D02*
X170430000Y-65786000D01*
X170180000Y-64579000D02*
X170180000Y-65536000D01*
X170430000Y-65786000D02*
X167894000Y-65786000D01*
X137310000Y-103990000D02*
X137310000Y-103013000D01*
X136652000Y-104648000D02*
X137310000Y-103990000D01*
%TD*%
M02*
