%TF.GenerationSoftware,KiCad,Pcbnew,(5.1.9-0-10_14)*%
%TF.CreationDate,2021-11-19T16:31:04+01:00*%
%TF.ProjectId,Silviaduino,53696c76-6961-4647-9569-6e6f2e6b6963,rev?*%
%TF.SameCoordinates,Original*%
%TF.FileFunction,Legend,Top*%
%TF.FilePolarity,Positive*%
%FSLAX46Y46*%
G04 Gerber Fmt 4.6, Leading zero omitted, Abs format (unit mm)*
G04 Created by KiCad (PCBNEW (5.1.9-0-10_14)) date 2021-11-19 16:31:04*
%MOMM*%
%LPD*%
G01*
G04 APERTURE LIST*
%ADD10C,0.120000*%
%ADD11C,0.150000*%
G04 APERTURE END LIST*
D10*
%TO.C,R18*%
X169657500Y-63991258D02*
X169657500Y-63516742D01*
X170702500Y-63991258D02*
X170702500Y-63516742D01*
%TO.C,R17*%
X171093641Y-66166000D02*
X170786359Y-66166000D01*
X171093641Y-65406000D02*
X170786359Y-65406000D01*
%TO.C,C15*%
X171344000Y-63353836D02*
X171344000Y-63138164D01*
X172064000Y-63353836D02*
X172064000Y-63138164D01*
%TO.C,R9*%
X170448500Y-104377258D02*
X170448500Y-103902742D01*
X169403500Y-104377258D02*
X169403500Y-103902742D01*
%TO.C,R8*%
X167625500Y-103839742D02*
X167625500Y-104314258D01*
X168670500Y-103839742D02*
X168670500Y-104314258D01*
%TO.C,R6*%
X162513742Y-95010500D02*
X162988258Y-95010500D01*
X162513742Y-93965500D02*
X162988258Y-93965500D01*
%TO.C,R5*%
X170704742Y-60466500D02*
X171179258Y-60466500D01*
X170704742Y-59421500D02*
X171179258Y-59421500D01*
%TO.C,C4*%
X169166000Y-63894580D02*
X169166000Y-63613420D01*
X168146000Y-63894580D02*
X168146000Y-63613420D01*
%TO.C,C3*%
X132840000Y-113143420D02*
X132840000Y-113424580D01*
X133860000Y-113143420D02*
X133860000Y-113424580D01*
%TO.C,C2*%
X133606000Y-119266580D02*
X133606000Y-118985420D01*
X132586000Y-119266580D02*
X132586000Y-118985420D01*
%TO.C,U5*%
X162873000Y-53848000D02*
X162873000Y-57448000D01*
X162873000Y-53848000D02*
X162873000Y-51648000D01*
X168343000Y-53848000D02*
X168343000Y-56048000D01*
X168343000Y-53848000D02*
X168343000Y-51648000D01*
%TO.C,U4*%
X148010000Y-49214000D02*
X148010000Y-41214000D01*
X139010000Y-49214000D02*
X148010000Y-49214000D01*
X139010000Y-41214000D02*
X139010000Y-49214000D01*
X143510000Y-58287000D02*
X144010000Y-58287000D01*
X143510000Y-58301000D02*
X143510000Y-58801000D01*
X143510000Y-58287000D02*
X143510000Y-57787000D01*
X143510000Y-58287000D02*
X143010000Y-58287000D01*
X143510000Y-101473000D02*
X143510000Y-100973000D01*
X143510000Y-101473000D02*
X143002000Y-101473000D01*
X143510000Y-101473000D02*
X144010000Y-101473000D01*
X155321000Y-107188000D02*
X131699000Y-107188000D01*
X131699000Y-41148000D02*
X155321000Y-41148000D01*
X156337000Y-42164000D02*
X156337000Y-106172000D01*
X130683000Y-106172000D02*
X130683000Y-42164000D01*
X143510000Y-101981000D02*
X143510000Y-101481000D01*
X131699000Y-107188000D02*
G75*
G02*
X130683000Y-106172000I0J1016000D01*
G01*
X156337000Y-106172000D02*
G75*
G02*
X155321000Y-107188000I-1016000J0D01*
G01*
X155321000Y-41148000D02*
G75*
G02*
X156337000Y-42164000I0J-1016000D01*
G01*
X130683000Y-42164000D02*
G75*
G02*
X131699000Y-41148000I1016000J0D01*
G01*
%TO.C,U3*%
X166878000Y-96754000D02*
X163428000Y-96754000D01*
X166878000Y-96754000D02*
X168828000Y-96754000D01*
X166878000Y-101874000D02*
X164928000Y-101874000D01*
X166878000Y-101874000D02*
X168828000Y-101874000D01*
%TO.C,U2*%
X164040000Y-65098000D02*
X164040000Y-64868000D01*
X164040000Y-60378000D02*
X164040000Y-60608000D01*
X164040000Y-60378000D02*
X166760000Y-60378000D01*
X166760000Y-60378000D02*
X166760000Y-61688000D01*
X162900000Y-60608000D02*
X164040000Y-60608000D01*
X166760000Y-65098000D02*
X164040000Y-65098000D01*
X166760000Y-63788000D02*
X166760000Y-65098000D01*
%TO.C,U1*%
X138938000Y-114942000D02*
X138938000Y-112402000D01*
X141478000Y-114942000D02*
X141478000Y-112402000D01*
X144018000Y-114942000D02*
X144018000Y-112402000D01*
X136358000Y-130832000D02*
X136358000Y-114942000D01*
X146598000Y-130832000D02*
X146598000Y-114942000D01*
X146598000Y-130832000D02*
X136358000Y-130832000D01*
X146598000Y-114942000D02*
X136358000Y-114942000D01*
%TO.C,R16*%
X165990000Y-44550359D02*
X165990000Y-44857641D01*
X166750000Y-44550359D02*
X166750000Y-44857641D01*
%TO.C,R15*%
X162148000Y-43800000D02*
X162148000Y-47640000D01*
X163988000Y-43800000D02*
X163988000Y-47640000D01*
%TO.C,R14*%
X166750000Y-47143641D02*
X166750000Y-46836359D01*
X165990000Y-47143641D02*
X165990000Y-46836359D01*
%TO.C,R13*%
X172084000Y-46889641D02*
X172084000Y-46582359D01*
X171324000Y-46889641D02*
X171324000Y-46582359D01*
%TO.C,R12*%
X172084000Y-54509641D02*
X172084000Y-54202359D01*
X171324000Y-54509641D02*
X171324000Y-54202359D01*
%TO.C,R11*%
X171324000Y-44298359D02*
X171324000Y-44605641D01*
X172084000Y-44298359D02*
X172084000Y-44605641D01*
%TO.C,R10*%
X171324000Y-51662359D02*
X171324000Y-51969641D01*
X172084000Y-51662359D02*
X172084000Y-51969641D01*
%TO.C,R7*%
X162178000Y-96673641D02*
X162178000Y-96366359D01*
X161418000Y-96673641D02*
X161418000Y-96366359D01*
%TO.C,R4*%
X171095641Y-61088000D02*
X170788359Y-61088000D01*
X171095641Y-61848000D02*
X170788359Y-61848000D01*
%TO.C,R3*%
X168555641Y-87504000D02*
X168248359Y-87504000D01*
X168555641Y-88264000D02*
X168248359Y-88264000D01*
%TO.C,R2*%
X168555641Y-80138000D02*
X168248359Y-80138000D01*
X168555641Y-80898000D02*
X168248359Y-80898000D01*
%TO.C,R1*%
X168555641Y-73026000D02*
X168248359Y-73026000D01*
X168555641Y-73786000D02*
X168248359Y-73786000D01*
%TO.C,Q3*%
X172210000Y-90226000D02*
X170750000Y-90226000D01*
X172210000Y-87066000D02*
X170050000Y-87066000D01*
X172210000Y-87066000D02*
X172210000Y-87996000D01*
X172210000Y-90226000D02*
X172210000Y-89296000D01*
%TO.C,Q2*%
X172210000Y-82860000D02*
X170750000Y-82860000D01*
X172210000Y-79700000D02*
X170050000Y-79700000D01*
X172210000Y-79700000D02*
X172210000Y-80630000D01*
X172210000Y-82860000D02*
X172210000Y-81930000D01*
%TO.C,Q1*%
X172226000Y-75748000D02*
X170766000Y-75748000D01*
X172226000Y-72588000D02*
X170066000Y-72588000D01*
X172226000Y-72588000D02*
X172226000Y-73518000D01*
X172226000Y-75748000D02*
X172226000Y-74818000D01*
%TO.C,J14*%
X170675000Y-130170000D02*
X170675000Y-130235000D01*
X167145000Y-130170000D02*
X167145000Y-130235000D01*
X170675000Y-123765000D02*
X170675000Y-123830000D01*
X167145000Y-123765000D02*
X167145000Y-123830000D01*
X165820000Y-123830000D02*
X167145000Y-123830000D01*
X167145000Y-130235000D02*
X170675000Y-130235000D01*
X167145000Y-123765000D02*
X170675000Y-123765000D01*
%TO.C,J13*%
X160777000Y-114035000D02*
X162697000Y-114035000D01*
X162697000Y-114035000D02*
X162697000Y-128045000D01*
X149177000Y-114035000D02*
X148727000Y-114035000D01*
X148727000Y-114035000D02*
X148727000Y-117645000D01*
X161017000Y-130305000D02*
X158707000Y-130305000D01*
X149757000Y-130305000D02*
X151617000Y-130305000D01*
X149757000Y-130305000D02*
X149557000Y-130105000D01*
X148727000Y-119345000D02*
X148727000Y-124045000D01*
X148727000Y-125345000D02*
X148727000Y-127145000D01*
X151827000Y-129955000D02*
X158197000Y-129955000D01*
X151827000Y-129955000D02*
X151827000Y-130105000D01*
X151617000Y-130305000D02*
X151827000Y-130105000D01*
X161017000Y-130305000D02*
X161217000Y-130105000D01*
X161217000Y-130105000D02*
X161477000Y-130105000D01*
X158707000Y-130305000D02*
X158197000Y-129955000D01*
%TO.C,J12*%
X131766000Y-125162000D02*
X133096000Y-125162000D01*
X131766000Y-126492000D02*
X131766000Y-125162000D01*
X131766000Y-127762000D02*
X134426000Y-127762000D01*
X134426000Y-127762000D02*
X134426000Y-130362000D01*
X131766000Y-127762000D02*
X131766000Y-130362000D01*
X131766000Y-130362000D02*
X134426000Y-130362000D01*
%TO.C,J11*%
X175708000Y-93920000D02*
X177038000Y-93920000D01*
X175708000Y-95250000D02*
X175708000Y-93920000D01*
X175708000Y-96520000D02*
X178368000Y-96520000D01*
X178368000Y-96520000D02*
X178368000Y-104200000D01*
X175708000Y-96520000D02*
X175708000Y-104200000D01*
X175708000Y-104200000D02*
X178368000Y-104200000D01*
%TO.C,J10*%
X166310000Y-108398000D02*
X167640000Y-108398000D01*
X166310000Y-109728000D02*
X166310000Y-108398000D01*
X168910000Y-108398000D02*
X171510000Y-108398000D01*
X168910000Y-110998000D02*
X168910000Y-108398000D01*
X166310000Y-110998000D02*
X168910000Y-110998000D01*
X171510000Y-108398000D02*
X171510000Y-121218000D01*
X166310000Y-110998000D02*
X166310000Y-121218000D01*
X166310000Y-121218000D02*
X171510000Y-121218000D01*
%TO.C,J9*%
X175454000Y-105858000D02*
X176784000Y-105858000D01*
X175454000Y-107188000D02*
X175454000Y-105858000D01*
X175454000Y-108458000D02*
X178114000Y-108458000D01*
X178114000Y-108458000D02*
X178114000Y-118678000D01*
X175454000Y-108458000D02*
X175454000Y-118678000D01*
X175454000Y-118678000D02*
X178114000Y-118678000D01*
%TO.C,J8*%
X175454000Y-120082000D02*
X176784000Y-120082000D01*
X175454000Y-121412000D02*
X175454000Y-120082000D01*
X175454000Y-122682000D02*
X178114000Y-122682000D01*
X178114000Y-122682000D02*
X178114000Y-130362000D01*
X175454000Y-122682000D02*
X175454000Y-130362000D01*
X175454000Y-130362000D02*
X178114000Y-130362000D01*
%TO.C,J7*%
X176216000Y-57852000D02*
X177546000Y-57852000D01*
X176216000Y-59182000D02*
X176216000Y-57852000D01*
X176216000Y-60452000D02*
X178876000Y-60452000D01*
X178876000Y-60452000D02*
X178876000Y-65592000D01*
X176216000Y-60452000D02*
X176216000Y-65592000D01*
X176216000Y-65592000D02*
X178876000Y-65592000D01*
%TO.C,J6*%
X159960000Y-69790000D02*
X161290000Y-69790000D01*
X159960000Y-71120000D02*
X159960000Y-69790000D01*
X159960000Y-72390000D02*
X162620000Y-72390000D01*
X162620000Y-72390000D02*
X162620000Y-87690000D01*
X159960000Y-72390000D02*
X159960000Y-87690000D01*
X159960000Y-87690000D02*
X162620000Y-87690000D01*
%TO.C,J5*%
X175962000Y-86808000D02*
X177292000Y-86808000D01*
X175962000Y-88138000D02*
X175962000Y-86808000D01*
X175962000Y-89408000D02*
X178622000Y-89408000D01*
X178622000Y-89408000D02*
X178622000Y-92008000D01*
X175962000Y-89408000D02*
X175962000Y-92008000D01*
X175962000Y-92008000D02*
X178622000Y-92008000D01*
%TO.C,J4*%
X175962000Y-79188000D02*
X177292000Y-79188000D01*
X175962000Y-80518000D02*
X175962000Y-79188000D01*
X175962000Y-81788000D02*
X178622000Y-81788000D01*
X178622000Y-81788000D02*
X178622000Y-84388000D01*
X175962000Y-81788000D02*
X175962000Y-84388000D01*
X175962000Y-84388000D02*
X178622000Y-84388000D01*
%TO.C,J3*%
X176216000Y-72076000D02*
X177546000Y-72076000D01*
X176216000Y-73406000D02*
X176216000Y-72076000D01*
X176216000Y-74676000D02*
X178876000Y-74676000D01*
X178876000Y-74676000D02*
X178876000Y-77276000D01*
X176216000Y-74676000D02*
X176216000Y-77276000D01*
X176216000Y-77276000D02*
X178876000Y-77276000D01*
%TO.C,J2*%
X176216000Y-50486000D02*
X177546000Y-50486000D01*
X176216000Y-51816000D02*
X176216000Y-50486000D01*
X176216000Y-53086000D02*
X178876000Y-53086000D01*
X178876000Y-53086000D02*
X178876000Y-55686000D01*
X176216000Y-53086000D02*
X176216000Y-55686000D01*
X176216000Y-55686000D02*
X178876000Y-55686000D01*
%TO.C,J1*%
X176216000Y-43120000D02*
X177546000Y-43120000D01*
X176216000Y-44450000D02*
X176216000Y-43120000D01*
X176216000Y-45720000D02*
X178876000Y-45720000D01*
X178876000Y-45720000D02*
X178876000Y-48320000D01*
X176216000Y-45720000D02*
X176216000Y-48320000D01*
X176216000Y-48320000D02*
X178876000Y-48320000D01*
%TO.C,D3*%
X169404500Y-88927000D02*
X167119500Y-88927000D01*
X169404500Y-90397000D02*
X169404500Y-88927000D01*
X167119500Y-90397000D02*
X169404500Y-90397000D01*
%TO.C,D2*%
X169379000Y-81561000D02*
X167094000Y-81561000D01*
X169379000Y-83031000D02*
X169379000Y-81561000D01*
X167094000Y-83031000D02*
X169379000Y-83031000D01*
%TO.C,D1*%
X169379000Y-74449000D02*
X167094000Y-74449000D01*
X169379000Y-75919000D02*
X169379000Y-74449000D01*
X167094000Y-75919000D02*
X169379000Y-75919000D01*
%TO.C,C14*%
X167280000Y-43326164D02*
X167280000Y-43541836D01*
X168000000Y-43326164D02*
X168000000Y-43541836D01*
%TO.C,C13*%
X167280000Y-45612164D02*
X167280000Y-45827836D01*
X168000000Y-45612164D02*
X168000000Y-45827836D01*
%TO.C,C12*%
X167280000Y-47898164D02*
X167280000Y-48113836D01*
X168000000Y-47898164D02*
X168000000Y-48113836D01*
%TO.C,C11*%
X170794000Y-48113836D02*
X170794000Y-47898164D01*
X170074000Y-48113836D02*
X170074000Y-47898164D01*
%TO.C,C10*%
X170794000Y-55479836D02*
X170794000Y-55264164D01*
X170074000Y-55479836D02*
X170074000Y-55264164D01*
%TO.C,C9*%
X160930000Y-52216164D02*
X160930000Y-52431836D01*
X161650000Y-52216164D02*
X161650000Y-52431836D01*
%TO.C,C8*%
X170794000Y-45799836D02*
X170794000Y-45584164D01*
X170074000Y-45799836D02*
X170074000Y-45584164D01*
%TO.C,C7*%
X170794000Y-53221836D02*
X170794000Y-53006164D01*
X170074000Y-53221836D02*
X170074000Y-53006164D01*
%TO.C,C6*%
X170794000Y-43541836D02*
X170794000Y-43326164D01*
X170074000Y-43541836D02*
X170074000Y-43326164D01*
%TO.C,C5*%
X170794000Y-50907836D02*
X170794000Y-50692164D01*
X170074000Y-50907836D02*
X170074000Y-50692164D01*
%TO.C,C1*%
X161650000Y-54463836D02*
X161650000Y-54248164D01*
X160930000Y-54463836D02*
X160930000Y-54248164D01*
%TO.C,R18*%
D11*
X169202380Y-64396857D02*
X168726190Y-64730190D01*
X169202380Y-64968285D02*
X168202380Y-64968285D01*
X168202380Y-64587333D01*
X168250000Y-64492095D01*
X168297619Y-64444476D01*
X168392857Y-64396857D01*
X168535714Y-64396857D01*
X168630952Y-64444476D01*
X168678571Y-64492095D01*
X168726190Y-64587333D01*
X168726190Y-64968285D01*
X169202380Y-63444476D02*
X169202380Y-64015904D01*
X169202380Y-63730190D02*
X168202380Y-63730190D01*
X168345238Y-63825428D01*
X168440476Y-63920666D01*
X168488095Y-64015904D01*
X168630952Y-62873047D02*
X168583333Y-62968285D01*
X168535714Y-63015904D01*
X168440476Y-63063523D01*
X168392857Y-63063523D01*
X168297619Y-63015904D01*
X168250000Y-62968285D01*
X168202380Y-62873047D01*
X168202380Y-62682571D01*
X168250000Y-62587333D01*
X168297619Y-62539714D01*
X168392857Y-62492095D01*
X168440476Y-62492095D01*
X168535714Y-62539714D01*
X168583333Y-62587333D01*
X168630952Y-62682571D01*
X168630952Y-62873047D01*
X168678571Y-62968285D01*
X168726190Y-63015904D01*
X168821428Y-63063523D01*
X169011904Y-63063523D01*
X169107142Y-63015904D01*
X169154761Y-62968285D01*
X169202380Y-62873047D01*
X169202380Y-62682571D01*
X169154761Y-62587333D01*
X169107142Y-62539714D01*
X169011904Y-62492095D01*
X168821428Y-62492095D01*
X168726190Y-62539714D01*
X168678571Y-62587333D01*
X168630952Y-62682571D01*
%TO.C,R17*%
X170297142Y-67408380D02*
X169963809Y-66932190D01*
X169725714Y-67408380D02*
X169725714Y-66408380D01*
X170106666Y-66408380D01*
X170201904Y-66456000D01*
X170249523Y-66503619D01*
X170297142Y-66598857D01*
X170297142Y-66741714D01*
X170249523Y-66836952D01*
X170201904Y-66884571D01*
X170106666Y-66932190D01*
X169725714Y-66932190D01*
X171249523Y-67408380D02*
X170678095Y-67408380D01*
X170963809Y-67408380D02*
X170963809Y-66408380D01*
X170868571Y-66551238D01*
X170773333Y-66646476D01*
X170678095Y-66694095D01*
X171582857Y-66408380D02*
X172249523Y-66408380D01*
X171820952Y-67408380D01*
%TO.C,C15*%
X170901142Y-63888857D02*
X170948761Y-63936476D01*
X170996380Y-64079333D01*
X170996380Y-64174571D01*
X170948761Y-64317428D01*
X170853523Y-64412666D01*
X170758285Y-64460285D01*
X170567809Y-64507904D01*
X170424952Y-64507904D01*
X170234476Y-64460285D01*
X170139238Y-64412666D01*
X170044000Y-64317428D01*
X169996380Y-64174571D01*
X169996380Y-64079333D01*
X170044000Y-63936476D01*
X170091619Y-63888857D01*
X170996380Y-62936476D02*
X170996380Y-63507904D01*
X170996380Y-63222190D02*
X169996380Y-63222190D01*
X170139238Y-63317428D01*
X170234476Y-63412666D01*
X170282095Y-63507904D01*
X169996380Y-62031714D02*
X169996380Y-62507904D01*
X170472571Y-62555523D01*
X170424952Y-62507904D01*
X170377333Y-62412666D01*
X170377333Y-62174571D01*
X170424952Y-62079333D01*
X170472571Y-62031714D01*
X170567809Y-61984095D01*
X170805904Y-61984095D01*
X170901142Y-62031714D01*
X170948761Y-62079333D01*
X170996380Y-62174571D01*
X170996380Y-62412666D01*
X170948761Y-62507904D01*
X170901142Y-62555523D01*
%TO.C,R9*%
X168948380Y-104306666D02*
X168472190Y-104640000D01*
X168948380Y-104878095D02*
X167948380Y-104878095D01*
X167948380Y-104497142D01*
X167996000Y-104401904D01*
X168043619Y-104354285D01*
X168138857Y-104306666D01*
X168281714Y-104306666D01*
X168376952Y-104354285D01*
X168424571Y-104401904D01*
X168472190Y-104497142D01*
X168472190Y-104878095D01*
X168948380Y-103830476D02*
X168948380Y-103640000D01*
X168900761Y-103544761D01*
X168853142Y-103497142D01*
X168710285Y-103401904D01*
X168519809Y-103354285D01*
X168138857Y-103354285D01*
X168043619Y-103401904D01*
X167996000Y-103449523D01*
X167948380Y-103544761D01*
X167948380Y-103735238D01*
X167996000Y-103830476D01*
X168043619Y-103878095D01*
X168138857Y-103925714D01*
X168376952Y-103925714D01*
X168472190Y-103878095D01*
X168519809Y-103830476D01*
X168567428Y-103735238D01*
X168567428Y-103544761D01*
X168519809Y-103449523D01*
X168472190Y-103401904D01*
X168376952Y-103354285D01*
%TO.C,R8*%
X170030380Y-104243666D02*
X169554190Y-104577000D01*
X170030380Y-104815095D02*
X169030380Y-104815095D01*
X169030380Y-104434142D01*
X169078000Y-104338904D01*
X169125619Y-104291285D01*
X169220857Y-104243666D01*
X169363714Y-104243666D01*
X169458952Y-104291285D01*
X169506571Y-104338904D01*
X169554190Y-104434142D01*
X169554190Y-104815095D01*
X169458952Y-103672238D02*
X169411333Y-103767476D01*
X169363714Y-103815095D01*
X169268476Y-103862714D01*
X169220857Y-103862714D01*
X169125619Y-103815095D01*
X169078000Y-103767476D01*
X169030380Y-103672238D01*
X169030380Y-103481761D01*
X169078000Y-103386523D01*
X169125619Y-103338904D01*
X169220857Y-103291285D01*
X169268476Y-103291285D01*
X169363714Y-103338904D01*
X169411333Y-103386523D01*
X169458952Y-103481761D01*
X169458952Y-103672238D01*
X169506571Y-103767476D01*
X169554190Y-103815095D01*
X169649428Y-103862714D01*
X169839904Y-103862714D01*
X169935142Y-103815095D01*
X169982761Y-103767476D01*
X170030380Y-103672238D01*
X170030380Y-103481761D01*
X169982761Y-103386523D01*
X169935142Y-103338904D01*
X169839904Y-103291285D01*
X169649428Y-103291285D01*
X169554190Y-103338904D01*
X169506571Y-103386523D01*
X169458952Y-103481761D01*
%TO.C,R6*%
X162584333Y-93510380D02*
X162251000Y-93034190D01*
X162012904Y-93510380D02*
X162012904Y-92510380D01*
X162393857Y-92510380D01*
X162489095Y-92558000D01*
X162536714Y-92605619D01*
X162584333Y-92700857D01*
X162584333Y-92843714D01*
X162536714Y-92938952D01*
X162489095Y-92986571D01*
X162393857Y-93034190D01*
X162012904Y-93034190D01*
X163441476Y-92510380D02*
X163251000Y-92510380D01*
X163155761Y-92558000D01*
X163108142Y-92605619D01*
X163012904Y-92748476D01*
X162965285Y-92938952D01*
X162965285Y-93319904D01*
X163012904Y-93415142D01*
X163060523Y-93462761D01*
X163155761Y-93510380D01*
X163346238Y-93510380D01*
X163441476Y-93462761D01*
X163489095Y-93415142D01*
X163536714Y-93319904D01*
X163536714Y-93081809D01*
X163489095Y-92986571D01*
X163441476Y-92938952D01*
X163346238Y-92891333D01*
X163155761Y-92891333D01*
X163060523Y-92938952D01*
X163012904Y-92986571D01*
X162965285Y-93081809D01*
%TO.C,R5*%
X170775333Y-58966380D02*
X170442000Y-58490190D01*
X170203904Y-58966380D02*
X170203904Y-57966380D01*
X170584857Y-57966380D01*
X170680095Y-58014000D01*
X170727714Y-58061619D01*
X170775333Y-58156857D01*
X170775333Y-58299714D01*
X170727714Y-58394952D01*
X170680095Y-58442571D01*
X170584857Y-58490190D01*
X170203904Y-58490190D01*
X171680095Y-57966380D02*
X171203904Y-57966380D01*
X171156285Y-58442571D01*
X171203904Y-58394952D01*
X171299142Y-58347333D01*
X171537238Y-58347333D01*
X171632476Y-58394952D01*
X171680095Y-58442571D01*
X171727714Y-58537809D01*
X171727714Y-58775904D01*
X171680095Y-58871142D01*
X171632476Y-58918761D01*
X171537238Y-58966380D01*
X171299142Y-58966380D01*
X171203904Y-58918761D01*
X171156285Y-58871142D01*
%TO.C,C4*%
X167583142Y-63920666D02*
X167630761Y-63968285D01*
X167678380Y-64111142D01*
X167678380Y-64206380D01*
X167630761Y-64349238D01*
X167535523Y-64444476D01*
X167440285Y-64492095D01*
X167249809Y-64539714D01*
X167106952Y-64539714D01*
X166916476Y-64492095D01*
X166821238Y-64444476D01*
X166726000Y-64349238D01*
X166678380Y-64206380D01*
X166678380Y-64111142D01*
X166726000Y-63968285D01*
X166773619Y-63920666D01*
X167011714Y-63063523D02*
X167678380Y-63063523D01*
X166630761Y-63301619D02*
X167345047Y-63539714D01*
X167345047Y-62920666D01*
%TO.C,C3*%
X135137142Y-113450666D02*
X135184761Y-113498285D01*
X135232380Y-113641142D01*
X135232380Y-113736380D01*
X135184761Y-113879238D01*
X135089523Y-113974476D01*
X134994285Y-114022095D01*
X134803809Y-114069714D01*
X134660952Y-114069714D01*
X134470476Y-114022095D01*
X134375238Y-113974476D01*
X134280000Y-113879238D01*
X134232380Y-113736380D01*
X134232380Y-113641142D01*
X134280000Y-113498285D01*
X134327619Y-113450666D01*
X134232380Y-113117333D02*
X134232380Y-112498285D01*
X134613333Y-112831619D01*
X134613333Y-112688761D01*
X134660952Y-112593523D01*
X134708571Y-112545904D01*
X134803809Y-112498285D01*
X135041904Y-112498285D01*
X135137142Y-112545904D01*
X135184761Y-112593523D01*
X135232380Y-112688761D01*
X135232380Y-112974476D01*
X135184761Y-113069714D01*
X135137142Y-113117333D01*
%TO.C,C2*%
X132023142Y-119292666D02*
X132070761Y-119340285D01*
X132118380Y-119483142D01*
X132118380Y-119578380D01*
X132070761Y-119721238D01*
X131975523Y-119816476D01*
X131880285Y-119864095D01*
X131689809Y-119911714D01*
X131546952Y-119911714D01*
X131356476Y-119864095D01*
X131261238Y-119816476D01*
X131166000Y-119721238D01*
X131118380Y-119578380D01*
X131118380Y-119483142D01*
X131166000Y-119340285D01*
X131213619Y-119292666D01*
X131213619Y-118911714D02*
X131166000Y-118864095D01*
X131118380Y-118768857D01*
X131118380Y-118530761D01*
X131166000Y-118435523D01*
X131213619Y-118387904D01*
X131308857Y-118340285D01*
X131404095Y-118340285D01*
X131546952Y-118387904D01*
X132118380Y-118959333D01*
X132118380Y-118340285D01*
%TO.C,U5*%
X161610380Y-54609904D02*
X162419904Y-54609904D01*
X162515142Y-54562285D01*
X162562761Y-54514666D01*
X162610380Y-54419428D01*
X162610380Y-54228952D01*
X162562761Y-54133714D01*
X162515142Y-54086095D01*
X162419904Y-54038476D01*
X161610380Y-54038476D01*
X161610380Y-53086095D02*
X161610380Y-53562285D01*
X162086571Y-53609904D01*
X162038952Y-53562285D01*
X161991333Y-53467047D01*
X161991333Y-53228952D01*
X162038952Y-53133714D01*
X162086571Y-53086095D01*
X162181809Y-53038476D01*
X162419904Y-53038476D01*
X162515142Y-53086095D01*
X162562761Y-53133714D01*
X162610380Y-53228952D01*
X162610380Y-53467047D01*
X162562761Y-53562285D01*
X162515142Y-53609904D01*
%TO.C,U4*%
X142748095Y-74039380D02*
X142748095Y-74848904D01*
X142795714Y-74944142D01*
X142843333Y-74991761D01*
X142938571Y-75039380D01*
X143129047Y-75039380D01*
X143224285Y-74991761D01*
X143271904Y-74944142D01*
X143319523Y-74848904D01*
X143319523Y-74039380D01*
X144224285Y-74372714D02*
X144224285Y-75039380D01*
X143986190Y-73991761D02*
X143748095Y-74706047D01*
X144367142Y-74706047D01*
%TO.C,U3*%
X166116095Y-95366380D02*
X166116095Y-96175904D01*
X166163714Y-96271142D01*
X166211333Y-96318761D01*
X166306571Y-96366380D01*
X166497047Y-96366380D01*
X166592285Y-96318761D01*
X166639904Y-96271142D01*
X166687523Y-96175904D01*
X166687523Y-95366380D01*
X167068476Y-95366380D02*
X167687523Y-95366380D01*
X167354190Y-95747333D01*
X167497047Y-95747333D01*
X167592285Y-95794952D01*
X167639904Y-95842571D01*
X167687523Y-95937809D01*
X167687523Y-96175904D01*
X167639904Y-96271142D01*
X167592285Y-96318761D01*
X167497047Y-96366380D01*
X167211333Y-96366380D01*
X167116095Y-96318761D01*
X167068476Y-96271142D01*
%TO.C,U2*%
X164638095Y-58690380D02*
X164638095Y-59499904D01*
X164685714Y-59595142D01*
X164733333Y-59642761D01*
X164828571Y-59690380D01*
X165019047Y-59690380D01*
X165114285Y-59642761D01*
X165161904Y-59595142D01*
X165209523Y-59499904D01*
X165209523Y-58690380D01*
X165638095Y-58785619D02*
X165685714Y-58738000D01*
X165780952Y-58690380D01*
X166019047Y-58690380D01*
X166114285Y-58738000D01*
X166161904Y-58785619D01*
X166209523Y-58880857D01*
X166209523Y-58976095D01*
X166161904Y-59118952D01*
X165590476Y-59690380D01*
X166209523Y-59690380D01*
%TO.C,U1*%
X140716095Y-131284380D02*
X140716095Y-132093904D01*
X140763714Y-132189142D01*
X140811333Y-132236761D01*
X140906571Y-132284380D01*
X141097047Y-132284380D01*
X141192285Y-132236761D01*
X141239904Y-132189142D01*
X141287523Y-132093904D01*
X141287523Y-131284380D01*
X142287523Y-132284380D02*
X141716095Y-132284380D01*
X142001809Y-132284380D02*
X142001809Y-131284380D01*
X141906571Y-131427238D01*
X141811333Y-131522476D01*
X141716095Y-131570095D01*
%TO.C,R16*%
X167992380Y-45346857D02*
X167516190Y-45680190D01*
X167992380Y-45918285D02*
X166992380Y-45918285D01*
X166992380Y-45537333D01*
X167040000Y-45442095D01*
X167087619Y-45394476D01*
X167182857Y-45346857D01*
X167325714Y-45346857D01*
X167420952Y-45394476D01*
X167468571Y-45442095D01*
X167516190Y-45537333D01*
X167516190Y-45918285D01*
X167992380Y-44394476D02*
X167992380Y-44965904D01*
X167992380Y-44680190D02*
X166992380Y-44680190D01*
X167135238Y-44775428D01*
X167230476Y-44870666D01*
X167278095Y-44965904D01*
X166992380Y-43537333D02*
X166992380Y-43727809D01*
X167040000Y-43823047D01*
X167087619Y-43870666D01*
X167230476Y-43965904D01*
X167420952Y-44013523D01*
X167801904Y-44013523D01*
X167897142Y-43965904D01*
X167944761Y-43918285D01*
X167992380Y-43823047D01*
X167992380Y-43632571D01*
X167944761Y-43537333D01*
X167897142Y-43489714D01*
X167801904Y-43442095D01*
X167563809Y-43442095D01*
X167468571Y-43489714D01*
X167420952Y-43537333D01*
X167373333Y-43632571D01*
X167373333Y-43823047D01*
X167420952Y-43918285D01*
X167468571Y-43965904D01*
X167563809Y-44013523D01*
%TO.C,R15*%
X165440380Y-46362857D02*
X164964190Y-46696190D01*
X165440380Y-46934285D02*
X164440380Y-46934285D01*
X164440380Y-46553333D01*
X164488000Y-46458095D01*
X164535619Y-46410476D01*
X164630857Y-46362857D01*
X164773714Y-46362857D01*
X164868952Y-46410476D01*
X164916571Y-46458095D01*
X164964190Y-46553333D01*
X164964190Y-46934285D01*
X165440380Y-45410476D02*
X165440380Y-45981904D01*
X165440380Y-45696190D02*
X164440380Y-45696190D01*
X164583238Y-45791428D01*
X164678476Y-45886666D01*
X164726095Y-45981904D01*
X164440380Y-44505714D02*
X164440380Y-44981904D01*
X164916571Y-45029523D01*
X164868952Y-44981904D01*
X164821333Y-44886666D01*
X164821333Y-44648571D01*
X164868952Y-44553333D01*
X164916571Y-44505714D01*
X165011809Y-44458095D01*
X165249904Y-44458095D01*
X165345142Y-44505714D01*
X165392761Y-44553333D01*
X165440380Y-44648571D01*
X165440380Y-44886666D01*
X165392761Y-44981904D01*
X165345142Y-45029523D01*
%TO.C,R14*%
X165652380Y-47632857D02*
X165176190Y-47966190D01*
X165652380Y-48204285D02*
X164652380Y-48204285D01*
X164652380Y-47823333D01*
X164700000Y-47728095D01*
X164747619Y-47680476D01*
X164842857Y-47632857D01*
X164985714Y-47632857D01*
X165080952Y-47680476D01*
X165128571Y-47728095D01*
X165176190Y-47823333D01*
X165176190Y-48204285D01*
X165652380Y-46680476D02*
X165652380Y-47251904D01*
X165652380Y-46966190D02*
X164652380Y-46966190D01*
X164795238Y-47061428D01*
X164890476Y-47156666D01*
X164938095Y-47251904D01*
X164985714Y-45823333D02*
X165652380Y-45823333D01*
X164604761Y-46061428D02*
X165319047Y-46299523D01*
X165319047Y-45680476D01*
%TO.C,R13*%
X170986380Y-47378857D02*
X170510190Y-47712190D01*
X170986380Y-47950285D02*
X169986380Y-47950285D01*
X169986380Y-47569333D01*
X170034000Y-47474095D01*
X170081619Y-47426476D01*
X170176857Y-47378857D01*
X170319714Y-47378857D01*
X170414952Y-47426476D01*
X170462571Y-47474095D01*
X170510190Y-47569333D01*
X170510190Y-47950285D01*
X170986380Y-46426476D02*
X170986380Y-46997904D01*
X170986380Y-46712190D02*
X169986380Y-46712190D01*
X170129238Y-46807428D01*
X170224476Y-46902666D01*
X170272095Y-46997904D01*
X169986380Y-46093142D02*
X169986380Y-45474095D01*
X170367333Y-45807428D01*
X170367333Y-45664571D01*
X170414952Y-45569333D01*
X170462571Y-45521714D01*
X170557809Y-45474095D01*
X170795904Y-45474095D01*
X170891142Y-45521714D01*
X170938761Y-45569333D01*
X170986380Y-45664571D01*
X170986380Y-45950285D01*
X170938761Y-46045523D01*
X170891142Y-46093142D01*
%TO.C,R12*%
X170986380Y-54998857D02*
X170510190Y-55332190D01*
X170986380Y-55570285D02*
X169986380Y-55570285D01*
X169986380Y-55189333D01*
X170034000Y-55094095D01*
X170081619Y-55046476D01*
X170176857Y-54998857D01*
X170319714Y-54998857D01*
X170414952Y-55046476D01*
X170462571Y-55094095D01*
X170510190Y-55189333D01*
X170510190Y-55570285D01*
X170986380Y-54046476D02*
X170986380Y-54617904D01*
X170986380Y-54332190D02*
X169986380Y-54332190D01*
X170129238Y-54427428D01*
X170224476Y-54522666D01*
X170272095Y-54617904D01*
X170081619Y-53665523D02*
X170034000Y-53617904D01*
X169986380Y-53522666D01*
X169986380Y-53284571D01*
X170034000Y-53189333D01*
X170081619Y-53141714D01*
X170176857Y-53094095D01*
X170272095Y-53094095D01*
X170414952Y-53141714D01*
X170986380Y-53713142D01*
X170986380Y-53094095D01*
%TO.C,R11*%
X173326380Y-45094857D02*
X172850190Y-45428190D01*
X173326380Y-45666285D02*
X172326380Y-45666285D01*
X172326380Y-45285333D01*
X172374000Y-45190095D01*
X172421619Y-45142476D01*
X172516857Y-45094857D01*
X172659714Y-45094857D01*
X172754952Y-45142476D01*
X172802571Y-45190095D01*
X172850190Y-45285333D01*
X172850190Y-45666285D01*
X173326380Y-44142476D02*
X173326380Y-44713904D01*
X173326380Y-44428190D02*
X172326380Y-44428190D01*
X172469238Y-44523428D01*
X172564476Y-44618666D01*
X172612095Y-44713904D01*
X173326380Y-43190095D02*
X173326380Y-43761523D01*
X173326380Y-43475809D02*
X172326380Y-43475809D01*
X172469238Y-43571047D01*
X172564476Y-43666285D01*
X172612095Y-43761523D01*
%TO.C,R10*%
X173326380Y-52458857D02*
X172850190Y-52792190D01*
X173326380Y-53030285D02*
X172326380Y-53030285D01*
X172326380Y-52649333D01*
X172374000Y-52554095D01*
X172421619Y-52506476D01*
X172516857Y-52458857D01*
X172659714Y-52458857D01*
X172754952Y-52506476D01*
X172802571Y-52554095D01*
X172850190Y-52649333D01*
X172850190Y-53030285D01*
X173326380Y-51506476D02*
X173326380Y-52077904D01*
X173326380Y-51792190D02*
X172326380Y-51792190D01*
X172469238Y-51887428D01*
X172564476Y-51982666D01*
X172612095Y-52077904D01*
X172326380Y-50887428D02*
X172326380Y-50792190D01*
X172374000Y-50696952D01*
X172421619Y-50649333D01*
X172516857Y-50601714D01*
X172707333Y-50554095D01*
X172945428Y-50554095D01*
X173135904Y-50601714D01*
X173231142Y-50649333D01*
X173278761Y-50696952D01*
X173326380Y-50792190D01*
X173326380Y-50887428D01*
X173278761Y-50982666D01*
X173231142Y-51030285D01*
X173135904Y-51077904D01*
X172945428Y-51125523D01*
X172707333Y-51125523D01*
X172516857Y-51077904D01*
X172421619Y-51030285D01*
X172374000Y-50982666D01*
X172326380Y-50887428D01*
%TO.C,R7*%
X161080380Y-96686666D02*
X160604190Y-97020000D01*
X161080380Y-97258095D02*
X160080380Y-97258095D01*
X160080380Y-96877142D01*
X160128000Y-96781904D01*
X160175619Y-96734285D01*
X160270857Y-96686666D01*
X160413714Y-96686666D01*
X160508952Y-96734285D01*
X160556571Y-96781904D01*
X160604190Y-96877142D01*
X160604190Y-97258095D01*
X160080380Y-96353333D02*
X160080380Y-95686666D01*
X161080380Y-96115238D01*
%TO.C,R4*%
X170775333Y-63090380D02*
X170442000Y-62614190D01*
X170203904Y-63090380D02*
X170203904Y-62090380D01*
X170584857Y-62090380D01*
X170680095Y-62138000D01*
X170727714Y-62185619D01*
X170775333Y-62280857D01*
X170775333Y-62423714D01*
X170727714Y-62518952D01*
X170680095Y-62566571D01*
X170584857Y-62614190D01*
X170203904Y-62614190D01*
X171632476Y-62423714D02*
X171632476Y-63090380D01*
X171394380Y-62042761D02*
X171156285Y-62757047D01*
X171775333Y-62757047D01*
%TO.C,R3*%
X168235333Y-89506380D02*
X167902000Y-89030190D01*
X167663904Y-89506380D02*
X167663904Y-88506380D01*
X168044857Y-88506380D01*
X168140095Y-88554000D01*
X168187714Y-88601619D01*
X168235333Y-88696857D01*
X168235333Y-88839714D01*
X168187714Y-88934952D01*
X168140095Y-88982571D01*
X168044857Y-89030190D01*
X167663904Y-89030190D01*
X168568666Y-88506380D02*
X169187714Y-88506380D01*
X168854380Y-88887333D01*
X168997238Y-88887333D01*
X169092476Y-88934952D01*
X169140095Y-88982571D01*
X169187714Y-89077809D01*
X169187714Y-89315904D01*
X169140095Y-89411142D01*
X169092476Y-89458761D01*
X168997238Y-89506380D01*
X168711523Y-89506380D01*
X168616285Y-89458761D01*
X168568666Y-89411142D01*
%TO.C,R2*%
X168235333Y-82140380D02*
X167902000Y-81664190D01*
X167663904Y-82140380D02*
X167663904Y-81140380D01*
X168044857Y-81140380D01*
X168140095Y-81188000D01*
X168187714Y-81235619D01*
X168235333Y-81330857D01*
X168235333Y-81473714D01*
X168187714Y-81568952D01*
X168140095Y-81616571D01*
X168044857Y-81664190D01*
X167663904Y-81664190D01*
X168616285Y-81235619D02*
X168663904Y-81188000D01*
X168759142Y-81140380D01*
X168997238Y-81140380D01*
X169092476Y-81188000D01*
X169140095Y-81235619D01*
X169187714Y-81330857D01*
X169187714Y-81426095D01*
X169140095Y-81568952D01*
X168568666Y-82140380D01*
X169187714Y-82140380D01*
%TO.C,R1*%
X168235333Y-75028380D02*
X167902000Y-74552190D01*
X167663904Y-75028380D02*
X167663904Y-74028380D01*
X168044857Y-74028380D01*
X168140095Y-74076000D01*
X168187714Y-74123619D01*
X168235333Y-74218857D01*
X168235333Y-74361714D01*
X168187714Y-74456952D01*
X168140095Y-74504571D01*
X168044857Y-74552190D01*
X167663904Y-74552190D01*
X169187714Y-75028380D02*
X168616285Y-75028380D01*
X168902000Y-75028380D02*
X168902000Y-74028380D01*
X168806761Y-74171238D01*
X168711523Y-74266476D01*
X168616285Y-74314095D01*
%TO.C,Q3*%
X171354761Y-86693619D02*
X171259523Y-86646000D01*
X171164285Y-86550761D01*
X171021428Y-86407904D01*
X170926190Y-86360285D01*
X170830952Y-86360285D01*
X170878571Y-86598380D02*
X170783333Y-86550761D01*
X170688095Y-86455523D01*
X170640476Y-86265047D01*
X170640476Y-85931714D01*
X170688095Y-85741238D01*
X170783333Y-85646000D01*
X170878571Y-85598380D01*
X171069047Y-85598380D01*
X171164285Y-85646000D01*
X171259523Y-85741238D01*
X171307142Y-85931714D01*
X171307142Y-86265047D01*
X171259523Y-86455523D01*
X171164285Y-86550761D01*
X171069047Y-86598380D01*
X170878571Y-86598380D01*
X171640476Y-85598380D02*
X172259523Y-85598380D01*
X171926190Y-85979333D01*
X172069047Y-85979333D01*
X172164285Y-86026952D01*
X172211904Y-86074571D01*
X172259523Y-86169809D01*
X172259523Y-86407904D01*
X172211904Y-86503142D01*
X172164285Y-86550761D01*
X172069047Y-86598380D01*
X171783333Y-86598380D01*
X171688095Y-86550761D01*
X171640476Y-86503142D01*
%TO.C,Q2*%
X171354761Y-79327619D02*
X171259523Y-79280000D01*
X171164285Y-79184761D01*
X171021428Y-79041904D01*
X170926190Y-78994285D01*
X170830952Y-78994285D01*
X170878571Y-79232380D02*
X170783333Y-79184761D01*
X170688095Y-79089523D01*
X170640476Y-78899047D01*
X170640476Y-78565714D01*
X170688095Y-78375238D01*
X170783333Y-78280000D01*
X170878571Y-78232380D01*
X171069047Y-78232380D01*
X171164285Y-78280000D01*
X171259523Y-78375238D01*
X171307142Y-78565714D01*
X171307142Y-78899047D01*
X171259523Y-79089523D01*
X171164285Y-79184761D01*
X171069047Y-79232380D01*
X170878571Y-79232380D01*
X171688095Y-78327619D02*
X171735714Y-78280000D01*
X171830952Y-78232380D01*
X172069047Y-78232380D01*
X172164285Y-78280000D01*
X172211904Y-78327619D01*
X172259523Y-78422857D01*
X172259523Y-78518095D01*
X172211904Y-78660952D01*
X171640476Y-79232380D01*
X172259523Y-79232380D01*
%TO.C,Q1*%
X171370761Y-72215619D02*
X171275523Y-72168000D01*
X171180285Y-72072761D01*
X171037428Y-71929904D01*
X170942190Y-71882285D01*
X170846952Y-71882285D01*
X170894571Y-72120380D02*
X170799333Y-72072761D01*
X170704095Y-71977523D01*
X170656476Y-71787047D01*
X170656476Y-71453714D01*
X170704095Y-71263238D01*
X170799333Y-71168000D01*
X170894571Y-71120380D01*
X171085047Y-71120380D01*
X171180285Y-71168000D01*
X171275523Y-71263238D01*
X171323142Y-71453714D01*
X171323142Y-71787047D01*
X171275523Y-71977523D01*
X171180285Y-72072761D01*
X171085047Y-72120380D01*
X170894571Y-72120380D01*
X172275523Y-72120380D02*
X171704095Y-72120380D01*
X171989809Y-72120380D02*
X171989809Y-71120380D01*
X171894571Y-71263238D01*
X171799333Y-71358476D01*
X171704095Y-71406095D01*
%TO.C,J14*%
X168100476Y-122217380D02*
X168100476Y-122931666D01*
X168052857Y-123074523D01*
X167957619Y-123169761D01*
X167814761Y-123217380D01*
X167719523Y-123217380D01*
X169100476Y-123217380D02*
X168529047Y-123217380D01*
X168814761Y-123217380D02*
X168814761Y-122217380D01*
X168719523Y-122360238D01*
X168624285Y-122455476D01*
X168529047Y-122503095D01*
X169957619Y-122550714D02*
X169957619Y-123217380D01*
X169719523Y-122169761D02*
X169481428Y-122884047D01*
X170100476Y-122884047D01*
%TO.C,J13*%
X154817476Y-111847380D02*
X154817476Y-112561666D01*
X154769857Y-112704523D01*
X154674619Y-112799761D01*
X154531761Y-112847380D01*
X154436523Y-112847380D01*
X155817476Y-112847380D02*
X155246047Y-112847380D01*
X155531761Y-112847380D02*
X155531761Y-111847380D01*
X155436523Y-111990238D01*
X155341285Y-112085476D01*
X155246047Y-112133095D01*
X156150809Y-111847380D02*
X156769857Y-111847380D01*
X156436523Y-112228333D01*
X156579380Y-112228333D01*
X156674619Y-112275952D01*
X156722238Y-112323571D01*
X156769857Y-112418809D01*
X156769857Y-112656904D01*
X156722238Y-112752142D01*
X156674619Y-112799761D01*
X156579380Y-112847380D01*
X156293666Y-112847380D01*
X156198428Y-112799761D01*
X156150809Y-112752142D01*
%TO.C,J12*%
X132286476Y-123614380D02*
X132286476Y-124328666D01*
X132238857Y-124471523D01*
X132143619Y-124566761D01*
X132000761Y-124614380D01*
X131905523Y-124614380D01*
X133286476Y-124614380D02*
X132715047Y-124614380D01*
X133000761Y-124614380D02*
X133000761Y-123614380D01*
X132905523Y-123757238D01*
X132810285Y-123852476D01*
X132715047Y-123900095D01*
X133667428Y-123709619D02*
X133715047Y-123662000D01*
X133810285Y-123614380D01*
X134048380Y-123614380D01*
X134143619Y-123662000D01*
X134191238Y-123709619D01*
X134238857Y-123804857D01*
X134238857Y-123900095D01*
X134191238Y-124042952D01*
X133619809Y-124614380D01*
X134238857Y-124614380D01*
%TO.C,J11*%
X176228476Y-92372380D02*
X176228476Y-93086666D01*
X176180857Y-93229523D01*
X176085619Y-93324761D01*
X175942761Y-93372380D01*
X175847523Y-93372380D01*
X177228476Y-93372380D02*
X176657047Y-93372380D01*
X176942761Y-93372380D02*
X176942761Y-92372380D01*
X176847523Y-92515238D01*
X176752285Y-92610476D01*
X176657047Y-92658095D01*
X178180857Y-93372380D02*
X177609428Y-93372380D01*
X177895142Y-93372380D02*
X177895142Y-92372380D01*
X177799904Y-92515238D01*
X177704666Y-92610476D01*
X177609428Y-92658095D01*
%TO.C,J10*%
X168100476Y-106850380D02*
X168100476Y-107564666D01*
X168052857Y-107707523D01*
X167957619Y-107802761D01*
X167814761Y-107850380D01*
X167719523Y-107850380D01*
X169100476Y-107850380D02*
X168529047Y-107850380D01*
X168814761Y-107850380D02*
X168814761Y-106850380D01*
X168719523Y-106993238D01*
X168624285Y-107088476D01*
X168529047Y-107136095D01*
X169719523Y-106850380D02*
X169814761Y-106850380D01*
X169910000Y-106898000D01*
X169957619Y-106945619D01*
X170005238Y-107040857D01*
X170052857Y-107231333D01*
X170052857Y-107469428D01*
X170005238Y-107659904D01*
X169957619Y-107755142D01*
X169910000Y-107802761D01*
X169814761Y-107850380D01*
X169719523Y-107850380D01*
X169624285Y-107802761D01*
X169576666Y-107755142D01*
X169529047Y-107659904D01*
X169481428Y-107469428D01*
X169481428Y-107231333D01*
X169529047Y-107040857D01*
X169576666Y-106945619D01*
X169624285Y-106898000D01*
X169719523Y-106850380D01*
%TO.C,J9*%
X176450666Y-104310380D02*
X176450666Y-105024666D01*
X176403047Y-105167523D01*
X176307809Y-105262761D01*
X176164952Y-105310380D01*
X176069714Y-105310380D01*
X176974476Y-105310380D02*
X177164952Y-105310380D01*
X177260190Y-105262761D01*
X177307809Y-105215142D01*
X177403047Y-105072285D01*
X177450666Y-104881809D01*
X177450666Y-104500857D01*
X177403047Y-104405619D01*
X177355428Y-104358000D01*
X177260190Y-104310380D01*
X177069714Y-104310380D01*
X176974476Y-104358000D01*
X176926857Y-104405619D01*
X176879238Y-104500857D01*
X176879238Y-104738952D01*
X176926857Y-104834190D01*
X176974476Y-104881809D01*
X177069714Y-104929428D01*
X177260190Y-104929428D01*
X177355428Y-104881809D01*
X177403047Y-104834190D01*
X177450666Y-104738952D01*
%TO.C,J8*%
X176450666Y-118534380D02*
X176450666Y-119248666D01*
X176403047Y-119391523D01*
X176307809Y-119486761D01*
X176164952Y-119534380D01*
X176069714Y-119534380D01*
X177069714Y-118962952D02*
X176974476Y-118915333D01*
X176926857Y-118867714D01*
X176879238Y-118772476D01*
X176879238Y-118724857D01*
X176926857Y-118629619D01*
X176974476Y-118582000D01*
X177069714Y-118534380D01*
X177260190Y-118534380D01*
X177355428Y-118582000D01*
X177403047Y-118629619D01*
X177450666Y-118724857D01*
X177450666Y-118772476D01*
X177403047Y-118867714D01*
X177355428Y-118915333D01*
X177260190Y-118962952D01*
X177069714Y-118962952D01*
X176974476Y-119010571D01*
X176926857Y-119058190D01*
X176879238Y-119153428D01*
X176879238Y-119343904D01*
X176926857Y-119439142D01*
X176974476Y-119486761D01*
X177069714Y-119534380D01*
X177260190Y-119534380D01*
X177355428Y-119486761D01*
X177403047Y-119439142D01*
X177450666Y-119343904D01*
X177450666Y-119153428D01*
X177403047Y-119058190D01*
X177355428Y-119010571D01*
X177260190Y-118962952D01*
%TO.C,J7*%
X177212666Y-56304380D02*
X177212666Y-57018666D01*
X177165047Y-57161523D01*
X177069809Y-57256761D01*
X176926952Y-57304380D01*
X176831714Y-57304380D01*
X177593619Y-56304380D02*
X178260285Y-56304380D01*
X177831714Y-57304380D01*
%TO.C,J6*%
X160956666Y-68242380D02*
X160956666Y-68956666D01*
X160909047Y-69099523D01*
X160813809Y-69194761D01*
X160670952Y-69242380D01*
X160575714Y-69242380D01*
X161861428Y-68242380D02*
X161670952Y-68242380D01*
X161575714Y-68290000D01*
X161528095Y-68337619D01*
X161432857Y-68480476D01*
X161385238Y-68670952D01*
X161385238Y-69051904D01*
X161432857Y-69147142D01*
X161480476Y-69194761D01*
X161575714Y-69242380D01*
X161766190Y-69242380D01*
X161861428Y-69194761D01*
X161909047Y-69147142D01*
X161956666Y-69051904D01*
X161956666Y-68813809D01*
X161909047Y-68718571D01*
X161861428Y-68670952D01*
X161766190Y-68623333D01*
X161575714Y-68623333D01*
X161480476Y-68670952D01*
X161432857Y-68718571D01*
X161385238Y-68813809D01*
%TO.C,J5*%
X176958666Y-85260380D02*
X176958666Y-85974666D01*
X176911047Y-86117523D01*
X176815809Y-86212761D01*
X176672952Y-86260380D01*
X176577714Y-86260380D01*
X177911047Y-85260380D02*
X177434857Y-85260380D01*
X177387238Y-85736571D01*
X177434857Y-85688952D01*
X177530095Y-85641333D01*
X177768190Y-85641333D01*
X177863428Y-85688952D01*
X177911047Y-85736571D01*
X177958666Y-85831809D01*
X177958666Y-86069904D01*
X177911047Y-86165142D01*
X177863428Y-86212761D01*
X177768190Y-86260380D01*
X177530095Y-86260380D01*
X177434857Y-86212761D01*
X177387238Y-86165142D01*
%TO.C,J4*%
X176958666Y-77640380D02*
X176958666Y-78354666D01*
X176911047Y-78497523D01*
X176815809Y-78592761D01*
X176672952Y-78640380D01*
X176577714Y-78640380D01*
X177863428Y-77973714D02*
X177863428Y-78640380D01*
X177625333Y-77592761D02*
X177387238Y-78307047D01*
X178006285Y-78307047D01*
%TO.C,J3*%
X177212666Y-70528380D02*
X177212666Y-71242666D01*
X177165047Y-71385523D01*
X177069809Y-71480761D01*
X176926952Y-71528380D01*
X176831714Y-71528380D01*
X177593619Y-70528380D02*
X178212666Y-70528380D01*
X177879333Y-70909333D01*
X178022190Y-70909333D01*
X178117428Y-70956952D01*
X178165047Y-71004571D01*
X178212666Y-71099809D01*
X178212666Y-71337904D01*
X178165047Y-71433142D01*
X178117428Y-71480761D01*
X178022190Y-71528380D01*
X177736476Y-71528380D01*
X177641238Y-71480761D01*
X177593619Y-71433142D01*
%TO.C,J2*%
X177212666Y-48938380D02*
X177212666Y-49652666D01*
X177165047Y-49795523D01*
X177069809Y-49890761D01*
X176926952Y-49938380D01*
X176831714Y-49938380D01*
X177641238Y-49033619D02*
X177688857Y-48986000D01*
X177784095Y-48938380D01*
X178022190Y-48938380D01*
X178117428Y-48986000D01*
X178165047Y-49033619D01*
X178212666Y-49128857D01*
X178212666Y-49224095D01*
X178165047Y-49366952D01*
X177593619Y-49938380D01*
X178212666Y-49938380D01*
%TO.C,J1*%
X177212666Y-41572380D02*
X177212666Y-42286666D01*
X177165047Y-42429523D01*
X177069809Y-42524761D01*
X176926952Y-42572380D01*
X176831714Y-42572380D01*
X178212666Y-42572380D02*
X177641238Y-42572380D01*
X177926952Y-42572380D02*
X177926952Y-41572380D01*
X177831714Y-41715238D01*
X177736476Y-41810476D01*
X177641238Y-41858095D01*
%TO.C,D3*%
X167181404Y-91544380D02*
X167181404Y-90544380D01*
X167419500Y-90544380D01*
X167562357Y-90592000D01*
X167657595Y-90687238D01*
X167705214Y-90782476D01*
X167752833Y-90972952D01*
X167752833Y-91115809D01*
X167705214Y-91306285D01*
X167657595Y-91401523D01*
X167562357Y-91496761D01*
X167419500Y-91544380D01*
X167181404Y-91544380D01*
X168086166Y-90544380D02*
X168705214Y-90544380D01*
X168371880Y-90925333D01*
X168514738Y-90925333D01*
X168609976Y-90972952D01*
X168657595Y-91020571D01*
X168705214Y-91115809D01*
X168705214Y-91353904D01*
X168657595Y-91449142D01*
X168609976Y-91496761D01*
X168514738Y-91544380D01*
X168229023Y-91544380D01*
X168133785Y-91496761D01*
X168086166Y-91449142D01*
%TO.C,D2*%
X167155904Y-84178380D02*
X167155904Y-83178380D01*
X167394000Y-83178380D01*
X167536857Y-83226000D01*
X167632095Y-83321238D01*
X167679714Y-83416476D01*
X167727333Y-83606952D01*
X167727333Y-83749809D01*
X167679714Y-83940285D01*
X167632095Y-84035523D01*
X167536857Y-84130761D01*
X167394000Y-84178380D01*
X167155904Y-84178380D01*
X168108285Y-83273619D02*
X168155904Y-83226000D01*
X168251142Y-83178380D01*
X168489238Y-83178380D01*
X168584476Y-83226000D01*
X168632095Y-83273619D01*
X168679714Y-83368857D01*
X168679714Y-83464095D01*
X168632095Y-83606952D01*
X168060666Y-84178380D01*
X168679714Y-84178380D01*
%TO.C,D1*%
X167155904Y-77066380D02*
X167155904Y-76066380D01*
X167394000Y-76066380D01*
X167536857Y-76114000D01*
X167632095Y-76209238D01*
X167679714Y-76304476D01*
X167727333Y-76494952D01*
X167727333Y-76637809D01*
X167679714Y-76828285D01*
X167632095Y-76923523D01*
X167536857Y-77018761D01*
X167394000Y-77066380D01*
X167155904Y-77066380D01*
X168679714Y-77066380D02*
X168108285Y-77066380D01*
X168394000Y-77066380D02*
X168394000Y-76066380D01*
X168298761Y-76209238D01*
X168203523Y-76304476D01*
X168108285Y-76352095D01*
%TO.C,C14*%
X169157142Y-44076857D02*
X169204761Y-44124476D01*
X169252380Y-44267333D01*
X169252380Y-44362571D01*
X169204761Y-44505428D01*
X169109523Y-44600666D01*
X169014285Y-44648285D01*
X168823809Y-44695904D01*
X168680952Y-44695904D01*
X168490476Y-44648285D01*
X168395238Y-44600666D01*
X168300000Y-44505428D01*
X168252380Y-44362571D01*
X168252380Y-44267333D01*
X168300000Y-44124476D01*
X168347619Y-44076857D01*
X169252380Y-43124476D02*
X169252380Y-43695904D01*
X169252380Y-43410190D02*
X168252380Y-43410190D01*
X168395238Y-43505428D01*
X168490476Y-43600666D01*
X168538095Y-43695904D01*
X168585714Y-42267333D02*
X169252380Y-42267333D01*
X168204761Y-42505428D02*
X168919047Y-42743523D01*
X168919047Y-42124476D01*
%TO.C,C13*%
X169157142Y-46362857D02*
X169204761Y-46410476D01*
X169252380Y-46553333D01*
X169252380Y-46648571D01*
X169204761Y-46791428D01*
X169109523Y-46886666D01*
X169014285Y-46934285D01*
X168823809Y-46981904D01*
X168680952Y-46981904D01*
X168490476Y-46934285D01*
X168395238Y-46886666D01*
X168300000Y-46791428D01*
X168252380Y-46648571D01*
X168252380Y-46553333D01*
X168300000Y-46410476D01*
X168347619Y-46362857D01*
X169252380Y-45410476D02*
X169252380Y-45981904D01*
X169252380Y-45696190D02*
X168252380Y-45696190D01*
X168395238Y-45791428D01*
X168490476Y-45886666D01*
X168538095Y-45981904D01*
X168252380Y-45077142D02*
X168252380Y-44458095D01*
X168633333Y-44791428D01*
X168633333Y-44648571D01*
X168680952Y-44553333D01*
X168728571Y-44505714D01*
X168823809Y-44458095D01*
X169061904Y-44458095D01*
X169157142Y-44505714D01*
X169204761Y-44553333D01*
X169252380Y-44648571D01*
X169252380Y-44934285D01*
X169204761Y-45029523D01*
X169157142Y-45077142D01*
%TO.C,C12*%
X169157142Y-48648857D02*
X169204761Y-48696476D01*
X169252380Y-48839333D01*
X169252380Y-48934571D01*
X169204761Y-49077428D01*
X169109523Y-49172666D01*
X169014285Y-49220285D01*
X168823809Y-49267904D01*
X168680952Y-49267904D01*
X168490476Y-49220285D01*
X168395238Y-49172666D01*
X168300000Y-49077428D01*
X168252380Y-48934571D01*
X168252380Y-48839333D01*
X168300000Y-48696476D01*
X168347619Y-48648857D01*
X169252380Y-47696476D02*
X169252380Y-48267904D01*
X169252380Y-47982190D02*
X168252380Y-47982190D01*
X168395238Y-48077428D01*
X168490476Y-48172666D01*
X168538095Y-48267904D01*
X168347619Y-47315523D02*
X168300000Y-47267904D01*
X168252380Y-47172666D01*
X168252380Y-46934571D01*
X168300000Y-46839333D01*
X168347619Y-46791714D01*
X168442857Y-46744095D01*
X168538095Y-46744095D01*
X168680952Y-46791714D01*
X169252380Y-47363142D01*
X169252380Y-46744095D01*
%TO.C,C11*%
X169631142Y-48648857D02*
X169678761Y-48696476D01*
X169726380Y-48839333D01*
X169726380Y-48934571D01*
X169678761Y-49077428D01*
X169583523Y-49172666D01*
X169488285Y-49220285D01*
X169297809Y-49267904D01*
X169154952Y-49267904D01*
X168964476Y-49220285D01*
X168869238Y-49172666D01*
X168774000Y-49077428D01*
X168726380Y-48934571D01*
X168726380Y-48839333D01*
X168774000Y-48696476D01*
X168821619Y-48648857D01*
X169726380Y-47696476D02*
X169726380Y-48267904D01*
X169726380Y-47982190D02*
X168726380Y-47982190D01*
X168869238Y-48077428D01*
X168964476Y-48172666D01*
X169012095Y-48267904D01*
X169726380Y-46744095D02*
X169726380Y-47315523D01*
X169726380Y-47029809D02*
X168726380Y-47029809D01*
X168869238Y-47125047D01*
X168964476Y-47220285D01*
X169012095Y-47315523D01*
%TO.C,C10*%
X169631142Y-56014857D02*
X169678761Y-56062476D01*
X169726380Y-56205333D01*
X169726380Y-56300571D01*
X169678761Y-56443428D01*
X169583523Y-56538666D01*
X169488285Y-56586285D01*
X169297809Y-56633904D01*
X169154952Y-56633904D01*
X168964476Y-56586285D01*
X168869238Y-56538666D01*
X168774000Y-56443428D01*
X168726380Y-56300571D01*
X168726380Y-56205333D01*
X168774000Y-56062476D01*
X168821619Y-56014857D01*
X169726380Y-55062476D02*
X169726380Y-55633904D01*
X169726380Y-55348190D02*
X168726380Y-55348190D01*
X168869238Y-55443428D01*
X168964476Y-55538666D01*
X169012095Y-55633904D01*
X168726380Y-54443428D02*
X168726380Y-54348190D01*
X168774000Y-54252952D01*
X168821619Y-54205333D01*
X168916857Y-54157714D01*
X169107333Y-54110095D01*
X169345428Y-54110095D01*
X169535904Y-54157714D01*
X169631142Y-54205333D01*
X169678761Y-54252952D01*
X169726380Y-54348190D01*
X169726380Y-54443428D01*
X169678761Y-54538666D01*
X169631142Y-54586285D01*
X169535904Y-54633904D01*
X169345428Y-54681523D01*
X169107333Y-54681523D01*
X168916857Y-54633904D01*
X168821619Y-54586285D01*
X168774000Y-54538666D01*
X168726380Y-54443428D01*
%TO.C,C9*%
X162807142Y-52490666D02*
X162854761Y-52538285D01*
X162902380Y-52681142D01*
X162902380Y-52776380D01*
X162854761Y-52919238D01*
X162759523Y-53014476D01*
X162664285Y-53062095D01*
X162473809Y-53109714D01*
X162330952Y-53109714D01*
X162140476Y-53062095D01*
X162045238Y-53014476D01*
X161950000Y-52919238D01*
X161902380Y-52776380D01*
X161902380Y-52681142D01*
X161950000Y-52538285D01*
X161997619Y-52490666D01*
X162902380Y-52014476D02*
X162902380Y-51824000D01*
X162854761Y-51728761D01*
X162807142Y-51681142D01*
X162664285Y-51585904D01*
X162473809Y-51538285D01*
X162092857Y-51538285D01*
X161997619Y-51585904D01*
X161950000Y-51633523D01*
X161902380Y-51728761D01*
X161902380Y-51919238D01*
X161950000Y-52014476D01*
X161997619Y-52062095D01*
X162092857Y-52109714D01*
X162330952Y-52109714D01*
X162426190Y-52062095D01*
X162473809Y-52014476D01*
X162521428Y-51919238D01*
X162521428Y-51728761D01*
X162473809Y-51633523D01*
X162426190Y-51585904D01*
X162330952Y-51538285D01*
%TO.C,C8*%
X169631142Y-45858666D02*
X169678761Y-45906285D01*
X169726380Y-46049142D01*
X169726380Y-46144380D01*
X169678761Y-46287238D01*
X169583523Y-46382476D01*
X169488285Y-46430095D01*
X169297809Y-46477714D01*
X169154952Y-46477714D01*
X168964476Y-46430095D01*
X168869238Y-46382476D01*
X168774000Y-46287238D01*
X168726380Y-46144380D01*
X168726380Y-46049142D01*
X168774000Y-45906285D01*
X168821619Y-45858666D01*
X169154952Y-45287238D02*
X169107333Y-45382476D01*
X169059714Y-45430095D01*
X168964476Y-45477714D01*
X168916857Y-45477714D01*
X168821619Y-45430095D01*
X168774000Y-45382476D01*
X168726380Y-45287238D01*
X168726380Y-45096761D01*
X168774000Y-45001523D01*
X168821619Y-44953904D01*
X168916857Y-44906285D01*
X168964476Y-44906285D01*
X169059714Y-44953904D01*
X169107333Y-45001523D01*
X169154952Y-45096761D01*
X169154952Y-45287238D01*
X169202571Y-45382476D01*
X169250190Y-45430095D01*
X169345428Y-45477714D01*
X169535904Y-45477714D01*
X169631142Y-45430095D01*
X169678761Y-45382476D01*
X169726380Y-45287238D01*
X169726380Y-45096761D01*
X169678761Y-45001523D01*
X169631142Y-44953904D01*
X169535904Y-44906285D01*
X169345428Y-44906285D01*
X169250190Y-44953904D01*
X169202571Y-45001523D01*
X169154952Y-45096761D01*
%TO.C,C7*%
X169631142Y-53280666D02*
X169678761Y-53328285D01*
X169726380Y-53471142D01*
X169726380Y-53566380D01*
X169678761Y-53709238D01*
X169583523Y-53804476D01*
X169488285Y-53852095D01*
X169297809Y-53899714D01*
X169154952Y-53899714D01*
X168964476Y-53852095D01*
X168869238Y-53804476D01*
X168774000Y-53709238D01*
X168726380Y-53566380D01*
X168726380Y-53471142D01*
X168774000Y-53328285D01*
X168821619Y-53280666D01*
X168726380Y-52947333D02*
X168726380Y-52280666D01*
X169726380Y-52709238D01*
%TO.C,C6*%
X169631142Y-43600666D02*
X169678761Y-43648285D01*
X169726380Y-43791142D01*
X169726380Y-43886380D01*
X169678761Y-44029238D01*
X169583523Y-44124476D01*
X169488285Y-44172095D01*
X169297809Y-44219714D01*
X169154952Y-44219714D01*
X168964476Y-44172095D01*
X168869238Y-44124476D01*
X168774000Y-44029238D01*
X168726380Y-43886380D01*
X168726380Y-43791142D01*
X168774000Y-43648285D01*
X168821619Y-43600666D01*
X168726380Y-42743523D02*
X168726380Y-42934000D01*
X168774000Y-43029238D01*
X168821619Y-43076857D01*
X168964476Y-43172095D01*
X169154952Y-43219714D01*
X169535904Y-43219714D01*
X169631142Y-43172095D01*
X169678761Y-43124476D01*
X169726380Y-43029238D01*
X169726380Y-42838761D01*
X169678761Y-42743523D01*
X169631142Y-42695904D01*
X169535904Y-42648285D01*
X169297809Y-42648285D01*
X169202571Y-42695904D01*
X169154952Y-42743523D01*
X169107333Y-42838761D01*
X169107333Y-43029238D01*
X169154952Y-43124476D01*
X169202571Y-43172095D01*
X169297809Y-43219714D01*
%TO.C,C5*%
X169631142Y-50966666D02*
X169678761Y-51014285D01*
X169726380Y-51157142D01*
X169726380Y-51252380D01*
X169678761Y-51395238D01*
X169583523Y-51490476D01*
X169488285Y-51538095D01*
X169297809Y-51585714D01*
X169154952Y-51585714D01*
X168964476Y-51538095D01*
X168869238Y-51490476D01*
X168774000Y-51395238D01*
X168726380Y-51252380D01*
X168726380Y-51157142D01*
X168774000Y-51014285D01*
X168821619Y-50966666D01*
X168726380Y-50061904D02*
X168726380Y-50538095D01*
X169202571Y-50585714D01*
X169154952Y-50538095D01*
X169107333Y-50442857D01*
X169107333Y-50204761D01*
X169154952Y-50109523D01*
X169202571Y-50061904D01*
X169297809Y-50014285D01*
X169535904Y-50014285D01*
X169631142Y-50061904D01*
X169678761Y-50109523D01*
X169726380Y-50204761D01*
X169726380Y-50442857D01*
X169678761Y-50538095D01*
X169631142Y-50585714D01*
%TO.C,C1*%
X160487142Y-54522666D02*
X160534761Y-54570285D01*
X160582380Y-54713142D01*
X160582380Y-54808380D01*
X160534761Y-54951238D01*
X160439523Y-55046476D01*
X160344285Y-55094095D01*
X160153809Y-55141714D01*
X160010952Y-55141714D01*
X159820476Y-55094095D01*
X159725238Y-55046476D01*
X159630000Y-54951238D01*
X159582380Y-54808380D01*
X159582380Y-54713142D01*
X159630000Y-54570285D01*
X159677619Y-54522666D01*
X160582380Y-53570285D02*
X160582380Y-54141714D01*
X160582380Y-53856000D02*
X159582380Y-53856000D01*
X159725238Y-53951238D01*
X159820476Y-54046476D01*
X159868095Y-54141714D01*
%TD*%
M02*
